<svg width="300" height="249" viewBox="0 0 300 249" fill="none" xmlns="http://www.w3.org/2000/svg">
<g id="avatar">
<path id="peel" d="M276.84 20.7219L265.386 26.0795C263.433 26.9999 261.908 28.636 261.124 30.6503C260.341 32.6645 260.359 34.9033 261.175 36.9045C273.342 67.5577 273.732 101.642 262.27 132.566C250.808 163.491 228.307 189.06 199.119 204.329C169.931 219.599 136.129 223.484 104.247 215.235C72.365 206.985 44.6686 187.186 26.5125 159.666C25.3346 157.861 23.5113 156.576 21.4171 156.075C19.3229 155.575 17.1169 155.897 15.2523 156.975L4.30367 163.311C3.31386 163.881 2.44996 164.646 1.76445 165.561C1.07895 166.475 0.586137 167.519 0.315962 168.63C0.0457865 169.742 0.00388468 170.896 0.192801 172.024C0.381718 173.152 0.79751 174.229 1.41492 175.191C44.9398 241.921 131.956 268.178 206.129 233.484C284.765 196.731 320.255 104.951 288.235 25.2611C287.812 24.1912 287.175 23.2193 286.364 22.405C285.552 21.5907 284.583 20.9514 283.516 20.5262C282.448 20.1011 281.306 19.8991 280.157 19.9327C279.009 19.9664 277.88 20.235 276.84 20.7219Z" fill="#78C45B"/>
<g id="slices">
<path id="slice-pink" d="M224.438 44.9874L159.327 75.4037C157.762 76.136 156.459 77.3329 155.595 78.8323C154.732 80.3316 154.349 82.0608 154.5 83.7853C154.651 85.5097 155.327 87.1459 156.438 88.472C157.549 89.7981 159.04 90.7499 160.709 91.1982L227.2 109.051C229.696 109.72 232.311 109.805 234.845 109.3C237.378 108.794 239.762 107.712 241.811 106.136C243.86 104.561 245.52 102.534 246.662 100.213C247.804 97.8917 248.398 95.3385 248.399 92.7507V60.2842C248.399 57.4468 247.685 54.6552 246.323 52.1674C244.961 49.6796 242.995 47.5761 240.607 46.0513C238.218 44.5264 235.485 43.6296 232.658 43.4436C229.832 43.2577 227.005 43.7887 224.438 44.9874V44.9874ZM182.067 89.7639C177.662 90.152 164.869 87.6715 164.49 83.2672C164.111 78.863 176.281 74.1803 180.669 73.8006C182.749 73.676 184.795 74.369 186.373 75.7324C187.95 77.0957 188.935 79.0218 189.117 81.1011C189.299 83.1805 188.664 85.2489 187.348 86.8667C186.031 88.4844 184.136 89.5238 182.067 89.7639V89.7639Z" fill="#EB3B98"/>
<path id="slice-yellow" d="M226.644 118.645L159.134 94.0247C157.509 93.4321 155.742 93.3546 154.072 93.8028C152.402 94.251 150.911 95.2032 149.799 96.5301C148.688 97.8569 148.012 99.4942 147.862 101.22C147.711 102.945 148.095 104.675 148.96 106.174L183.381 165.902C184.673 168.14 186.462 170.05 188.608 171.486C190.755 172.921 193.202 173.844 195.761 174.181C198.32 174.519 200.922 174.263 203.367 173.433C205.811 172.603 208.033 171.221 209.859 169.395L232.793 146.437C234.796 144.431 236.262 141.951 237.055 139.227C237.848 136.502 237.943 133.621 237.33 130.851C236.717 128.08 235.417 125.509 233.549 123.376C231.681 121.242 229.306 119.615 226.644 118.645V118.645ZM176.112 117.447C174.75 119.075 172.797 120.095 170.684 120.282C168.571 120.468 166.47 119.807 164.844 118.442C161.475 115.599 154.165 104.782 157.003 101.39C159.841 97.9987 171.741 103.314 175.127 106.157C175.933 106.833 176.598 107.661 177.084 108.594C177.57 109.527 177.868 110.547 177.96 111.596C178.053 112.644 177.938 113.701 177.622 114.705C177.307 115.709 176.796 116.64 176.121 117.447H176.112Z" fill="#FDE047"/>
<path id="slice-orange" d="M176.567 172.289L146.206 107.06C145.473 105.492 144.276 104.188 142.778 103.325C141.279 102.461 139.552 102.081 137.83 102.235C136.109 102.388 134.476 103.069 133.154 104.185C131.832 105.3 130.884 106.796 130.44 108.469L112.619 175.081C111.951 177.581 111.866 180.201 112.371 182.739C112.875 185.277 113.956 187.665 115.529 189.718C117.102 191.771 119.125 193.434 121.442 194.578C123.759 195.723 126.307 196.318 128.89 196.318H161.298C164.134 196.32 166.924 195.605 169.41 194.24C171.897 192.874 173.999 190.901 175.521 188.505C177.044 186.109 177.938 183.366 178.121 180.531C178.304 177.696 177.77 174.861 176.567 172.289V172.289ZM140.538 136.253C139.492 136.346 138.437 136.231 137.435 135.915C136.433 135.599 135.503 135.088 134.698 134.412C133.893 133.736 133.229 132.907 132.744 131.974C132.259 131.04 131.963 130.02 131.872 128.972C131.484 124.559 133.96 111.743 138.357 111.363C142.753 110.984 147.427 123.175 147.806 127.571C147.991 129.688 147.329 131.791 145.966 133.419C144.603 135.047 142.651 136.067 140.538 136.253V136.253Z" fill="#F9A140"/>
<path id="slice-red" d="M115.533 95.8133L55.8715 130.313C53.6333 131.606 51.722 133.398 50.2854 135.549C48.8488 137.7 47.9255 140.154 47.5868 142.72C47.2481 145.286 47.5031 147.895 48.3322 150.347C49.1613 152.798 50.5421 155.026 52.368 156.857L75.2843 179.815C77.2868 181.822 79.7622 183.29 82.4816 184.085C85.201 184.88 88.0765 184.974 90.8421 184.36C93.6077 183.746 96.174 182.443 98.3037 180.572C100.433 178.701 102.058 176.322 103.026 173.655L127.602 106.022C128.186 104.401 128.261 102.64 127.816 100.975C127.371 99.3104 126.428 97.822 125.114 96.7101C123.8 95.5982 122.177 94.9163 120.464 94.756C118.751 94.5956 117.03 94.9646 115.533 95.8133V95.8133ZM113.849 122.036C112.485 123.665 110.531 124.685 108.417 124.871C106.303 125.057 104.202 124.394 102.576 123.028C100.95 121.662 99.9319 119.704 99.7463 117.586C99.5607 115.468 100.223 113.363 101.586 111.734C104.424 108.36 115.221 101.036 118.607 103.879C121.993 106.723 116.662 118.661 113.849 122.053V122.036Z" fill="#F04A4E"/>
</g>
<g id="leaves">
<path id="leaf-right" d="M177.089 2.26959C176.599 1.57051 175.934 1.01251 175.161 0.651272C174.388 0.290032 173.535 0.138189 172.685 0.210898C165.433 0.835254 145.515 4.70795 134.6 28.1551C124.814 49.1722 131.703 65.6249 136.285 73.1087C137.148 74.5449 138.42 75.6908 139.936 76.4001C141.453 77.1094 143.146 77.35 144.799 77.0911C153.432 75.7664 170.419 70.5016 180.197 49.4591C191.121 26.012 181.275 8.23472 177.089 2.26959Z" fill="#78C45B"/>
<path id="leaf-left" d="M34.2776 33.8165C33.2212 34.5798 32.3763 35.5999 31.8223 36.7808C31.2683 37.9617 31.0234 39.2644 31.1109 40.5663C31.8015 50.5475 36.4504 76.0027 65.2874 89.6035C94.1243 103.204 116.662 90.4472 124.789 84.6509C125.846 83.8888 126.691 82.8686 127.244 81.6873C127.797 80.5059 128.039 79.2025 127.947 77.9011C127.265 67.9198 122.616 42.4646 93.7706 28.8554C64.9252 15.2461 42.3879 27.9694 34.2776 33.8165Z" fill="#78C45B"/>
</g>
</g>
</svg>
