<svg width="144" height="144" viewBox="0 0 144 144" fill="none" xmlns="http://www.w3.org/2000/svg">
<g id="favicon">
<path id="peel" d="M132.883 21.9465L127.385 24.5182C126.448 24.96 125.716 25.7453 125.34 26.7121C124.963 27.679 124.972 28.7536 125.364 29.7142C131.204 44.4277 131.391 60.7879 125.889 75.6317C120.388 90.4755 109.588 102.749 95.5773 110.078C81.567 117.407 65.3417 119.272 50.0385 115.313C34.7352 111.353 21.4409 101.849 12.726 88.6399C12.1606 87.7733 11.2854 87.1564 10.2802 86.9162C9.27502 86.6759 8.21612 86.8304 7.3211 87.348L2.06577 90.3894C1.59066 90.6628 1.17599 91.0302 0.846945 91.4691C0.517901 91.908 0.281353 92.4093 0.151669 92.9426C0.0219849 93.4759 0.00187197 94.0301 0.0925519 94.5714C0.183232 95.1128 0.382812 95.63 0.679169 96.0917C21.5711 128.122 63.3389 140.725 98.9417 124.072C136.687 106.431 153.722 62.3764 138.353 24.1253C138.15 23.6118 137.844 23.1453 137.455 22.7544C137.065 22.3636 136.6 22.0567 136.088 21.8526C135.575 21.6485 135.027 21.5516 134.476 21.5677C133.925 21.5839 133.383 21.7128 132.883 21.9465Z" fill="#78C45B"/>
<g id="slices">
<path id="slice-pink" d="M107.73 33.5939L76.4771 48.1938C75.7256 48.5452 75.1001 49.1198 74.6856 49.8395C74.2711 50.5592 74.0876 51.3892 74.16 52.2169C74.2324 53.0446 74.5572 53.83 75.0903 54.4665C75.6234 55.1031 76.339 55.5599 77.1401 55.7751L109.056 64.3447C110.254 64.6658 111.509 64.7066 112.725 64.464C113.941 64.2213 115.086 63.7017 116.069 62.9454C117.053 62.1891 117.849 61.2162 118.398 60.1021C118.946 58.988 119.231 57.7625 119.231 56.5203V40.9364C119.231 39.5745 118.889 38.2345 118.235 37.0403C117.581 35.8462 116.638 34.8365 115.491 34.1046C114.345 33.3727 113.033 32.9422 111.676 32.8529C110.319 32.7637 108.962 33.0185 107.73 33.5939V33.5939ZM87.392 55.0867C85.2778 55.273 79.1371 54.0823 78.9552 51.9682C78.7733 49.8542 84.6148 47.6065 86.721 47.4243C87.7193 47.3644 88.7015 47.6971 89.4588 48.3515C90.2161 49.0059 90.6887 49.9305 90.7761 50.9285C90.8635 51.9266 90.5588 52.9195 89.9269 53.696C89.2949 54.4725 88.3855 54.9714 87.392 55.0867V55.0867Z" fill="#EB3B98"/>
<path id="slice-yellow" d="M108.789 68.9494L76.3841 57.1318C75.6044 56.8473 74.7562 56.8102 73.9546 57.0253C73.1531 57.2404 72.437 57.6975 71.9037 58.3344C71.3704 58.9713 71.0456 59.7572 70.9735 60.5853C70.9014 61.4135 71.0855 62.2439 71.5007 62.9636L88.0227 91.6327C88.6431 92.707 89.5016 93.6241 90.532 94.3132C91.5624 95.0023 92.7371 95.4449 93.9654 95.6069C95.1937 95.769 96.4427 95.6461 97.616 95.2477C98.7893 94.8493 99.8556 94.1862 100.732 93.3094L111.74 82.2897C112.702 81.3267 113.406 80.1363 113.786 78.8287C114.167 77.521 114.212 76.1383 113.918 74.8084C113.624 73.4785 113 72.2444 112.103 71.2203C111.207 70.1962 110.067 69.4151 108.789 68.9494V68.9494ZM84.5339 68.3743C83.8798 69.156 82.9425 69.6455 81.9282 69.7351C80.9139 69.8247 79.9056 69.5071 79.125 68.8522C77.508 67.4874 73.999 62.2954 75.3614 60.6674C76.7237 59.0393 82.4358 61.5907 84.0609 62.9555C84.4478 63.2797 84.767 63.6771 85.0004 64.125C85.2338 64.5729 85.3767 65.0625 85.421 65.5658C85.4653 66.0691 85.4101 66.5762 85.2586 67.0581C85.1071 67.54 84.8622 67.9873 84.538 68.3743H84.5339Z" fill="#FDE047"/>
<path id="slice-orange" d="M84.7523 94.6985L70.1788 63.3889C69.827 62.6362 69.2525 62.0102 68.5333 61.5958C67.814 61.1814 66.985 60.9987 66.1586 61.0726C65.3322 61.1465 64.5485 61.4732 63.9139 62.0086C63.2793 62.544 62.8245 63.262 62.6112 64.0652L54.0571 96.039C53.7366 97.239 53.6958 98.4967 53.938 99.7149C54.1802 100.933 54.6989 102.079 55.4538 103.065C56.2088 104.05 57.1799 104.848 58.292 105.398C59.4041 105.947 60.6274 106.233 61.8673 106.233H77.4231C78.7842 106.234 80.1235 105.891 81.317 105.235C82.5104 104.579 83.5194 103.633 84.2503 102.482C84.9812 101.332 85.4104 100.016 85.4982 98.655C85.5859 97.2943 85.3294 95.9334 84.7523 94.6985V94.6985ZM67.4582 77.4015C66.9559 77.446 66.4498 77.3908 65.9688 77.2392C65.4878 77.0876 65.0414 76.8425 64.6551 76.5179C64.2687 76.1932 63.95 75.7955 63.7173 75.3474C63.4845 74.8993 63.3421 74.4097 63.2984 73.9064C63.1124 71.7884 64.3009 65.6366 66.4112 65.4543C68.5214 65.2721 70.765 71.1242 70.9469 73.2342C71.0355 74.2502 70.7178 75.2598 70.0636 76.0413C69.4094 76.8227 68.4723 77.3119 67.4582 77.4015V77.4015Z" fill="#F9A140"/>
<path id="slice-red" d="M55.4558 57.9904L26.8183 74.5503C25.744 75.1709 24.8265 76.0308 24.137 77.0634C23.4474 78.096 23.0042 79.2737 22.8416 80.5054C22.6791 81.737 22.8015 82.9897 23.1994 84.1664C23.5974 85.343 24.2602 86.4122 25.1366 87.2913L36.1364 98.311C37.0976 99.2744 38.2858 99.9794 39.5912 100.361C40.8965 100.742 42.2767 100.788 43.6042 100.493C44.9317 100.198 46.1635 99.5728 47.1858 98.6746C48.208 97.7765 48.9877 96.6346 49.4526 95.3546L61.2488 62.8907C61.5293 62.1127 61.5652 61.2672 61.3517 60.4681C61.1382 59.669 60.6856 58.9545 60.0547 58.4208C59.4237 57.8871 58.6448 57.5598 57.8226 57.4828C57.0005 57.4059 56.1745 57.583 55.4558 57.9904V57.9904ZM54.6473 70.5774C53.9928 71.3593 53.055 71.8488 52.0402 71.938C51.0254 72.0272 50.0169 71.709 49.2363 71.0533C48.4558 70.3975 47.9673 69.458 47.8782 68.4414C47.7891 67.4248 48.1068 66.4144 48.7613 65.6325C50.1237 64.0125 55.3062 60.4973 56.9313 61.8621C58.5565 63.2269 55.9975 68.9575 54.6473 70.5855V70.5774Z" fill="#F04A4E"/>
</g>
<g id="leaves">
<path id="leaf-right" d="M85.003 13.0894C84.7676 12.7538 84.4485 12.486 84.0775 12.3126C83.7065 12.1392 83.2966 12.0663 82.8887 12.1012C79.4081 12.4009 69.8474 14.2598 64.6082 25.5144C59.9108 35.6027 63.2176 43.4999 65.4167 47.0922C65.8313 47.7816 66.4415 48.3316 67.1694 48.6721C67.8974 49.0125 68.71 49.128 69.5038 49.0037C73.6474 48.3679 81.8012 45.8408 86.4947 35.7404C91.7379 24.4857 87.0121 15.9527 85.003 13.0894Z" fill="#78C45B"/>
<path id="leaf-left" d="M16.4532 28.2319C15.9462 28.5983 15.5406 29.0879 15.2747 29.6548C15.0088 30.2216 14.8913 30.8469 14.9332 31.4718C15.2647 36.2628 17.4962 48.4813 31.338 55.0097C45.1797 61.5381 55.9976 55.4146 59.8987 52.6324C60.4061 52.2666 60.8117 51.7769 61.077 51.2099C61.3424 50.6428 61.4586 50.0172 61.4146 49.3925C61.0872 44.6015 58.8557 32.383 45.0099 25.8505C31.1641 19.3181 20.3462 25.4253 16.4532 28.2319Z" fill="#78C45B"/>
</g>
</g>
</svg>
