<?xml version="1.0" encoding="utf-8"?>
<!-- Generator: Adobe Illustrator 25.2.1, SVG Export Plug-In . SVG Version: 6.00 Build 0)  -->
<svg version="1.1" id="Layer_1" xmlns="http://www.w3.org/2000/svg" xmlns:xlink="http://www.w3.org/1999/xlink" x="0px" y="0px"
	 viewBox="0 0 1203 310" style="enable-background:new 0 0 1203 310;" xml:space="preserve">
<style type="text/css">
	.st0{fill:#78C45B;}
	.st1{fill:#F9A140;}
	.st2{fill:#EB3B98;}
	.st3{fill:none;}
	.st4{fill:#F04A4E;}
	.st5{clip-path:url(#SVGID_2_);}
	.st6{fill:url(#SVGID_3_);}
</style>
<path class="st0" d="M332.9,32l-13.6,6.3c-4.8,2.3-7,7.9-5,12.8c32.2,81.1-7.4,173-88.4,205.2c-69.5,27.7-148.9,2.7-190.2-59.7
	c-2.9-4.4-8.8-5.8-13.4-3.2l-13,7.5c-4.8,2.8-6.4,8.9-3.7,13.7c0.1,0.1,0.2,0.3,0.3,0.4c51.7,79.1,155,110.2,243.1,69.1
	c93.4-43.6,135.5-152.3,97.5-246.8c-2-5.1-7.8-7.7-13-5.6C333.3,31.8,333.1,31.9,332.9,32z"/>
<polyline points="167.1,109.3 167.1,109.3 167.1,109.3 "/>
<polyline points="167.1,109.3 167.1,109.3 167.1,109.3 "/>
<path class="st1" d="M213.9,211.6l-36.1-77.3c-2.3-5-8.3-7.2-13.3-4.8c-2.7,1.3-4.7,3.6-5.4,6.5l-21.2,78.9
	c-2.9,10.7,3.5,21.6,14.2,24.5c1.7,0.5,3.4,0.7,5.2,0.7h38.5c11,0,20-8.9,20-20C215.7,217.2,215.1,214.3,213.9,211.6z M171.1,168.9
	c-5.2,0.5-9.8-3.4-10.3-8.6c0,0,0,0,0,0c-0.5-5.2,2.5-20.4,7.7-20.9s10.8,14,11.2,19.2C180.2,163.9,176.3,168.5,171.1,168.9z"/>
<polyline points="167.2,109.4 167.2,109.4 167.2,109.4 "/>
<polyline points="167.2,109.4 167.2,109.4 167.2,109.4 "/>
<path class="st0" d="M273.3,148.1l-80.2-29.2c-5.2-1.9-10.9,0.8-12.8,6c-1,2.8-0.7,5.9,0.7,8.4l40.9,70.8
	c5.5,9.6,17.8,12.8,27.3,7.3c1.5-0.9,2.9-1.9,4.1-3.2l27.2-27.2c7.8-7.8,7.8-20.5,0-28.3C278.6,150.6,276.1,149.1,273.3,148.1z
	 M213.3,146.6c-3.4,4-9.3,4.5-13.3,1.2c-4-3.4-12.7-16.2-9.3-20.2s17.5,2.3,21.5,5.7C216.2,136.6,216.7,142.6,213.3,146.6
	C213.3,146.6,213.3,146.6,213.3,146.6L213.3,146.6z"/>
<polyline points="167.4,109.5 167.3,109.5 167.3,109.5 "/>
<polyline points="167.4,109.5 167.3,109.5 167.3,109.5 "/>
<path class="st2" d="M270.7,60.8l-77.3,36c-5,2.3-7.2,8.3-4.8,13.3c1.2,2.7,3.6,4.7,6.5,5.4l79,21.2c10.7,2.9,21.6-3.5,24.5-14.2
	c0.5-1.7,0.7-3.4,0.7-5.2V78.9c0-11-8.9-20-20-20C276.3,58.9,273.4,59.5,270.7,60.8z M220.4,113.8c-5.2,0.5-20.4-2.5-20.9-7.7
	s14-10.8,19.2-11.2c5.2-0.3,9.7,3.7,10.1,8.9C229.1,108.9,225.4,113.3,220.4,113.8z"/>
<polyline points="167.5,109.4 167.5,109.4 167.5,109.4 "/>
<path class="st0" d="M44.9,47.5c-2.6,1.8-4,4.9-3.8,8c0.8,11.8,6.3,42,40.6,58.1s61,1,70.6-5.9c2.6-1.8,4-4.9,3.8-8
	c-0.8-11.8-6.3-42-40.6-58.1S54.5,40.6,44.9,47.5z"/>
<path class="st0" d="M214.5,10.1c-1.2-1.7-3.2-2.6-5.2-2.4C200.6,8.4,177,13,164,40.8c-11.6,24.9-3.4,44.4,2,53.3
	c2.1,3.5,6.1,5.3,10.1,4.7c10.3-1.6,30.5-7.8,42.1-32.8C231.1,38.3,219.4,17.2,214.5,10.1z"/>
<line class="st3" x1="30.7" y1="188.6" x2="0.4" y2="206.1"/>
<path class="st4" d="M141.3,121l-70.8,40.9c-9.6,5.5-12.8,17.8-7.3,27.3c0.9,1.5,1.9,2.9,3.2,4.1l27.2,27.2c7.8,7.8,20.5,7.8,28.3,0
	c2.1-2.1,3.7-4.6,4.7-7.3l29.2-80.2c1.9-5.2-0.8-10.9-5.9-12.8C147,119.2,143.9,119.5,141.3,121z M139.3,152.1
	c-3.4,4-9.4,4.5-13.4,1.2c-4-3.4-4.5-9.4-1.2-13.4c3.4-4,16.2-12.7,20.2-9.3C149,133.9,142.7,148.1,139.3,152.1L139.3,152.1z"/>
<g>
	<path class="st2" d="M693.9,272.7l4.5-0.4c3.3-0.2,6.6-0.2,10,0c1.7,0.1,3.4,0.2,5.1,0.4c1.6,0.1,3.1,0.8,4.3,2
		c0.1,0.1,0.2,0.2,0.3,0.4c0.3,0.4,0.7,0.9,0.4,1.4c-0.3,0.5-0.9,0.6-1.4,0.5c-2.9-0.3-5.8-0.5-8.7-0.6c-3.4-0.1-6.8,0.1-10.2,0.5
		c-1.5,0.1-2.9,0.3-4.4,0.4c-1.2,0.1-2.4,0.2-3.7,0.3c-1.9,0.1-3.8-0.8-4.8-2.4c-0.7-0.9-0.4-1.5,0.7-1.7c0.1,0,0.2-0.1,0.4-0.1
		c0.7,0,0.9-0.4,1-1c0.6-3.7,1.2-7.5,1.5-11.3c0.3-4,0.7-8.1,1.1-12.1c0.3-3.8,0.5-7.6,0.9-11.4c0.6-7.1,0.7-14.3,0.7-21.5
		c0-1.1,0.2-1.4,1.3-1.7c1.3-0.4,2.8-0.4,4.1,0c1,0.3,1.2,0.7,1.2,1.8c0,7.4-0.2,14.9-0.8,22.3c-0.4,4.7-0.7,9.5-1.1,14.2
		c-0.4,6.5-1.2,13.1-2.3,19.5C693.8,272.4,693.9,272.5,693.9,272.7z"/>
	<path class="st2" d="M744.3,260.7c-0.4,1.3-1,2.5-1.8,3.6c-1.9,3.1-4.1,6-6.5,8.7c-1.4,1.8-3.4,3.1-5.6,3.7c-1.7,0.4-3.4,0.4-5.1,0
		c-1.9-0.5-3.5-1.9-4.3-3.7c-0.7-1.5-1.1-3.2-1.2-4.8c-0.3-4.9,0.1-9.8,1.2-14.5c0.5-2.3,1.5-4.4,2.8-6.3c3.6-4.9,10.1-4.4,13.7-2
		c2.9,1.9,3.8,5.8,1.9,8.8c-1.8,3-4.6,5.2-7.8,6.5c-1.4,0.5-2.8,0.9-4.3,1c-0.6,0.1-0.8,0.3-0.9,1c-0.2,2.5-0.1,5.1,0.3,7.6
		c0.2,1.2,0.6,2.4,1.4,3.3c0.7-0.5,1.4-1.1,1.9-1.8c2.1-2.4,4-5,5.7-7.7c0.9-1.3,1.6-2.7,2-4.2c0.1-0.5,0.5-0.9,0.9-1
		c1.5-0.6,3.2-0.7,4.7-0.1C744.5,259.2,744.6,259.6,744.3,260.7z M726.9,258.4c0.1,0,0.3,0,0.4,0c0.1,0,0.3-0.1,0.4-0.2
		c2.1-1,4-2.6,5.3-4.6c1.3-2,1.1-4.7-0.6-6.5c-0.2-0.3-0.7-0.4-1-0.2c-0.1,0-0.1,0.1-0.2,0.2c-0.9,0.9-1.7,1.9-2.3,3.1
		C727.8,252.8,727.1,255.5,726.9,258.4z"/>
	<path class="st2" d="M764.1,247.4c-1.5,0.6-3.2,0.6-4.7,0c-0.6-0.2-1.1-0.8-1-1.5c0-0.5-0.1-1-0.4-1.5c-0.3-0.6-0.6-0.7-1.1-0.3
		c-1,0.7-1.7,1.7-2.1,2.8c-1.5,3.1-1.8,6.7-0.9,10c0.3,1,0.5,2,0.9,3c1.8,5.1,3.1,10.4,3.7,15.8c0.3,2,0.4,4,0.2,6
		c-0.2,2-1.4,3.7-3.2,4.5c-2.7,1.3-5.8,1.6-8.7,0.8c-1.5-0.4-2.7-1.2-3.6-2.4c-1.2-1.5-2.3-3.2-3.1-5c-0.5-0.9-0.3-1.4,0.6-1.8
		c1.6-0.7,3.3-0.6,4.8,0.1c0.5,0.3,0.8,0.7,1,1.2c0.8,1.6,1.7,3.1,2.8,4.5c0.8,1,1.2,1,2-0.1c0.5-0.7,0.7-1.6,0.8-2.5
		c0-0.6,0-1.1,0-1.7c-0.2-4-0.8-8-1.8-11.8c-0.5-2.3-1.2-4.6-2-6.9c-0.5-1.5-1-3-1.3-4.6c-0.8-3.8-0.1-7.7,2-11
		c1.5-2.6,4.2-4.2,7.2-4.4c2-0.2,4.1,0.1,6,1c1.6,0.7,2.8,2.2,2.9,3.9C765.2,246.5,764.8,247.2,764.1,247.4
		C764.1,247.4,764.1,247.4,764.1,247.4z"/>
	<path class="st2" d="M793.2,247.4c-1.5,0.6-3.2,0.6-4.7,0c-0.6-0.2-1.1-0.8-1-1.5c0-0.5-0.1-1-0.4-1.5c-0.3-0.6-0.6-0.7-1.1-0.3
		c-1,0.7-1.7,1.7-2.1,2.8c-1.5,3.1-1.8,6.7-0.9,10c0.3,1,0.5,2,0.9,3c1.8,5.1,3.1,10.4,3.7,15.8c0.3,2,0.4,4,0.2,6
		c-0.2,2-1.4,3.7-3.2,4.5c-2.7,1.3-5.8,1.6-8.7,0.8c-1.5-0.4-2.7-1.2-3.6-2.4c-1.2-1.5-2.3-3.2-3.1-5c-0.4-0.9-0.3-1.4,0.6-1.8
		c1.6-0.7,3.3-0.6,4.8,0.1c0.5,0.3,0.8,0.7,1,1.2c0.8,1.6,1.7,3.1,2.8,4.5c0.8,1,1.3,1,2-0.1c0.5-0.7,0.7-1.6,0.8-2.5
		c0-0.6,0-1.1,0-1.7c-0.2-4-0.8-8-1.8-11.8c-0.5-2.3-1.2-4.6-2-6.9c-0.5-1.5-1-3-1.3-4.6c-0.8-3.8-0.1-7.7,2-11
		c1.5-2.6,4.2-4.2,7.2-4.4c2-0.2,4.1,0.1,6,1c1.6,0.7,2.8,2.2,2.9,3.9C794.4,246.5,793.9,247.2,793.2,247.4
		C793.2,247.4,793.2,247.4,793.2,247.4z"/>
	<path class="st2" d="M819.9,273.9l-0.3,0.2c-2.4,1.4-5.5,0.5-6.9-1.9c0-0.1-0.1-0.1-0.1-0.2c-1-2.6-1.7-5.3-1.9-8
		c0-0.2,0-0.4-0.1-0.7c-0.4,0.3-0.6,0.7-0.8,1.1c-1.1,2.1-2.3,4.1-3.6,6.1c-1,1.5-2.4,2.5-4.1,2.9c-1.5,0.3-3,0.3-4.5-0.2
		c-1.8-0.6-3.2-2-3.7-3.8c-0.4-1.4-0.6-2.8-0.6-4.3c0-2.8,0.2-5.7,0.9-8.5c0.9-3.9,3.2-7.2,6.5-9.4c2.3-1.5,5.1-2.3,7.9-2.1
		c0.5,0,1.1,0.2,1.5,0c0.4-0.2,0.4-0.9,0.6-1.4c0.3-1.3,1.4-2.1,2.7-2.2c1.1-0.2,2.3-0.1,3.3,0.2c1,0.4,1.2,0.7,1.2,1.8
		c0,1.2-0.1,2.4-0.3,3.6c-0.5,4.9-0.7,9.8-0.4,14.7c0.1,2.8,0.6,5.6,1.5,8.2c0.2,1,0.7,1.9,1.4,2.6
		C820.4,273,820.3,273.5,819.9,273.9z M808.9,248.5c-0.4-0.5-1.1-0.6-1.6-0.4c-0.8,0.3-1.5,0.8-2.1,1.3c-2.1,1.8-3.7,4.2-4.4,6.9
		c-0.8,3.2-1.1,6.5-0.9,9.8c0,0.9,0.2,1.7,0.5,2.5c0.4-0.2,0.5-0.5,0.7-0.8c3.5-5.7,6.2-11.8,8-18.2
		C809.1,249.3,809.4,248.8,808.9,248.5L808.9,248.5z"/>
	<path class="st2" d="M847.1,245c-0.3,1.1-0.6,2.2-1,3.2c-2.2,5.5-4.2,11.1-5.8,16.8c-0.7,2.1-1.4,4.2-2.1,6.4
		c-1,2.7-2.2,3.6-5.1,3.6c-0.5,0-1-0.1-1.5-0.2c-1.5-0.2-2.7-1.2-3.2-2.6c-1.1-3-2.3-5.9-3.3-8.9c-1.7-4.6-3-9.4-4.1-14.2
		c-0.2-1.1-0.6-2.3-1-3.3c-0.3-0.7-0.2-1.1,0.4-1.4c1.7-0.9,3.6-0.9,5.3,0c0.5,0.3,0.8,0.8,0.9,1.3c0.6,1.8,1.1,3.6,1.5,5.4
		c1.2,5,2.7,10,4.6,14.8c0.1,0.3,0.2,0.5,0.4,0.6c0.5-1.5,1-3,1.5-4.6c1.3-4.4,2.8-8.8,4.5-13c0.6-1.4,1.1-2.9,1.5-4.4
		c0.1-0.6,0.5-1.1,1.1-1.3c1.5-0.6,3.1-0.6,4.6,0c0.7,0.1,1.1,0.7,1,1.4C847.3,244.8,847.2,244.9,847.1,245z"/>
	<path class="st2" d="M871.4,260.7c-0.4,1.3-1,2.5-1.8,3.6c-1.9,3.1-4.1,6-6.5,8.7c-1.4,1.8-3.4,3.1-5.6,3.7c-1.7,0.4-3.4,0.4-5.1,0
		c-1.9-0.5-3.5-1.9-4.3-3.7c-0.7-1.5-1.1-3.2-1.2-4.8c-0.3-4.9,0.1-9.8,1.2-14.5c0.5-2.3,1.5-4.4,2.8-6.3c3.6-4.9,10.1-4.4,13.7-2
		c2.9,1.9,3.8,5.8,1.9,8.8c-1.8,3-4.6,5.2-7.8,6.5c-1.4,0.5-2.8,0.9-4.3,1c-0.6,0.1-0.9,0.3-0.9,1c-0.2,2.5-0.1,5.1,0.3,7.6
		c0.2,1.2,0.7,2.4,1.4,3.3c0.7-0.5,1.4-1.1,1.9-1.8c2.1-2.4,4-5,5.7-7.7c0.9-1.3,1.6-2.7,2-4.2c0.1-0.5,0.5-0.9,0.9-1
		c1.5-0.6,3.2-0.7,4.7-0.1C871.5,259.2,871.6,259.6,871.4,260.7z M853.9,258.4c0.1,0,0.3,0,0.4,0c0.2,0,0.3-0.1,0.4-0.2
		c2.1-1,4-2.6,5.3-4.6c1.3-2,1.1-4.7-0.6-6.5c-0.2-0.3-0.7-0.4-1-0.2c-0.1,0-0.1,0.1-0.2,0.2c-0.9,0.9-1.7,1.9-2.3,3.1
		C854.8,252.8,854.1,255.5,853.9,258.4L853.9,258.4z"/>
	<path class="st2" d="M897.9,275.9c-1.9,1-4.1,1-6,0c-0.6-0.4-1-1.1-1.2-1.8c-0.3-0.9-0.4-1.8-0.5-2.7c0-0.4,0-0.7-0.2-1
		c-0.4,0.1-0.5,0.5-0.8,0.7c-0.8,1-1.7,1.9-2.8,2.6c-2.1,1.4-4.6,1.8-7,1.1c-1.5-0.4-2.7-1.5-3.4-2.8c-1.2-2.1-2-4.4-2.4-6.9
		c-0.3-1.8-0.5-3.7-0.4-5.5c0-3.2,0.2-6.3,0.6-9.4c0.3-1.7,0.8-2.2,2.5-2.4c1.1-0.2,2.2-0.1,3.3,0.3c1,0.4,1.3,0.8,1,1.9
		c-1,3.8-0.8,7.7-0.8,11.6c0,2.7,0.6,5.4,1.6,7.9c0.1,0.3,0.3,0.7,0.4,1c0.1,0.2,0.2,0.3,0.3,0.5c0.4-0.2,0.7-0.5,0.9-0.9
		c2.1-2.8,3.7-5.9,4.8-9.2c1.4-3.7,2.4-7.5,3.1-11.4c0.2-1.3,0.7-1.7,2-2c1.1-0.3,2.3-0.2,3.4,0.1c1.2,0.4,1.4,0.7,1.3,1.9
		c-0.2,1.9-0.4,3.8-0.6,5.7c-0.4,4.9-0.6,9.8-0.5,14.7c0,1.1,0.2,2.2,0.4,3.2c0.1,0.5,0.4,0.9,0.8,1.1
		C898.9,274.6,898.8,275.2,897.9,275.9z"/>
	<path class="st2" d="M926.2,253.1c-0.5,0.3-1.1,0.5-1.8,0.6c-0.9,0.2-1.9,0.1-2.8-0.2c-1-0.2-1.7-1-1.9-1.9
		c-0.2-1.2-0.4-2.4-0.6-3.5c-0.2-0.9-0.5-1.8-0.9-2.6c-1.7,1.5-3.1,3.3-4.1,5.2c-1.3,2.6-2.3,5.3-2.9,8.1
		c-1.4,5.1-2.2,10.3-2.4,15.6c-0.1,1.6-0.4,2-2,2.4c-1.1,0.3-2.3,0.2-3.4-0.1c-0.9-0.2-1.6-0.9-1.6-1.8c-0.2-1.7-0.4-3.5-0.4-5.3
		c-0.1-5.8,0.2-11.6,0.2-17.4c0-2.8-0.1-5.6-0.4-8.4c0-0.5,0-1,0-1.4c-0.1-0.9,0.5-1.7,1.3-1.9c1.4-0.5,2.9-0.5,4.2,0
		c1.2,0.4,1.4,1,1.1,2.2c0,0.2-0.1,0.3-0.1,0.5c0,1.9,0.3,3.7,0.3,5.6c0.5-0.1,0.6-0.4,0.8-0.7c0.8-1.1,1.7-2.1,2.6-3.1
		c2.4-2.5,5.9-3.7,9.3-3.1c1.7,0.2,3.2,1.3,3.9,2.8c0.6,1.1,1,2.2,1.2,3.4c0.1,1.4,0.4,2.7,0.9,4
		C926.8,252.6,926.5,252.9,926.2,253.1z"/>
	<path class="st2" d="M945.9,247.4c-1.5,0.6-3.2,0.6-4.7,0c-0.6-0.2-1.1-0.8-1-1.5c0-0.5-0.1-1-0.4-1.5c-0.3-0.6-0.6-0.7-1.1-0.3
		c-0.9,0.7-1.7,1.7-2.1,2.8c-1.5,3.1-1.8,6.7-0.9,10c0.3,1,0.5,2,0.9,3c1.9,5.1,3.1,10.4,3.8,15.8c0.3,2,0.4,4,0.2,6
		c-0.2,2-1.4,3.7-3.2,4.5c-2.7,1.3-5.8,1.6-8.7,0.8c-1.5-0.4-2.7-1.2-3.6-2.4c-1.2-1.5-2.3-3.2-3.1-5c-0.5-0.9-0.3-1.4,0.6-1.8
		c1.6-0.7,3.3-0.6,4.8,0.1c0.5,0.3,0.8,0.7,1,1.2c0.8,1.6,1.7,3.1,2.8,4.5c0.8,1,1.2,1,2-0.1c0.5-0.7,0.7-1.6,0.8-2.5
		c0-0.6,0-1.1,0-1.7c-0.2-4-0.8-8-1.8-11.8c-0.5-2.3-1.2-4.6-2-6.9c-0.5-1.5-0.9-3-1.2-4.6c-0.8-3.8-0.1-7.7,1.9-11
		c1.5-2.6,4.2-4.2,7.2-4.4c2-0.2,4.1,0.1,6,1c1.6,0.7,2.8,2.2,2.9,3.9C947.1,246.5,946.7,247.2,945.9,247.4
		C945.9,247.4,945.9,247.4,945.9,247.4z"/>
	<path class="st2" d="M977.6,264.6c-0.2,0.4-0.5,0.8-0.7,1.2c-1.3,2.3-2.9,4.5-4.6,6.6c-0.8,1-1.7,2-2.7,2.9c-2,1.8-4.8,2.4-7.4,1.6
		c-1.6-0.4-2.9-1.5-3.6-3c-0.7-1.5-1.1-3-1.2-4.6c-0.5-5.9,0.8-11.9,3.9-17c1.4-2.4,3.3-4.5,5.4-6.2c3.3-2.8,7.7-3.9,11.9-2.9
		c1,0.2,1,0.2,1.3-0.8c0.5-1.9,0.8-3.8,0.9-5.8c0.6-4.8,1.2-9.7,1.9-14.5c0.1-1,0.8-1.9,1.8-2.1c1.3-0.3,2.6-0.3,3.9,0.1
		c0.8,0.1,1.4,0.9,1.2,1.7c0,0.1,0,0.1,0,0.2c-0.2,6.2-1.1,12.4-2.6,18.5c-0.5,2.2-0.8,4.3-1,6.5c-0.5,3.8-1,7.6-1.3,11.4
		c-0.7,6.4-0.8,12.8-0.1,19.2c0.3,2.9,1,5.8,2,8.6c0.2,0.9,0.8,1.7,1.6,2.2c0.7,0.4,0.6,1-0.1,1.5c-0.7,0.4-1.4,0.6-2.2,0.6
		c-2.4,0.5-4.9-0.9-5.6-3.3c-1.1-2.8-1.8-5.6-2.2-8.6c-0.5-4.2-0.7-8.5-0.5-12.7c0-0.4,0-0.9,0-1.3L977.6,264.6z M964.9,273l0.5-0.7
		c0.5-0.7,1.1-1.3,1.6-2c4.3-6.1,7.8-12.7,10.2-19.8c0.1-0.3,0.3-0.5,0.1-0.8c-0.2-0.6-0.3-1.2-0.1-1.8c0.2-0.7-0.1-1.4-0.6-1.8
		c-0.6-0.4-1.4-0.4-2,0c-1.3,0.7-2.4,1.6-3.4,2.6c-5.5,5.5-7.4,12.3-7.1,20C964,270.2,964.3,271.6,964.9,273L964.9,273z"/>
	<path class="st2" d="M1014.2,275.9c-1.9,1-4.1,1-6,0c-0.6-0.4-1-1.1-1.2-1.8c-0.3-0.9-0.4-1.8-0.5-2.7c0-0.4,0-0.7-0.2-1
		c-0.4,0.1-0.5,0.5-0.8,0.7c-0.8,1-1.7,1.9-2.8,2.6c-2.1,1.4-4.6,1.8-7,1.1c-1.5-0.4-2.7-1.5-3.4-2.8c-1.2-2.1-2-4.4-2.4-6.9
		c-0.3-1.8-0.5-3.7-0.4-5.5c0-3.2,0.2-6.3,0.7-9.4c0.3-1.7,0.8-2.2,2.5-2.4c1.1-0.2,2.3-0.1,3.3,0.3c1,0.4,1.3,0.8,1,1.9
		c-1,3.8-0.8,7.7-0.8,11.6c0,2.7,0.6,5.4,1.6,7.9c0.1,0.3,0.3,0.7,0.5,1c0.1,0.2,0.2,0.3,0.3,0.5c0.4-0.2,0.7-0.5,0.9-0.9
		c2.1-2.8,3.7-5.9,4.8-9.2c1.4-3.7,2.4-7.5,3.1-11.4c0.3-1.3,0.7-1.7,2-2c1.1-0.3,2.3-0.2,3.4,0.1c1.2,0.4,1.4,0.7,1.3,1.9
		c-0.2,1.9-0.4,3.8-0.6,5.7c-0.5,4.9-0.7,9.7-0.6,14.6c0.1,1.1,0.2,2.1,0.4,3.2c0.1,0.5,0.3,0.9,0.8,1.1
		C1015.2,274.6,1015.2,275.2,1014.2,275.9z"/>
	<path class="st2" d="M1037.4,249.2c0.4-0.2,0.7-0.5,1-0.9c2.8-3.2,7.1-4.6,11.2-3.7c3.4,0.6,5,2.4,5.2,5.9c0.7,8.6-3,17-9.8,22.2
		c-2.2,1.8-4.8,3.1-7.6,3.8c-0.5,0.1-1.2-0.1-1.5,0.3c-0.3,0.4-0.1,1.1-0.1,1.6c0,7.1,0.3,14.1,0.9,21.1c0.1,0.9,0.2,1.8,0.2,2.7
		c0.1,0.9-0.1,1.2-0.9,1.5c-1.6,0.7-3.4,0.7-5,0c-0.6-0.3-1-0.9-1-1.5c-0.5-2.2-0.8-4.5-0.9-6.8c-0.4-4.9-0.5-9.9-0.2-14.9
		c0.4-5.7,0.4-11.4,0.8-17.1c0.4-5,0.7-10.1,1.1-15.1c0.2-2.4,0.5-4.8,0.7-7.3c0-0.7,0.5-1.2,1.1-1.4c1.4-0.5,2.9-0.5,4.3,0
		c1.1,0.4,1.4,0.9,1.2,2.1C1037.8,244.1,1037.6,246.6,1037.4,249.2z M1036.3,273c0.5-0.1,0.9-0.3,1.3-0.6c7.4-5,10.6-12.2,10.6-21
		c0-1.1-0.2-2.2-0.6-3.2c-0.4-0.9-0.6-0.9-1.3-0.4c-1.1,0.7-2,1.6-2.7,2.7c-1.3,1.8-2.4,3.8-3.2,5.9c-1.6,4.3-2.8,8.8-3.6,13.4
		C1036.5,270.8,1036.4,271.9,1036.3,273z"/>
	<path class="st2" d="M1084,273.9l-0.3,0.2c-2.4,1.4-5.5,0.5-6.9-1.9c0-0.1-0.1-0.1-0.1-0.2c-1.1-2.6-1.7-5.3-1.9-8
		c0-0.2,0-0.4-0.1-0.7c-0.4,0.3-0.6,0.7-0.8,1.1c-1.1,2.1-2.3,4.1-3.6,6.1c-1,1.5-2.4,2.5-4.1,2.9c-1.5,0.3-3,0.3-4.5-0.2
		c-1.8-0.6-3.2-2-3.7-3.8c-0.4-1.4-0.6-2.8-0.6-4.3c0-2.8,0.2-5.7,0.8-8.5c0.9-3.9,3.2-7.2,6.5-9.4c2.3-1.5,5.1-2.3,7.9-2.1
		c0.5,0,1.1,0.2,1.5,0s0.4-0.9,0.6-1.4c0.3-1.3,1.4-2.1,2.7-2.2c1.1-0.2,2.2-0.1,3.3,0.2c0.8,0.2,1.3,1,1.2,1.8
		c0,1.2-0.1,2.4-0.3,3.6c-0.6,4.9-0.7,9.8-0.4,14.7c0.1,2.8,0.6,5.6,1.5,8.2c0.2,1,0.7,1.9,1.4,2.6
		C1084.5,273,1084.4,273.5,1084,273.9z M1073,248.5c-0.4-0.5-1.1-0.6-1.6-0.4c-0.8,0.3-1.5,0.8-2.1,1.3c-2.1,1.8-3.7,4.2-4.4,6.9
		c-0.8,3.2-1.1,6.5-0.9,9.8c0,0.9,0.2,1.7,0.5,2.5c0.4-0.2,0.5-0.5,0.7-0.8c3.5-5.7,6.2-11.8,8-18.2
		C1073.2,249.3,1073.5,248.8,1073,248.5L1073,248.5z"/>
	<path class="st2" d="M1111.1,253.1c-0.5,0.3-1.2,0.5-1.8,0.6c-0.9,0.2-1.9,0.1-2.8-0.2c-1-0.2-1.7-1-1.9-1.9
		c-0.2-1.2-0.4-2.4-0.6-3.5c-0.2-0.9-0.5-1.8-0.9-2.6c-1.7,1.5-3.1,3.3-4.1,5.2c-1.3,2.6-2.2,5.3-2.9,8.1
		c-1.4,5.1-2.2,10.3-2.4,15.6c-0.1,1.6-0.4,2-2,2.4c-1.1,0.3-2.3,0.2-3.4-0.1c-0.9-0.2-1.6-0.9-1.6-1.8c-0.2-1.7-0.4-3.5-0.4-5.3
		c-0.1-5.8,0.2-11.6,0.2-17.4c0-2.8-0.1-5.6-0.4-8.4c0-0.5,0-1,0-1.4c-0.1-0.9,0.5-1.7,1.3-1.9c1.4-0.5,2.9-0.5,4.2,0
		c1.2,0.4,1.4,1,1.1,2.2c0,0.2,0,0.3,0,0.5c0,1.9,0.3,3.7,0.2,5.6c0.5-0.1,0.6-0.4,0.8-0.7c0.8-1.1,1.7-2.1,2.6-3.1
		c2.4-2.5,5.9-3.7,9.3-3.1c1.7,0.2,3.2,1.3,3.9,2.8c0.6,1.1,1,2.2,1.2,3.4c0.1,1.4,0.4,2.7,0.9,4
		C1111.7,252.6,1111.4,252.9,1111.1,253.1z"/>
	<path class="st2" d="M1139.4,273.9c-0.1,0.1-0.2,0.1-0.3,0.2c-2.4,1.4-5.5,0.5-6.9-1.9c0-0.1-0.1-0.2-0.1-0.2
		c-1.1-2.6-1.7-5.3-1.9-8c0-0.2,0-0.4-0.1-0.7c-0.4,0.3-0.6,0.7-0.8,1.1c-1.1,2.1-2.3,4.1-3.6,6.1c-1,1.5-2.4,2.5-4.1,2.9
		c-1.5,0.3-3,0.3-4.5-0.2c-1.8-0.6-3.2-2-3.7-3.8c-0.4-1.4-0.6-2.8-0.6-4.3c0-2.8,0.2-5.7,0.8-8.5c0.9-3.9,3.2-7.2,6.5-9.4
		c2.3-1.5,5.1-2.3,7.9-2.1c0.5,0,1.1,0.2,1.5,0s0.4-0.9,0.6-1.4c0.3-1.3,1.4-2.1,2.7-2.2c1.1-0.2,2.2-0.1,3.3,0.2
		c0.8,0.2,1.3,1,1.2,1.8c0,1.2-0.1,2.4-0.3,3.6c-0.6,4.9-0.7,9.8-0.4,14.7c0.1,2.8,0.6,5.6,1.5,8.2c0.2,1,0.7,1.9,1.4,2.6
		C1140,273,1139.9,273.5,1139.4,273.9z M1128.4,248.5c-0.4-0.5-1.1-0.6-1.6-0.4c-0.8,0.3-1.5,0.8-2.1,1.3c-2.1,1.8-3.7,4.2-4.4,6.9
		c-0.8,3.2-1.1,6.5-0.9,9.8c0,0.9,0.2,1.7,0.5,2.5c0.4-0.2,0.5-0.5,0.7-0.8c3.5-5.7,6.2-11.8,8-18.2
		C1128.6,249.3,1128.9,248.8,1128.4,248.5L1128.4,248.5z"/>
	<path class="st2" d="M1161.9,264.6c-0.3,0.4-0.5,0.8-0.7,1.2c-1.3,2.3-2.9,4.5-4.6,6.6c-0.8,1-1.7,2-2.7,2.9
		c-2,1.8-4.8,2.4-7.4,1.6c-1.6-0.3-3-1.4-3.6-3c-0.7-1.5-1.1-3-1.2-4.6c-0.5-5.9,0.8-11.9,3.9-17c1.4-2.4,3.3-4.5,5.4-6.2
		c3.3-2.8,7.7-3.9,11.9-2.9c1,0.2,1,0.2,1.3-0.8c0.5-1.9,0.8-3.8,0.9-5.8c0.6-4.8,1.2-9.7,1.9-14.5c0.1-1,0.8-1.9,1.9-2.1
		c1.3-0.3,2.6-0.3,3.9,0.1c0.8,0.1,1.4,0.9,1.2,1.7c0,0,0,0.1,0,0.1c-0.3,6.2-1.1,12.4-2.6,18.5c-0.5,2.2-0.8,4.3-1,6.5
		c-0.5,3.8-1,7.6-1.3,11.4c-0.7,6.4-0.8,12.8-0.1,19.2c0.3,2.9,1,5.8,2,8.6c0.2,0.9,0.8,1.7,1.6,2.2c0.7,0.4,0.6,1-0.1,1.5
		c-0.7,0.4-1.4,0.6-2.2,0.6c-2.4,0.5-4.9-0.9-5.6-3.3c-1.1-2.8-1.8-5.6-2.2-8.6c-0.5-4.2-0.7-8.5-0.5-12.7
		C1162,265.6,1162,265.1,1161.9,264.6L1161.9,264.6z M1149.3,273c0.3-0.4,0.4-0.5,0.5-0.7c0.5-0.7,1.1-1.3,1.6-2
		c4.3-6.1,7.8-12.7,10.2-19.8c0.1-0.3,0.3-0.5,0.1-0.8c-0.3-0.6-0.3-1.2-0.1-1.8c0.2-0.7-0.1-1.4-0.6-1.8c-0.6-0.4-1.4-0.4-2,0
		c-1.3,0.7-2.4,1.6-3.4,2.6c-5.5,5.5-7.4,12.3-7.1,20C1148.4,270.2,1148.7,271.6,1149.3,273L1149.3,273z"/>
	<path class="st2" d="M1173.7,242.1c0.3-1.5,0.4-3,0.3-4.5c-0.1-0.6,0.2-1.3,0.8-1.6c1.3-0.8,2.9-1,4.4-0.7c1.1,0.3,1.3,0.5,1.4,1.6
		c0,0.4,0,0.9,0,1.5c0,1-0.1,2-0.3,3.1c-0.1,0.7-0.5,1.4-1.2,1.7c-1.3,0.7-2.8,0.9-4.3,0.6C1173.9,243.5,1173.6,243.1,1173.7,242.1z
		 M1181,255.2c-0.6,5.2-0.6,10.4,0,15.6c0.1,0.8,0.1,1.5,0.2,2.3c0.1,0.6-0.2,1.2-0.7,1.4c-1.5,0.9-3.3,1.2-5,0.7
		c-0.5-0.1-0.9-0.6-0.9-1.2c-0.9-6.9-0.9-13.8,0-20.7c0.1-0.8,0.2-1.5,0.1-2.3c-0.1-0.7,0.4-1.4,1.1-1.7c1.3-0.7,2.8-0.9,4.2-0.6
		c1,0.2,1.4,0.6,1.3,1.7C1181.3,251.9,1181.2,253.6,1181,255.2L1181,255.2z"/>
	<path class="st2" d="M1201.6,247.4c-1.5,0.6-3.2,0.6-4.7,0c-0.6-0.2-1.1-0.8-1-1.5c0-0.5-0.1-1-0.4-1.5c-0.3-0.6-0.6-0.7-1.1-0.3
		c-1,0.7-1.7,1.7-2.1,2.8c-1.5,3.1-1.8,6.7-0.9,10c0.3,1,0.5,2,0.9,3c1.8,5.1,3.1,10.4,3.7,15.8c0.3,2,0.4,4,0.2,6
		c-0.2,2-1.4,3.7-3.2,4.5c-2.7,1.3-5.8,1.6-8.7,0.8c-1.5-0.4-2.7-1.2-3.6-2.4c-1.2-1.5-2.3-3.2-3.1-5c-0.5-0.9-0.3-1.4,0.6-1.8
		c1.6-0.7,3.3-0.6,4.8,0.1c0.5,0.3,0.8,0.7,1,1.2c0.8,1.6,1.7,3.1,2.8,4.5c0.8,1,1.2,1,2-0.1c0.5-0.7,0.7-1.6,0.8-2.5
		c0-0.6,0-1.1,0-1.7c-0.2-4-0.8-8-1.8-11.8c-0.5-2.3-1.2-4.6-2-6.9c-0.5-1.5-1-3-1.3-4.6c-0.7-3.8,0-7.7,2-11
		c1.5-2.6,4.2-4.2,7.2-4.4c2-0.2,4.1,0.1,6,1c1.6,0.7,2.8,2.2,2.9,3.9C1202.8,246.4,1202.4,247.2,1201.6,247.4z"/>
</g>
<g>
	<defs>
		<path id="SVGID_1_" d="M465.2,110.3c-9.5,53.2,0.2,79.6-0.6,101c0,3.4-3.9,4.3-8.2,4.3c-3.2,0-6.5-0.5-9.6-1.3
			c-8-2.1-11.2-17.1-11.2-25.2c-0.5-38.5-0.5-56.7,6.1-71.5h-0.8c-4,0-12,2.7-22.3,2.7c-6.8,0.1-13.5-1.3-19.7-4.2
			c-10.4-5.1-13.8-16.2-11.7-23.6c5.1-14.1,16.7-20,25.3-20c1.6,0,3.2,0.3,4.8,0.8c5.9,3-2.2,3.7-4.3,19.9
			c-0.8,5.9,3.7,15.5,9.6,16.3c21.2-1.9,63.5-22.6,89.1-22.6c3.7,0,6.7,0.2,9.8,1.3c18,5.6,16.7,24.7,2.6,24.7
			c-3.8,0-7.7-0.8-7.7-5.4c0.6-6.2-3.7-8.2-10.2-8.2C491.9,99.4,467.8,109.5,465.2,110.3z M655.8,174.6c-1.8,9.8-7,15.6-16.2,19.9
			c-5.5,2.6-8.7,1.6-11.7,2.4c3.7,7.1,7.7,8.3,10.7,8.3c1.1,0,2.2-0.1,3.2-0.5h0.7c2.6,0,5.4,3.9-0.2,5.1c-2.8,0.6-5.6,0.9-8.5,1
			c-5,0-10.3-1.3-15.9-6.4c-10.9-10.1-14.8-33.3-5-48.2c2.6-4.3,6.1-7.9,10.2-10.6c-10.1,0.8-20.1,6.6-26.7,31.3
			c-3,11.7-3.4,35.6-11.4,36.9c-1.8,0.2-3,0.3-4.3,0.3c-4.3,0-7-1.1-8.2-3.5c-4.3-9.3-15.2-48.1-0.3-60.4c1.7-1.3,3.8-2.1,5.9-2.1
			c2.7,0,4.7,0.6,5.8,2.1c-2.4,9-2.2,23.1,0.3,45.5c0,0.2,0,0.3,0.2,0.3v0.1c0.5,0,2-28.4,8.9-49.9c-1.2,0.4-2.4,0.5-3.6,0.5
			c-4.3,0-9.5-1.3-15.1-1.3c-11.1,0-22.3,4.5-29.5,31.4c-3,11.7-3.4,35.6-11.4,36.9c-1.8,0.2-3,0.3-4.3,0.3c-4.3,0-7-1.1-8.2-3.5
			c-2.1-4.6-5.9-16.4-7.3-28.6c-2.7,5.6-7.3,9.5-13.9,12.6c-5.5,2.6-8.7,1.6-11.7,2.4c3.7,7.1,7.7,8.3,10.7,8.3
			c1.1,0,2.2-0.1,3.2-0.5h0.6c2.6,0,5.5,3.9-0.2,5.1c-2.8,0.6-5.6,0.9-8.5,1c-5,0-10.3-1.3-15.9-6.4c-10.9-10.1-14.7-33.3-5-48.2
			c6.4-10.1,14.6-14.3,22.1-14.3c8.7,0,16.8,6.1,19.9,16.3c1.1-3.2,2.9-6,5.4-8.2c1.7-1.3,3.8-2,6-2c2.7,0,4.7,0.6,5.8,2.1
			c-2.4,9-2.2,23.1,0.3,45.5c0,0.2,0,0.3,0.2,0.3v0.1c0.6,0,2.6-38.8,12.8-59.9c6.9-13.8,18.8-19.7,29.5-19.7
			c11.3,0,21.6,6.9,22.5,18.3c7-12.8,18.4-18.3,28.8-18.3c12.3,0,23.4,8.2,22.6,21.5c-0.3,4.1-1.4,6.4-3.2,7.6
			C653.4,150.6,658.1,160.9,655.8,174.6z M501.8,170.2c0-9-4.6-16.3-9.3-16.3c-0.3,0.1-0.5,0.1-0.8,0.2c-10.9,9.1-9.6,21-5.8,32.5
			c1.1,0.2,2.1,0.3,3.2,0.3C495.4,186.9,501.8,183.1,501.8,170.2L501.8,170.2z M641.2,170.2c0-9-4.6-16.3-9.3-16.3
			c-0.3,0.1-0.5,0.1-0.8,0.2c-10.9,9.1-9.6,21-5.8,32.5c1.1,0.2,2.1,0.3,3.2,0.3C634.8,186.9,641.2,183.1,641.2,170.2L641.2,170.2z
			 M784.8,99.4c6.6,0,10.9,1.9,10.3,8.2c0,4.7,3.8,5.4,7.7,5.4c14.1,0,15.4-19.1-2.6-24.7c-3-1.1-6.1-1.3-9.8-1.3
			c-25.6,0-68,20.7-89.1,22.6c-5.9-0.8-10.4-10.4-9.6-16.3c2.1-16.2,10.3-16.8,4.3-19.9c-1.6-0.5-3.2-0.8-4.8-0.8
			c-8.7,0-20.2,5.9-25.3,20c-2.1,7.4,1.3,18.4,11.7,23.6c6.2,2.8,12.9,4.3,19.7,4.2c10.3,0,18.3-2.7,22.3-2.7h0.8
			c-6.6,14.7-6.6,33-6.1,71.5c0,8,3.2,23.1,11.2,25.2c3.1,0.8,6.4,1.3,9.6,1.3c4.3,0,8.2-1,8.2-4.3c0.8-21.3-8.8-47.8,0.6-101
			C746.5,109.5,770.5,99.4,784.8,99.4z M846,178.6c-0.5,14.4-9,37.8-30.3,37.8c-15.5,0-28-14.3-28-35.3c0-16.5,10.2-30.7,23.6-35.7
			c-0.8,0-1.7-0.1-2.5-0.1c-11.1,0-22.3,4.5-29.5,31.4c-3,11.7-3.4,35.6-11.4,36.9c-1.8,0.2-3,0.3-4.3,0.3c-4.3,0-7-1.1-8.2-3.5
			c-4.3-9.3-15.2-48.1-0.3-60.5c1.7-1.3,3.8-2.1,5.9-2.1c2.7,0,4.7,0.6,5.8,2.1c-2.4,9-2.2,23.1,0.3,45.5c0,0.2,0,0.3,0.2,0.3v0.2
			c0.6,0,2.6-38.8,12.8-59.9c6.9-13.8,18.8-19.7,29.5-19.7c12.3,0,23.4,8.2,22.6,21.5c-0.2,3.7-1.2,5.9-2.7,7.2
			c1,0.5,0.8,1.2,0.1,1.8C841.2,153.1,846,165.9,846,178.6z M835.3,177.3c0-8.3-5.9-19.4-12.5-23.9c-7.7,5.6-15.5,18.1-15.5,27.7
			c0,11.4,7.7,19.6,13.8,19.6C826.8,200.7,835.3,187.5,835.3,177.3L835.3,177.3z M898.9,150c-17.3,0-23.2,28.2-29.2,48.7
			c0.5-8.2,4.3-35.4,8.7-52.2c0.6-2.4-1.1-3.2-3.5-3.2c-19.4,0-23.7,39.1-23.7,52.7c0,19.2,4.8,35.9,13.8,35.9c1.8,0,3.5-0.6,5-1.6
			c3.8-2.9,6.7-15.4,9.8-29.5c4.3-19.7,8.8-42.3,15.7-42.3c5.5,0,5,10.6,4.5,14.1c-1.8,22.8-18.9,27.9-12.5,29.6
			c1.6,0.5,3.2,0.7,4.8,0.6c14.6,0,26-17.5,26-32.2C918.1,159.7,910.7,150,898.9,150z M942.1,173.7c-0.5-7.4-3.7-10.6-7.7-10.6
			c-6.6,0-13.8,9.1-11.9,27.9c1.6,15.1,11,19.6,17.6,19.6c5,0,8.5-2.2,6.4-4.8C939.4,197,942.8,184.2,942.1,173.7L942.1,173.7z
			 M951.4,146.2c-2.2-4.6-7.4-6.1-11.7-6.1c-1.9-0.1-3.7,0.2-5.4,1c-9,5.1-6.1,16.2,2.1,18.4c0.4,0.3,0.9,0.4,1.4,0.3h1
			C946.5,159.8,954.5,152.5,951.4,146.2L951.4,146.2z M1055,173.3c-0.3-1.3-1.6-1.9-3.7-1.9c-2.7,0-6.6,1.9-8.7,6.6
			c-2.9,5.9-4.3,13.9-9,18.9c-1.4,1.4-2.6,2.2-3.7,2.2c-7.4,0-8.2-30,4.2-40.4c2.4-1.9,4.7-2.9,6.9-2.9c6.9,0,10.6,9.1,15.4,9.1
			c1.3,0,2.5-0.6,3.4-1.6c11.4-11.4-9.4-18.9-19.7-18.9c-0.6-0.1-1.3,0-1.9,0.2c-10,1.5-19,6.6-25.3,14.5c-2.6-11.2-13.2-18-25-18
			c-20.7,0-37.8,19.1-37.8,39.3c0,19.6,18.9,33.6,33.3,33.6c2.7,0.1,5.3-0.4,7.7-1.6c0.8-0.6,1.5-1.4,1.8-2.4c0.5-1.1,0-2.2-4-2.2
			c-12.3,0-18.9-13.3-18.9-27.4c0-11.2,6.2-30.4,20.2-30.9c8,0,14.1,7.7,14.6,15.7c0,8.7-7.4,16.7-13.5,16.7c-3,0-5.3-2.1-5.9-7.2
			c-0.4-0.2-0.7-0.4-1.1-0.5c-0.5,0.1-1,0.2-1.4,0.5c-1.1,7.5,4,11.2,10.3,11.2c3.4-0.1,6.7-1,9.6-2.6c-1.7,14.8,5,28.2,21.2,28.2
			c9.1,0,15.1-3.2,19.6-11.4c3.5,12.5,9.9,16,15.1,16c5,0,8.7-3.2,7.4-4.5C1052.9,198.3,1057.2,178.9,1055,173.3z M1093.3,101.6
			c-0.7-0.3-1.5-0.5-2.2-0.5c-1.3,0-2.6,0.5-3.7,1.3c-13.6,10.9-17.6,47.1-18.9,63.5c-3.4,40.9,9.1,49.7,17.3,49.7
			c4.7,0,7.8-2.9,6.1-4.3C1071.1,195.7,1111.7,110.5,1093.3,101.6L1093.3,101.6z M1146.5,179.4c-1.8,9.8-7,15.5-16.2,19.9
			c-5.4,2.6-8.7,1.6-11.7,2.4c3.7,7.1,7.7,8.3,10.7,8.3c1.1,0,2.2-0.1,3.2-0.5h0.6c2.6,0,5.4,3.8-0.2,5.1c-2.8,0.6-5.6,0.9-8.5,1
			c-5,0-10.3-1.3-15.9-6.4c-10.9-10.1-14.7-33.3-5-48.2c6.4-10.1,14.6-14.3,22.1-14.3C1138.4,146.7,1149.8,159.5,1146.5,179.4
			L1146.5,179.4z M1131.9,175.1c0-9-4.7-16.3-9.3-16.3c-0.3,0.1-0.5,0.1-0.8,0.2c-10.9,9.1-9.6,21-5.8,32.5c1.1,0.2,2.1,0.3,3.2,0.3
			C1125.5,191.7,1131.9,187.9,1131.9,175.1L1131.9,175.1z"/>
	</defs>
	<clipPath id="SVGID_2_">
		<use xlink:href="#SVGID_1_"  style="overflow:visible;"/>
	</clipPath>
	<g class="st5">
		
			<linearGradient id="SVGID_3_" gradientUnits="userSpaceOnUse" x1="773.5" y1="78" x2="773.5" y2="245" gradientTransform="matrix(1 0 0 -1 0 312)">
			<stop  offset="0" style="stop-color:#78C45B"/>
			<stop  offset="0.5" style="stop-color:#F9A140"/>
			<stop  offset="1" style="stop-color:#FDE047"/>
		</linearGradient>
		<rect x="387" y="67" class="st6" width="773" height="167"/>
	</g>
</g>
</svg>
