<svg id="Layer_1" data-name="Layer 1" xmlns="http://www.w3.org/2000/svg" xmlns:xlink="http://www.w3.org/1999/xlink" viewBox="0 0 1203 310"><defs><style>.cls-1{fill:none;}.cls-2{fill:#78c45b;}.cls-3{fill:#f9a140;}.cls-4{fill:#eb3b98;}.cls-5{fill:#f04a4e;}.cls-6{clip-path:url(#clip-path);}.cls-7{fill:url(#linear-gradient);}</style><clipPath id="clip-path"><path class="cls-1" d="M465.25,110.3c-9.45,53.2.16,79.64-.64,101,0,3.36-3.85,4.33-8.17,4.33a38.86,38.86,0,0,1-9.62-1.29c-8-2.08-11.22-17.14-11.22-25.16-.48-38.46-.48-56.73,6.09-71.47h-.8c-4,0-12,2.72-22.27,2.72a45.64,45.64,0,0,1-19.72-4.16c-10.41-5.13-13.78-16.19-11.69-23.56,5.12-14.1,16.66-20,25.32-20a16.76,16.76,0,0,1,4.8.8c5.93,3-2.24,3.68-4.32,19.87-.8,5.93,3.68,15.54,9.61,16.35,21.16-1.93,63.46-22.6,89.11-22.6,3.68,0,6.73.16,9.77,1.28,18,5.61,16.67,24.68,2.57,24.68-3.85,0-7.7-.8-7.7-5.45.64-6.25-3.68-8.17-10.25-8.17C491.85,99.4,467.82,109.5,465.25,110.3Zm190.54,64.27c-1.77,9.78-7,15.55-16.19,19.87-5.45,2.57-8.65,1.61-11.7,2.41,3.69,7.05,7.69,8.33,10.74,8.33a9.27,9.27,0,0,0,3.2-.48h.65c2.56,0,5.44,3.85-.17,5.13a47.41,47.41,0,0,1-8.49,1c-5,0-10.26-1.28-15.86-6.41-10.9-10.1-14.75-33.33-5-48.24a33.75,33.75,0,0,1,10.21-10.64c-10.12.81-20.09,6.65-26.69,31.3-3,11.7-3.37,35.58-11.38,36.86-1.76.16-3,.32-4.33.32-4.32,0-7-1.12-8.17-3.52-4.33-9.3-15.22-48.08-.32-60.42a9.58,9.58,0,0,1,5.93-2.08c2.72,0,4.65.64,5.77,2.08-2.4,9-2.24,23.08.32,45.51,0,.16,0,.32.16.32V196c.55,0,2-28.4,8.89-49.85a11.24,11.24,0,0,1-3.6.5c-4.32,0-9.45-1.29-15.06-1.29-11.06,0-22.28,4.49-29.49,31.41-3,11.7-3.37,35.58-11.38,36.86-1.76.16-3,.32-4.33.32-4.32,0-7-1.12-8.17-3.52-2.13-4.59-5.86-16.36-7.31-28.59-2.71,5.58-7.28,9.46-13.86,12.57-5.45,2.57-8.66,1.61-11.7,2.41,3.68,7.05,7.69,8.33,10.73,8.33a9.3,9.3,0,0,0,3.21-.48h.64c2.56,0,5.45,3.85-.16,5.13a47.51,47.51,0,0,1-8.49,1c-5,0-10.26-1.28-15.87-6.41-10.9-10.1-14.74-33.33-5-48.24,6.41-10.09,14.59-14.26,22.12-14.26,8.69,0,16.78,6.05,19.91,16.27A18.6,18.6,0,0,1,521,150,9.58,9.58,0,0,1,527,148c2.73,0,4.65.64,5.77,2.08-2.4,9-2.24,23.08.32,45.51,0,.16,0,.32.16.32V196c.64,0,2.57-38.78,12.82-59.93,6.89-13.78,18.75-19.71,29.49-19.71,11.33,0,21.56,6.9,22.53,18.34,7-12.79,18.38-18.34,28.75-18.34,12.34,0,23.4,8.17,22.59,21.47-.27,4.1-1.42,6.38-3.22,7.59C653.44,150.57,658.1,160.9,655.79,174.57Zm-154-4.33c0-9-4.65-16.34-9.3-16.34a3.26,3.26,0,0,1-.8.16c-10.9,9.13-9.61,21-5.77,32.53a21.82,21.82,0,0,0,3.21.32C495.38,186.91,501.79,183.07,501.79,170.24Zm139.41,0c0-9-4.64-16.34-9.29-16.34a3.26,3.26,0,0,1-.8.16c-10.9,9.13-9.62,21-5.77,32.53a21.68,21.68,0,0,0,3.2.32C634.79,186.91,641.2,183.07,641.2,170.24ZM784.78,99.4c6.57,0,10.9,1.92,10.26,8.17,0,4.65,3.85,5.45,7.69,5.45,14.1,0,15.39-19.07-2.56-24.68-3-1.12-6.09-1.28-9.78-1.28-25.64,0-67.95,20.67-89.1,22.6-5.93-.81-10.42-10.42-9.62-16.35,2.09-16.19,10.26-16.83,4.33-19.87a16.77,16.77,0,0,0-4.81-.8c-8.65,0-20.19,5.93-25.32,20-2.08,7.37,1.28,18.43,11.7,23.56a45.57,45.57,0,0,0,19.71,4.16c10.26,0,18.27-2.72,22.28-2.72h.8c-6.57,14.74-6.57,33-6.09,71.47,0,8,3.2,23.08,11.22,25.16a38.78,38.78,0,0,0,9.61,1.29c4.33,0,8.18-1,8.18-4.33.8-21.32-8.82-47.76.64-101C746.48,109.5,770.52,99.4,784.78,99.4ZM846,178.57c-.48,14.42-9,37.82-30.28,37.82-15.55,0-28.05-14.27-28.05-35.26,0-16.51,10.17-30.72,23.58-35.65-.84,0-1.69-.09-2.55-.09-11.06,0-22.28,4.49-29.49,31.41-3,11.7-3.36,35.58-11.38,36.86-1.76.16-3,.32-4.32.32-4.33,0-7-1.12-8.18-3.52C751,201.16,740.1,162.38,755,150a9.6,9.6,0,0,1,5.93-2.08c2.73,0,4.65.64,5.77,2.08-2.4,9-2.24,23.08.32,45.51,0,.16,0,.32.16.32V196c.64,0,2.57-38.78,12.82-59.93,6.89-13.78,18.75-19.71,29.49-19.71,12.34,0,23.4,8.17,22.6,21.47-.25,3.66-1.2,5.87-2.68,7.17,1,.48.82,1.21.08,1.81C841.19,153.09,846,165.91,846,178.57Zm-10.73-1.29c0-8.33-5.93-19.39-12.5-23.87-7.7,5.61-15.55,18.11-15.55,27.72,0,11.38,7.69,19.55,13.78,19.55C826.76,200.68,835.26,187.54,835.26,177.28ZM898.87,150c-17.3,0-23.23,28.21-29.16,48.72.48-8.17,4.32-35.42,8.65-52.24.64-2.41-1.12-3.21-3.52-3.21-19.39,0-23.72,39.1-23.72,52.73,0,19.23,4.81,35.89,13.78,35.89a9.17,9.17,0,0,0,5-1.6c3.84-2.88,6.73-15.38,9.77-29.49,4.33-19.71,8.82-42.31,15.71-42.31,5.45,0,5,10.58,4.49,14.11-1.77,22.75-18.91,27.88-12.5,29.65a15.16,15.16,0,0,0,4.8.64c14.59,0,26-17.47,26-32.22C918.11,159.66,910.73,150,898.87,150Zm43.27,23.73c-.48-7.37-3.69-10.57-7.69-10.57-6.57,0-13.79,9.13-11.86,27.88,1.6,15.06,11,19.55,17.63,19.55,5,0,8.49-2.24,6.41-4.81C939.41,197,942.78,184.19,942.14,173.77Zm9.29-27.56c-2.24-4.65-7.37-6.09-11.7-6.09a11.43,11.43,0,0,0-5.44,1c-9,5.13-6.09,16.19,2.08,18.43a2.38,2.38,0,0,0,1.44.32h1C946.47,159.83,954.48,152.46,951.43,146.21ZM1055,173.28c-.32-1.28-1.61-1.92-3.69-1.92-2.72,0-6.57,1.92-8.65,6.57-2.89,5.93-4.33,13.94-9,18.91-1.44,1.44-2.56,2.24-3.69,2.24-7.37,0-8.17-30,4.17-40.38,2.41-1.93,4.65-2.89,6.89-2.89,6.89,0,10.58,9.14,15.39,9.14a4.69,4.69,0,0,0,3.36-1.61c11.38-11.37-9.45-18.91-19.71-18.91a5.52,5.52,0,0,0-1.92.16,39.88,39.88,0,0,0-25.33,14.51c-2.64-11.19-13.2-18-25-18-20.67,0-37.82,19.07-37.82,39.26C950,200,968.9,214,983.32,214a16.13,16.13,0,0,0,7.7-1.6,4.64,4.64,0,0,0,1.76-2.4c.48-1.13,0-2.25-4-2.25-12.34,0-18.91-13.3-18.91-27.4,0-11.22,6.25-30.45,20.19-30.93,8,0,14.11,7.69,14.59,15.7,0,8.66-7.37,16.67-13.46,16.67-3,0-5.29-2.08-5.93-7.21a4.3,4.3,0,0,0-1.13-.48,3.68,3.68,0,0,0-1.44.48c-1.12,7.53,4,11.22,10.26,11.22a20.35,20.35,0,0,0,9.59-2.6c-1.66,14.84,5,28.24,21.18,28.24,9.13,0,15.06-3.2,19.55-11.38,3.52,12.5,9.93,16,15.06,16,5,0,8.65-3.21,7.37-4.49C1052.87,198.28,1057.2,178.89,1055,173.28Zm38.29-71.64a5.11,5.11,0,0,0-2.24-.48,6.42,6.42,0,0,0-3.69,1.28c-13.62,10.9-17.63,47.12-18.91,63.47-3.37,40.86,9.14,49.68,17.31,49.68,4.65,0,7.85-2.89,6.09-4.33C1071.13,195.71,1111.68,110.46,1093.25,101.64Zm53.2,77.74c-1.76,9.77-7,15.54-16.18,19.87-5.45,2.57-8.66,1.6-11.7,2.4,3.69,7.06,7.69,8.34,10.74,8.34a9.27,9.27,0,0,0,3.2-.48h.64c2.57,0,5.45,3.84-.16,5.13a47.51,47.51,0,0,1-8.49,1c-5,0-10.26-1.29-15.87-6.41-10.89-10.1-14.74-33.34-5-48.24,6.41-10.1,14.58-14.26,22.11-14.26C1138.44,146.69,1149.82,159.51,1146.45,179.38Zm-14.58-4.33c0-9-4.65-16.34-9.29-16.34a3.26,3.26,0,0,1-.81.16c-10.89,9.13-9.61,21-5.77,32.53a22,22,0,0,0,3.21.32C1125.46,191.72,1131.87,187.87,1131.87,175.05Z"/></clipPath><linearGradient id="linear-gradient" x1="773.5" y1="234" x2="773.5" y2="67" gradientUnits="userSpaceOnUse"><stop offset="0" stop-color="#f9a140"/><stop offset="1" stop-color="#fde047"/></linearGradient></defs><path class="cls-2" d="M332.92,32l-13.61,6.35a10,10,0,0,0-5,12.83A158,158,0,0,1,35.68,196.68a10,10,0,0,0-13.37-3.19L9.29,201a10,10,0,0,0-3.41,14.08c51.69,79.09,155,110.21,243.08,69.09,93.37-43.56,135.5-152.34,97.49-246.79A10,10,0,0,0,332.92,32Z"/><polyline points="167.13 109.29 167.13 109.28 167.14 109.28"/><polyline points="167.13 109.29 167.13 109.28 167.14 109.28"/><path class="cls-3" d="M213.86,211.64l-36.05-77.31A10,10,0,0,0,159.09,136l-21.16,78.95a20,20,0,0,0,19.32,25.17h38.48A20,20,0,0,0,213.86,211.64Zm-42.78-42.71a9.49,9.49,0,0,1-10.29-8.63c-.46-5.23,2.48-20.42,7.7-20.87s10.77,14,11.22,19.21A9.5,9.5,0,0,1,171.08,168.93Z"/><polyline points="167.19 109.44 167.19 109.43 167.19 109.43"/><polyline points="167.19 109.44 167.19 109.43 167.19 109.43"/><path class="cls-2" d="M273.32,148.06l-80.16-29.18a10,10,0,0,0-12.08,14.4L222,204.07a20,20,0,0,0,31.46,4.14L280.62,181A20,20,0,0,0,273.32,148.06Zm-60-1.42A9.5,9.5,0,0,1,200,147.82c-4-3.37-12.68-16.19-9.31-20.21s17.5,2.28,21.52,5.65A9.49,9.49,0,0,1,213.33,146.64Z"/><polyline points="167.35 109.49 167.34 109.49 167.34 109.48"/><polyline points="167.35 109.49 167.34 109.49 167.34 109.48"/><path class="cls-4" d="M270.7,60.76,193.39,96.81A10,10,0,0,0,195,115.53l79,21.16a20,20,0,0,0,25.17-19.32V78.89A20,20,0,0,0,270.7,60.76Zm-50.34,53.07c-5.23.46-20.42-2.48-20.87-7.7s14-10.77,19.21-11.22a9.5,9.5,0,0,1,1.66,18.92Z"/><polyline points="167.49 109.43 167.48 109.43 167.48 109.43"/><path class="cls-2" d="M44.9,47.52a9.08,9.08,0,0,0-3.75,8c.81,11.83,6.33,42,40.57,58.12s61,1,70.65-5.87a9.1,9.1,0,0,0,3.76-8c-.82-11.83-6.34-42-40.58-58.13S54.53,40.59,44.9,47.52Z"/><path class="cls-2" d="M214.47,10.13a5.79,5.79,0,0,0-5.23-2.44C200.63,8.43,177,13,164,40.81c-11.61,24.91-3.44,44.41,2,53.28a10,10,0,0,0,10.11,4.72c10.27-1.57,30.46-7.84,42.08-32.75C231.13,38.27,219.44,17.2,214.47,10.13Z"/><line class="cls-1" x1="30.7" y1="188.64" x2="0.39" y2="206.14"/><path class="cls-5" d="M141.34,121,70.55,161.89a20,20,0,0,0-4.14,31.46l27.21,27.21a20,20,0,0,0,32.94-7.3l29.18-80.16A10,10,0,0,0,141.34,121Zm-2,31.08a9.5,9.5,0,0,1-14.56-12.21c3.37-4,16.19-12.68,20.21-9.31S142.73,148.08,139.36,152.1Z"/><path class="cls-4" d="M782.42,265.28l3.71-.29a64.57,64.57,0,0,1,8.23,0c1.41.07,2.83.2,4.24.3a5.58,5.58,0,0,1,3.52,1.64,1.48,1.48,0,0,1,.26.3c.24.35.58.71.32,1.16a1,1,0,0,1-1.15.39,67.12,67.12,0,0,0-7.22-.46,65.7,65.7,0,0,0-8.41.41c-1.22.09-2.43.23-3.65.29-1,.05-2,.16-3.07.23a4.49,4.49,0,0,1-4-2c-.55-.71-.32-1.2.57-1.4a1.36,1.36,0,0,1,.29-.06c.58,0,.76-.31.86-.84.53-3.09,1-6.19,1.28-9.32.27-3.33.6-6.65.87-10,.26-3.12.45-6.26.72-9.39.5-5.9.6-11.81.6-17.73,0-.88.2-1.17,1.05-1.44a5.38,5.38,0,0,1,3.41,0c.85.27,1,.56,1,1.45,0,6.15-.15,12.29-.7,18.43-.35,3.91-.54,7.84-.9,11.76a150.6,150.6,0,0,1-1.89,16.13A3,3,0,0,0,782.42,265.28Z"/><path class="cls-4" d="M824.05,255.31a13.65,13.65,0,0,1-1.46,3,54.14,54.14,0,0,1-5.38,7.22,9,9,0,0,1-4.63,3.07,8.34,8.34,0,0,1-4.21,0,5.26,5.26,0,0,1-3.56-3.06,11.17,11.17,0,0,1-1-4,43.26,43.26,0,0,1,1-12,13.62,13.62,0,0,1,2.35-5.2c3-4.07,8.35-3.66,11.3-1.68a5.29,5.29,0,0,1,1.58,7.27,13,13,0,0,1-6.46,5.33,13.16,13.16,0,0,1-3.55.86c-.51.06-.7.27-.74.8a22.6,22.6,0,0,0,.27,6.31,6,6,0,0,0,1.14,2.76,8,8,0,0,0,1.6-1.52,56.22,56.22,0,0,0,4.74-6.34,11.81,11.81,0,0,0,1.66-3.47,1.22,1.22,0,0,1,.78-.84,5.11,5.11,0,0,1,3.86-.06C824.18,254.08,824.32,254.46,824.05,255.31Zm-14.41-1.89a2.07,2.07,0,0,0,.31,0,2.24,2.24,0,0,0,.36-.14,10.78,10.78,0,0,0,4.36-3.78,4.35,4.35,0,0,0-.51-5.37.57.57,0,0,0-.93,0,9.13,9.13,0,0,0-1.87,2.54A20.18,20.18,0,0,0,809.64,253.42Z"/><path class="cls-4" d="M840.4,244.37a5,5,0,0,1-3.86,0,1.17,1.17,0,0,1-.84-1.2,2.7,2.7,0,0,0-.29-1.25c-.25-.5-.46-.55-.92-.21a5.56,5.56,0,0,0-1.77,2.35,11.85,11.85,0,0,0-.75,8.3c.24.83.45,1.66.74,2.47a60.54,60.54,0,0,1,3.07,13.08,21,21,0,0,1,.15,4.95,4.41,4.41,0,0,1-2.63,3.7,10.56,10.56,0,0,1-7.15.69,5.44,5.44,0,0,1-3-2,23.56,23.56,0,0,1-2.58-4.1c-.38-.76-.26-1.18.5-1.5a4.72,4.72,0,0,1,4,.1,2,2,0,0,1,.83,1,22.64,22.64,0,0,0,2.33,3.68c.65.83,1,.81,1.67-.07a3.83,3.83,0,0,0,.62-2.06c0-.46,0-.92,0-1.38a48.16,48.16,0,0,0-1.48-9.78,49.54,49.54,0,0,0-1.67-5.7,27.55,27.55,0,0,1-1.06-3.81,12.56,12.56,0,0,1,1.62-9.06,7.39,7.39,0,0,1,5.93-3.64,9.33,9.33,0,0,1,4.93.8,3.84,3.84,0,0,1,2.39,3.26A1.12,1.12,0,0,1,840.4,244.37Z"/><path class="cls-4" d="M864.46,244.37a5,5,0,0,1-3.86,0,1.17,1.17,0,0,1-.84-1.2,2.83,2.83,0,0,0-.29-1.25c-.25-.5-.47-.55-.92-.21a5.56,5.56,0,0,0-1.77,2.35,11.85,11.85,0,0,0-.75,8.3c.24.83.45,1.66.74,2.47a60.54,60.54,0,0,1,3.07,13.08,21,21,0,0,1,.15,4.95,4.41,4.41,0,0,1-2.63,3.7,10.56,10.56,0,0,1-7.15.69,5.44,5.44,0,0,1-3-2,23.61,23.61,0,0,1-2.59-4.1c-.37-.76-.25-1.18.51-1.5a4.72,4.72,0,0,1,4,.1,2,2,0,0,1,.83,1,22.64,22.64,0,0,0,2.33,3.68c.65.83,1.05.81,1.67-.07a3.83,3.83,0,0,0,.62-2.06c0-.46,0-.92,0-1.38a48.16,48.16,0,0,0-1.48-9.78,49.54,49.54,0,0,0-1.67-5.7,26.22,26.22,0,0,1-1.06-3.81,12.56,12.56,0,0,1,1.62-9.06,7.39,7.39,0,0,1,5.93-3.64,9.33,9.33,0,0,1,4.93.8,3.84,3.84,0,0,1,2.39,3.26A1.12,1.12,0,0,1,864.46,244.37Z"/><path class="cls-4" d="M886.48,266.26l-.24.17a4.2,4.2,0,0,1-5.82-1.77,22.42,22.42,0,0,1-1.59-6.61c0-.17,0-.33-.06-.59a1.87,1.87,0,0,0-.64.9,44.58,44.58,0,0,1-3,5,5.47,5.47,0,0,1-3.42,2.36,7.49,7.49,0,0,1-3.73-.14,4.64,4.64,0,0,1-3.06-3.13,11.12,11.12,0,0,1-.51-3.52,29.9,29.9,0,0,1,.71-7,12.77,12.77,0,0,1,5.38-7.8,10.37,10.37,0,0,1,6.5-1.71c.42,0,.9.18,1.27,0s.35-.76.47-1.15a2.36,2.36,0,0,1,2.24-1.79,6.11,6.11,0,0,1,2.75.2c.81.3,1,.6,1,1.48a19.71,19.71,0,0,1-.25,3,75,75,0,0,0-.37,12.17,24.6,24.6,0,0,0,1.2,6.81,4.15,4.15,0,0,0,1.18,2.13C886.92,265.55,886.85,265.93,886.48,266.26Zm-9.07-21a1.23,1.23,0,0,0-1.36-.3,6.77,6.77,0,0,0-1.74,1.11,10.93,10.93,0,0,0-3.62,5.67,27,27,0,0,0-.78,8.06,6,6,0,0,0,.4,2.08c.35-.14.43-.41.56-.63a61.07,61.07,0,0,0,6.61-15C877.57,245.9,877.81,245.56,877.41,245.24Z"/><path class="cls-4" d="M909,242.38a20.3,20.3,0,0,1-.85,2.64,138.06,138.06,0,0,0-4.78,13.85c-.54,1.76-1.14,3.51-1.76,5.26-.81,2.27-1.82,2.95-4.23,2.94a7.7,7.7,0,0,1-1.27-.13,3.27,3.27,0,0,1-2.61-2.18c-.92-2.44-1.86-4.87-2.76-7.32a89.74,89.74,0,0,1-3.35-11.7,15.56,15.56,0,0,0-.83-2.75c-.24-.57-.17-.87.37-1.14a4.77,4.77,0,0,1,4.38,0,1.71,1.71,0,0,1,.78,1.1,35,35,0,0,1,1.2,4.49,92.52,92.52,0,0,0,3.77,12.2.84.84,0,0,0,.37.53c.41-1.27.84-2.51,1.2-3.77a95,95,0,0,1,3.75-10.75,22.38,22.38,0,0,0,1.23-3.65,1.41,1.41,0,0,1,.91-1.08,4.81,4.81,0,0,1,3.76,0A1,1,0,0,1,909,242.38Z"/><path class="cls-4" d="M929,255.31a13.65,13.65,0,0,1-1.46,3,55.09,55.09,0,0,1-5.39,7.22,9,9,0,0,1-4.63,3.07,8.34,8.34,0,0,1-4.21,0,5.22,5.22,0,0,1-3.55-3.06,10.77,10.77,0,0,1-1-4,43.25,43.25,0,0,1,1-12,13.77,13.77,0,0,1,2.35-5.2c3-4.07,8.35-3.66,11.3-1.68a5.29,5.29,0,0,1,1.58,7.27,12.93,12.93,0,0,1-6.46,5.33,13.18,13.18,0,0,1-3.54.86c-.51.06-.71.27-.75.8a23,23,0,0,0,.27,6.31,6,6,0,0,0,1.15,2.76,8,8,0,0,0,1.59-1.52,55,55,0,0,0,4.74-6.34,11.56,11.56,0,0,0,1.66-3.47,1.22,1.22,0,0,1,.78-.84,5.11,5.11,0,0,1,3.86-.06C929.08,254.08,929.23,254.46,929,255.31Zm-14.42-1.89a2.07,2.07,0,0,0,.31,0,2.35,2.35,0,0,0,.37-.14,10.82,10.82,0,0,0,4.35-3.78,4.35,4.35,0,0,0-.51-5.37.57.57,0,0,0-.93,0,8.9,8.9,0,0,0-1.86,2.54A20.44,20.44,0,0,0,914.54,253.42Z"/><path class="cls-4" d="M950.93,267.87a5.35,5.35,0,0,1-4.94,0,2.69,2.69,0,0,1-1-1.46,11.25,11.25,0,0,1-.42-2.23,1.56,1.56,0,0,0-.16-.85c-.36.08-.45.4-.63.61a11.27,11.27,0,0,1-2.3,2.17,6.74,6.74,0,0,1-5.78.87,4.73,4.73,0,0,1-2.83-2.34,16.83,16.83,0,0,1-2-5.67,22.3,22.3,0,0,1-.34-4.54,49.64,49.64,0,0,1,.53-7.8c.26-1.37.69-1.81,2.07-2a5.62,5.62,0,0,1,2.73.22c.82.32,1.07.69.84,1.53-.85,3.14-.69,6.35-.67,9.55a17.5,17.5,0,0,0,1.36,6.56c.11.27.24.54.37.81a3.54,3.54,0,0,0,.24.38,2,2,0,0,0,.76-.75,28.32,28.32,0,0,0,4-7.58,60.65,60.65,0,0,0,2.6-9.45c.2-1.1.54-1.41,1.65-1.66a5.23,5.23,0,0,1,2.83.11c1,.32,1.16.6,1.07,1.6-.16,1.58-.37,3.15-.52,4.73A103.67,103.67,0,0,0,950,262.8a17,17,0,0,0,.32,2.65,1.24,1.24,0,0,0,.64.92C951.71,266.84,951.69,267.35,950.93,267.87Z"/><path class="cls-4" d="M974.3,249.09a3.75,3.75,0,0,1-1.47.52,4.9,4.9,0,0,1-2.35-.15,1.87,1.87,0,0,1-1.54-1.61c-.15-1-.36-1.95-.53-2.92a7.93,7.93,0,0,0-.73-2.13,16.25,16.25,0,0,0-3.42,4.32,31.93,31.93,0,0,0-2.42,6.7,56.75,56.75,0,0,0-2,12.89c-.07,1.34-.31,1.64-1.63,2a5.69,5.69,0,0,1-2.84-.06,1.64,1.64,0,0,1-1.33-1.52c-.16-1.44-.33-2.88-.36-4.34-.07-4.79.2-9.58.17-14.37,0-2.31-.08-4.62-.29-6.93a11.76,11.76,0,0,1,0-1.19,1.35,1.35,0,0,1,1.1-1.54,5.25,5.25,0,0,1,3.5,0c1,.35,1.18.79.94,1.81a1.67,1.67,0,0,0-.05.39c0,1.54.27,3.07.21,4.65.41-.06.48-.36.63-.55a26.6,26.6,0,0,1,2.15-2.59,8.76,8.76,0,0,1,7.68-2.59,4.2,4.2,0,0,1,3.25,2.32,8.61,8.61,0,0,1,1,2.8,14.07,14.07,0,0,0,.73,3.27C974.81,248.63,974.58,248.89,974.3,249.09Z"/><path class="cls-4" d="M990.58,244.37a5,5,0,0,1-3.86,0,1.17,1.17,0,0,1-.84-1.2,2.71,2.71,0,0,0-.3-1.25c-.25-.5-.46-.55-.92-.21a5.62,5.62,0,0,0-1.76,2.35,11.8,11.8,0,0,0-.75,8.3c.24.83.44,1.66.73,2.47A59.39,59.39,0,0,1,986,267.91a20.49,20.49,0,0,1,.16,4.95,4.45,4.45,0,0,1-2.63,3.7,10.56,10.56,0,0,1-7.15.69,5.41,5.41,0,0,1-3-2,23.61,23.61,0,0,1-2.59-4.1c-.38-.76-.26-1.18.5-1.5a4.74,4.74,0,0,1,4,.1,2,2,0,0,1,.83,1,21.36,21.36,0,0,0,2.33,3.68c.65.83,1,.81,1.66-.07a3.75,3.75,0,0,0,.62-2.06c0-.46,0-.92,0-1.38a48.87,48.87,0,0,0-1.48-9.78,49.59,49.59,0,0,0-1.68-5.7,26.18,26.18,0,0,1-1-3.81,12.6,12.6,0,0,1,1.61-9.06,7.43,7.43,0,0,1,5.94-3.64,9.3,9.3,0,0,1,4.92.8,3.85,3.85,0,0,1,2.4,3.26A1.13,1.13,0,0,1,990.58,244.37Z"/><path class="cls-4" d="M1016.74,258.61c-.2.33-.41.66-.6,1a42.75,42.75,0,0,1-3.76,5.47,18,18,0,0,1-2.26,2.36,6.59,6.59,0,0,1-6.14,1.35,4.25,4.25,0,0,1-2.94-2.44,10.65,10.65,0,0,1-1-3.83,23.37,23.37,0,0,1,3.2-14.07,19.45,19.45,0,0,1,4.5-5.11,11.41,11.41,0,0,1,9.85-2.41c.82.17.81.15,1.06-.62a25.06,25.06,0,0,0,.78-4.79c.52-4,1-8,1.6-12a1.84,1.84,0,0,1,1.52-1.7,5.6,5.6,0,0,1,3.22.1,1.21,1.21,0,0,1,1,1.5,76.53,76.53,0,0,1-2.14,15.28,40.71,40.71,0,0,0-.79,5.39c-.43,3.14-.79,6.3-1.08,9.45a73,73,0,0,0-.11,15.84,31.14,31.14,0,0,0,1.64,7.13,3,3,0,0,0,1.29,1.8c.6.34.53.85-.07,1.24a3.77,3.77,0,0,1-1.8.5,4,4,0,0,1-4.63-2.72,28.94,28.94,0,0,1-1.79-7.09,60.31,60.31,0,0,1-.42-10.49c0-.36,0-.73,0-1.09Zm-10.45,6.87.4-.56c.43-.54.89-1.07,1.3-1.63a65,65,0,0,0,8.45-16.32c.08-.21.21-.45.08-.66a2.14,2.14,0,0,1-.1-1.45,1.39,1.39,0,0,0-.52-1.49,1.48,1.48,0,0,0-1.67,0,11.71,11.71,0,0,0-2.84,2.14c-4.53,4.58-6.15,10.2-5.87,16.48A8.93,8.93,0,0,0,1006.29,265.48Z"/><path class="cls-4" d="M1047,267.87a5.33,5.33,0,0,1-4.93,0,2.64,2.64,0,0,1-1-1.46,11.25,11.25,0,0,1-.42-2.23c0-.29,0-.59-.17-.85-.36.08-.44.4-.62.61a11.27,11.27,0,0,1-2.3,2.17,6.74,6.74,0,0,1-5.78.87,4.73,4.73,0,0,1-2.83-2.34,16.61,16.61,0,0,1-2-5.67,22.31,22.31,0,0,1-.35-4.54,49.65,49.65,0,0,1,.54-7.8c.25-1.37.69-1.81,2.06-2a5.66,5.66,0,0,1,2.74.22c.81.32,1.07.69.84,1.53-.85,3.14-.69,6.35-.68,9.55a17.7,17.7,0,0,0,1.36,6.56c.12.27.25.54.38.81a3.54,3.54,0,0,0,.24.38,2.07,2.07,0,0,0,.75-.75,27.77,27.77,0,0,0,4-7.58,58.52,58.52,0,0,0,2.6-9.45c.21-1.1.54-1.41,1.65-1.66a5.27,5.27,0,0,1,2.84.11c1,.32,1.16.6,1.06,1.6-.15,1.58-.36,3.15-.51,4.73a105.93,105.93,0,0,0-.52,12.08,18.28,18.28,0,0,0,.33,2.65,1.2,1.2,0,0,0,.63.92C1047.81,266.84,1047.79,267.35,1047,267.87Z"/><path class="cls-4" d="M1066.16,245.83a2.45,2.45,0,0,0,.82-.76,9.74,9.74,0,0,1,9.26-3.09c2.84.48,4.14,2,4.28,4.88a20.89,20.89,0,0,1-8.12,18.36,14.63,14.63,0,0,1-6.24,3.1c-.41.08-1-.09-1.21.25s-.1.9-.11,1.35c0,5.83.27,11.63.77,17.43.07.76.14,1.52.2,2.27s-.07,1-.71,1.25a5.14,5.14,0,0,1-4.14,0,1.58,1.58,0,0,1-.85-1.26,37.76,37.76,0,0,1-.77-5.59,82.68,82.68,0,0,1-.2-12.29c.33-4.72.34-9.45.7-14.16.31-4.16.57-8.31.89-12.46.16-2,.4-4,.59-6a1.29,1.29,0,0,1,.93-1.16,5.16,5.16,0,0,1,3.59,0c.93.32,1.15.78,1,1.76C1066.47,241.63,1066.34,243.67,1066.16,245.83Zm-.88,19.64a2.2,2.2,0,0,0,1.09-.5c6.09-4.17,8.77-10.08,8.77-17.33a6.35,6.35,0,0,0-.5-2.61c-.31-.71-.46-.76-1.1-.35a8.59,8.59,0,0,0-2.25,2.21,20.93,20.93,0,0,0-2.62,4.86,62.5,62.5,0,0,0-3,11.07A11.53,11.53,0,0,0,1065.28,265.47Z"/><path class="cls-4" d="M1104.63,266.26l-.24.17a4.2,4.2,0,0,1-5.82-1.77,22.11,22.11,0,0,1-1.59-6.61c0-.17,0-.33-.06-.59a1.87,1.87,0,0,0-.64.9,46.13,46.13,0,0,1-3,5,5.47,5.47,0,0,1-3.42,2.36,7.48,7.48,0,0,1-3.73-.14,4.64,4.64,0,0,1-3.06-3.13,11.12,11.12,0,0,1-.51-3.52,30.44,30.44,0,0,1,.7-7,12.83,12.83,0,0,1,5.39-7.8,10.37,10.37,0,0,1,6.5-1.71c.42,0,.89.18,1.27,0s.35-.76.47-1.15a2.36,2.36,0,0,1,2.24-1.79,6.05,6.05,0,0,1,2.74.2,1.3,1.3,0,0,1,1,1.48,19.71,19.71,0,0,1-.25,3,73.88,73.88,0,0,0-.37,12.17,24.6,24.6,0,0,0,1.2,6.81,4.15,4.15,0,0,0,1.18,2.13C1105.07,265.55,1105,265.93,1104.63,266.26Zm-9.07-21a1.23,1.23,0,0,0-1.36-.3,6.77,6.77,0,0,0-1.74,1.11,10.93,10.93,0,0,0-3.62,5.67,27,27,0,0,0-.78,8.06,6,6,0,0,0,.4,2.08c.35-.14.43-.41.56-.63a61.07,61.07,0,0,0,6.61-15C1095.72,245.9,1096,245.56,1095.56,245.24Z"/><path class="cls-4" d="M1127,249.09a3.85,3.85,0,0,1-1.48.52,4.87,4.87,0,0,1-2.34-.15,1.87,1.87,0,0,1-1.54-1.61c-.15-1-.37-1.95-.53-2.92a7.64,7.64,0,0,0-.74-2.13,16.67,16.67,0,0,0-3.42,4.32,32.47,32.47,0,0,0-2.41,6.7,56.75,56.75,0,0,0-2,12.89c-.07,1.34-.31,1.64-1.63,2a5.69,5.69,0,0,1-2.84-.06,1.63,1.63,0,0,1-1.33-1.52c-.16-1.44-.33-2.88-.36-4.34-.07-4.79.2-9.58.17-14.37,0-2.31-.08-4.62-.29-6.93a11.76,11.76,0,0,1,0-1.19,1.35,1.35,0,0,1,1.1-1.54,5.25,5.25,0,0,1,3.5,0c1,.35,1.18.79.94,1.81a1.67,1.67,0,0,0,0,.39c0,1.54.27,3.07.2,4.65.42-.06.49-.36.63-.55a26.7,26.7,0,0,1,2.16-2.59,8.76,8.76,0,0,1,7.68-2.59,4.22,4.22,0,0,1,3.25,2.32,8.85,8.85,0,0,1,1,2.8,13.12,13.12,0,0,0,.73,3.27C1127.5,248.63,1127.28,248.89,1127,249.09Z"/><path class="cls-4" d="M1150.42,266.26a2.2,2.2,0,0,1-.25.17,4.19,4.19,0,0,1-5.81-1.77,21.81,21.81,0,0,1-1.59-6.61c0-.17,0-.33-.06-.59a1.87,1.87,0,0,0-.64.9,46.13,46.13,0,0,1-3,5,5.47,5.47,0,0,1-3.42,2.36,7.48,7.48,0,0,1-3.73-.14,4.64,4.64,0,0,1-3.06-3.13,11.12,11.12,0,0,1-.51-3.52,30.44,30.44,0,0,1,.7-7,12.83,12.83,0,0,1,5.39-7.8,10.36,10.36,0,0,1,6.5-1.71c.42,0,.89.18,1.26,0s.36-.76.48-1.15a2.36,2.36,0,0,1,2.24-1.79,6.05,6.05,0,0,1,2.74.2,1.3,1.3,0,0,1,1,1.48,19.71,19.71,0,0,1-.25,3,73.88,73.88,0,0,0-.37,12.17,24.6,24.6,0,0,0,1.2,6.81,4.15,4.15,0,0,0,1.18,2.13C1150.86,265.55,1150.79,265.93,1150.42,266.26Zm-9.07-21a1.23,1.23,0,0,0-1.36-.3,6.77,6.77,0,0,0-1.74,1.11,10.93,10.93,0,0,0-3.62,5.67,27,27,0,0,0-.78,8.06,6,6,0,0,0,.4,2.08c.35-.14.43-.41.56-.63a61.07,61.07,0,0,0,6.61-15C1141.51,245.9,1141.74,245.56,1141.35,245.24Z"/><path class="cls-4" d="M1169,258.61c-.21.33-.41.66-.61,1a42.75,42.75,0,0,1-3.76,5.47,17.39,17.39,0,0,1-2.26,2.36,6.57,6.57,0,0,1-6.13,1.35,4.25,4.25,0,0,1-3-2.44,10.63,10.63,0,0,1-1-3.83,23.29,23.29,0,0,1,3.2-14.07,19.24,19.24,0,0,1,4.49-5.11,11.41,11.41,0,0,1,9.85-2.41c.83.17.81.15,1.07-.62a25.87,25.87,0,0,0,.78-4.79c.52-4,1-8,1.59-12a1.84,1.84,0,0,1,1.53-1.7,5.6,5.6,0,0,1,3.22.1,1.22,1.22,0,0,1,1,1.5,78,78,0,0,1-2.14,15.28,40.73,40.73,0,0,0-.8,5.39c-.42,3.14-.79,6.3-1.08,9.45a73.58,73.58,0,0,0-.11,15.84,31.68,31.68,0,0,0,1.64,7.13,3.09,3.09,0,0,0,1.3,1.8c.6.34.53.85-.08,1.24a3.74,3.74,0,0,1-1.79.5,4,4,0,0,1-4.63-2.72,28.06,28.06,0,0,1-1.79-7.09,59.34,59.34,0,0,1-.42-10.49c0-.36,0-.73,0-1.09Zm-10.46,6.87c.21-.29.3-.43.41-.56.43-.54.88-1.07,1.3-1.63a65,65,0,0,0,8.44-16.32c.08-.21.22-.45.09-.66a2.08,2.08,0,0,1-.1-1.45,1.38,1.38,0,0,0-.53-1.49,1.48,1.48,0,0,0-1.67,0,11.91,11.91,0,0,0-2.84,2.14c-4.52,4.58-6.15,10.2-5.86,16.48A9.09,9.09,0,0,0,1158.53,265.48Z"/><path class="cls-4" d="M1178.77,240a15.74,15.74,0,0,0,.24-3.75,1.22,1.22,0,0,1,.66-1.31,5,5,0,0,1,3.62-.58c.92.21,1.09.43,1.13,1.34,0,.36,0,.72,0,1.23a18.16,18.16,0,0,1-.22,2.52,1.69,1.69,0,0,1-1,1.39,5.07,5.07,0,0,1-3.54.49C1178.88,241.15,1178.65,240.79,1178.77,240Zm6,10.78a53.71,53.71,0,0,0,0,12.86c.07.62.09,1.25.18,1.87a1.08,1.08,0,0,1-.57,1.17,5.07,5.07,0,0,1-4.09.58,1.06,1.06,0,0,1-.78-1,65.54,65.54,0,0,1,0-17.1,13,13,0,0,0,.12-1.87,1.4,1.4,0,0,1,.88-1.41,5.49,5.49,0,0,1,3.47-.49c.84.13,1.13.5,1.08,1.38C1185,248.1,1184.89,249.45,1184.73,250.79Z"/><path class="cls-4" d="M1201.81,244.37a5,5,0,0,1-3.86,0,1.16,1.16,0,0,1-.84-1.2,2.71,2.71,0,0,0-.3-1.25c-.25-.5-.46-.55-.92-.21a5.54,5.54,0,0,0-1.76,2.35,11.8,11.8,0,0,0-.76,8.3c.24.83.45,1.66.74,2.47a59.39,59.39,0,0,1,3.07,13.08,20.49,20.49,0,0,1,.16,4.95,4.45,4.45,0,0,1-2.63,3.7,10.56,10.56,0,0,1-7.15.69,5.41,5.41,0,0,1-3-2,23.61,23.61,0,0,1-2.59-4.1c-.38-.76-.26-1.18.5-1.5a4.74,4.74,0,0,1,4,.1,2,2,0,0,1,.83,1,21.93,21.93,0,0,0,2.32,3.68c.66.83,1,.81,1.67-.07a3.75,3.75,0,0,0,.62-2.06c0-.46,0-.92,0-1.38a48.87,48.87,0,0,0-1.48-9.78,51.67,51.67,0,0,0-1.68-5.7,27.55,27.55,0,0,1-1.06-3.81,12.66,12.66,0,0,1,1.62-9.06,7.42,7.42,0,0,1,5.93-3.64,9.32,9.32,0,0,1,4.93.8,3.82,3.82,0,0,1,2.39,3.26A1.12,1.12,0,0,1,1201.81,244.37Z"/><g class="cls-6"><rect class="cls-7" x="387" y="67" width="773" height="167"/></g></svg>