<svg width="1088" height="249" viewBox="0 0 1088 249" fill="none" xmlns="http://www.w3.org/2000/svg">
<g id="logo">
<g id="Les saveurs du paradis">
<path id="vector-19" d="M1009.52 187.029C1008.72 187.364 1007.86 187.537 1007 187.537C1006.13 187.537 1005.27 187.364 1004.47 187.029C1004.14 186.933 1003.84 186.724 1003.64 186.437C1003.44 186.15 1003.35 185.803 1003.37 185.453C1003.38 184.883 1003.24 184.32 1002.98 183.812C1002.66 183.156 1002.38 183.09 1001.78 183.537C1000.75 184.338 999.955 185.404 999.479 186.622C997.839 190.011 997.485 193.885 998.485 197.518C998.799 198.607 999.073 199.697 999.452 200.76C1001.43 206.313 1002.78 212.074 1003.47 217.931C1003.8 220.081 1003.87 222.263 1003.68 224.43C1003.59 225.475 1003.22 226.477 1002.62 227.332C1002.01 228.186 1001.19 228.862 1000.24 229.287C997.322 230.677 994.015 230.997 990.89 230.193C989.322 229.794 987.938 228.867 986.968 227.567C985.658 225.895 984.523 224.091 983.582 222.185C983.085 221.187 983.242 220.636 984.235 220.216C985.064 219.853 985.961 219.677 986.865 219.7C987.768 219.723 988.655 219.944 989.465 220.347C989.962 220.651 990.344 221.113 990.55 221.66C991.399 223.367 992.415 224.985 993.583 226.491C994.446 227.58 994.89 227.554 995.766 226.399C996.293 225.596 996.575 224.656 996.576 223.695C996.576 223.091 996.576 222.487 996.576 221.883C996.366 217.549 995.717 213.247 994.642 209.044C994.053 206.509 993.32 204.011 992.445 201.561C991.865 199.929 991.402 198.258 991.06 196.559C990.255 192.468 991.011 188.223 993.178 184.666C993.982 183.293 995.11 182.14 996.461 181.307C997.813 180.474 999.347 179.987 1000.93 179.887C1003.13 179.642 1005.36 180.005 1007.37 180.937C1008.24 181.286 1008.99 181.872 1009.55 182.628C1010.1 183.385 1010.43 184.282 1010.5 185.217C1010.61 185.588 1010.56 185.985 1010.38 186.324C1010.19 186.663 1009.89 186.916 1009.52 187.029V187.029Z" fill="#EB3B98"/>
<path id="vector-18" d="M979.398 181.292C979.698 179.669 979.804 178.016 979.712 176.369C979.651 176.027 979.702 175.674 979.857 175.364C980.013 175.054 980.265 174.803 980.575 174.649C982 173.803 983.691 173.531 985.308 173.888C986.51 174.163 986.733 174.452 986.785 175.647C986.785 176.119 986.785 176.592 986.785 177.261C986.766 178.37 986.669 179.475 986.497 180.57C986.461 180.963 986.32 181.34 986.091 181.661C985.861 181.981 985.55 182.235 985.19 182.394C983.776 183.166 982.131 183.394 980.562 183.038C979.542 182.801 979.242 182.329 979.398 181.292ZM987.242 195.443C986.569 201.051 986.569 206.719 987.242 212.326C987.334 213.14 987.36 213.967 987.478 214.781C987.537 215.083 987.496 215.397 987.361 215.674C987.227 215.951 987.006 216.177 986.733 216.317C985.944 216.813 985.061 217.138 984.14 217.269C983.218 217.4 982.28 217.335 981.386 217.078C981.097 216.999 980.842 216.828 980.659 216.592C980.475 216.355 980.372 216.065 980.366 215.765C979.39 208.315 979.39 200.768 980.366 193.317C980.477 192.503 980.529 191.683 980.523 190.862C980.492 190.47 980.588 190.079 980.795 189.746C981.002 189.413 981.31 189.156 981.673 189.011C983.075 188.305 984.668 188.079 986.21 188.368C987.308 188.538 987.687 189.024 987.622 190.179C987.543 191.925 987.399 193.697 987.19 195.457L987.242 195.443Z" fill="#EB3B98"/>
<path id="vector-17" d="M966.626 205.723C966.351 206.156 966.09 206.589 965.829 207.035C964.378 209.553 962.734 211.954 960.913 214.216C960.027 215.34 959.038 216.377 957.959 217.314C956.876 218.258 955.576 218.914 954.176 219.224C952.777 219.533 951.322 219.486 949.945 219.087C949.086 218.902 948.282 218.516 947.6 217.959C946.918 217.402 946.378 216.691 946.023 215.883C945.278 214.304 944.834 212.599 944.716 210.856C944.128 204.409 945.593 197.942 948.899 192.385C950.443 189.816 952.431 187.545 954.769 185.676C956.527 184.188 958.604 183.128 960.838 182.579C963.072 182.03 965.402 182.007 967.646 182.513C968.731 182.736 968.705 182.709 969.044 181.699C969.58 179.639 969.921 177.534 970.064 175.41C970.744 170.159 971.371 164.908 972.143 159.657C972.176 159.113 972.393 158.596 972.756 158.191C973.119 157.786 973.608 157.516 974.143 157.425C975.529 157.054 976.992 157.1 978.352 157.557C978.572 157.59 978.781 157.669 978.969 157.789C979.156 157.909 979.316 158.066 979.439 158.251C979.562 158.437 979.645 158.646 979.683 158.865C979.721 159.085 979.713 159.31 979.66 159.526C979.39 166.289 978.452 173.008 976.862 179.585C976.357 181.918 976.007 184.282 975.816 186.661C975.267 190.783 974.783 194.931 974.404 199.067C973.611 205.973 973.563 212.945 974.261 219.861C974.613 223.054 975.332 226.195 976.405 229.221C976.66 230.193 977.266 231.035 978.104 231.584C978.888 232.031 978.797 232.7 977.999 233.212C977.287 233.625 976.482 233.851 975.659 233.869C974.389 234.133 973.066 233.915 971.948 233.255C970.829 232.595 969.995 231.541 969.607 230.298C968.426 227.311 967.639 224.182 967.267 220.99C966.679 216.425 966.495 211.817 966.717 207.219C966.717 206.747 966.717 206.261 966.717 205.788L966.626 205.723ZM952.952 214.741C953.226 214.361 953.344 214.177 953.488 214.006C954.05 213.297 954.638 212.602 955.187 211.866C959.857 205.285 963.572 198.072 966.221 190.442C966.325 190.166 966.508 189.851 966.338 189.575C966.068 188.977 966.022 188.301 966.208 187.672C966.306 187.314 966.292 186.934 966.168 186.584C966.044 186.234 965.816 185.931 965.515 185.716C965.193 185.495 964.813 185.377 964.423 185.377C964.034 185.377 963.653 185.495 963.332 185.716C961.961 186.46 960.71 187.407 959.619 188.525C953.71 194.538 951.579 201.915 951.958 210.16C951.98 211.737 952.314 213.294 952.939 214.741H952.952Z" fill="#EB3B98"/>
<path id="vector-16" d="M942.336 215.765C942.233 215.847 942.123 215.922 942.01 215.988C941.363 216.356 940.649 216.587 939.911 216.669C939.173 216.75 938.426 216.68 937.715 216.463C937.005 216.246 936.346 215.886 935.778 215.405C935.211 214.924 934.747 214.332 934.414 213.665C933.274 210.899 932.572 207.971 932.335 204.987C932.335 204.764 932.335 204.554 932.257 204.213C931.866 204.513 931.574 204.925 931.42 205.394C930.252 207.663 928.942 209.855 927.498 211.958C926.472 213.541 924.866 214.654 923.027 215.056C921.413 215.41 919.735 215.347 918.151 214.873C917.199 214.571 916.336 214.038 915.638 213.322C914.94 212.605 914.429 211.726 914.151 210.764C913.683 209.269 913.458 207.709 913.484 206.143C913.434 203.054 913.742 199.97 914.399 196.953C915.36 192.762 917.881 189.098 921.446 186.713C923.951 185.038 926.941 184.248 929.943 184.468C930.492 184.468 931.107 184.705 931.59 184.468C932.074 184.232 932.061 183.471 932.218 182.959C932.381 182.299 932.757 181.711 933.286 181.286C933.815 180.861 934.469 180.623 935.146 180.609C936.344 180.419 937.57 180.509 938.728 180.871C939.152 180.966 939.524 181.22 939.767 181.582C940.01 181.943 940.106 182.384 940.035 182.814C940.027 184.134 939.917 185.45 939.709 186.753C939.11 192.056 938.948 197.399 939.225 202.729C939.326 205.769 939.854 208.778 940.794 211.669C941.018 212.735 941.555 213.709 942.336 214.466C942.912 214.833 942.82 215.332 942.336 215.765ZM930.479 188.197C930.257 187.958 929.968 187.793 929.651 187.723C929.334 187.653 929.002 187.68 928.701 187.803C927.873 188.169 927.106 188.661 926.426 189.26C924.109 191.18 922.453 193.785 921.694 196.704C920.826 200.159 920.483 203.726 920.674 207.285C920.686 208.219 920.863 209.143 921.197 210.015C921.655 209.831 921.759 209.477 921.929 209.188C925.678 203.044 928.585 196.42 930.571 189.496C930.688 189.037 930.989 188.591 930.479 188.171V188.197Z" fill="#EB3B98"/>
<path id="vector-15" d="M911.719 193.225C911.128 193.583 910.469 193.816 909.785 193.908C908.764 194.093 907.714 194.025 906.726 193.711C906.209 193.622 905.734 193.368 905.371 192.988C905.009 192.607 904.778 192.12 904.712 191.597C904.516 190.284 904.229 189.037 904.019 187.764C903.836 186.789 903.51 185.846 903.052 184.967C901.259 186.596 899.748 188.512 898.581 190.639C897.213 193.446 896.156 196.395 895.43 199.434C893.914 204.955 893.037 210.633 892.816 216.356C892.724 218.115 892.411 218.509 890.685 218.982C889.461 219.271 888.183 219.244 886.972 218.903C886.501 218.815 886.073 218.57 885.758 218.208C885.442 217.846 885.258 217.388 885.233 216.907C885.024 215.017 884.802 213.127 884.763 211.21C884.671 204.922 885.024 198.634 884.985 192.345C884.985 189.313 884.88 186.28 884.606 183.248C884.58 182.727 884.58 182.206 884.606 181.686C884.534 181.226 884.644 180.757 884.913 180.379C885.182 180.001 885.588 179.744 886.044 179.664C887.524 179.138 889.139 179.138 890.619 179.664C891.927 180.123 892.162 180.701 891.848 182.04C891.829 182.21 891.829 182.382 891.848 182.552C891.848 184.574 892.201 186.582 892.11 188.656C892.659 188.578 892.75 188.184 892.933 187.934C893.802 186.742 894.746 185.607 895.757 184.534C897.034 183.197 898.614 182.19 900.362 181.598C902.11 181.006 903.975 180.847 905.797 181.134C906.701 181.25 907.562 181.589 908.303 182.12C909.044 182.652 909.643 183.359 910.046 184.18C910.685 185.322 911.127 186.565 911.353 187.856C911.487 189.322 911.808 190.764 912.308 192.148C912.373 192.621 912.085 192.962 911.719 193.225Z" fill="#EB3B98"/>
<path id="vector-14" d="M882.475 215.765L882.161 215.988C881.514 216.356 880.799 216.588 880.06 216.669C879.321 216.751 878.573 216.681 877.861 216.464C877.15 216.247 876.489 215.887 875.921 215.405C875.352 214.924 874.887 214.332 874.553 213.665C873.418 210.897 872.717 207.97 872.474 204.987C872.474 204.764 872.474 204.554 872.396 204.213C872.005 204.513 871.713 204.925 871.559 205.394C870.391 207.663 869.081 209.855 867.637 211.958C866.61 213.541 865.004 214.654 863.166 215.056C861.551 215.41 859.873 215.347 858.29 214.873C857.338 214.571 856.474 214.038 855.777 213.322C855.079 212.605 854.568 211.726 854.289 210.764C853.821 209.269 853.596 207.709 853.623 206.143C853.573 203.054 853.88 199.97 854.538 196.953C855.498 192.762 858.019 189.098 861.584 186.713C864.09 185.038 867.08 184.249 870.082 184.468C870.631 184.468 871.245 184.705 871.742 184.468C872.239 184.232 872.2 183.471 872.356 182.959C872.52 182.299 872.895 181.711 873.424 181.286C873.954 180.861 874.607 180.623 875.285 180.609C876.483 180.419 877.709 180.509 878.867 180.871C879.291 180.966 879.662 181.22 879.905 181.582C880.149 181.943 880.245 182.384 880.174 182.814C880.165 184.134 880.056 185.45 879.847 186.753C879.249 192.056 879.087 197.399 879.364 202.729C879.465 205.769 879.993 208.778 880.932 211.669C881.157 212.735 881.694 213.709 882.475 214.466C883.05 214.833 882.959 215.332 882.475 215.765ZM870.618 188.197C870.396 187.958 870.107 187.793 869.789 187.723C869.472 187.653 869.141 187.68 868.84 187.803C868.012 188.169 867.245 188.661 866.565 189.26C864.247 191.18 862.591 193.785 861.832 196.704C860.965 200.159 860.621 203.726 860.813 207.285C860.824 208.219 861.001 209.143 861.336 210.015C861.793 209.832 861.898 209.477 862.068 209.188C865.816 203.044 868.723 196.421 870.709 189.496C870.827 189.037 871.193 188.591 870.618 188.171V188.197Z" fill="#EB3B98"/>
<path id="vector-13" d="M832.183 188.945C832.612 188.7 832.979 188.359 833.255 187.947C834.739 186.261 836.64 184.999 838.765 184.286C840.891 183.574 843.166 183.438 845.361 183.891C849.073 184.521 850.773 186.517 850.956 190.297C851.344 194.887 850.576 199.501 848.72 203.713C846.865 207.926 843.983 211.601 840.341 214.4C837.987 216.396 835.189 217.793 832.183 218.47C831.647 218.575 830.876 218.352 830.601 218.798C830.327 219.244 830.47 219.979 830.457 220.57C830.457 228.224 830.81 235.838 831.464 243.452C831.555 244.45 831.647 245.447 831.725 246.432C831.804 247.416 831.634 247.745 830.797 248.073C829.944 248.45 829.023 248.644 828.091 248.644C827.159 248.644 826.238 248.45 825.385 248.073C825.076 247.913 824.813 247.678 824.618 247.389C824.424 247.1 824.306 246.766 824.274 246.419C823.756 244.001 823.42 241.548 823.267 239.08C822.781 233.716 822.694 228.323 823.006 222.946C823.437 216.75 823.45 210.54 823.921 204.357C824.326 198.896 824.666 193.448 825.084 188C825.293 185.374 825.607 182.749 825.856 180.123C825.877 179.775 826.005 179.441 826.223 179.168C826.441 178.896 826.737 178.697 827.071 178.6C828.585 178.036 830.251 178.036 831.765 178.6C832.98 179.021 833.268 179.624 833.072 180.911C832.588 183.431 832.418 186.11 832.183 188.945ZM831.033 214.728C831.559 214.646 832.052 214.419 832.457 214.072C840.419 208.598 843.923 200.839 843.923 191.321C843.948 190.146 843.725 188.978 843.269 187.895C842.864 186.963 842.668 186.897 841.831 187.435C840.681 188.212 839.683 189.196 838.889 190.337C837.472 192.302 836.32 194.448 835.464 196.717C833.716 201.43 832.403 206.295 831.542 211.249C831.238 212.385 831.067 213.553 831.033 214.728V214.728Z" fill="#EB3B98"/>
<path id="vector-12" d="M807.135 217.879C806.14 218.4 805.035 218.672 803.913 218.672C802.79 218.672 801.685 218.4 800.69 217.879C800.048 217.41 799.586 216.733 799.383 215.962C799.102 215.007 798.918 214.027 798.834 213.035C798.834 212.654 798.834 212.26 798.611 211.919C798.141 212.024 798.036 212.444 797.801 212.72C796.937 213.806 795.925 214.765 794.794 215.568C793.701 216.316 792.454 216.807 791.146 217.005C789.838 217.203 788.502 217.102 787.238 216.711C786.449 216.472 785.715 216.077 785.079 215.55C784.444 215.022 783.92 214.372 783.538 213.639C782.223 211.338 781.337 208.815 780.924 206.195C780.569 204.229 780.416 202.232 780.466 200.235C780.433 196.809 780.669 193.385 781.172 189.995C781.499 188.197 782.074 187.619 783.865 187.37C785.065 187.169 786.295 187.268 787.447 187.659C788.506 188.079 788.846 188.564 788.545 189.667C787.434 193.789 787.643 198.003 787.656 202.204C787.698 205.162 788.301 208.085 789.434 210.816C789.591 211.171 789.761 211.525 789.931 211.879C790.025 212.052 790.13 212.219 790.245 212.378C790.651 212.141 790.989 211.802 791.225 211.394C793.47 208.369 795.235 205.012 796.454 201.443C797.931 197.41 799.068 193.261 799.853 189.037C800.128 187.593 800.559 187.186 802.01 186.858C803.238 186.564 804.522 186.614 805.723 187.002C807.03 187.422 807.24 187.79 807.109 189.103C806.913 191.177 806.638 193.238 806.442 195.312C805.915 200.581 805.688 205.876 805.762 211.171C805.821 212.339 805.966 213.502 806.194 214.649C806.223 214.903 806.314 215.145 806.457 215.355C806.601 215.566 806.793 215.738 807.017 215.857C808.194 216.527 808.168 217.196 807.135 217.879Z" fill="#EB3B98"/>
<path id="vector-11" d="M767.575 205.723C767.314 206.156 767.04 206.589 766.791 207.035C765.34 209.553 763.697 211.954 761.876 214.216C760.986 215.337 759.998 216.374 758.921 217.314C757.836 218.258 756.534 218.914 755.132 219.224C753.73 219.533 752.273 219.486 750.894 219.087C750.049 218.891 749.261 218.499 748.594 217.943C747.927 217.387 747.398 216.682 747.051 215.883C746.306 214.304 745.863 212.599 745.744 210.856C745.163 204.41 746.627 197.944 749.927 192.385C751.48 189.819 753.471 187.548 755.81 185.676C757.568 184.188 759.645 183.128 761.879 182.579C764.113 182.03 766.443 182.007 768.687 182.513C769.759 182.736 769.746 182.709 770.072 181.699C770.614 179.641 770.956 177.535 771.092 175.41C771.772 170.159 772.399 164.908 773.184 159.657C773.217 159.115 773.431 158.6 773.792 158.195C774.152 157.79 774.638 157.519 775.171 157.425C776.557 157.054 778.02 157.1 779.38 157.557C779.601 157.588 779.812 157.666 780 157.785C780.188 157.904 780.349 158.062 780.472 158.248C780.595 158.434 780.678 158.644 780.716 158.864C780.753 159.084 780.743 159.31 780.688 159.526C780.43 166.29 779.493 173.01 777.89 179.585C777.389 181.918 777.044 184.282 776.857 186.661C776.295 190.783 775.825 194.931 775.445 199.067C774.647 205.972 774.598 212.945 775.302 219.861C775.648 223.055 776.367 226.197 777.446 229.221C777.687 230.196 778.29 231.041 779.132 231.584C779.916 232.031 779.825 232.7 779.04 233.212C778.323 233.626 777.514 233.852 776.687 233.869C775.417 234.133 774.094 233.915 772.976 233.255C771.857 232.595 771.023 231.541 770.635 230.298C769.466 227.307 768.679 224.18 768.294 220.99C767.713 216.425 767.529 211.817 767.745 207.219C767.745 206.747 767.745 206.261 767.745 205.788L767.575 205.723ZM753.914 214.741L754.437 214.006C754.999 213.297 755.601 212.602 756.137 211.866C760.811 205.286 764.53 198.073 767.183 190.442C767.288 190.166 767.458 189.851 767.288 189.575C767.025 188.976 766.978 188.302 767.157 187.672C767.255 187.315 767.242 186.937 767.121 186.588C766.999 186.238 766.775 185.934 766.477 185.716C766.156 185.495 765.775 185.377 765.386 185.377C764.996 185.377 764.616 185.495 764.294 185.716C762.921 186.457 761.669 187.404 760.582 188.525C754.659 194.538 752.542 201.915 752.908 210.16C752.932 211.739 753.275 213.298 753.914 214.741V214.741Z" fill="#EB3B98"/>
<path id="vector-10" d="M733.376 187.028C732.577 187.364 731.719 187.537 730.853 187.537C729.987 187.537 729.129 187.364 728.33 187.028C727.996 186.931 727.705 186.721 727.505 186.435C727.305 186.148 727.209 185.802 727.232 185.453C727.234 184.882 727.1 184.32 726.84 183.812C726.513 183.156 726.238 183.09 725.637 183.536C724.611 184.342 723.817 185.407 723.336 186.622C721.7 190.013 721.352 193.887 722.356 197.518C722.669 198.607 722.931 199.697 723.31 200.76C725.313 206.31 726.681 212.071 727.389 217.931C727.72 220.081 727.79 222.263 727.598 224.43C727.512 225.475 727.147 226.477 726.542 227.332C725.937 228.186 725.114 228.862 724.16 229.287C721.245 230.677 717.938 230.997 714.812 230.193C713.245 229.794 711.86 228.867 710.891 227.567C709.581 225.895 708.446 224.091 707.505 222.185C707.008 221.187 707.165 220.636 708.158 220.216C708.987 219.853 709.884 219.677 710.787 219.7C711.691 219.723 712.578 219.944 713.387 220.347C713.885 220.651 714.266 221.113 714.473 221.66C715.321 223.37 716.342 224.989 717.519 226.491C718.368 227.58 718.826 227.554 719.689 226.399C720.216 225.596 720.498 224.656 720.499 223.695C720.499 223.091 720.499 222.487 720.499 221.883C720.288 217.549 719.64 213.247 718.564 209.044C717.982 206.508 717.249 204.009 716.368 201.561C715.808 199.929 715.371 198.257 715.061 196.559C714.244 192.47 714.996 188.222 717.166 184.665C717.972 183.292 719.102 182.139 720.456 181.306C721.81 180.473 723.346 179.985 724.931 179.887C727.13 179.643 729.354 180.006 731.363 180.937C732.23 181.288 732.983 181.874 733.537 182.629C734.091 183.385 734.425 184.281 734.501 185.217C734.549 185.41 734.558 185.611 734.527 185.808C734.496 186.005 734.426 186.193 734.321 186.362C734.216 186.531 734.079 186.678 733.916 186.792C733.754 186.906 733.57 186.987 733.376 187.028V187.028Z" fill="#EB3B98"/>
<path id="vector-9" d="M712.094 193.225C711.508 193.585 710.853 193.818 710.172 193.908C709.147 194.094 708.093 194.026 707.1 193.711C706.583 193.622 706.108 193.368 705.745 192.988C705.383 192.607 705.152 192.12 705.087 191.597C704.89 190.284 704.616 189.037 704.394 187.764C704.21 186.791 703.888 185.849 703.439 184.967C701.638 186.589 700.126 188.506 698.968 190.639C697.59 193.443 696.529 196.393 695.805 199.434C694.288 204.955 693.411 210.633 693.19 216.356C693.099 218.115 692.785 218.509 691.059 218.982C689.835 219.271 688.557 219.244 687.346 218.903C686.876 218.813 686.45 218.567 686.135 218.206C685.82 217.844 685.634 217.387 685.608 216.907C685.398 215.017 685.176 213.127 685.137 211.21C685.046 204.922 685.398 198.634 685.359 192.345C685.359 189.313 685.255 186.28 684.98 183.248C684.954 182.727 684.954 182.206 684.98 181.686C684.908 181.226 685.018 180.757 685.287 180.379C685.556 180.001 685.962 179.744 686.418 179.664C687.898 179.138 689.513 179.138 690.994 179.664C692.301 180.123 692.536 180.701 692.223 182.04C692.181 182.207 692.159 182.379 692.157 182.552C692.157 184.574 692.51 186.582 692.432 188.656C692.968 188.578 693.059 188.184 693.255 187.934C694.12 186.743 695.059 185.607 696.066 184.534C697.343 183.197 698.923 182.19 700.671 181.598C702.419 181.006 704.284 180.847 706.106 181.134C707.01 181.248 707.872 181.586 708.614 182.117C709.356 182.649 709.954 183.358 710.355 184.18C711 185.32 711.442 186.563 711.662 187.856C711.809 189.32 712.129 190.761 712.617 192.148C712.76 192.621 712.46 192.962 712.094 193.225Z" fill="#EB3B98"/>
<path id="vector-8" d="M681.542 217.879C680.545 218.4 679.437 218.672 678.313 218.672C677.189 218.672 676.081 218.4 675.084 217.879C674.445 217.406 673.985 216.731 673.777 215.962C673.496 215.007 673.312 214.027 673.228 213.035C673.264 212.65 673.191 212.264 673.018 211.919C672.548 212.024 672.43 212.444 672.195 212.72C671.331 213.806 670.319 214.765 669.188 215.568C668.095 216.316 666.848 216.807 665.54 217.005C664.232 217.203 662.896 217.102 661.632 216.711C660.842 216.472 660.108 216.077 659.473 215.55C658.838 215.022 658.314 214.372 657.932 213.639C656.623 211.335 655.737 208.814 655.318 206.195C654.967 204.229 654.819 202.232 654.873 200.235C654.836 196.809 655.067 193.385 655.566 189.995C655.906 188.197 656.468 187.619 658.272 187.37C659.467 187.169 660.693 187.268 661.841 187.659C662.913 188.079 663.24 188.564 662.939 189.667C661.828 193.789 662.037 198.003 662.063 202.204C662.098 205.163 662.702 208.087 663.841 210.816C663.985 211.171 664.155 211.525 664.325 211.879C664.419 212.052 664.524 212.219 664.639 212.378C665.053 212.147 665.396 211.806 665.632 211.394C667.868 208.362 669.631 205.007 670.861 201.443C672.326 197.406 673.463 193.258 674.26 189.037C674.522 187.593 674.966 187.186 676.417 186.858C677.64 186.563 678.921 186.613 680.117 187.002C681.424 187.422 681.634 187.79 681.516 189.103C681.307 191.177 681.032 193.238 680.836 195.312C680.357 200.601 680.187 205.914 680.326 211.223C680.375 212.392 680.515 213.555 680.745 214.702C680.78 214.955 680.874 215.196 681.019 215.406C681.165 215.616 681.357 215.788 681.581 215.91C682.562 216.527 682.536 217.196 681.542 217.879Z" fill="#EB3B98"/>
<path id="vector-7" d="M652.873 201.39C652.399 202.777 651.758 204.099 650.964 205.329C648.877 208.676 646.52 211.846 643.918 214.807C642.374 216.758 640.255 218.168 637.865 218.837C636.061 219.31 634.166 219.31 632.361 218.837C631.329 218.577 630.372 218.079 629.566 217.381C628.761 216.684 628.128 215.807 627.72 214.82C626.952 213.171 626.508 211.388 626.413 209.569C626.115 204.282 626.555 198.98 627.72 193.816C628.258 191.35 629.305 189.024 630.792 186.989C634.714 181.646 641.708 182.184 645.565 184.784C647.091 185.781 648.164 187.343 648.551 189.129C648.937 190.916 648.607 192.784 647.63 194.328C645.666 197.536 642.695 199.998 639.185 201.325C637.702 201.914 636.145 202.294 634.557 202.454C633.891 202.532 633.629 202.808 633.577 203.504C633.315 206.268 633.434 209.056 633.93 211.788C634.119 213.103 634.636 214.35 635.433 215.411C636.214 214.845 636.914 214.174 637.512 213.415C639.774 210.794 641.845 208.013 643.709 205.092C644.68 203.706 645.414 202.167 645.879 200.537C645.946 200.283 646.074 200.05 646.252 199.858C646.429 199.666 646.651 199.52 646.898 199.434C648.506 198.747 650.317 198.718 651.945 199.356C652.977 199.776 653.173 200.275 652.873 201.39ZM634.021 198.909C634.156 198.919 634.292 198.919 634.427 198.909C634.593 198.862 634.755 198.8 634.91 198.725C637.218 197.618 639.183 195.903 640.597 193.763C641.292 192.684 641.604 191.401 641.483 190.122C641.362 188.843 640.815 187.642 639.93 186.714C639.862 186.616 639.77 186.536 639.665 186.482C639.559 186.427 639.442 186.398 639.323 186.398C639.204 186.398 639.086 186.427 638.98 186.482C638.875 186.536 638.784 186.616 638.715 186.714C637.713 187.671 636.89 188.8 636.283 190.048C635.012 192.847 634.229 195.844 633.969 198.909H634.021Z" fill="#EB3B98"/>
<path id="vector-6" d="M626.727 184.416C626.435 185.595 626.064 186.753 625.615 187.882C623.214 193.827 621.128 199.896 619.367 206.064C618.661 208.374 617.876 210.672 617.066 212.969C616.007 215.949 614.686 216.842 611.536 216.829C610.979 216.818 610.423 216.761 609.876 216.658C609.1 216.541 608.372 216.212 607.77 215.708C607.168 215.203 606.716 214.542 606.464 213.796C605.261 210.593 604.032 207.403 602.855 204.187C601.051 199.172 599.588 194.041 598.476 188.827C598.226 187.593 597.863 186.384 597.391 185.217C597.077 184.469 597.169 184.075 597.875 183.72C598.76 183.261 599.741 183.021 600.738 183.021C601.734 183.021 602.716 183.261 603.601 183.72C603.859 183.879 604.083 184.089 604.258 184.337C604.433 184.585 604.557 184.867 604.62 185.164C605.273 187.092 605.797 189.061 606.189 191.059C607.463 196.505 609.109 201.856 611.118 207.075C611.148 207.217 611.207 207.352 611.29 207.471C611.373 207.591 611.479 207.692 611.601 207.77C612.137 206.103 612.699 204.475 613.17 202.821C614.522 198.023 616.159 193.31 618.072 188.709C618.744 187.161 619.282 185.558 619.68 183.917C619.737 183.597 619.877 183.297 620.086 183.048C620.295 182.799 620.565 182.61 620.87 182.499C621.647 182.168 622.483 181.997 623.328 181.997C624.172 181.997 625.008 182.168 625.785 182.499C625.991 182.533 626.185 182.616 626.353 182.74C626.52 182.864 626.655 183.027 626.747 183.214C626.839 183.402 626.886 183.609 626.882 183.818C626.878 184.027 626.825 184.232 626.727 184.416Z" fill="#EB3B98"/>
<path id="vector-5" d="M597.286 215.765L596.972 215.989C596.325 216.356 595.61 216.588 594.871 216.67C594.132 216.751 593.384 216.681 592.672 216.464C591.961 216.247 591.301 215.887 590.732 215.406C590.163 214.924 589.698 214.332 589.364 213.665C588.236 210.895 587.535 207.969 587.285 204.987C587.285 204.764 587.285 204.554 587.207 204.213C586.816 204.513 586.524 204.925 586.37 205.394C585.207 207.666 583.897 209.859 582.448 211.958C581.422 213.541 579.815 214.655 577.977 215.056C576.362 215.409 574.685 215.346 573.101 214.873C572.149 214.571 571.286 214.038 570.588 213.322C569.89 212.605 569.379 211.726 569.101 210.764C568.633 209.269 568.408 207.709 568.434 206.143C568.382 203.054 568.694 199.969 569.362 196.953C570.312 192.761 572.83 189.095 576.395 186.714C578.901 185.039 581.891 184.249 584.893 184.469C585.442 184.469 586.069 184.705 586.553 184.469C587.037 184.232 587.011 183.471 587.167 182.959C587.331 182.299 587.706 181.711 588.236 181.286C588.765 180.862 589.418 180.624 590.096 180.609C591.298 180.42 592.528 180.51 593.691 180.872C594.75 181.265 594.998 181.659 594.998 182.815C594.989 184.134 594.88 185.45 594.671 186.753C594.079 192.056 593.917 197.4 594.188 202.729C594.289 205.769 594.817 208.779 595.756 211.67C595.981 212.736 596.518 213.71 597.299 214.466C597.861 214.833 597.77 215.332 597.286 215.765ZM585.429 188.197C585.207 187.959 584.918 187.793 584.601 187.723C584.283 187.653 583.952 187.681 583.651 187.803C582.823 188.169 582.056 188.661 581.376 189.26C579.059 191.18 577.403 193.785 576.644 196.704C575.776 200.159 575.432 203.726 575.624 207.285C575.636 208.219 575.813 209.144 576.147 210.015C576.604 209.832 576.709 209.477 576.879 209.188C580.628 203.044 583.534 196.421 585.52 189.497C585.638 189.037 585.952 188.591 585.429 188.171V188.197Z" fill="#EB3B98"/>
<path id="vector-4" d="M568.499 187.029C567.7 187.364 566.842 187.537 565.976 187.537C565.11 187.537 564.252 187.364 563.453 187.029C563.119 186.931 562.828 186.721 562.628 186.435C562.428 186.148 562.332 185.802 562.355 185.453C562.355 184.884 562.226 184.323 561.976 183.812C561.649 183.156 561.361 183.09 560.773 183.537C559.74 184.338 558.941 185.403 558.459 186.622C556.829 190.015 556.481 193.886 557.479 197.518C557.792 198.607 558.067 199.697 558.446 200.76C560.414 206.317 561.76 212.076 562.46 217.931C562.78 220.082 562.846 222.263 562.656 224.43C562.575 225.476 562.212 226.481 561.607 227.337C561.001 228.192 560.175 228.866 559.217 229.287C556.303 230.677 552.996 230.997 549.87 230.193C548.304 229.791 546.92 228.865 545.948 227.567C544.639 225.895 543.504 224.091 542.562 222.185C542.079 221.187 542.236 220.636 543.229 220.216C544.057 219.852 544.955 219.675 545.858 219.697C546.762 219.72 547.649 219.942 548.458 220.347C548.955 220.651 549.337 221.113 549.543 221.66C550.402 223.365 551.422 224.982 552.589 226.491C553.439 227.58 553.962 227.554 554.773 226.399C555.295 225.594 555.576 224.655 555.583 223.695C555.583 223.091 555.583 222.487 555.583 221.883C555.379 217.548 554.73 213.246 553.648 209.044C553.07 206.508 552.341 204.009 551.465 201.561C550.878 199.931 550.415 198.259 550.079 196.559C549.261 192.468 550.018 188.218 552.197 184.666C552.999 183.291 554.126 182.136 555.478 181.303C556.83 180.469 558.366 179.983 559.949 179.887C562.153 179.642 564.381 180.005 566.394 180.937C567.26 181.288 568.011 181.875 568.563 182.631C569.115 183.387 569.446 184.282 569.519 185.217C569.571 185.403 569.585 185.598 569.562 185.79C569.539 185.981 569.478 186.167 569.383 186.335C569.288 186.503 569.162 186.651 569.01 186.77C568.858 186.889 568.685 186.977 568.499 187.029V187.029Z" fill="#EB3B98"/>
<path id="vector-3" d="M537.046 187.029C536.246 187.364 535.389 187.537 534.522 187.537C533.656 187.537 532.798 187.364 531.999 187.029C531.665 186.931 531.374 186.721 531.174 186.435C530.975 186.148 530.878 185.802 530.901 185.453C530.908 184.884 530.778 184.321 530.522 183.812C530.195 183.156 529.921 183.09 529.319 183.537C528.286 184.338 527.487 185.403 527.005 186.622C525.375 190.015 525.027 193.886 526.025 197.518C526.339 198.607 526.613 199.697 526.992 200.76C528.96 206.317 530.306 212.076 531.006 217.931C531.326 220.082 531.392 222.263 531.202 224.43C531.121 225.476 530.758 226.481 530.153 227.337C529.547 228.192 528.721 228.866 527.764 229.287C524.849 230.677 521.542 230.997 518.416 230.193C516.85 229.791 515.466 228.865 514.494 227.567C513.189 225.894 512.059 224.091 511.122 222.185C510.625 221.187 510.782 220.636 511.775 220.216C512.603 219.852 513.501 219.675 514.404 219.697C515.308 219.72 516.196 219.942 517.004 220.347C517.502 220.651 517.883 221.113 518.089 221.66C518.948 223.365 519.968 224.982 521.135 226.491C521.985 227.58 522.443 227.554 523.319 226.399C523.841 225.594 524.122 224.655 524.129 223.695C524.129 223.091 524.129 222.487 524.129 221.883C523.925 217.548 523.276 213.246 522.194 209.044C521.616 206.508 520.887 204.009 520.011 201.561C519.431 199.929 518.967 198.258 518.625 196.559C517.807 192.468 518.564 188.218 520.743 184.666C521.545 183.291 522.672 182.136 524.024 181.303C525.376 180.469 526.912 179.983 528.496 179.887C530.699 179.642 532.927 180.005 534.941 180.937C535.806 181.288 536.557 181.875 537.109 182.631C537.661 183.387 537.992 184.282 538.065 185.217C538.117 185.403 538.131 185.598 538.108 185.79C538.085 185.981 538.024 186.167 537.929 186.335C537.835 186.503 537.708 186.651 537.556 186.77C537.404 186.889 537.231 186.977 537.046 187.029V187.029Z" fill="#EB3B98"/>
<path id="vector-2" d="M515.671 201.39C515.197 202.777 514.556 204.099 513.762 205.329C511.684 208.679 509.331 211.849 506.729 214.807C505.185 216.758 503.066 218.168 500.676 218.837C498.872 219.31 496.977 219.31 495.172 218.837C494.14 218.575 493.182 218.076 492.374 217.379C491.567 216.682 490.931 215.806 490.518 214.82C489.762 213.166 489.318 211.386 489.211 209.569C488.913 204.282 489.353 198.98 490.518 193.816C491.051 191.348 492.098 189.021 493.59 186.989C497.512 181.646 504.507 182.184 508.363 184.784C509.889 185.781 510.962 187.343 511.349 189.129C511.736 190.916 511.405 192.784 510.429 194.328C508.459 197.532 505.49 199.992 501.983 201.325C500.496 201.916 498.934 202.296 497.342 202.454C496.676 202.532 496.427 202.808 496.375 203.504C496.106 206.268 496.225 209.057 496.728 211.788C496.913 213.102 497.425 214.349 498.218 215.411C499.004 214.846 499.708 214.174 500.31 213.415C502.568 210.791 504.638 208.01 506.507 205.092C507.473 203.703 508.206 202.164 508.677 200.537C508.744 200.283 508.872 200.05 509.05 199.858C509.227 199.666 509.45 199.52 509.696 199.434C511.304 198.747 513.115 198.718 514.743 199.356C515.841 199.776 516.024 200.275 515.671 201.39ZM496.833 198.909C496.967 198.919 497.103 198.919 497.238 198.909C497.4 198.862 497.557 198.8 497.708 198.725C500.022 197.622 501.993 195.907 503.408 193.763C504.103 192.684 504.415 191.401 504.294 190.122C504.174 188.843 503.626 187.642 502.742 186.714C502.673 186.616 502.582 186.536 502.476 186.482C502.37 186.427 502.253 186.398 502.134 186.398C502.015 186.398 501.897 186.427 501.792 186.482C501.686 186.536 501.595 186.616 501.526 186.714C500.524 187.674 499.697 188.802 499.081 190.048C497.826 192.849 497.065 195.847 496.833 198.909V198.909Z" fill="#EB3B98"/>
<path id="vector-1" d="M461.248 214.479L466.098 214.098C469.681 213.868 473.274 213.868 476.857 214.098C478.7 214.19 480.557 214.361 482.4 214.492C484.141 214.633 485.774 215.397 487.002 216.645C487.132 216.76 487.247 216.893 487.342 217.039C487.655 217.498 488.1 217.971 487.76 218.562C487.6 218.801 487.366 218.98 487.095 219.073C486.823 219.165 486.528 219.166 486.257 219.074C483.123 218.702 479.973 218.5 476.818 218.47C473.145 218.413 469.473 218.593 465.823 219.008C464.228 219.126 462.647 219.31 461.052 219.389C459.744 219.454 458.437 219.599 457.038 219.691C456.014 219.75 454.993 219.539 454.075 219.078C453.158 218.617 452.376 217.923 451.809 217.065C451.09 216.133 451.391 215.49 452.554 215.227C452.677 215.187 452.805 215.161 452.933 215.148C453.692 215.148 453.927 214.741 454.058 214.046C454.751 209.989 455.365 205.919 455.731 201.81C456.084 197.439 456.515 193.08 456.868 188.683C457.208 184.587 457.457 180.465 457.81 176.356C458.463 168.61 458.594 160.852 458.594 153.08C458.594 151.925 458.855 151.544 459.967 151.19C461.413 150.704 462.978 150.704 464.425 151.19C465.536 151.544 465.732 151.925 465.732 153.093C465.732 161.167 465.536 169.227 464.817 177.288C464.359 182.421 464.111 187.58 463.64 192.726C463.196 199.824 462.372 206.893 461.169 213.901C461.181 214.095 461.208 214.288 461.248 214.479V214.479Z" fill="#EB3B98"/>
</g>
<g id="Terre Tropicale">
<path id="vector-10_2" d="M1067.09 72.7569C1059.74 72.7569 1051.77 76.8303 1045.52 86.7199C1035.98 101.31 1039.73 124.066 1050.39 133.955C1055.87 138.969 1061.03 140.232 1065.88 140.232C1068.66 140.156 1071.43 139.828 1074.16 139.253C1079.63 137.989 1076.82 134.229 1074.31 134.229H1073.69C1072.68 134.569 1071.63 134.728 1070.57 134.699C1067.64 134.699 1063.74 133.446 1060.09 126.533C1063.02 125.75 1066.19 126.7 1071.5 124.183C1080.41 119.943 1085.57 114.293 1087.29 104.727C1090.54 85.3099 1079.44 72.7569 1067.09 72.7569ZM1060.68 116.82C1059.63 116.792 1058.58 116.688 1057.54 116.506C1053.8 105.207 1052.55 93.5937 1063.17 84.6539C1063.44 84.6355 1063.71 84.5828 1063.96 84.4972C1068.49 84.4972 1073.03 91.7137 1073.03 100.497C1073.03 113.079 1066.77 116.849 1060.68 116.849V116.82Z" fill="url(#paint0_linear)"/>
<path id="vector-9_2" d="M1035.35 28.6451C1034.67 28.3245 1033.92 28.1638 1033.17 28.1751C1031.87 28.2075 1030.61 28.6456 1029.57 29.4285C1016.28 40.1015 1012.37 75.5672 1011.12 91.5767C1007.83 131.586 1020.04 140.222 1028.01 140.222C1032.54 140.222 1035.66 137.392 1033.95 135.982C1013.77 120.756 1053.33 37.2814 1035.35 28.6451Z" fill="url(#paint1_linear)"/>
<path id="vector-8_2" d="M998.039 98.7932C997.726 97.5398 996.468 96.9131 994.439 96.9131C991.786 96.9131 988.03 98.7931 986.001 103.346C983.181 109.153 981.777 116.996 977.221 121.863C975.816 123.273 974.724 124.056 973.621 124.056C966.432 124.056 965.651 94.6806 977.689 84.5168C980.04 82.627 982.225 81.687 984.411 81.687C991.132 81.687 994.732 90.6366 999.424 90.6366C1000.05 90.6126 1000.66 90.4603 1001.23 90.1891C1001.79 89.918 1002.29 89.5338 1002.7 89.0602C1013.8 77.9269 993.483 70.544 983.474 70.544C982.845 70.4856 982.211 70.5386 981.601 70.7006C971.872 72.1318 963.043 77.2081 956.891 84.9085C954.316 73.9515 944.014 67.2833 932.503 67.2833C912.339 67.2833 895.609 85.9562 895.609 105.726C895.609 124.957 914.047 138.665 928.113 138.665C930.708 138.773 933.288 138.235 935.625 137.098C936.439 136.526 937.042 135.7 937.342 134.748C937.81 133.642 937.342 132.545 933.44 132.545C921.402 132.545 914.993 119.522 914.993 105.716C914.993 94.7296 921.09 75.9001 934.688 75.43C942.493 75.43 948.453 82.9599 948.921 90.8031C948.921 99.2827 941.732 107.126 935.791 107.126C932.864 107.126 930.63 105.089 930.006 100.066C929.663 99.8573 929.292 99.699 928.904 99.5961C928.408 99.6531 927.93 99.8131 927.499 100.066C926.406 107.439 931.401 111.052 937.508 111.052C940.788 110.993 944.002 110.118 946.863 108.507C945.244 123.038 951.74 136.158 967.524 136.158C976.431 136.158 982.216 133.025 986.596 125.015C990.03 137.255 996.283 140.682 1001.29 140.682C1006.16 140.682 1009.73 137.539 1008.48 136.286C995.961 123.273 1000.18 104.286 998.039 98.7932Z" fill="url(#paint2_linear)"/>
<path id="vector-7_2" d="M897.004 72.2869C894.819 67.7338 889.815 66.3237 885.591 66.3237C883.769 66.2091 881.946 66.5453 880.284 67.3029C871.504 72.3261 874.343 83.1558 882.313 85.3491C882.736 85.6003 883.228 85.71 883.718 85.6625H884.693C892.166 85.6233 899.98 78.4068 897.004 72.2869Z" fill="url(#paint3_linear)"/>
<path id="vector-6_2" d="M887.942 99.2729C887.473 92.0564 884.342 88.923 880.44 88.923C874.031 88.923 866.988 97.8629 868.87 116.222C870.431 130.969 879.601 135.365 886.069 135.365C890.946 135.365 894.351 133.172 892.322 130.655C885.279 122.019 888.566 109.476 887.942 99.2729Z" fill="url(#paint4_linear)"/>
<path id="vector-5_2" d="M845.731 75.998C828.855 75.998 823.07 103.62 817.285 123.703C817.753 115.704 821.499 89.021 825.723 72.5513C826.347 70.1915 824.631 69.4081 822.289 69.4081C803.374 69.4081 799.15 107.694 799.15 121.04C799.15 139.87 803.842 156.183 812.593 156.183C814.336 156.149 816.031 155.604 817.47 154.616C821.216 151.796 824.035 139.556 827.001 125.74C831.225 106.441 835.605 84.3112 842.326 84.3112C847.643 84.3112 847.204 94.6708 846.706 98.1273C844.98 120.404 828.259 125.427 834.513 127.16C836.03 127.619 837.611 127.831 839.195 127.787C853.428 127.787 864.558 110.68 864.558 96.2375C864.5 85.4568 857.301 75.998 845.731 75.998Z" fill="url(#paint5_linear)"/>
<path id="vector-4_2" d="M778.05 72.9037C778.772 72.3162 778.947 71.6014 777.972 71.1314C779.416 69.8585 780.342 67.6945 780.586 64.1108C781.367 51.0877 770.577 43.0879 758.54 43.0879C748.063 43.0879 736.493 48.8944 729.772 62.3874C719.773 83.097 717.89 121.04 717.266 121.04V120.883C717.109 120.883 717.109 120.727 717.109 120.57C714.612 98.6071 714.456 84.7909 716.797 76.0077C715.705 74.5977 713.871 73.971 711.169 73.971C709.068 73.9765 707.031 74.6904 705.384 75.9979C690.849 88.081 701.482 126.053 705.696 135.16C706.798 137.51 709.452 138.606 713.676 138.606C714.924 138.606 716.173 138.45 717.89 138.293C725.694 137.04 726.026 113.657 728.991 102.201C736.025 75.8413 746.97 71.4448 757.759 71.4448C758.598 71.4448 759.427 71.4448 760.247 71.5329C747.165 76.3602 737.244 90.2743 737.244 106.44C737.244 127.003 749.438 140.966 764.607 140.966C785.396 140.966 793.678 118.053 794.146 103.934C794.156 91.5766 789.463 79.0236 778.05 72.9037ZM769.768 125.622C763.827 125.622 756.325 117.623 756.325 106.48C756.325 97.0698 763.983 84.8301 771.494 79.3369C777.904 83.7236 783.688 94.5533 783.688 102.71C783.679 112.756 775.387 125.622 769.768 125.622Z" fill="url(#paint6_linear)"/>
<path id="vector-3_2" d="M734.434 26.4517C740.844 26.4517 745.067 28.3318 744.443 34.4516C744.443 39.0048 748.199 39.7881 751.945 39.7881C765.7 39.7881 766.958 21.1152 749.448 15.6221C746.521 14.5254 743.507 14.3687 739.907 14.3687C714.895 14.3687 673.621 34.6083 652.989 36.4981C647.204 35.7049 642.824 26.2951 643.604 20.4886C645.643 4.63572 653.613 4.00906 647.828 1.03237C646.311 0.543189 644.73 0.279284 643.136 0.249023C634.698 0.249023 623.44 6.05553 618.436 19.8325C616.407 27.049 619.685 37.8787 629.849 42.9019C635.876 45.6824 642.445 47.0741 649.077 46.9752C659.086 46.9752 666.9 44.3119 670.811 44.3119H671.592C665.183 58.7449 665.183 76.6246 665.651 114.293C665.651 122.127 668.773 136.893 676.596 138.93C679.656 139.743 682.806 140.167 685.971 140.193C690.195 140.193 693.951 139.213 693.951 135.953C694.731 115.077 685.346 89.1875 694.575 37.0562C697.072 36.3414 720.524 26.4517 734.434 26.4517Z" fill="url(#paint7_linear)"/>
<path id="vector-2_2" d="M599.228 71.5427C600.984 70.3579 602.154 68.1254 602.369 64.1108C603.159 51.0878 592.37 43.0879 580.332 43.0879C570.216 43.0879 559.095 48.5223 552.286 61.046C551.311 49.8442 541.36 43.0879 530.308 43.0879C519.831 43.0879 508.261 48.8944 501.54 62.3874C491.541 83.097 489.658 121.04 489.034 121.04V120.883C488.878 120.883 488.878 120.727 488.878 120.57C486.38 98.6071 486.224 84.7909 488.565 76.0077C487.473 74.5977 485.639 73.9711 482.937 73.9711C480.823 73.9661 478.77 74.6807 477.113 75.998C474.674 78.1245 472.846 80.8659 471.816 83.9391C468.762 73.9319 460.871 68.0079 452.393 68.0079C445.048 68.0079 437.068 72.0911 430.815 81.9709C421.284 96.5704 425.03 119.317 435.692 129.206C441.165 134.229 446.326 135.483 451.174 135.483C453.958 135.407 456.73 135.079 459.456 134.504C464.929 133.25 462.109 129.48 459.612 129.48H458.988C457.98 129.82 456.92 129.979 455.856 129.95C452.93 129.95 448.979 128.697 445.389 121.794C448.316 121.011 451.486 121.951 456.803 119.434C463.222 116.389 467.68 112.58 470.323 107.126C471.738 119.101 475.376 130.626 477.454 135.121C478.547 137.471 481.21 138.567 485.424 138.567C486.683 138.567 487.931 138.411 489.648 138.254C497.452 137.001 497.774 113.618 500.75 102.162C507.783 75.8021 518.728 71.4056 529.517 71.4056C534.99 71.4056 539.995 72.6688 544.209 72.6688C545.398 72.6979 546.584 72.5325 547.721 72.1792C541.038 93.1825 539.585 120.991 539.048 120.991V120.834C538.892 120.834 538.892 120.678 538.892 120.521C536.405 98.6365 536.249 84.8105 538.57 75.998C537.478 74.5879 535.644 73.9613 532.942 73.9613C530.84 73.968 528.802 74.6855 527.157 75.998C512.622 88.081 523.255 126.053 527.469 135.16C528.562 137.51 531.225 138.606 535.439 138.606C536.697 138.606 537.946 138.45 539.663 138.293C547.467 137.04 547.789 113.657 550.764 102.201C557.203 78.064 566.929 72.3456 576.801 71.5525C572.759 74.2594 569.364 77.8307 566.86 82.0101C557.32 96.6096 561.075 119.356 571.738 129.245C577.201 134.269 582.361 135.522 587.209 135.522C589.994 135.447 592.766 135.119 595.492 134.543C600.964 133.289 598.155 129.52 595.657 129.52H595.023C594.018 129.859 592.962 130.018 591.902 129.99C588.975 129.99 585.073 128.736 581.425 121.833C584.4 121.05 587.522 121.99 592.838 119.473C601.754 115.243 606.905 109.593 608.632 100.017C610.856 86.671 606.31 76.5561 599.228 71.5427ZM446.072 112.139C445.022 112.113 443.975 112.008 442.941 111.826C439.195 100.526 437.936 88.9133 448.569 79.9734C448.835 79.9542 449.097 79.9016 449.35 79.8167C453.886 79.8167 458.422 87.0333 458.422 95.8165C458.373 108.379 452.12 112.139 446.023 112.139H446.072ZM582.069 112.139C581.022 112.113 579.978 112.008 578.947 111.826C575.191 100.526 573.942 88.9133 584.576 79.9734C584.841 79.9542 585.103 79.9016 585.356 79.8167C589.892 79.8167 594.419 87.0333 594.419 95.8165C594.37 108.379 588.117 112.139 582.02 112.139H582.069Z" fill="url(#paint8_linear)"/>
<path id="vector-1_2" d="M462.597 26.4517C469.006 26.4517 473.221 28.3318 472.596 34.4516C472.596 39.0048 476.352 39.7881 480.108 39.7881C493.863 39.7881 495.111 21.1152 477.601 15.6221C474.674 14.5254 471.66 14.3687 468.07 14.3687C443.048 14.3687 401.735 34.6083 381.142 36.4981C375.357 35.7049 370.987 26.2951 371.767 20.4886C373.796 4.63572 381.766 4.00906 375.981 1.03237C374.467 0.543992 372.889 0.280095 371.299 0.249023C362.851 0.249023 351.593 6.05553 346.599 19.8325C344.56 27.049 347.847 37.8787 358.002 42.9019C364.032 45.6816 370.605 47.0733 377.24 46.9752C387.239 46.9752 395.062 44.3119 398.964 44.3119H399.745C393.336 58.7449 393.336 76.6246 393.804 114.293C393.804 122.127 396.935 136.893 404.749 138.93C407.812 139.743 410.965 140.167 414.134 140.193C418.348 140.193 422.104 139.213 422.104 135.953C422.884 115.077 413.509 89.1875 422.728 37.0562C425.235 36.3414 448.677 26.4517 462.597 26.4517Z" fill="url(#paint9_linear)"/>
</g>
<path id="peel" d="M276.827 20.7218L265.371 26.0795C263.42 26.9999 261.895 28.636 261.112 30.6502C260.329 32.6645 260.347 34.9032 261.163 36.9045C273.322 67.5576 273.712 101.641 262.257 132.566C250.802 163.491 228.315 189.06 199.144 204.329C169.973 219.599 136.191 223.484 104.328 215.235C72.4654 206.985 44.7855 187.186 26.6403 159.666C25.4632 157.861 23.6409 156.576 21.548 156.075C19.455 155.575 17.2503 155.897 15.3868 156.975L4.4279 163.311C3.44006 163.882 2.57827 164.649 1.89485 165.564C1.21142 166.479 0.720605 167.523 0.452192 168.634C0.183779 169.745 0.143366 170.899 0.333406 172.026C0.523445 173.153 0.939973 174.23 1.55771 175.191C45.0651 241.921 132.021 268.178 206.158 233.484C284.747 196.731 320.208 104.951 288.215 25.2611C287.792 24.1912 287.156 23.2192 286.345 22.405C285.534 21.5907 284.565 20.9513 283.499 20.5262C282.432 20.101 281.29 19.899 280.142 19.9327C278.995 19.9663 277.867 20.2349 276.827 20.7218Z" fill="#78C45B"/>
<g id="slices">
<path id="slice-pink" d="M224.455 44.9874L159.384 75.4037C157.819 76.1338 156.515 77.3286 155.65 78.8263C154.786 80.324 154.401 82.052 154.549 83.7761C154.697 85.5003 155.37 87.1371 156.477 88.4648C157.585 89.7924 159.072 90.7467 160.739 91.1982L227.233 109.051C229.727 109.72 232.341 109.805 234.873 109.3C237.405 108.794 239.787 107.712 241.835 106.136C243.882 104.561 245.541 102.534 246.683 100.213C247.825 97.8917 248.419 95.3385 248.419 92.7506V60.2841C248.42 57.4445 247.707 54.6504 246.345 52.1606C244.983 49.6707 243.016 47.5657 240.627 46.0404C238.237 44.5152 235.503 43.619 232.676 43.4349C229.849 43.2508 227.022 43.7848 224.455 44.9874ZM182.084 89.7639C177.682 90.152 164.897 87.6714 164.518 83.2672C164.139 78.8629 176.302 74.1803 180.687 73.8006C182.766 73.6759 184.811 74.369 186.388 75.7323C187.964 77.0957 188.948 79.0218 189.13 81.1011C189.312 83.1804 188.678 85.2489 187.362 86.8666C186.046 88.4844 184.153 89.5238 182.084 89.7639Z" fill="#EB3B98"/>
<path id="slice-yellow" d="M226.661 118.645L159.19 94.0247C157.567 93.432 155.801 93.3545 154.132 93.8028C152.463 94.251 150.972 95.2031 149.862 96.53C148.751 97.8569 148.075 99.4941 147.925 101.22C147.775 102.945 148.158 104.675 149.023 106.174L183.465 165.902C184.756 168.143 186.544 170.056 188.691 171.493C190.838 172.931 193.286 173.854 195.846 174.192C198.405 174.53 201.008 174.273 203.453 173.441C205.898 172.609 208.119 171.224 209.945 169.395L232.805 146.437C234.808 144.431 236.273 141.951 237.065 139.226C237.858 136.502 237.952 133.621 237.34 130.851C236.727 128.08 235.428 125.509 233.561 123.376C231.694 121.242 229.321 119.615 226.661 118.645ZM176.159 117.446C174.798 119.06 172.857 120.07 170.758 120.256C168.658 120.443 166.57 119.791 164.948 118.442C161.581 115.599 154.275 104.782 157.111 101.39C159.948 97.9986 171.841 103.314 175.225 106.157C176.026 106.836 176.687 107.667 177.168 108.602C177.65 109.537 177.942 110.558 178.03 111.606C178.117 112.655 177.998 113.71 177.678 114.712C177.359 115.714 176.845 116.643 176.167 117.446H176.159Z" fill="#FDE047"/>
<path id="slice-orange" d="M176.613 172.289L146.27 107.06C145.538 105.492 144.341 104.188 142.844 103.325C141.346 102.461 139.62 102.081 137.9 102.235C136.179 102.388 134.547 103.069 133.226 104.185C131.905 105.3 130.958 106.796 130.514 108.469L112.703 175.081C112.036 177.581 111.951 180.201 112.455 182.739C112.96 185.277 114.039 187.665 115.611 189.718C117.183 191.771 119.205 193.434 121.521 194.578C123.836 195.723 126.383 196.318 128.965 196.318H161.353C164.187 196.32 166.976 195.605 169.461 194.24C171.946 192.874 174.046 190.901 175.568 188.505C177.09 186.109 177.984 183.366 178.166 180.531C178.349 177.696 177.815 174.861 176.613 172.289V172.289ZM140.606 136.253C139.56 136.346 138.506 136.231 137.505 135.915C136.503 135.599 135.574 135.088 134.769 134.412C133.965 133.736 133.301 132.907 132.817 131.974C132.332 131.04 132.036 130.02 131.944 128.972C131.557 124.559 134.032 111.743 138.426 111.363C142.819 110.983 147.491 123.175 147.869 127.571C148.054 129.688 147.392 131.791 146.03 133.419C144.668 135.047 142.717 136.067 140.606 136.253V136.253Z" fill="#F9A140"/>
<path id="slice-red" d="M115.574 95.8133L55.9897 130.313C53.7541 131.608 51.8454 133.4 50.4113 135.552C48.9772 137.704 48.0561 140.158 47.7192 142.724C47.3824 145.29 47.6388 147.899 48.4687 150.35C49.2986 152.8 50.6796 155.027 52.5051 156.857L75.4077 179.815C77.409 181.822 79.883 183.29 82.6008 184.085C85.3186 184.88 88.1923 184.974 90.9563 184.36C93.7202 183.746 96.285 182.443 98.4135 180.572C100.542 178.701 102.165 176.322 103.133 173.655L127.694 106.022C128.291 104.394 128.372 102.621 127.927 100.945C127.482 99.2684 126.533 97.7703 125.208 96.6543C123.883 95.5384 122.247 94.8589 120.523 94.7085C118.799 94.558 117.071 94.9438 115.574 95.8133V95.8133ZM113.89 122.036C112.527 123.665 110.575 124.685 108.462 124.871C106.349 125.057 104.249 124.394 102.624 123.028C100.999 121.662 99.9817 119.704 99.7962 117.586C99.6107 115.468 100.272 113.363 101.635 111.734C104.472 108.36 115.262 101.036 118.646 103.879C122.029 106.723 116.743 118.661 113.907 122.053L113.89 122.036Z" fill="#F04A4E"/>
</g>
<g id="leaves">
<path id="leaf-right" d="M177.127 2.26965C176.637 1.57058 175.972 1.01257 175.2 0.651333C174.428 0.290093 173.574 0.13825 172.725 0.210959C165.478 0.835315 145.588 4.69114 134.646 28.1551C124.874 49.1723 131.751 65.6249 136.33 73.1087C137.193 74.545 138.463 75.6909 139.979 76.4002C141.495 77.1095 143.187 77.35 144.839 77.0911C153.484 75.7665 170.477 70.4763 180.258 49.4592C191.15 26.0121 181.31 8.23478 177.127 2.26965Z" fill="#78C45B"/>
<path id="leaf-left" d="M34.4002 33.8165C33.3443 34.5791 32.5001 35.5994 31.9478 36.7806C31.3954 37.9619 31.1531 39.2649 31.2438 40.5663C31.9256 50.5476 36.5718 76.0028 65.3915 89.6036C94.2113 103.204 116.735 90.4473 124.857 84.6509C125.914 83.8882 126.759 82.8681 127.312 81.6871C127.866 80.5061 128.11 79.2031 128.022 77.9011C127.332 67.9199 122.686 42.4647 93.8662 28.8554C65.0464 15.2461 42.5057 27.9695 34.4002 33.8165Z" fill="#78C45B"/>
</g>
</g>
<defs>
<linearGradient id="paint0_linear" x1="1063.95" y1="72.7569" x2="1063.95" y2="140.232" gradientUnits="userSpaceOnUse">
<stop stop-color="#FDE047"/>
<stop offset="0.404514" stop-color="#F9A140"/>
<stop offset="1" stop-color="#78C45B"/>
</linearGradient>
<linearGradient id="paint1_linear" x1="1025.37" y1="28.1746" x2="1025.37" y2="140.222" gradientUnits="userSpaceOnUse">
<stop stop-color="#FDE047"/>
<stop offset="0.404514" stop-color="#F9A140"/>
<stop offset="1" stop-color="#78C45B"/>
</linearGradient>
<linearGradient id="paint2_linear" x1="952.169" y1="67.2833" x2="952.169" y2="140.682" gradientUnits="userSpaceOnUse">
<stop stop-color="#FDE047"/>
<stop offset="0.404514" stop-color="#F9A140"/>
<stop offset="1" stop-color="#78C45B"/>
</linearGradient>
<linearGradient id="paint3_linear" x1="886.27" y1="66.3018" x2="886.27" y2="85.6733" gradientUnits="userSpaceOnUse">
<stop stop-color="#FDE047"/>
<stop offset="0.404514" stop-color="#F9A140"/>
<stop offset="1" stop-color="#78C45B"/>
</linearGradient>
<linearGradient id="paint4_linear" x1="880.74" y1="88.923" x2="880.74" y2="135.365" gradientUnits="userSpaceOnUse">
<stop stop-color="#FDE047"/>
<stop offset="0.404514" stop-color="#F9A140"/>
<stop offset="1" stop-color="#78C45B"/>
</linearGradient>
<linearGradient id="paint5_linear" x1="831.854" y1="69.4081" x2="831.854" y2="156.183" gradientUnits="userSpaceOnUse">
<stop stop-color="#FDE047"/>
<stop offset="0.404514" stop-color="#F9A140"/>
<stop offset="1" stop-color="#78C45B"/>
</linearGradient>
<linearGradient id="paint6_linear" x1="746.065" y1="43.0879" x2="746.065" y2="140.966" gradientUnits="userSpaceOnUse">
<stop stop-color="#FDE047"/>
<stop offset="0.404514" stop-color="#F9A140"/>
<stop offset="1" stop-color="#78C45B"/>
</linearGradient>
<linearGradient id="paint7_linear" x1="690.145" y1="0.249023" x2="690.145" y2="140.193" gradientUnits="userSpaceOnUse">
<stop stop-color="#FDE047"/>
<stop offset="0.404514" stop-color="#F9A140"/>
<stop offset="1" stop-color="#78C45B"/>
</linearGradient>
<linearGradient id="paint8_linear" x1="517.272" y1="43.0879" x2="517.272" y2="138.606" gradientUnits="userSpaceOnUse">
<stop stop-color="#FDE047"/>
<stop offset="0.404514" stop-color="#F9A140"/>
<stop offset="1" stop-color="#78C45B"/>
</linearGradient>
<linearGradient id="paint9_linear" x1="418.304" y1="0.249023" x2="418.304" y2="140.193" gradientUnits="userSpaceOnUse">
<stop stop-color="#FDE047"/>
<stop offset="0.404514" stop-color="#F9A140"/>
<stop offset="1" stop-color="#78C45B"/>
</linearGradient>
</defs>
</svg>
