<svg width="4062" height="1000" viewBox="0 0 4062 1000" fill="none" xmlns="http://www.w3.org/2000/svg">
<g id="logo" clip-path="url(#clip0)">
<g id="Les saveurs du paradis">
<path id="vector-19" d="M4058.62 802.826C4056.55 803.693 4054.33 804.139 4052.08 804.139C4049.84 804.139 4047.61 803.693 4045.54 802.826C4044.67 802.579 4043.91 802.04 4043.39 801.299C4042.88 800.558 4042.63 799.662 4042.69 798.76C4042.7 797.287 4042.35 795.834 4041.68 794.524C4040.83 792.83 4040.12 792.661 4038.56 793.813C4035.89 795.882 4033.83 798.633 4032.6 801.776C4028.35 810.525 4027.43 820.524 4030.02 829.9C4030.83 832.712 4031.55 835.525 4032.53 838.269C4037.66 852.602 4041.15 867.471 4042.93 882.59C4043.79 888.139 4043.97 893.771 4043.47 899.363C4043.25 902.06 4042.3 904.648 4040.74 906.854C4039.17 909.059 4037.04 910.803 4034.56 911.9C4027.01 915.487 4018.44 916.314 4010.34 914.238C4006.27 913.208 4002.68 910.816 4000.17 907.461C3996.78 903.144 3993.83 898.489 3991.39 893.569C3990.11 890.994 3990.51 889.57 3993.09 888.486C3995.23 887.551 3997.56 887.097 3999.9 887.155C4002.24 887.214 4004.54 887.784 4006.64 888.825C4007.93 889.61 4008.92 890.802 4009.45 892.213C4011.65 896.62 4014.29 900.797 4017.32 904.683C4019.55 907.495 4020.7 907.428 4022.97 904.446C4024.34 902.374 4025.07 899.947 4025.07 897.465C4025.07 895.907 4025.07 894.348 4025.07 892.789C4024.53 881.602 4022.85 870.499 4020.06 859.65C4018.53 853.108 4016.63 846.66 4014.37 840.336C4012.86 836.124 4011.66 831.81 4010.78 827.426C4008.69 816.867 4010.65 805.909 4016.26 796.727C4018.35 793.185 4021.27 790.209 4024.78 788.058C4028.28 785.908 4032.26 784.65 4036.36 784.393C4042.07 783.76 4047.85 784.697 4053.06 787.104C4055.31 788.003 4057.26 789.515 4058.69 791.468C4060.12 793.421 4060.98 795.736 4061.16 798.15C4061.44 799.107 4061.32 800.133 4060.85 801.008C4060.37 801.883 4059.57 802.536 4058.62 802.826V802.826Z" fill="#EB3B98"/>
<path id="vector-18" d="M3980.55 788.019C3981.33 783.831 3981.6 779.565 3981.36 775.312C3981.2 774.429 3981.34 773.519 3981.74 772.719C3982.14 771.918 3982.8 771.27 3983.6 770.873C3987.29 768.688 3991.68 767.986 3995.87 768.908C3998.98 769.619 3999.56 770.365 3999.7 773.448C3999.7 774.668 3999.7 775.888 3999.7 777.616C3999.65 780.476 3999.4 783.329 3998.95 786.155C3998.86 787.171 3998.49 788.143 3997.9 788.971C3997.3 789.799 3996.49 790.453 3995.56 790.865C3991.9 792.856 3987.63 793.446 3983.57 792.525C3980.92 791.915 3980.14 790.695 3980.55 788.019ZM4000.88 824.546C3999.14 839.019 3999.14 853.649 4000.88 868.122C4001.12 870.222 4001.19 872.357 4001.49 874.458C4001.64 875.239 4001.54 876.048 4001.19 876.764C4000.84 877.479 4000.27 878.061 3999.56 878.422C3997.52 879.704 3995.23 880.542 3992.84 880.88C3990.45 881.219 3988.02 881.051 3985.7 880.388C3984.95 880.183 3984.29 879.743 3983.82 879.132C3983.34 878.522 3983.07 877.774 3983.06 876.999C3980.53 857.768 3980.53 838.288 3983.06 819.057C3983.35 816.957 3983.48 814.839 3983.46 812.72C3983.39 811.71 3983.63 810.701 3984.17 809.841C3984.71 808.981 3985.5 808.316 3986.45 807.943C3990.08 806.12 3994.21 805.536 3998.2 806.282C4001.05 806.723 4002.03 807.976 4001.86 810.958C4001.66 815.465 4001.29 820.039 4000.75 824.58L4000.88 824.546Z" fill="#EB3B98"/>
<path id="vector-17" d="M3947.44 851.077C3946.73 852.196 3946.06 853.314 3945.38 854.466C3941.62 860.965 3937.36 867.162 3932.64 873.001C3930.34 875.901 3927.78 878.578 3924.98 880.998C3922.17 883.433 3918.8 885.127 3915.18 885.926C3911.55 886.725 3907.78 886.603 3904.21 885.572C3901.98 885.096 3899.9 884.098 3898.13 882.661C3896.36 881.224 3894.96 879.388 3894.04 877.304C3892.11 873.229 3890.96 868.826 3890.65 864.326C3889.13 847.687 3892.93 830.994 3901.5 816.651C3905.5 810.021 3910.65 804.158 3916.71 799.336C3921.27 795.494 3926.65 792.758 3932.44 791.341C3938.23 789.925 3944.27 789.866 3950.09 791.17C3952.9 791.746 3952.83 791.678 3953.71 789.069C3955.1 783.753 3955.99 778.319 3956.36 772.838C3958.12 759.284 3959.74 745.731 3961.74 732.177C3961.83 730.772 3962.39 729.439 3963.33 728.393C3964.27 727.347 3965.54 726.651 3966.93 726.416C3970.52 725.458 3974.31 725.576 3977.84 726.755C3978.41 726.842 3978.95 727.046 3979.44 727.355C3979.92 727.664 3980.34 728.07 3980.66 728.549C3980.97 729.027 3981.19 729.567 3981.29 730.133C3981.39 730.699 3981.37 731.28 3981.23 731.838C3980.53 749.294 3978.1 766.637 3973.98 783.613C3972.67 789.634 3971.76 795.736 3971.27 801.877C3969.84 812.517 3968.59 823.224 3967.61 833.898C3965.55 851.724 3965.43 869.719 3967.23 887.571C3968.15 895.812 3970.01 903.919 3972.79 911.731C3973.45 914.239 3975.02 916.413 3977.2 917.83C3979.23 918.982 3978.99 920.71 3976.92 922.032C3975.08 923.098 3972.99 923.68 3970.86 923.726C3967.57 924.409 3964.14 923.845 3961.24 922.141C3958.34 920.438 3956.18 917.718 3955.17 914.509C3952.11 906.8 3950.07 898.723 3949.11 890.485C3947.58 878.702 3947.11 866.807 3947.68 854.94C3947.68 853.721 3947.68 852.467 3947.68 851.247L3947.44 851.077ZM3912 874.356C3912.71 873.374 3913.02 872.899 3913.39 872.459C3914.85 870.629 3916.37 868.833 3917.8 866.935C3929.9 849.949 3939.53 831.33 3946.39 811.636C3946.67 810.924 3947.14 810.111 3946.7 809.4C3946 807.856 3945.88 806.112 3946.36 804.486C3946.62 803.562 3946.58 802.582 3946.26 801.679C3945.94 800.776 3945.35 799.994 3944.56 799.437C3943.73 798.868 3942.74 798.563 3941.74 798.563C3940.73 798.563 3939.74 798.868 3938.91 799.437C3935.35 801.359 3932.11 803.804 3929.28 806.689C3913.97 822.208 3908.44 841.251 3909.43 862.53C3909.48 866.602 3910.35 870.621 3911.97 874.356H3912Z" fill="#EB3B98"/>
<path id="vector-16" d="M3884.49 876.999C3884.22 877.21 3883.94 877.403 3883.64 877.575C3881.97 878.523 3880.11 879.121 3878.2 879.331C3876.29 879.542 3874.35 879.361 3872.51 878.8C3870.67 878.24 3868.96 877.31 3867.49 876.068C3866.02 874.827 3864.82 873.299 3863.95 871.578C3861 864.439 3859.18 856.882 3858.57 849.18C3858.57 848.604 3858.57 848.062 3858.36 847.181C3857.35 847.956 3856.59 849.019 3856.19 850.23C3853.17 856.087 3849.77 861.745 3846.03 867.173C3843.37 871.259 3839.2 874.132 3834.44 875.169C3830.26 876.082 3825.91 875.919 3821.8 874.695C3819.33 873.917 3817.1 872.542 3815.29 870.692C3813.48 868.842 3812.16 866.574 3811.43 864.089C3810.22 860.232 3809.64 856.205 3809.7 852.162C3809.58 844.19 3810.37 836.231 3812.08 828.443C3814.57 817.624 3821.1 808.168 3830.34 802.013C3836.83 797.687 3844.58 795.649 3852.37 796.218C3853.79 796.218 3855.38 796.828 3856.63 796.218C3857.89 795.609 3857.85 793.643 3858.26 792.322C3858.69 790.618 3859.66 789.1 3861.03 788.004C3862.4 786.908 3864.1 786.294 3865.85 786.256C3868.96 785.767 3872.13 785.999 3875.14 786.934C3876.23 787.179 3877.2 787.835 3877.83 788.767C3878.46 789.7 3878.71 790.838 3878.52 791.949C3878.5 795.354 3878.22 798.752 3877.68 802.114C3876.13 815.802 3875.71 829.595 3876.42 843.352C3876.69 851.197 3878.05 858.965 3880.49 866.427C3881.07 869.179 3882.46 871.693 3884.49 873.645C3885.98 874.593 3885.74 875.881 3884.49 876.999ZM3853.75 805.842C3853.18 805.226 3852.43 804.8 3851.61 804.618C3850.79 804.437 3849.93 804.509 3849.15 804.825C3847 805.77 3845.01 807.039 3843.25 808.586C3837.24 813.542 3832.95 820.264 3830.98 827.799C3828.74 836.718 3827.84 845.925 3828.34 855.11C3828.37 857.521 3828.83 859.907 3829.7 862.158C3830.88 861.683 3831.15 860.769 3831.59 860.023C3841.31 844.164 3848.84 827.068 3853.99 809.196C3854.3 808.01 3855.08 806.858 3853.75 805.774V805.842Z" fill="#EB3B98"/>
<path id="vector-15" d="M3805.13 818.819C3803.6 819.745 3801.89 820.345 3800.12 820.581C3797.47 821.06 3794.75 820.886 3792.19 820.073C3790.85 819.844 3789.62 819.19 3788.68 818.207C3787.74 817.225 3787.14 815.967 3786.97 814.618C3786.46 811.229 3785.71 808.01 3785.17 804.723C3784.7 802.207 3783.85 799.775 3782.66 797.506C3778.02 801.709 3774.1 806.656 3771.08 812.144C3767.53 819.389 3764.79 827.003 3762.91 834.847C3758.98 849.097 3756.71 863.753 3756.13 878.524C3755.9 883.065 3755.08 884.081 3750.61 885.301C3747.44 886.048 3744.13 885.978 3740.99 885.098C3739.77 884.871 3738.66 884.239 3737.84 883.305C3737.02 882.37 3736.54 881.187 3736.48 879.947C3735.94 875.068 3735.36 870.188 3735.26 865.241C3735.02 849.011 3735.94 832.78 3735.84 816.549C3735.84 808.722 3735.57 800.895 3734.85 793.067C3734.79 791.724 3734.79 790.378 3734.85 789.035C3734.67 787.85 3734.95 786.639 3735.65 785.663C3736.35 784.687 3737.4 784.024 3738.58 783.817C3742.42 782.46 3746.6 782.46 3750.44 783.817C3753.83 785.003 3754.44 786.494 3753.63 789.95C3753.57 790.389 3753.57 790.832 3753.63 791.271C3753.63 796.49 3754.54 801.674 3754.3 807.028C3755.73 806.824 3755.96 805.808 3756.44 805.164C3758.69 802.087 3761.14 799.156 3763.76 796.388C3767.07 792.937 3771.16 790.337 3775.69 788.809C3780.22 787.281 3785.06 786.87 3789.78 787.612C3792.12 787.911 3794.35 788.786 3796.28 790.157C3798.2 791.529 3799.75 793.355 3800.79 795.473C3802.45 798.422 3803.6 801.63 3804.18 804.961C3804.53 808.745 3805.36 812.468 3806.66 816.041C3806.82 817.261 3806.08 818.142 3805.13 818.819Z" fill="#EB3B98"/>
<path id="vector-14" d="M3729.33 876.999L3728.52 877.575C3726.84 878.524 3724.99 879.122 3723.07 879.333C3721.15 879.544 3719.22 879.364 3717.37 878.803C3715.53 878.242 3713.82 877.312 3712.34 876.07C3710.87 874.828 3709.66 873.3 3708.8 871.578C3705.86 864.434 3704.04 856.879 3703.41 849.18C3703.41 848.604 3703.41 848.062 3703.21 847.181C3702.19 847.956 3701.44 849.019 3701.04 850.23C3698.01 856.087 3694.61 861.745 3690.87 867.173C3688.21 871.259 3684.05 874.132 3679.28 875.169C3675.1 876.082 3670.75 875.919 3666.64 874.695C3664.18 873.917 3661.94 872.542 3660.13 870.692C3658.32 868.842 3657 866.574 3656.28 864.089C3655.06 860.232 3654.48 856.205 3654.55 852.162C3654.42 844.19 3655.21 836.231 3656.92 828.443C3659.41 817.624 3665.94 808.168 3675.18 802.013C3681.68 797.69 3689.43 795.651 3697.21 796.218C3698.63 796.218 3700.22 796.828 3701.51 796.218C3702.8 795.609 3702.7 793.643 3703.1 792.322C3703.53 790.618 3704.5 789.1 3705.87 788.004C3707.24 786.908 3708.94 786.294 3710.69 786.256C3713.8 785.767 3716.98 785.999 3719.98 786.934C3721.08 787.179 3722.04 787.835 3722.67 788.767C3723.3 789.7 3723.55 790.838 3723.37 791.949C3723.34 795.354 3723.06 798.752 3722.52 802.114C3720.97 815.802 3720.55 829.595 3721.27 843.352C3721.53 851.197 3722.9 858.965 3725.33 866.427C3725.91 869.179 3727.31 871.693 3729.33 873.645C3730.82 874.593 3730.58 875.881 3729.33 876.999ZM3698.6 805.842C3698.02 805.226 3697.27 804.8 3696.45 804.618C3695.63 804.437 3694.77 804.509 3693.99 804.825C3691.84 805.77 3689.85 807.039 3688.09 808.586C3682.09 813.542 3677.79 820.264 3675.83 827.799C3673.58 836.718 3672.69 845.925 3673.18 855.11C3673.21 857.521 3673.67 859.907 3674.54 862.158C3675.73 861.683 3676 860.769 3676.44 860.023C3686.15 844.164 3693.69 827.068 3698.83 809.196C3699.14 808.01 3700.09 806.858 3698.6 805.774V805.842Z" fill="#EB3B98"/>
<path id="vector-13" d="M3598.98 807.773C3600.09 807.14 3601.04 806.259 3601.76 805.198C3605.6 800.846 3610.53 797.586 3616.04 795.748C3621.55 793.91 3627.44 793.558 3633.13 794.727C3642.76 796.354 3647.16 801.504 3647.64 811.263C3648.64 823.109 3646.65 835.018 3641.84 845.891C3637.03 856.764 3629.56 866.25 3620.12 873.475C3614.02 878.628 3606.77 882.232 3598.98 883.979C3597.59 884.25 3595.59 883.674 3594.88 884.826C3594.17 885.979 3594.54 887.876 3594.5 889.401C3594.5 909.156 3595.42 928.809 3597.11 948.462C3597.35 951.037 3597.59 953.612 3597.79 956.153C3597.99 958.695 3597.55 959.542 3595.39 960.389C3593.17 961.362 3590.79 961.864 3588.37 961.864C3585.96 961.864 3583.57 961.362 3581.36 960.389C3580.56 959.977 3579.87 959.37 3579.37 958.623C3578.87 957.877 3578.56 957.016 3578.48 956.119C3577.14 949.88 3576.26 943.548 3575.87 937.178C3574.61 923.333 3574.38 909.413 3575.19 895.534C3576.31 879.541 3576.34 863.513 3577.56 847.553C3578.61 833.458 3579.49 819.395 3580.58 805.333C3581.12 798.556 3581.93 791.78 3582.58 785.003C3582.63 784.102 3582.97 783.241 3583.53 782.538C3584.09 781.834 3584.86 781.322 3585.73 781.072C3589.65 779.616 3593.97 779.616 3597.89 781.072C3601.04 782.156 3601.79 783.715 3601.28 787.036C3600.03 793.542 3599.59 800.454 3598.98 807.773ZM3596 874.322C3597.36 874.11 3598.64 873.524 3599.69 872.628C3620.32 858.498 3629.41 838.472 3629.41 813.906C3629.47 810.872 3628.89 807.858 3627.71 805.062C3626.66 802.656 3626.15 802.487 3623.98 803.876C3621 805.881 3618.42 808.419 3616.36 811.365C3612.69 816.438 3609.7 821.975 3607.48 827.833C3602.95 839.998 3599.55 852.554 3597.32 865.343C3596.53 868.275 3596.09 871.288 3596 874.322V874.322Z" fill="#EB3B98"/>
<path id="vector-12" d="M3534.05 882.455C3531.48 883.8 3528.61 884.502 3525.7 884.502C3522.79 884.502 3519.93 883.8 3517.35 882.455C3515.68 881.245 3514.49 879.497 3513.96 877.508C3513.23 875.043 3512.76 872.511 3512.54 869.951C3512.54 868.969 3512.54 867.952 3511.96 867.071C3510.74 867.342 3510.47 868.426 3509.86 869.138C3507.62 871.943 3505 874.418 3502.07 876.491C3499.23 878.421 3496 879.688 3492.61 880.198C3489.22 880.709 3485.76 880.449 3482.48 879.439C3480.44 878.823 3478.53 877.805 3476.89 876.443C3475.24 875.081 3473.88 873.404 3472.89 871.51C3469.48 865.571 3467.19 859.061 3466.12 852.297C3465.2 847.223 3464.8 842.069 3464.93 836.914C3464.84 828.069 3465.46 819.232 3466.76 810.484C3467.61 805.842 3469.1 804.351 3473.74 803.707C3476.85 803.189 3480.04 803.445 3483.02 804.453C3485.77 805.537 3486.65 806.791 3485.87 809.637C3482.99 820.277 3483.53 831.153 3483.57 841.997C3483.67 849.632 3485.24 857.176 3488.17 864.225C3488.58 865.14 3489.02 866.054 3489.46 866.969C3489.71 867.415 3489.98 867.845 3490.28 868.257C3491.33 867.645 3492.2 866.769 3492.82 865.716C3498.64 857.907 3503.21 849.243 3506.37 840.031C3510.2 829.623 3513.14 818.912 3515.18 808.01C3515.89 804.283 3517.01 803.233 3520.77 802.386C3523.95 801.626 3527.28 801.755 3530.39 802.758C3533.78 803.843 3534.33 804.791 3533.99 808.18C3533.48 813.534 3532.77 818.853 3532.26 824.207C3530.89 837.807 3530.3 851.473 3530.5 865.14C3530.65 868.156 3531.02 871.157 3531.61 874.119C3531.69 874.773 3531.93 875.398 3532.3 875.941C3532.67 876.484 3533.17 876.928 3533.75 877.236C3536.8 878.964 3536.73 880.693 3534.05 882.455Z" fill="#EB3B98"/>
<path id="vector-11" d="M3431.52 851.077C3430.84 852.196 3430.13 853.314 3429.49 854.466C3425.73 860.965 3421.47 867.162 3416.75 873.001C3414.44 875.893 3411.88 878.57 3409.09 880.998C3406.28 883.433 3402.9 885.127 3399.27 885.926C3395.63 886.724 3391.86 886.603 3388.28 885.572C3386.09 885.067 3384.05 884.056 3382.32 882.621C3380.59 881.185 3379.22 879.364 3378.32 877.304C3376.39 873.228 3375.24 868.826 3374.93 864.326C3373.43 847.689 3377.22 831.001 3385.78 816.651C3389.8 810.027 3394.96 804.166 3401.02 799.336C3405.58 795.494 3410.96 792.758 3416.75 791.341C3422.54 789.925 3428.58 789.866 3434.4 791.17C3437.18 791.746 3437.14 791.678 3437.99 789.069C3439.4 783.757 3440.28 778.321 3440.63 772.838C3442.4 759.284 3444.02 745.731 3446.06 732.177C3446.14 730.777 3446.7 729.448 3447.63 728.402C3448.57 727.357 3449.82 726.658 3451.21 726.416C3454.8 725.458 3458.59 725.576 3462.12 726.755C3462.69 726.837 3463.23 727.038 3463.72 727.346C3464.21 727.653 3464.63 728.06 3464.95 728.54C3465.27 729.019 3465.48 729.561 3465.58 730.129C3465.67 730.697 3465.65 731.28 3465.51 731.838C3464.84 749.297 3462.41 766.643 3458.25 783.613C3456.95 789.635 3456.06 795.736 3455.58 801.877C3454.12 812.517 3452.9 823.224 3451.92 833.898C3449.85 851.723 3449.72 869.72 3451.54 887.571C3452.44 895.815 3454.31 903.924 3457.1 911.731C3457.73 914.247 3459.29 916.429 3461.47 917.83C3463.51 918.982 3463.27 920.71 3461.24 922.032C3459.38 923.099 3457.28 923.682 3455.14 923.726C3451.84 924.409 3448.42 923.845 3445.52 922.141C3442.62 920.438 3440.45 917.718 3439.45 914.509C3436.42 906.79 3434.38 898.717 3433.38 890.485C3431.88 878.701 3431.4 866.807 3431.96 854.94C3431.96 853.721 3431.96 852.467 3431.96 851.247L3431.52 851.077ZM3396.11 874.356L3397.47 872.459C3398.92 870.629 3400.48 868.833 3401.87 866.935C3413.99 849.951 3423.63 831.332 3430.5 811.636C3430.77 810.924 3431.21 810.111 3430.77 809.4C3430.09 807.851 3429.97 806.113 3430.43 804.486C3430.69 803.565 3430.65 802.589 3430.34 801.688C3430.03 800.786 3429.44 800.001 3428.67 799.437C3427.84 798.868 3426.85 798.563 3425.84 798.563C3424.83 798.563 3423.85 798.868 3423.01 799.437C3419.46 801.351 3416.21 803.796 3413.39 806.689C3398.04 822.208 3392.55 841.251 3393.5 862.53C3393.57 866.608 3394.45 870.63 3396.11 874.356V874.356Z" fill="#EB3B98"/>
<path id="vector-10" d="M3342.88 802.826C3340.81 803.693 3338.58 804.139 3336.34 804.139C3334.09 804.139 3331.87 803.693 3329.8 802.826C3328.93 802.573 3328.18 802.033 3327.66 801.293C3327.14 800.554 3326.89 799.66 3326.95 798.76C3326.96 797.287 3326.61 795.834 3325.93 794.524C3325.09 792.83 3324.38 792.661 3322.82 793.813C3320.16 795.892 3318.1 798.64 3316.85 801.775C3312.61 810.529 3311.71 820.528 3314.31 829.9C3315.13 832.712 3315.8 835.524 3316.79 838.269C3321.98 852.595 3325.52 867.464 3327.36 882.59C3328.22 888.139 3328.4 893.771 3327.9 899.363C3327.68 902.06 3326.73 904.647 3325.16 906.853C3323.6 909.059 3321.46 910.803 3318.99 911.9C3311.43 915.487 3302.86 916.314 3294.76 914.238C3290.7 913.208 3287.11 910.816 3284.6 907.461C3281.2 903.144 3278.26 898.489 3275.82 893.569C3274.53 890.993 3274.94 889.57 3277.51 888.486C3279.66 887.551 3281.99 887.097 3284.33 887.155C3286.67 887.214 3288.97 887.784 3291.07 888.825C3292.36 889.61 3293.35 890.802 3293.88 892.213C3296.08 896.628 3298.73 900.806 3301.78 904.683C3303.98 907.495 3305.16 907.427 3307.4 904.446C3308.77 902.374 3309.5 899.947 3309.5 897.465C3309.5 895.907 3309.5 894.348 3309.5 892.789C3308.95 881.602 3307.27 870.499 3304.49 859.65C3302.98 853.104 3301.08 846.655 3298.79 840.336C3297.34 836.124 3296.21 831.808 3295.4 827.426C3293.29 816.871 3295.24 805.906 3300.86 796.727C3302.95 793.182 3305.88 790.205 3309.39 788.054C3312.9 785.904 3316.88 784.647 3320.99 784.393C3326.69 783.762 3332.45 784.7 3337.66 787.103C3339.91 788.008 3341.86 789.52 3343.29 791.472C3344.73 793.423 3345.6 795.735 3345.79 798.15C3345.92 798.649 3345.94 799.167 3345.86 799.675C3345.78 800.183 3345.6 800.67 3345.33 801.106C3345.05 801.543 3344.7 801.92 3344.28 802.215C3343.86 802.511 3343.38 802.718 3342.88 802.826V802.826Z" fill="#EB3B98"/>
<path id="vector-9" d="M3287.71 818.819C3286.19 819.749 3284.5 820.35 3282.73 820.581C3280.08 821.062 3277.34 820.887 3274.77 820.073C3273.43 819.844 3272.2 819.19 3271.26 818.207C3270.32 817.225 3269.72 815.967 3269.55 814.618C3269.04 811.229 3268.33 808.01 3267.76 804.723C3267.28 802.212 3266.45 799.782 3265.28 797.506C3260.61 801.69 3256.7 806.641 3253.69 812.144C3250.12 819.382 3247.37 826.997 3245.49 834.847C3241.56 849.097 3239.29 863.753 3238.72 878.524C3238.48 883.065 3237.67 884.081 3233.19 885.301C3230.02 886.048 3226.71 885.978 3223.57 885.098C3222.35 884.865 3221.25 884.232 3220.43 883.298C3219.61 882.365 3219.13 881.185 3219.06 879.947C3218.52 875.068 3217.95 870.188 3217.84 865.241C3217.61 849.011 3218.52 832.78 3218.42 816.549C3218.42 808.722 3218.15 800.895 3217.44 793.067C3217.37 791.724 3217.37 790.378 3217.44 789.035C3217.25 787.85 3217.54 786.639 3218.23 785.663C3218.93 784.687 3219.98 784.024 3221.16 783.817C3225 782.46 3229.19 782.46 3233.02 783.817C3236.41 785.003 3237.02 786.494 3236.21 789.95C3236.1 790.382 3236.04 790.826 3236.04 791.271C3236.04 796.49 3236.95 801.674 3236.75 807.028C3238.14 806.824 3238.38 805.808 3238.89 805.164C3241.13 802.088 3243.56 799.157 3246.17 796.388C3249.48 792.937 3253.58 790.337 3258.11 788.809C3262.64 787.281 3267.47 786.87 3272.19 787.612C3274.54 787.905 3276.77 788.778 3278.69 790.15C3280.62 791.522 3282.17 793.352 3283.21 795.473C3284.88 798.415 3286.02 801.626 3286.6 804.961C3286.98 808.739 3287.81 812.459 3289.07 816.041C3289.44 817.261 3288.66 818.142 3287.71 818.819Z" fill="#EB3B98"/>
<path id="vector-8" d="M3208.53 882.455C3205.94 883.8 3203.07 884.502 3200.16 884.502C3197.24 884.502 3194.37 883.8 3191.79 882.455C3190.13 881.235 3188.94 879.492 3188.4 877.508C3187.67 875.043 3187.19 872.512 3186.97 869.951C3187.07 868.959 3186.88 867.961 3186.43 867.071C3185.21 867.342 3184.91 868.426 3184.3 869.138C3182.06 871.943 3179.44 874.418 3176.5 876.491C3173.67 878.421 3170.44 879.688 3167.05 880.198C3163.66 880.709 3160.2 880.449 3156.92 879.439C3154.87 878.823 3152.97 877.805 3151.32 876.443C3149.68 875.081 3148.32 873.404 3147.33 871.51C3143.94 865.564 3141.64 859.056 3140.55 852.297C3139.65 847.222 3139.26 842.068 3139.4 836.914C3139.3 828.07 3139.9 819.233 3141.2 810.484C3142.08 805.842 3143.53 804.351 3148.21 803.707C3151.31 803.189 3154.49 803.445 3157.46 804.452C3160.24 805.537 3161.09 806.79 3160.31 809.637C3157.43 820.276 3157.97 831.153 3158.04 841.996C3158.13 849.634 3159.69 857.181 3162.65 864.225C3163.02 865.14 3163.46 866.054 3163.9 866.969C3164.14 867.415 3164.41 867.845 3164.71 868.257C3165.79 867.659 3166.68 866.78 3167.29 865.716C3173.08 857.891 3177.65 849.231 3180.84 840.031C3184.64 829.613 3187.58 818.904 3189.65 808.01C3190.33 804.283 3191.48 803.233 3195.24 802.385C3198.41 801.625 3201.73 801.754 3204.83 802.758C3208.22 803.842 3208.76 804.791 3208.46 808.18C3207.92 813.533 3207.2 818.853 3206.7 824.207C3205.45 837.859 3205.01 851.572 3205.37 865.275C3205.5 868.292 3205.86 871.295 3206.46 874.255C3206.55 874.908 3206.79 875.531 3207.17 876.072C3207.55 876.614 3208.05 877.059 3208.63 877.372C3211.17 878.965 3211.1 880.693 3208.53 882.455Z" fill="#EB3B98"/>
<path id="vector-7" d="M3134.22 839.896C3132.99 843.474 3131.33 846.888 3129.27 850.061C3123.86 858.701 3117.75 866.883 3111.01 874.526C3107 879.561 3101.51 883.202 3095.32 884.928C3090.64 886.148 3085.73 886.148 3081.05 884.928C3078.38 884.257 3075.9 882.97 3073.81 881.17C3071.72 879.369 3070.08 877.106 3069.02 874.56C3067.03 870.302 3065.88 865.7 3065.63 861.006C3064.86 847.36 3066 833.674 3069.02 820.344C3070.42 813.979 3073.13 807.977 3076.99 802.724C3087.15 788.933 3105.28 790.323 3115.28 797.032C3119.23 799.606 3122.01 803.637 3123.01 808.249C3124.02 812.861 3123.16 817.682 3120.63 821.666C3115.54 829.948 3107.84 836.301 3098.74 839.726C3094.9 841.248 3090.86 842.229 3086.74 842.64C3085.02 842.844 3084.34 843.555 3084.2 845.351C3083.52 852.486 3083.83 859.681 3085.12 866.732C3085.61 870.128 3086.95 873.346 3089.01 876.084C3091.04 874.624 3092.85 872.891 3094.4 870.934C3100.27 864.168 3105.63 856.989 3110.46 849.451C3112.98 845.873 3114.88 841.899 3116.09 837.693C3116.26 837.039 3116.59 836.437 3117.05 835.94C3117.52 835.444 3118.09 835.069 3118.73 834.847C3122.9 833.072 3127.59 832.999 3131.81 834.644C3134.49 835.728 3135 837.015 3134.22 839.896ZM3085.36 833.491C3085.7 833.518 3086.06 833.518 3086.41 833.491C3086.84 833.369 3087.26 833.21 3087.66 833.017C3093.64 830.159 3098.73 825.732 3102.4 820.209C3104.2 817.424 3105.01 814.113 3104.7 810.811C3104.38 807.509 3102.96 804.409 3100.67 802.013C3100.49 801.761 3100.26 801.556 3099.98 801.414C3099.71 801.272 3099.4 801.198 3099.1 801.198C3098.79 801.198 3098.48 801.272 3098.21 801.414C3097.93 801.556 3097.7 801.761 3097.52 802.013C3094.92 804.484 3092.79 807.399 3091.22 810.619C3087.92 817.843 3085.89 825.58 3085.22 833.491H3085.36Z" fill="#EB3B98"/>
<path id="vector-6" d="M3066.45 796.083C3065.69 799.127 3064.73 802.116 3063.57 805.028C3057.34 820.374 3051.94 836.039 3047.37 851.958C3045.54 857.922 3043.51 863.852 3041.41 869.782C3038.66 877.474 3035.24 879.778 3027.07 879.744C3025.63 879.716 3024.19 879.569 3022.77 879.303C3020.76 879.001 3018.87 878.153 3017.31 876.85C3015.75 875.547 3014.58 873.84 3013.93 871.916C3010.81 863.649 3007.62 855.415 3004.57 847.113C2999.9 834.17 2996.11 820.925 2993.22 807.468C2992.58 804.282 2991.63 801.163 2990.41 798.15C2989.6 796.219 2989.83 795.202 2991.66 794.287C2993.96 793.102 2996.5 792.483 2999.09 792.483C3001.67 792.483 3004.21 793.102 3006.51 794.287C3007.18 794.697 3007.76 795.238 3008.21 795.879C3008.66 796.52 3008.98 797.246 3009.15 798.014C3010.84 802.99 3012.2 808.073 3013.22 813.229C3016.52 827.286 3020.78 841.099 3025.99 854.568C3026.07 854.935 3026.22 855.283 3026.44 855.591C3026.65 855.899 3026.93 856.162 3027.24 856.363C3028.63 852.06 3030.09 847.858 3031.31 843.589C3034.81 831.204 3039.06 819.04 3044.02 807.163C3045.76 803.168 3047.15 799.03 3048.18 794.795C3048.33 793.968 3048.69 793.194 3049.23 792.552C3049.78 791.909 3050.48 791.421 3051.27 791.136C3053.28 790.28 3055.45 789.839 3057.64 789.839C3059.83 789.839 3061.99 790.28 3064.01 791.136C3064.54 791.223 3065.04 791.436 3065.48 791.757C3065.91 792.078 3066.26 792.497 3066.5 792.981C3066.74 793.465 3066.86 793.999 3066.85 794.539C3066.84 795.078 3066.7 795.608 3066.45 796.083Z" fill="#EB3B98"/>
<path id="vector-5" d="M2990.14 876.999L2989.33 877.575C2987.65 878.524 2985.8 879.122 2983.88 879.333C2981.96 879.544 2980.02 879.364 2978.18 878.803C2976.34 878.242 2974.63 877.312 2973.15 876.07C2971.68 874.828 2970.47 873.3 2969.61 871.578C2966.68 864.429 2964.86 856.876 2964.22 849.18C2964.22 848.604 2964.22 848.062 2964.01 847.181C2963 847.956 2962.25 849.019 2961.85 850.23C2958.83 856.094 2955.44 861.753 2951.68 867.173C2949.02 871.259 2944.86 874.132 2940.09 875.169C2935.91 876.08 2931.56 875.917 2927.45 874.695C2924.99 873.917 2922.75 872.542 2920.94 870.692C2919.13 868.842 2917.81 866.574 2917.08 864.089C2915.87 860.232 2915.29 856.205 2915.36 852.162C2915.22 844.188 2916.03 836.227 2917.76 828.443C2920.22 817.621 2926.75 808.159 2935.99 802.013C2942.49 797.69 2950.24 795.651 2958.02 796.219C2959.44 796.219 2961.07 796.828 2962.32 796.219C2963.57 795.609 2963.51 793.643 2963.91 792.322C2964.34 790.618 2965.31 789.101 2966.68 788.004C2968.05 786.908 2969.75 786.294 2971.5 786.256C2974.62 785.769 2977.81 786.001 2980.82 786.934C2983.57 787.951 2984.21 788.967 2984.21 791.949C2984.19 795.354 2983.9 798.753 2983.36 802.114C2981.83 815.804 2981.41 829.595 2982.11 843.352C2982.37 851.197 2983.74 858.965 2986.18 866.427C2986.76 869.179 2988.15 871.693 2990.17 873.645C2991.63 874.593 2991.39 875.881 2990.14 876.999ZM2959.41 805.842C2958.83 805.226 2958.08 804.8 2957.26 804.618C2956.44 804.437 2955.58 804.509 2954.8 804.825C2952.65 805.77 2950.66 807.039 2948.9 808.586C2942.9 813.542 2938.6 820.264 2936.64 827.799C2934.39 836.718 2933.5 845.925 2933.99 855.11C2934.02 857.521 2934.48 859.907 2935.35 862.158C2936.53 861.683 2936.81 860.769 2937.25 860.023C2946.96 844.164 2954.5 827.068 2959.64 809.196C2959.95 808.01 2960.76 806.858 2959.41 805.774V805.842Z" fill="#EB3B98"/>
<path id="vector-4" d="M2915.53 802.826C2913.45 803.693 2911.23 804.139 2908.99 804.139C2906.74 804.139 2904.52 803.693 2902.45 802.826C2901.58 802.573 2900.83 802.033 2900.31 801.293C2899.79 800.554 2899.54 799.66 2899.6 798.76C2899.6 797.291 2899.27 795.842 2898.62 794.524C2897.77 792.83 2897.03 792.661 2895.5 793.813C2892.82 795.88 2890.75 798.631 2889.5 801.775C2885.28 810.533 2884.38 820.526 2886.96 829.9C2887.77 832.712 2888.49 835.524 2889.47 838.269C2894.57 852.611 2898.06 867.476 2899.87 882.59C2900.7 888.141 2900.87 893.771 2900.38 899.363C2900.17 902.064 2899.23 904.658 2897.66 906.866C2896.09 909.075 2893.95 910.815 2891.47 911.9C2883.91 915.487 2875.34 916.314 2867.24 914.238C2863.18 913.201 2859.59 910.81 2857.08 907.461C2853.68 903.144 2850.74 898.489 2848.3 893.569C2847.05 890.993 2847.45 889.57 2850.03 888.486C2852.17 887.546 2854.5 887.09 2856.84 887.148C2859.18 887.207 2861.48 887.779 2863.58 888.825C2864.87 889.61 2865.86 890.802 2866.39 892.213C2868.62 896.614 2871.26 900.79 2874.29 904.683C2876.49 907.495 2877.85 907.427 2879.95 904.446C2881.3 902.367 2882.03 899.945 2882.05 897.465C2882.05 895.907 2882.05 894.348 2882.05 892.789C2881.52 881.6 2879.84 870.495 2877.03 859.65C2875.53 853.105 2873.65 846.655 2871.37 840.336C2869.85 836.129 2868.65 831.814 2867.78 827.426C2865.66 816.867 2867.62 805.897 2873.27 796.727C2875.35 793.179 2878.27 790.198 2881.78 788.047C2885.28 785.896 2889.26 784.641 2893.37 784.393C2899.08 783.761 2904.85 784.699 2910.07 787.103C2912.31 788.01 2914.26 789.523 2915.69 791.475C2917.12 793.426 2917.98 795.738 2918.17 798.15C2918.3 798.63 2918.34 799.133 2918.28 799.628C2918.22 800.123 2918.06 800.602 2917.82 801.036C2917.57 801.47 2917.24 801.852 2916.85 802.159C2916.46 802.466 2916.01 802.693 2915.53 802.826V802.826Z" fill="#EB3B98"/>
<path id="vector-3" d="M2834 802.826C2831.93 803.693 2829.71 804.139 2827.46 804.139C2825.21 804.139 2822.99 803.693 2820.92 802.826C2820.05 802.573 2819.3 802.033 2818.78 801.293C2818.26 800.554 2818.01 799.66 2818.07 798.76C2818.09 797.289 2817.75 795.837 2817.09 794.524C2816.24 792.83 2815.53 792.661 2813.97 793.813C2811.3 795.88 2809.22 798.631 2807.98 801.775C2803.75 810.533 2802.85 820.526 2805.44 829.9C2806.25 832.712 2806.96 835.524 2807.94 838.269C2813.04 852.611 2816.53 867.476 2818.35 882.59C2819.18 888.141 2819.35 893.771 2818.85 899.363C2818.64 902.064 2817.7 904.658 2816.13 906.866C2814.56 909.075 2812.42 910.815 2809.94 911.9C2802.39 915.487 2793.82 916.314 2785.71 914.238C2781.65 913.201 2778.07 910.81 2775.55 907.461C2772.17 903.143 2769.24 898.488 2766.81 893.569C2765.52 890.993 2765.93 889.57 2768.5 888.486C2770.65 887.546 2772.97 887.09 2775.32 887.148C2777.66 887.207 2779.96 887.779 2782.05 888.825C2783.34 889.61 2784.33 890.802 2784.87 892.213C2787.09 896.614 2789.74 900.79 2792.76 904.683C2794.96 907.495 2796.15 907.427 2798.42 904.446C2799.77 902.367 2800.5 899.945 2800.52 897.465C2800.52 895.907 2800.52 894.348 2800.52 892.789C2799.99 881.6 2798.31 870.495 2795.51 859.65C2794.01 853.105 2792.12 846.655 2789.85 840.336C2788.34 836.124 2787.14 831.81 2786.26 827.426C2784.14 816.867 2786.1 805.897 2791.75 796.727C2793.82 793.179 2796.75 790.198 2800.25 788.047C2803.75 785.896 2807.73 784.641 2811.84 784.393C2817.55 783.761 2823.33 784.699 2828.54 787.103C2830.79 788.01 2832.73 789.523 2834.16 791.475C2835.6 793.426 2836.45 795.738 2836.64 798.15C2836.78 798.63 2836.81 799.133 2836.75 799.628C2836.69 800.123 2836.54 800.602 2836.29 801.036C2836.05 801.47 2835.72 801.852 2835.32 802.159C2834.93 802.466 2834.48 802.693 2834 802.826V802.826Z" fill="#EB3B98"/>
<path id="vector-2" d="M2778.6 839.896C2777.37 843.474 2775.71 846.888 2773.65 850.061C2768.26 858.708 2762.17 866.891 2755.42 874.526C2751.42 879.561 2745.93 883.202 2739.73 884.928C2735.06 886.148 2730.14 886.148 2725.47 884.928C2722.79 884.252 2720.31 882.963 2718.22 881.164C2716.12 879.365 2714.47 877.104 2713.4 874.56C2711.44 870.291 2710.29 865.695 2710.02 861.006C2709.24 847.36 2710.38 833.674 2713.4 820.344C2714.78 813.975 2717.5 807.97 2721.37 802.724C2731.53 788.933 2749.66 790.323 2759.66 797.032C2763.61 799.606 2766.39 803.637 2767.4 808.249C2768.4 812.861 2767.54 817.682 2765.01 821.666C2759.91 829.936 2752.21 836.286 2743.12 839.726C2739.27 841.252 2735.22 842.233 2731.09 842.64C2729.36 842.844 2728.72 843.555 2728.58 845.351C2727.89 852.486 2728.2 859.683 2729.5 866.732C2729.98 870.125 2731.31 873.342 2733.36 876.084C2735.4 874.626 2737.22 872.893 2738.78 870.934C2744.64 864.159 2750 856.981 2754.85 849.451C2757.35 845.866 2759.25 841.894 2760.47 837.693C2760.64 837.039 2760.98 836.437 2761.44 835.94C2761.9 835.444 2762.47 835.069 2763.11 834.847C2767.28 833.072 2771.97 832.999 2776.19 834.644C2779.04 835.728 2779.51 837.015 2778.6 839.896ZM2729.77 833.491C2730.12 833.518 2730.47 833.518 2730.82 833.491C2731.24 833.369 2731.65 833.21 2732.04 833.017C2738.04 830.17 2743.15 825.741 2746.81 820.209C2748.62 817.424 2749.43 814.113 2749.11 810.811C2748.8 807.509 2747.38 804.409 2745.09 802.013C2744.91 801.761 2744.67 801.556 2744.4 801.414C2744.12 801.272 2743.82 801.198 2743.51 801.198C2743.2 801.198 2742.9 801.272 2742.62 801.414C2742.35 801.556 2742.11 801.761 2741.94 802.013C2739.34 804.492 2737.2 807.405 2735.6 810.619C2732.35 817.848 2730.37 825.587 2729.77 833.491V833.491Z" fill="#EB3B98"/>
<path id="vector-1" d="M2637.54 873.679L2650.11 872.696C2659.39 872.103 2668.71 872.103 2678 872.696C2682.77 872.933 2687.58 873.374 2692.36 873.712C2696.88 874.077 2701.11 876.049 2704.29 879.269C2704.63 879.567 2704.92 879.909 2705.17 880.286C2705.98 881.472 2707.14 882.692 2706.26 884.217C2705.84 884.834 2705.23 885.298 2704.53 885.537C2703.83 885.775 2703.06 885.776 2702.36 885.538C2694.24 884.579 2686.07 884.059 2677.89 883.979C2668.38 883.833 2658.86 884.297 2649.4 885.369C2645.26 885.674 2641.16 886.148 2637.03 886.351C2633.64 886.521 2630.25 886.893 2626.63 887.131C2623.97 887.284 2621.32 886.739 2618.95 885.55C2616.57 884.361 2614.54 882.569 2613.07 880.354C2611.21 877.948 2611.99 876.288 2615 875.61C2615.32 875.507 2615.65 875.438 2615.99 875.407C2617.95 875.407 2618.56 874.356 2618.9 872.56C2620.7 862.09 2622.29 851.586 2623.24 840.98C2624.15 829.696 2625.27 818.447 2626.19 807.095C2627.07 796.524 2627.71 785.884 2628.63 775.278C2630.32 755.286 2630.66 735.26 2630.66 715.201C2630.66 712.219 2631.34 711.236 2634.22 710.321C2637.97 709.068 2642.02 709.068 2645.77 710.321C2648.65 711.236 2649.16 712.219 2649.16 715.235C2649.16 736.074 2648.65 756.879 2646.79 777.684C2645.6 790.933 2644.96 804.249 2643.74 817.532C2642.59 835.852 2640.45 854.097 2637.33 872.188C2637.36 872.689 2637.43 873.187 2637.54 873.679V873.679Z" fill="#EB3B98"/>
</g>
<g id="Terre Tropicale">
<path id="vector-10_2" d="M3801 471.842C3775.48 471.842 3747.8 485.938 3726.08 520.161C3692.94 570.649 3705.98 649.397 3743.02 683.62C3762.03 700.969 3779.95 705.34 3796.8 705.34C3806.47 705.078 3816.1 703.943 3825.56 701.952C3844.57 697.581 3834.81 684.569 3826.1 684.569H3823.94C3820.45 685.743 3816.78 686.293 3813.09 686.195C3802.93 686.195 3789.37 681.858 3776.7 657.936C3786.87 655.225 3797.88 658.512 3816.35 649.804C3847.28 635.132 3865.21 615.58 3871.17 582.475C3882.46 515.282 3843.89 471.842 3801 471.842ZM3778.73 624.322C3775.09 624.228 3771.45 623.865 3767.86 623.238C3754.85 584.135 3750.51 543.948 3787.41 513.012C3788.34 512.948 3789.27 512.766 3790.15 512.469C3805.88 512.469 3821.63 537.442 3821.63 567.837C3821.63 611.378 3799.91 624.424 3778.73 624.424V624.322Z" fill="#78C45B"/>
<path id="vector-9_2" d="M3690.77 319.192C3688.4 318.083 3685.8 317.526 3683.18 317.566C3678.66 317.678 3674.29 319.194 3670.68 321.903C3624.53 358.837 3610.94 481.567 3606.6 536.968C3595.18 675.42 3637.57 705.306 3665.25 705.306C3681.01 705.306 3691.85 695.514 3685.89 690.634C3615.82 637.944 3753.22 349.078 3690.77 319.192Z" fill="#78C45B"/>
<path id="vector-8_2" d="M3561.16 561.941C3560.08 557.604 3555.71 555.435 3548.66 555.435C3539.44 555.435 3526.4 561.941 3519.35 577.697C3509.56 597.791 3504.68 624.932 3488.85 641.773C3483.97 646.652 3480.18 649.363 3476.35 649.363C3451.38 649.363 3448.67 547.709 3490.48 512.537C3498.64 505.998 3506.24 502.745 3513.83 502.745C3537.17 502.745 3549.68 533.715 3565.97 533.715C3568.14 533.632 3570.27 533.105 3572.23 532.166C3574.19 531.228 3575.93 529.899 3577.36 528.26C3615.92 489.733 3545.34 464.184 3510.57 464.184C3508.39 463.982 3506.19 464.165 3504.07 464.726C3470.27 469.679 3439.6 487.246 3418.24 513.893C3409.29 475.976 3373.51 452.901 3333.53 452.901C3263.49 452.901 3205.37 517.518 3205.37 585.931C3205.37 652.48 3269.42 699.919 3318.28 699.919C3327.29 700.292 3336.25 698.429 3344.37 694.497C3347.2 692.515 3349.29 689.657 3350.33 686.365C3351.96 682.536 3350.33 678.741 3336.78 678.741C3294.97 678.741 3272.7 633.674 3272.7 585.897C3272.7 547.879 3293.88 482.719 3341.12 481.092C3368.22 481.092 3388.93 507.15 3390.55 534.291C3390.55 563.635 3365.58 590.777 3344.94 590.777C3334.78 590.777 3327.02 583.729 3324.85 566.346C3323.66 565.623 3322.37 565.076 3321.02 564.719C3319.3 564.917 3317.64 565.471 3316.14 566.346C3312.35 591.861 3329.7 604.364 3350.91 604.364C3362.3 604.158 3373.47 601.131 3383.4 595.554C3377.78 645.839 3400.35 691.244 3455.17 691.244C3486.11 691.244 3506.2 680.401 3521.42 652.684C3533.34 695.039 3555.06 706.899 3572.45 706.899C3589.39 706.899 3601.76 696.022 3597.42 691.685C3553.94 646.652 3568.62 580.95 3561.16 561.941Z" fill="#78C45B"/>
<path id="vector-7_2" d="M3210.22 470.216C3202.63 454.459 3185.25 449.58 3170.57 449.58C3164.25 449.183 3157.92 450.347 3152.14 452.968C3121.65 470.351 3131.51 507.827 3159.19 515.418C3160.66 516.287 3162.37 516.666 3164.07 516.502H3167.46C3193.41 516.366 3220.55 491.393 3210.22 470.216Z" fill="#78C45B"/>
<path id="vector-6_2" d="M3178.74 563.601C3177.11 538.628 3166.24 527.785 3152.68 527.785C3130.42 527.785 3105.96 558.722 3112.5 622.255C3117.92 673.285 3149.77 688.5 3172.23 688.5C3189.18 688.5 3201 680.91 3193.95 672.201C3169.49 642.315 3180.91 598.909 3178.74 563.601Z" fill="#78C45B"/>
<path id="vector-5_2" d="M3032.12 483.058C2973.5 483.058 2953.41 578.646 2933.32 648.143C2934.94 620.459 2947.95 528.124 2962.63 471.13C2964.79 462.964 2958.83 460.253 2950.7 460.253C2885 460.253 2870.32 592.742 2870.32 638.927C2870.32 704.086 2886.62 760.538 2917.02 760.538C2923.07 760.421 2928.96 758.536 2933.96 755.117C2946.97 745.358 2956.76 703.002 2967.06 655.191C2981.74 588.405 2996.95 511.826 3020.3 511.826C3038.76 511.826 3037.24 547.676 3035.51 559.637C3029.51 636.724 2971.44 654.107 2993.16 660.104C2998.43 661.694 3003.92 662.426 3009.42 662.273C3058.86 662.273 3097.52 603.077 3097.52 553.097C3097.32 515.79 3072.31 483.058 3032.12 483.058Z" fill="#78C45B"/>
<path id="vector-4_2" d="M2797.03 472.35C2799.54 470.317 2800.15 467.844 2796.76 466.217C2801.78 461.812 2804.99 454.324 2805.84 441.922C2808.55 396.856 2771.08 369.172 2729.26 369.172C2692.87 369.172 2652.68 389.265 2629.34 435.958C2594.61 507.624 2588.07 638.927 2585.9 638.927V638.384C2585.36 638.384 2585.36 637.842 2585.36 637.3C2576.68 561.297 2576.14 513.486 2584.27 483.092C2580.48 478.212 2574.11 476.044 2564.72 476.044C2557.42 476.062 2550.35 478.533 2544.63 483.058C2494.14 524.871 2531.07 656.275 2545.71 687.788C2549.54 695.92 2558.76 699.715 2573.43 699.715C2577.77 699.715 2582.1 699.173 2588.07 698.631C2615.17 694.294 2616.33 613.378 2626.63 573.733C2651.06 482.516 2689.08 467.301 2726.55 467.301C2729.47 467.301 2732.35 467.301 2735.19 467.606C2689.75 484.311 2655.29 532.461 2655.29 588.405C2655.29 659.562 2697.65 707.882 2750.34 707.882C2822.55 707.882 2851.31 628.592 2852.94 579.73C2852.98 536.968 2836.68 493.528 2797.03 472.35ZM2768.26 654.784C2747.63 654.784 2721.57 627.101 2721.57 588.54C2721.57 555.977 2748.17 513.622 2774.26 494.612C2796.52 509.793 2816.62 547.269 2816.62 575.495C2816.58 610.26 2787.78 654.784 2768.26 654.784Z" fill="#78C45B"/>
<path id="vector-3_2" d="M2645.53 311.602C2667.8 311.602 2682.47 318.108 2680.3 339.286C2680.3 355.042 2693.34 357.753 2706.36 357.753C2754.13 357.753 2758.5 293.135 2697.68 274.126C2687.52 270.331 2677.05 269.789 2664.54 269.789C2577.66 269.789 2434.3 339.828 2362.63 346.368C2342.54 343.623 2327.32 311.06 2330.04 290.966C2337.12 236.107 2364.8 233.939 2344.71 223.638C2339.44 221.945 2333.94 221.032 2328.41 220.927C2299.1 220.927 2260 241.021 2242.61 288.696C2235.57 313.669 2246.95 351.145 2282.26 368.528C2303.19 378.15 2326.01 382.966 2349.04 382.624C2383.81 382.624 2410.95 373.407 2424.54 373.407H2427.25C2404.99 423.353 2404.99 485.226 2406.61 615.58C2406.61 642.688 2417.46 693.786 2444.63 700.834C2455.26 703.647 2466.2 705.116 2477.2 705.205C2491.87 705.205 2504.91 701.816 2504.91 690.533C2507.62 618.291 2475.03 528.7 2507.08 348.299C2515.76 345.825 2597.21 311.602 2645.53 311.602Z" fill="#78C45B"/>
<path id="vector-2_2" d="M2175.89 467.64C2181.99 463.54 2186.06 455.815 2186.81 441.922C2189.55 396.856 2152.07 369.172 2110.26 369.172C2075.12 369.172 2036.49 387.978 2012.84 431.316C2009.45 392.552 1974.89 369.172 1936.5 369.172C1900.11 369.172 1859.92 389.265 1836.57 435.958C1801.84 507.624 1795.3 638.927 1793.13 638.927V638.384C1792.59 638.384 1792.59 637.842 1792.59 637.3C1783.92 561.297 1783.38 513.486 1791.51 483.092C1787.71 478.212 1781.34 476.044 1771.96 476.044C1764.61 476.027 1757.48 478.499 1751.73 483.058C1743.26 490.417 1736.91 499.903 1733.33 510.538C1722.72 475.908 1695.31 455.408 1665.86 455.408C1640.35 455.408 1612.63 469.538 1590.91 503.727C1557.81 554.249 1570.82 632.963 1607.85 667.186C1626.86 684.569 1644.79 688.906 1661.63 688.906C1671.3 688.644 1680.93 687.509 1690.4 685.518C1709.41 681.181 1699.61 668.135 1690.94 668.135H1688.77C1685.27 669.311 1681.59 669.861 1677.89 669.761C1667.73 669.761 1654.01 665.424 1641.54 641.536C1651.7 638.825 1662.71 642.078 1681.18 633.369C1703.48 622.831 1718.96 609.65 1728.14 590.777C1733.06 632.217 1745.7 672.1 1752.91 687.653C1756.71 695.785 1765.96 699.58 1780.6 699.58C1784.97 699.58 1789.31 699.038 1795.27 698.496C1822.38 694.158 1823.5 613.242 1833.83 573.597C1858.26 482.38 1896.28 467.166 1933.76 467.166C1952.76 467.166 1970.15 471.537 1984.79 471.537C1988.92 471.638 1993.04 471.066 1996.98 469.843C1973.77 542.525 1968.72 638.757 1966.86 638.757V638.215C1966.32 638.215 1966.32 637.673 1966.32 637.131C1957.68 561.399 1957.14 513.554 1965.2 483.058C1961.41 478.178 1955.04 476.01 1945.65 476.01C1938.35 476.033 1931.27 478.516 1925.56 483.058C1875.07 524.871 1912 656.275 1926.64 687.788C1930.43 695.92 1939.69 699.715 1954.32 699.715C1958.69 699.715 1963.03 699.173 1969 698.631C1996.1 694.294 1997.22 613.378 2007.56 573.733C2029.92 490.207 2063.7 470.419 2097.99 467.674C2083.96 477.042 2072.16 489.4 2063.47 503.863C2030.33 554.385 2043.37 633.098 2080.41 667.322C2099.38 684.705 2117.31 689.042 2134.15 689.042C2143.82 688.781 2153.45 687.647 2162.92 685.653C2181.93 681.316 2172.17 668.271 2163.49 668.271H2161.29C2157.8 669.444 2154.13 669.995 2150.45 669.897C2140.28 669.897 2126.73 665.56 2114.06 641.671C2124.39 638.96 2135.23 642.213 2153.7 633.505C2184.67 618.867 2202.56 599.316 2208.56 566.176C2216.28 519.992 2200.49 484.989 2175.89 467.64ZM1643.91 608.126C1640.26 608.033 1636.62 607.671 1633.03 607.041C1620.02 567.938 1615.65 527.751 1652.58 496.815C1653.5 496.748 1654.42 496.566 1655.29 496.273C1671.05 496.273 1686.81 521.246 1686.81 551.64C1686.64 595.114 1664.92 608.126 1643.74 608.126H1643.91ZM2116.29 608.126C2112.66 608.033 2109.03 607.671 2105.45 607.041C2092.4 567.938 2088.07 527.751 2125 496.815C2125.92 496.748 2126.83 496.566 2127.71 496.273C2143.47 496.273 2159.19 521.246 2159.19 551.64C2159.02 595.114 2137.3 608.126 2116.12 608.126H2116.29Z" fill="#78C45B"/>
<path id="vector-1_2" d="M1701.31 311.602C1723.57 311.602 1738.21 318.108 1736.04 339.286C1736.04 355.042 1749.09 357.753 1762.13 357.753C1809.91 357.753 1814.25 293.135 1753.42 274.126C1743.26 270.331 1732.79 269.789 1720.32 269.789C1633.4 269.789 1489.9 339.828 1418.37 346.368C1398.28 343.623 1383.1 311.06 1385.81 290.966C1392.86 236.107 1420.54 233.939 1400.45 223.638C1395.19 221.948 1389.71 221.035 1384.18 220.927C1354.84 220.927 1315.74 241.021 1298.39 288.696C1291.31 313.669 1302.72 351.145 1338 368.528C1358.94 378.147 1381.77 382.963 1404.82 382.624C1439.55 382.624 1466.73 373.407 1480.28 373.407H1482.99C1460.73 423.353 1460.73 485.226 1462.35 615.58C1462.35 642.688 1473.23 693.786 1500.37 700.834C1511.01 703.647 1521.96 705.116 1532.97 705.205C1547.61 705.205 1560.65 701.816 1560.65 690.533C1563.36 618.291 1530.8 528.7 1562.82 348.299C1571.53 345.825 1652.95 311.602 1701.31 311.602Z" fill="#78C45B"/>
</g>
<path id="peel" d="M1114.43 83.2203L1068.31 104.737C1060.46 108.433 1054.32 115.004 1051.17 123.093C1048.01 131.183 1048.09 140.174 1051.37 148.211C1100.32 271.316 1101.89 408.199 1055.77 532.394C1009.66 656.589 919.133 759.275 801.699 820.599C684.266 881.922 548.267 897.527 419.995 864.396C291.724 831.266 180.292 751.753 107.245 641.231C102.506 633.98 95.1699 628.819 86.7443 626.809C78.3186 624.798 69.443 626.091 61.9409 630.421L17.8233 655.869C13.8465 658.162 10.3772 661.24 7.62589 664.914C4.8746 668.589 2.89871 672.785 1.81815 677.246C0.737592 681.708 0.5749 686.343 1.33995 690.869C2.105 695.396 3.78183 699.719 6.26867 703.578C181.418 971.571 531.479 1077.02 829.934 937.686C1146.31 790.085 1289.07 421.49 1160.27 101.45C1158.57 97.1535 1156.01 93.25 1152.75 89.9799C1149.48 86.7097 1145.58 84.1419 1141.29 82.4345C1136.99 80.727 1132.4 79.9159 1127.78 80.0511C1123.16 80.1862 1118.62 81.2647 1114.43 83.2203Z" fill="#78C45B"/>
<g id="slices">
<path id="slice-pink" d="M903.599 180.672L641.637 302.826C635.336 305.758 630.09 310.557 626.608 316.572C623.126 322.586 621.578 329.526 622.174 336.451C622.769 343.375 625.479 349.948 629.937 355.28C634.395 360.612 640.384 364.445 647.093 366.258L914.78 437.958C924.82 440.644 935.343 440.986 945.536 438.956C955.729 436.925 965.318 432.578 973.563 426.25C981.807 419.922 988.485 411.782 993.081 402.461C997.677 393.139 1000.07 382.886 1000.07 372.493V242.105C1000.07 230.701 997.204 219.48 991.721 209.48C986.237 199.481 978.32 191.027 968.7 184.901C959.081 178.776 948.072 175.177 936.692 174.438C925.312 173.698 913.929 175.843 903.599 180.672V180.672ZM733.024 360.498C715.302 362.056 663.832 352.094 662.307 334.406C660.782 316.719 709.745 297.913 727.399 296.388C735.767 295.887 744 298.671 750.347 304.146C756.695 309.621 760.656 317.357 761.389 325.707C762.121 334.058 759.568 342.365 754.271 348.862C748.974 355.359 741.351 359.533 733.024 360.498V360.498Z" fill="#EB3B98"/>
<path id="slice-green" d="M912.476 476.484L640.858 377.609C634.322 375.229 627.213 374.918 620.494 376.718C613.775 378.518 607.774 382.342 603.303 387.671C598.833 393 596.111 399.575 595.507 406.504C594.902 413.433 596.445 420.381 599.925 426.403L738.581 666.271C743.779 675.272 750.978 682.955 759.621 688.729C768.263 694.502 778.118 698.21 788.423 699.566C798.727 700.922 809.206 699.89 819.048 696.549C828.89 693.208 837.832 687.648 845.182 680.3L937.212 588.1C945.273 580.043 951.171 570.083 954.362 559.142C957.553 548.201 957.933 536.632 955.467 525.505C953.001 514.379 947.769 504.053 940.255 495.485C932.74 486.916 923.186 480.381 912.476 476.484ZM709.169 471.673C703.692 478.153 695.877 482.209 687.425 482.958C678.972 483.706 670.566 481.088 664.035 475.671C650.481 464.252 621.069 420.812 632.488 407.19C643.908 393.569 691.786 414.916 705.408 426.335C708.636 429.062 711.294 432.398 713.232 436.152C715.17 439.907 716.349 444.007 716.701 448.217C717.053 452.428 716.573 456.667 715.286 460.691C714 464.716 711.932 468.447 709.203 471.673H709.169Z" fill="#78C45B"/>
<path id="slice-orange" d="M710.999 691.922L588.845 429.961C585.896 423.663 581.081 418.425 575.052 414.958C569.024 411.491 562.075 409.963 555.148 410.581C548.221 411.199 541.653 413.933 536.333 418.412C531.014 422.891 527.201 428.899 525.413 435.619L453.714 703.138C451.027 713.177 450.686 723.701 452.716 733.893C454.746 744.086 459.093 753.675 465.421 761.92C471.749 770.164 479.889 776.842 489.211 781.438C498.532 786.034 508.786 788.425 519.179 788.425H649.566C660.975 788.435 672.201 785.564 682.205 780.079C692.208 774.594 700.665 766.673 706.792 757.049C712.918 747.425 716.516 736.41 717.251 725.025C717.987 713.64 715.836 702.254 710.999 691.922V691.922ZM566.041 547.201C561.831 547.573 557.589 547.112 553.557 545.843C549.526 544.575 545.784 542.524 542.545 539.808C539.307 537.092 536.636 533.764 534.685 530.015C532.734 526.266 531.54 522.169 531.174 517.959C529.615 500.237 539.577 448.767 557.265 447.242C574.953 445.717 593.759 494.68 595.283 512.334C596.026 520.835 593.363 529.282 587.88 535.821C582.396 542.359 574.541 546.452 566.041 547.201V547.201Z" fill="#F9A140"/>
<path id="slice-red" d="M465.268 384.793L225.4 523.346C216.4 528.545 208.716 535.744 202.942 544.386C197.169 553.029 193.461 562.884 192.105 573.188C190.749 583.493 191.781 593.972 195.122 603.814C198.463 613.656 204.023 622.597 211.372 629.947L303.571 722.147C311.628 730.208 321.588 736.106 332.529 739.297C343.47 742.488 355.039 742.868 366.166 740.402C377.293 737.936 387.618 732.704 396.187 725.19C404.755 717.675 411.29 708.121 415.187 697.411L514.062 425.793C516.464 419.254 516.791 412.133 515 405.401C513.209 398.668 509.387 392.652 504.053 388.17C498.72 383.688 492.134 380.96 485.194 380.355C478.254 379.751 471.296 381.3 465.268 384.793V384.793ZM458.491 490.106C453.005 496.648 445.144 500.743 436.639 501.49C428.133 502.236 419.679 499.574 413.137 494.087C406.595 488.601 402.5 480.74 401.753 472.235C401.006 463.729 403.669 455.275 409.156 448.733C420.575 435.179 464.015 405.767 477.636 417.186C491.258 428.605 469.978 476.552 458.559 490.174L458.491 490.106Z" fill="#F04A4E"/>
</g>
<g id="leaves">
<path id="leaf-right" d="M713.066 9.115C711.093 6.30748 708.418 4.06651 705.309 2.61574C702.199 1.16498 698.763 0.55517 695.344 0.847173C666.17 3.35463 586.101 18.8399 542.051 113.073C502.711 197.479 530.394 263.554 548.828 293.609C552.302 299.377 557.417 303.979 563.518 306.828C569.62 309.677 576.432 310.643 583.085 309.603C617.884 304.283 686.297 283.037 725.671 198.631C769.518 104.466 729.906 33.0714 713.066 9.115Z" fill="#78C45B"/>
<path id="leaf-left" d="M138.486 135.809C134.235 138.872 130.837 142.969 128.613 147.713C126.39 152.457 125.414 157.69 125.779 162.917C128.524 203.002 147.228 305.232 263.249 359.854C379.27 414.475 469.945 363.242 502.643 339.963C506.895 336.9 510.297 332.803 512.526 328.06C514.755 323.317 515.739 318.084 515.384 312.856C512.605 272.77 493.901 170.541 377.88 115.885C261.86 61.2293 171.117 112.327 138.486 135.809Z" fill="#78C45B"/>
</g>
</g>
<defs>
<clipPath id="clip0">
<rect width="4061.97" height="1000" fill="white"/>
</clipPath>
</defs>
</svg>
