<svg width="100%" height="100%" viewBox="0 0 144 144" fill="none" xmlns="http://www.w3.org/2000/svg">
<g id="favicon">
<path id="peel" d="M132.894 21.8626L127.391 24.4366C126.453 24.8788 125.721 25.6649 125.344 26.6326C124.968 27.6003 124.977 28.6759 125.369 29.6374C131.211 44.3643 131.398 60.7395 125.894 75.5968C120.391 90.4541 109.587 102.738 95.5727 110.074C81.558 117.41 65.3276 119.277 50.0196 115.314C34.7115 111.351 21.413 101.838 12.6954 88.6168C12.1298 87.7494 11.2544 87.132 10.2488 86.8915C9.24331 86.651 8.18408 86.8057 7.28877 87.3237L2.0237 90.368C1.5491 90.6423 1.13507 91.0105 0.806726 91.4501C0.478382 91.8897 0.242576 92.3916 0.113621 92.9254C-0.015335 93.4591 -0.0347509 94.0135 0.0565511 94.555C0.147853 95.0965 0.347969 95.6138 0.644753 96.0754C21.5473 128.135 63.3242 140.75 98.9422 124.082C136.699 106.424 153.736 62.3294 138.366 24.0434C138.163 23.5294 137.857 23.0625 137.467 22.6713C137.078 22.2801 136.612 21.9729 136.1 21.7686C135.587 21.5643 135.039 21.4673 134.487 21.4835C133.936 21.4997 133.394 21.6287 132.894 21.8626Z" fill="#78C45B"/>
<g id="slices">
<path id="slice-pink" d="M107.733 33.5207L76.4703 48.1338C75.7184 48.4846 75.0922 49.0587 74.6767 49.7782C74.2612 50.4977 74.0765 51.3279 74.1475 52.1563C74.2186 52.9846 74.542 53.771 75.074 54.4089C75.606 55.0467 76.3207 55.5052 77.1214 55.7221L109.068 64.2995C110.266 64.6208 111.522 64.6617 112.738 64.4188C113.954 64.176 115.099 63.6559 116.083 62.8989C117.067 62.1419 117.864 61.1681 118.412 60.053C118.961 58.9379 119.246 57.7113 119.246 56.468V40.8698C119.247 39.5056 118.904 38.1632 118.25 36.967C117.595 35.7708 116.65 34.7594 115.502 34.0266C114.355 33.2938 113.041 32.8633 111.683 32.7748C110.324 32.6864 108.966 32.9429 107.733 33.5207ZM87.3765 55.033C85.2616 55.2195 79.119 54.0277 78.9371 51.9117C78.7551 49.7958 84.5984 47.5461 86.7053 47.3636C87.7039 47.3038 88.6864 47.6367 89.4439 48.2917C90.2015 48.9467 90.6742 49.8721 90.7616 50.8711C90.8491 51.8701 90.5443 52.8638 89.9121 53.6411C89.28 54.4183 88.3703 54.9177 87.3765 55.033Z" fill="#EB3B98"/>
<path id="slice-yellow" d="M108.793 68.9084L76.3774 57.08C75.5974 56.7953 74.7489 56.7581 73.9471 56.9734C73.1453 57.1888 72.429 57.6462 71.8956 58.2837C71.3621 58.9212 71.0372 59.7078 70.9651 60.5367C70.893 61.3657 71.0771 62.1968 71.4924 62.9172L88.0398 91.6124C88.6602 92.6891 89.5193 93.6083 90.5507 94.299C91.5821 94.9897 92.7582 95.4332 93.988 95.5955C95.2178 95.7577 96.4683 95.6342 97.6429 95.2345C98.8174 94.8349 99.8845 94.1697 100.762 93.2906L111.745 82.2608C112.707 81.297 113.411 80.1056 113.791 78.7967C114.172 77.4878 114.218 76.1038 113.923 74.7727C113.629 73.4416 113.005 72.2064 112.108 71.1814C111.211 70.1563 110.071 69.3746 108.793 68.9084ZM84.5297 68.3328C83.8761 69.108 82.9434 69.5932 81.9347 69.6828C80.926 69.7724 79.9228 69.4591 79.1434 68.8111C77.5258 67.445 74.0158 62.2483 75.3786 60.6188C76.7413 58.9893 82.4553 61.543 84.0809 62.9091C84.4661 63.2353 84.7834 63.6343 85.0146 64.0835C85.2459 64.5327 85.3866 65.0231 85.4286 65.5268C85.4707 66.0305 85.4133 66.5376 85.2598 67.0191C85.1062 67.5005 84.8595 67.9469 84.5338 68.3328H84.5297Z" fill="#FFD600"/>
<path id="slice-orange" d="M84.748 94.6809L70.17 63.3428C69.818 62.5894 69.2433 61.9628 68.5239 61.548C67.8045 61.1333 66.9751 60.9505 66.1485 61.0244C65.3219 61.0983 64.5379 61.4254 63.9031 61.9613C63.2683 62.4971 62.8133 63.2158 62.5999 64.0197L54.0432 96.0227C53.7226 97.2237 53.6818 98.4826 53.9241 99.7019C54.1664 100.921 54.6852 102.068 55.4404 103.055C56.1956 104.041 57.167 104.84 58.2794 105.39C59.3919 105.94 60.6156 106.225 61.8559 106.226H77.4165C78.778 106.227 80.1178 105.883 81.3116 105.227C82.5054 104.571 83.5147 103.623 84.2458 102.472C84.977 101.321 85.4063 100.003 85.4941 98.641C85.5819 97.2791 85.3253 95.917 84.748 94.6809ZM67.4485 77.3681C66.9461 77.4127 66.4398 77.3575 65.9587 77.2057C65.4775 77.054 65.031 76.8086 64.6445 76.4837C64.258 76.1588 63.9392 75.7607 63.7064 75.3122C63.4735 74.8637 63.3311 74.3736 63.2874 73.8699C63.1014 71.7499 64.2903 65.5925 66.4011 65.4101C68.512 65.2277 70.7563 71.0851 70.9383 73.197C71.0269 74.214 70.7091 75.2246 70.0547 76.0067C69.4003 76.7888 68.4629 77.2785 67.4485 77.3681Z" fill="#F9A140"/>
<path id="slice-red" d="M55.4222 57.9394L26.7959 74.5144C25.7218 75.1363 24.8048 75.9975 24.1158 77.0314C23.4268 78.0653 22.9843 79.2442 22.8224 80.477C22.6606 81.7097 22.7838 82.9633 23.1825 84.1407C23.5812 85.318 24.2447 86.3877 25.1218 87.267L36.125 98.2968C37.0865 99.261 38.2751 99.9667 39.5809 100.348C40.8866 100.73 42.2672 100.776 43.5951 100.481C44.923 100.186 46.1553 99.5597 47.1779 98.6608C48.2004 97.7618 48.9803 96.6189 49.4454 95.3376L61.2453 62.8442C61.5319 62.0619 61.571 61.2101 61.3573 60.4047C61.1435 59.5993 60.6873 58.8796 60.0508 58.3434C59.4143 57.8073 58.6284 57.4809 57.8002 57.4086C56.9719 57.3363 56.1416 57.5216 55.4222 57.9394ZM54.6134 70.5379C53.9587 71.3205 53.0206 71.8104 52.0055 71.8997C50.9904 71.9891 49.9815 71.6705 49.2008 71.0142C48.42 70.3579 47.9313 69.4175 47.8422 68.4C47.7531 67.3825 48.0709 66.3711 48.7256 65.5885C50.0884 63.967 55.2726 60.4485 56.8982 61.8146C58.5238 63.1807 55.9843 68.9165 54.6215 70.546L54.6134 70.5379Z" fill="#F04A4E"/>
</g>
<g id="leaves">
<path id="leaf-right" d="M84.9947 12.9975C84.7593 12.6616 84.4401 12.3935 84.069 12.22C83.6979 12.0464 83.2878 11.9735 82.8798 12.0084C79.3981 12.3084 69.8425 14.1609 64.5855 25.4338C59.8907 35.5313 63.1945 43.4357 65.3943 47.0312C65.809 47.7213 66.4193 48.2718 67.1475 48.6126C67.8757 48.9534 68.6886 49.0689 69.4826 48.9445C73.6356 48.3081 81.8001 45.7665 86.499 35.6691C91.7317 24.4042 87.0045 15.8634 84.9947 12.9975Z" fill="#78C45B"/>
<path id="leaf-left" d="M16.4235 28.1538C15.9162 28.5202 15.5106 29.0104 15.2453 29.5779C14.9799 30.1454 14.8635 30.7714 14.9071 31.3966C15.2346 36.192 17.4668 48.4216 31.3129 54.956C45.159 61.4903 55.9803 55.3613 59.8826 52.5765C60.3901 52.2101 60.796 51.72 61.062 51.1526C61.3281 50.5852 61.4454 49.9592 61.4031 49.3337C61.0715 44.5383 58.8393 32.3087 44.9932 25.7703C31.1471 19.2319 20.3177 25.3447 16.4235 28.1538Z" fill="#78C45B"/>
</g>
</g>
</svg>
