<svg width="100%" height="100%" viewBox="0 0 4000 915" fill="none" xmlns="http://www.w3.org/2000/svg">
<g id="logo">
<g id="text">
<g id="slogan">
<path id="vector-19" d="M3711.88 687.119C3708.95 688.354 3705.79 688.99 3702.61 688.99C3699.42 688.99 3696.26 688.354 3693.33 687.119C3692.09 686.767 3691.02 685.999 3690.28 684.943C3689.55 683.888 3689.19 682.61 3689.29 681.325C3689.3 679.227 3688.8 677.157 3687.85 675.291C3686.64 672.877 3685.63 672.635 3683.42 674.277C3679.64 677.226 3676.71 681.145 3674.96 685.622C3668.93 698.089 3667.63 712.336 3671.31 725.695C3672.46 729.702 3673.47 733.709 3674.86 737.62C3682.15 758.041 3687.1 779.227 3689.62 800.77C3690.84 808.675 3691.1 816.7 3690.39 824.668C3690.08 828.511 3688.73 832.198 3686.51 835.341C3684.28 838.484 3681.26 840.968 3677.75 842.532C3667.03 847.642 3654.87 848.821 3643.37 845.863C3637.61 844.395 3632.52 840.987 3628.95 836.207C3624.13 830.056 3619.96 823.422 3616.5 816.412C3614.67 812.743 3615.25 810.715 3618.9 809.17C3621.95 807.838 3625.25 807.191 3628.57 807.274C3631.89 807.358 3635.16 808.17 3638.13 809.653C3639.96 810.772 3641.37 812.471 3642.12 814.481C3645.25 820.76 3648.98 826.712 3653.28 832.248C3656.45 836.255 3658.08 836.159 3661.31 831.91C3663.25 828.958 3664.28 825.501 3664.29 821.964C3664.29 819.744 3664.29 817.523 3664.29 815.302C3663.51 799.362 3661.13 783.541 3657.17 768.084C3655.01 758.763 3652.31 749.575 3649.09 740.565C3646.96 734.564 3645.26 728.416 3644 722.17C3641.04 707.125 3643.82 691.512 3651.79 678.429C3654.75 673.382 3658.89 669.142 3663.86 666.078C3668.83 663.014 3674.48 661.221 3680.3 660.855C3688.4 659.953 3696.6 661.288 3704 664.717C3707.19 665.999 3709.96 668.153 3711.99 670.936C3714.02 673.718 3715.23 677.016 3715.49 680.456C3715.88 681.82 3715.72 683.283 3715.05 684.529C3714.37 685.775 3713.24 686.705 3711.88 687.119Z" fill="#EB3B98"/>
<path id="vector-18" d="M3601.11 666.021C3602.22 660.054 3602.6 653.975 3602.27 647.916C3602.04 646.659 3602.23 645.362 3602.8 644.221C3603.37 643.08 3604.3 642.157 3605.44 641.591C3610.68 638.479 3616.9 637.478 3622.84 638.791C3627.27 639.805 3628.08 640.867 3628.28 645.26C3628.28 646.998 3628.28 648.736 3628.28 651.199C3628.21 655.274 3627.85 659.339 3627.22 663.365C3627.09 664.813 3626.57 666.198 3625.72 667.377C3624.88 668.557 3623.74 669.489 3622.41 670.076C3617.21 672.913 3611.16 673.754 3605.39 672.442C3601.64 671.573 3600.54 669.835 3601.11 666.021ZM3629.96 718.066C3627.48 738.688 3627.48 759.533 3629.96 780.154C3630.3 783.148 3630.39 786.189 3630.83 789.182C3631.04 790.295 3630.89 791.448 3630.4 792.468C3629.9 793.487 3629.09 794.317 3628.08 794.831C3625.19 796.658 3621.94 797.851 3618.55 798.333C3615.16 798.816 3611.71 798.577 3608.42 797.631C3607.36 797.34 3606.42 796.713 3605.75 795.843C3605.07 794.973 3604.69 793.907 3604.67 792.803C3601.08 765.402 3601.08 737.646 3604.67 710.245C3605.08 707.253 3605.27 704.236 3605.25 701.217C3605.14 699.777 3605.49 698.339 3606.25 697.114C3607.01 695.889 3608.14 694.941 3609.48 694.409C3614.63 691.812 3620.49 690.981 3626.16 692.043C3630.2 692.671 3631.59 694.458 3631.35 698.706C3631.07 705.127 3630.54 711.645 3629.77 718.115L3629.96 718.066Z" fill="#EB3B98"/>
<path id="vector-17" d="M3554.14 755.869C3553.13 757.463 3552.17 759.056 3551.21 760.697C3545.87 769.958 3539.83 778.787 3533.13 787.106C3529.87 791.238 3526.23 795.053 3522.26 798.501C3518.28 801.97 3513.5 804.384 3508.35 805.522C3503.21 806.661 3497.86 806.488 3492.79 805.018C3489.63 804.34 3486.68 802.919 3484.17 800.871C3481.66 798.823 3479.67 796.207 3478.37 793.238C3475.63 787.431 3474 781.158 3473.56 774.747C3471.4 751.039 3476.79 727.254 3488.95 706.817C3494.63 697.371 3501.94 689.017 3510.53 682.146C3517 676.672 3524.64 672.774 3532.85 670.755C3541.07 668.737 3549.64 668.653 3557.89 670.511C3561.88 671.331 3561.78 671.235 3563.03 667.517C3565 659.944 3566.26 652.201 3566.78 644.391C3569.28 625.079 3571.59 605.768 3574.43 586.456C3574.55 584.455 3575.35 582.555 3576.68 581.065C3578.02 579.575 3579.82 578.582 3581.78 578.248C3586.88 576.883 3592.26 577.051 3597.27 578.731C3598.07 578.854 3598.84 579.145 3599.53 579.586C3600.22 580.026 3600.81 580.605 3601.26 581.286C3601.71 581.968 3602.02 582.737 3602.16 583.544C3602.3 584.35 3602.27 585.178 3602.07 585.973C3601.08 610.844 3597.63 635.556 3591.79 659.744C3589.93 668.323 3588.64 677.016 3587.94 685.767C3585.92 700.927 3584.14 716.183 3582.75 731.392C3579.83 756.79 3579.65 782.43 3582.22 807.867C3583.51 819.609 3586.16 831.16 3590.1 842.29C3591.04 845.865 3593.27 848.962 3596.35 850.981C3599.24 852.622 3598.9 855.084 3595.97 856.967C3593.35 858.486 3590.39 859.317 3587.36 859.381C3582.69 860.355 3577.82 859.551 3573.71 857.124C3569.6 854.697 3566.53 850.821 3565.1 846.249C3560.76 835.265 3557.87 823.757 3556.5 812.019C3554.33 795.23 3553.66 778.282 3554.48 761.373C3554.48 759.635 3554.48 757.849 3554.48 756.111L3554.14 755.869ZM3503.85 789.038C3504.86 787.638 3505.29 786.962 3505.82 786.334C3507.89 783.727 3510.05 781.168 3512.07 778.464C3529.24 754.262 3542.91 727.733 3552.65 699.672C3553.03 698.658 3553.71 697.499 3553.08 696.485C3552.09 694.286 3551.92 691.8 3552.6 689.485C3552.96 688.168 3552.91 686.772 3552.46 685.485C3552 684.198 3551.16 683.083 3550.05 682.291C3548.87 681.479 3547.47 681.045 3546.04 681.045C3544.61 681.045 3543.21 681.479 3542.02 682.291C3536.98 685.029 3532.38 688.512 3528.37 692.623C3506.64 714.735 3498.8 741.868 3500.2 772.188C3500.28 777.989 3501.5 783.716 3503.8 789.038H3503.85Z" fill="#EB3B98"/>
<path id="vector-16" d="M3464.81 792.803C3464.43 793.104 3464.03 793.378 3463.61 793.624C3461.23 794.975 3458.61 795.826 3455.89 796.126C3453.18 796.426 3450.43 796.169 3447.82 795.37C3445.2 794.57 3442.78 793.246 3440.69 791.477C3438.6 789.707 3436.9 787.531 3435.67 785.078C3431.48 774.907 3428.9 764.139 3428.03 753.165C3428.03 752.344 3428.03 751.572 3427.74 750.317C3426.3 751.421 3425.23 752.935 3424.66 754.662C3420.37 763.006 3415.55 771.069 3410.24 778.802C3406.47 784.624 3400.56 788.718 3393.8 790.196C3387.86 791.496 3381.69 791.263 3375.87 789.52C3372.36 788.411 3369.19 786.452 3366.62 783.816C3364.06 781.18 3362.18 777.948 3361.15 774.408C3359.43 768.912 3358.6 763.174 3358.7 757.414C3358.52 746.056 3359.65 734.715 3362.07 723.618C3365.6 708.203 3374.87 694.729 3387.98 685.96C3397.19 679.797 3408.19 676.892 3419.23 677.704C3421.25 677.704 3423.51 678.573 3425.29 677.704C3427.07 676.835 3427.02 674.035 3427.6 672.152C3428.2 669.724 3429.58 667.562 3431.53 666C3433.47 664.438 3435.88 663.563 3438.37 663.509C3442.77 662.813 3447.28 663.143 3451.54 664.475C3453.1 664.824 3454.47 665.759 3455.36 667.087C3456.25 668.416 3456.61 670.038 3456.35 671.621C3456.32 676.472 3455.91 681.314 3455.15 686.104C3452.94 705.608 3452.35 725.26 3453.37 744.861C3453.74 756.039 3455.68 767.108 3459.14 777.74C3459.96 781.66 3461.94 785.242 3464.81 788.023C3466.93 789.375 3466.59 791.21 3464.81 792.803ZM3421.2 691.415C3420.39 690.538 3419.32 689.931 3418.16 689.672C3416.99 689.414 3415.77 689.516 3414.66 689.967C3411.62 691.313 3408.8 693.121 3406.3 695.326C3397.78 702.387 3391.69 711.965 3388.89 722.701C3385.7 735.409 3384.44 748.527 3385.14 761.614C3385.19 765.05 3385.84 768.45 3387.07 771.656C3388.75 770.981 3389.13 769.677 3389.76 768.615C3403.55 746.019 3414.24 721.659 3421.54 696.195C3421.97 694.505 3423.08 692.864 3421.2 691.319V691.415Z" fill="#EB3B98"/>
<path id="vector-15" d="M3352.21 709.907C3350.04 711.225 3347.61 712.08 3345.1 712.417C3341.34 713.1 3337.48 712.851 3333.85 711.693C3331.94 711.367 3330.2 710.435 3328.86 709.035C3327.53 707.635 3326.68 705.842 3326.44 703.92C3325.72 699.092 3324.66 694.506 3323.89 689.822C3323.22 686.237 3322.02 682.771 3320.33 679.539C3313.74 685.527 3308.18 692.576 3303.89 700.396C3298.86 710.719 3294.98 721.567 3292.31 732.743C3286.73 753.047 3283.5 773.93 3282.69 794.976C3282.35 801.445 3281.2 802.894 3274.85 804.632C3270.35 805.696 3265.65 805.596 3261.2 804.342C3259.47 804.019 3257.89 803.119 3256.73 801.787C3255.57 800.456 3254.89 798.771 3254.8 797.004C3254.03 790.051 3253.22 783.099 3253.07 776.05C3252.74 752.924 3254.03 729.798 3253.89 706.672C3253.89 695.52 3253.51 684.367 3252.5 673.214C3252.4 671.3 3252.4 669.383 3252.5 667.469C3252.23 665.781 3252.64 664.056 3253.63 662.665C3254.62 661.274 3256.11 660.329 3257.78 660.034C3263.23 658.101 3269.17 658.101 3274.61 660.034C3279.42 661.724 3280.29 663.848 3279.13 668.773C3279.06 669.398 3279.06 670.03 3279.13 670.655C3279.13 678.091 3280.43 685.477 3280.09 693.106C3282.11 692.816 3282.45 691.367 3283.12 690.45C3286.32 686.066 3289.79 681.89 3293.51 677.946C3298.2 673.029 3304.01 669.324 3310.44 667.147C3316.87 664.97 3323.73 664.385 3330.43 665.441C3333.75 665.868 3336.92 667.114 3339.65 669.068C3342.37 671.023 3344.58 673.625 3346.06 676.642C3348.41 680.844 3350.03 685.414 3350.86 690.16C3351.36 695.552 3352.54 700.858 3354.37 705.948C3354.61 707.686 3353.56 708.941 3352.21 709.907Z" fill="#EB3B98"/>
<path id="vector-14" d="M3244.66 792.803L3243.51 793.624C3241.13 794.976 3238.5 795.828 3235.78 796.129C3233.06 796.429 3230.31 796.172 3227.69 795.373C3225.07 794.574 3222.65 793.249 3220.56 791.48C3218.46 789.71 3216.75 787.532 3215.52 785.078C3211.35 774.9 3208.77 764.135 3207.88 753.165C3207.88 752.345 3207.88 751.572 3207.59 750.317C3206.15 751.421 3205.08 752.936 3204.51 754.662C3200.22 763.006 3195.4 771.069 3190.09 778.802C3186.32 784.624 3180.41 788.718 3173.65 790.196C3167.71 791.496 3161.54 791.264 3155.71 789.52C3152.21 788.411 3149.04 786.452 3146.47 783.816C3143.91 781.18 3142.03 777.949 3141 774.409C3139.28 768.913 3138.45 763.174 3138.55 757.414C3138.37 746.056 3139.5 734.715 3141.92 723.618C3145.45 708.203 3154.72 694.729 3167.83 685.96C3177.05 679.8 3188.04 676.895 3199.08 677.704C3201.1 677.704 3203.36 678.573 3205.19 677.704C3207.01 676.835 3206.87 674.035 3207.45 672.152C3208.05 669.724 3209.43 667.562 3211.37 666C3213.32 664.438 3215.73 663.563 3218.22 663.509C3222.62 662.813 3227.13 663.143 3231.39 664.475C3232.95 664.824 3234.32 665.759 3235.21 667.087C3236.1 668.416 3236.46 670.038 3236.2 671.621C3236.17 676.472 3235.76 681.314 3235 686.105C3232.79 705.608 3232.2 725.26 3233.22 744.861C3233.59 756.039 3235.53 767.108 3238.99 777.74C3239.81 781.66 3241.79 785.242 3244.66 788.023C3246.78 789.375 3246.44 791.21 3244.66 792.803ZM3201.05 691.415C3200.24 690.539 3199.17 689.931 3198.01 689.672C3196.84 689.414 3195.62 689.516 3194.51 689.967C3191.47 691.313 3188.65 693.121 3186.15 695.326C3177.62 702.387 3171.53 711.965 3168.74 722.701C3165.55 735.409 3164.29 748.528 3164.99 761.614C3165.04 765.05 3165.69 768.45 3166.92 771.657C3168.6 770.981 3168.98 769.677 3169.61 768.615C3183.39 746.019 3194.08 721.659 3201.39 696.195C3201.82 694.505 3203.17 692.864 3201.05 691.319V691.415Z" fill="#EB3B98"/>
<path id="vector-13" d="M3059.7 694.168C3061.28 693.266 3062.63 692.01 3063.64 690.498C3069.1 684.298 3076.09 679.653 3083.91 677.034C3091.73 674.415 3100.09 673.913 3108.17 675.58C3121.82 677.897 3128.07 685.236 3128.74 699.141C3130.17 716.019 3127.34 732.987 3120.52 748.479C3113.7 763.971 3103.1 777.488 3089.7 787.782C3081.05 795.125 3070.76 800.259 3059.7 802.749C3057.73 803.135 3054.89 802.314 3053.88 803.956C3052.87 805.598 3053.4 808.301 3053.36 810.474C3053.36 838.621 3054.65 866.623 3057.06 894.625C3057.39 898.295 3057.73 901.964 3058.02 905.585C3058.31 909.206 3057.68 910.413 3054.61 911.62C3051.47 913.006 3048.08 913.721 3044.65 913.721C3041.23 913.721 3037.84 913.006 3034.7 911.62C3033.57 911.033 3032.6 910.167 3031.88 909.104C3031.17 908.041 3030.73 906.814 3030.61 905.537C3028.71 896.646 3027.47 887.624 3026.91 878.548C3025.13 858.821 3024.8 838.988 3025.95 819.212C3027.54 796.424 3027.59 773.588 3029.32 750.848C3030.81 730.764 3032.06 710.728 3033.6 690.692C3034.36 681.036 3035.52 671.38 3036.43 661.724C3036.51 660.441 3036.98 659.214 3037.78 658.212C3038.58 657.209 3039.67 656.479 3040.9 656.123C3046.47 654.049 3052.6 654.049 3058.16 656.123C3062.63 657.668 3063.69 659.889 3062.97 664.62C3061.19 673.89 3060.57 683.739 3059.7 694.168ZM3055.47 788.989C3057.41 788.687 3059.22 787.852 3060.71 786.575C3089.99 766.443 3102.88 737.909 3102.88 702.906C3102.97 698.583 3102.15 694.288 3100.47 690.305C3098.98 686.877 3098.26 686.636 3095.18 688.615C3090.95 691.471 3087.29 695.089 3084.37 699.285C3079.15 706.514 3074.92 714.404 3071.77 722.749C3065.34 740.083 3060.51 757.974 3057.35 776.195C3056.23 780.372 3055.6 784.666 3055.47 788.989Z" fill="#EB3B98"/>
<path id="vector-12" d="M2967.58 800.576C2963.93 802.493 2959.86 803.494 2955.73 803.494C2951.61 803.494 2947.54 802.493 2943.88 800.576C2941.52 798.852 2939.82 796.363 2939.07 793.528C2938.04 790.016 2937.36 786.409 2937.05 782.761C2937.05 781.361 2937.05 779.913 2936.24 778.657C2934.51 779.044 2934.12 780.589 2933.26 781.602C2930.08 785.599 2926.36 789.126 2922.2 792.079C2918.18 794.829 2913.59 796.635 2908.78 797.362C2903.97 798.089 2899.06 797.719 2894.41 796.28C2891.51 795.402 2888.81 793.951 2886.47 792.011C2884.13 790.071 2882.21 787.681 2880.8 784.982C2875.97 776.521 2872.71 767.244 2871.19 757.607C2869.88 750.378 2869.32 743.033 2869.51 735.688C2869.38 723.087 2870.25 710.495 2872.1 698.03C2873.3 691.416 2875.42 689.292 2882.01 688.374C2886.42 687.636 2890.94 688.001 2895.18 689.436C2899.07 690.981 2900.32 692.768 2899.22 696.823C2895.13 711.983 2895.9 727.481 2895.95 742.93C2896.1 753.809 2898.32 764.559 2902.49 774.602C2903.06 775.905 2903.69 777.209 2904.31 778.513C2904.66 779.148 2905.04 779.761 2905.47 780.347C2906.96 779.475 2908.2 778.227 2909.07 776.726C2917.33 765.6 2923.82 753.255 2928.3 740.13C2933.73 725.3 2937.92 710.038 2940.8 694.506C2941.81 689.195 2943.4 687.698 2948.74 686.491C2953.25 685.409 2957.97 685.593 2962.39 687.022C2967.2 688.567 2967.97 689.919 2967.49 694.747C2966.77 702.375 2965.76 709.955 2965.04 717.583C2963.1 736.96 2962.26 756.433 2962.54 775.906C2962.75 780.203 2963.28 784.479 2964.12 788.7C2964.23 789.631 2964.56 790.522 2965.09 791.295C2965.62 792.069 2966.33 792.702 2967.15 793.141C2971.48 795.604 2971.38 798.066 2967.58 800.576Z" fill="#EB3B98"/>
<path id="vector-11" d="M2822.1 755.869C2821.14 757.463 2820.13 759.056 2819.21 760.697C2813.88 769.958 2807.83 778.787 2801.14 787.106C2797.87 791.227 2794.23 795.041 2790.27 798.501C2786.28 801.97 2781.49 804.384 2776.33 805.522C2771.18 806.66 2765.82 806.487 2760.75 805.018C2757.64 804.299 2754.74 802.859 2752.29 800.813C2749.84 798.768 2747.89 796.173 2746.61 793.238C2743.88 787.43 2742.24 781.158 2741.81 774.747C2739.67 751.041 2745.06 727.264 2757.19 706.817C2762.9 697.38 2770.23 689.028 2778.83 682.146C2785.29 676.672 2792.93 672.774 2801.15 670.755C2809.36 668.737 2817.93 668.653 2826.18 670.511C2830.13 671.331 2830.08 671.235 2831.28 667.517C2833.27 659.949 2834.53 652.204 2835.03 644.391C2837.53 625.079 2839.84 605.768 2842.72 586.456C2842.84 584.462 2843.63 582.567 2844.96 581.078C2846.28 579.589 2848.07 578.592 2850.03 578.248C2855.13 576.883 2860.51 577.051 2865.51 578.731C2866.32 578.847 2867.1 579.134 2867.79 579.572C2868.48 580.01 2869.07 580.59 2869.53 581.273C2869.98 581.957 2870.29 582.728 2870.42 583.538C2870.56 584.348 2870.52 585.177 2870.32 585.973C2869.37 610.849 2865.93 635.565 2860.03 659.744C2858.19 668.324 2856.92 677.017 2856.23 685.767C2854.17 700.927 2852.43 716.183 2851.04 731.392C2848.1 756.789 2847.93 782.431 2850.51 807.867C2851.78 819.613 2854.43 831.167 2858.4 842.29C2859.28 845.875 2861.5 848.984 2864.6 850.981C2867.48 852.622 2867.15 855.084 2864.26 856.967C2861.62 858.488 2858.65 859.318 2855.61 859.381C2850.94 860.355 2846.07 859.551 2841.96 857.124C2837.84 854.697 2834.77 850.821 2833.35 846.249C2829.05 835.25 2826.16 823.748 2824.74 812.019C2822.6 795.228 2821.93 778.282 2822.72 761.373C2822.72 759.635 2822.72 757.849 2822.72 756.111L2822.1 755.869ZM2771.86 789.038L2773.78 786.334C2775.85 783.727 2778.06 781.168 2780.03 778.464C2797.22 754.265 2810.9 727.736 2820.66 699.672C2821.04 698.658 2821.66 697.499 2821.04 696.485C2820.07 694.28 2819.9 691.803 2820.56 689.485C2820.92 688.172 2820.87 686.782 2820.42 685.497C2819.98 684.212 2819.15 683.094 2818.06 682.291C2816.88 681.479 2815.48 681.045 2814.04 681.045C2812.61 681.045 2811.21 681.479 2810.03 682.291C2804.98 685.017 2800.38 688.501 2796.38 692.623C2774.6 714.735 2766.81 741.868 2768.15 772.188C2768.24 777.998 2769.5 783.729 2771.86 789.038Z" fill="#EB3B98"/>
<path id="vector-10" d="M2696.32 687.119C2693.38 688.354 2690.23 688.99 2687.04 688.99C2683.86 688.99 2680.7 688.354 2677.77 687.119C2676.54 686.759 2675.47 685.989 2674.73 684.935C2674 683.882 2673.64 682.608 2673.73 681.325C2673.73 679.226 2673.24 677.157 2672.28 675.29C2671.08 672.876 2670.07 672.635 2667.86 674.276C2664.09 677.239 2661.17 681.154 2659.4 685.622C2653.38 698.095 2652.1 712.341 2655.79 725.694C2656.95 729.702 2657.91 733.709 2659.3 737.62C2666.67 758.031 2671.7 779.217 2674.3 800.77C2675.52 808.675 2675.78 816.7 2675.07 824.668C2674.76 828.511 2673.41 832.198 2671.19 835.341C2668.96 838.484 2665.94 840.968 2662.43 842.532C2651.71 847.642 2639.55 848.821 2628.05 845.863C2622.29 844.395 2617.2 840.987 2613.63 836.207C2608.81 830.056 2604.64 823.422 2601.18 816.412C2599.35 812.743 2599.93 810.715 2603.58 809.17C2606.63 807.838 2609.93 807.191 2613.25 807.274C2616.57 807.357 2619.83 808.17 2622.81 809.653C2624.64 810.772 2626.04 812.471 2626.8 814.481C2629.92 820.771 2633.68 826.725 2638 832.248C2641.13 836.255 2642.81 836.159 2645.99 831.91C2647.92 828.958 2648.96 825.501 2648.97 821.964C2648.97 819.744 2648.97 817.523 2648.97 815.302C2648.19 799.362 2645.81 783.541 2641.85 768.084C2639.71 758.757 2637.01 749.567 2633.77 740.565C2631.71 734.563 2630.11 728.414 2628.97 722.17C2625.96 707.131 2628.73 691.508 2636.71 678.428C2639.67 673.378 2643.83 669.136 2648.81 666.072C2653.79 663.008 2659.44 661.217 2665.26 660.854C2673.35 659.957 2681.53 661.292 2688.92 664.717C2692.11 666.006 2694.88 668.161 2696.92 670.941C2698.95 673.721 2700.18 677.016 2700.46 680.456C2700.64 681.167 2700.67 681.906 2700.56 682.63C2700.44 683.354 2700.19 684.047 2699.8 684.669C2699.41 685.291 2698.91 685.828 2698.31 686.249C2697.71 686.67 2697.04 686.966 2696.32 687.119Z" fill="#EB3B98"/>
<path id="vector-9" d="M2618.05 709.907C2615.9 711.232 2613.49 712.087 2610.99 712.417C2607.22 713.102 2603.34 712.853 2599.69 711.693C2597.79 711.367 2596.04 710.435 2594.71 709.035C2593.37 707.635 2592.52 705.842 2592.28 703.92C2591.56 699.092 2590.55 694.506 2589.73 689.822C2589.06 686.244 2587.88 682.782 2586.23 679.539C2579.6 685.501 2574.04 692.554 2569.78 700.396C2564.71 710.709 2560.81 721.559 2558.15 732.743C2552.57 753.047 2549.34 773.93 2548.53 794.976C2548.2 801.445 2547.04 802.894 2540.7 804.632C2536.19 805.696 2531.49 805.596 2527.04 804.342C2525.31 804.011 2523.74 803.109 2522.59 801.779C2521.43 800.449 2520.74 798.768 2520.65 797.004C2519.88 790.051 2519.06 783.099 2518.92 776.05C2518.58 752.924 2519.88 729.798 2519.73 706.672C2519.73 695.52 2519.35 684.367 2518.34 673.214C2518.24 671.3 2518.24 669.383 2518.34 667.469C2518.07 665.781 2518.48 664.056 2519.47 662.665C2520.46 661.274 2521.95 660.329 2523.63 660.034C2529.07 658.101 2535.01 658.101 2540.45 660.034C2545.26 661.724 2546.13 663.848 2544.97 668.773C2544.82 669.388 2544.74 670.021 2544.73 670.655C2544.73 678.091 2546.03 685.477 2545.74 693.106C2547.71 692.816 2548.05 691.367 2548.77 690.45C2551.95 686.067 2555.4 681.891 2559.11 677.946C2563.81 673.029 2569.62 669.324 2576.04 667.147C2582.47 664.97 2589.33 664.385 2596.03 665.441C2599.36 665.859 2602.53 667.102 2605.26 669.058C2607.98 671.013 2610.18 673.62 2611.66 676.642C2614.03 680.834 2615.66 685.408 2616.47 690.16C2617.01 695.545 2618.18 700.845 2619.98 705.948C2620.51 707.686 2619.4 708.941 2618.05 709.907Z" fill="#EB3B98"/>
<path id="vector-8" d="M2505.69 800.576C2502.03 802.493 2497.95 803.494 2493.82 803.494C2489.68 803.494 2485.61 802.493 2481.94 800.576C2479.59 798.838 2477.9 796.354 2477.14 793.527C2476.1 790.016 2475.43 786.409 2475.12 782.761C2475.25 781.348 2474.98 779.925 2474.35 778.657C2472.62 779.043 2472.18 780.588 2471.32 781.602C2468.14 785.599 2464.42 789.126 2460.26 792.079C2456.24 794.829 2451.65 796.634 2446.84 797.362C2442.03 798.089 2437.12 797.719 2432.47 796.279C2429.57 795.402 2426.87 793.951 2424.53 792.011C2422.19 790.07 2420.27 787.681 2418.86 784.982C2414.05 776.511 2410.79 767.238 2409.25 757.607C2407.96 750.376 2407.41 743.031 2407.61 735.688C2407.48 723.088 2408.33 710.496 2410.16 698.03C2411.41 691.416 2413.48 689.291 2420.11 688.374C2424.51 687.636 2429.02 688.001 2433.24 689.436C2437.18 690.981 2438.38 692.767 2437.28 696.823C2433.19 711.983 2433.96 727.481 2434.06 742.93C2434.19 753.812 2436.41 764.566 2440.6 774.602C2441.13 775.905 2441.75 777.209 2442.38 778.512C2442.72 779.148 2443.11 779.761 2443.53 780.347C2445.05 779.495 2446.31 778.243 2447.18 776.726C2455.41 765.578 2461.89 753.238 2466.41 740.13C2471.8 725.285 2475.98 710.027 2478.91 694.505C2479.88 689.195 2481.51 687.698 2486.85 686.491C2491.35 685.408 2496.05 685.592 2500.45 687.022C2505.26 688.567 2506.03 689.919 2505.6 694.747C2504.83 702.375 2503.82 709.955 2503.1 717.583C2501.34 737.035 2500.71 756.573 2501.22 776.098C2501.4 780.397 2501.92 784.675 2502.76 788.893C2502.89 789.824 2503.24 790.711 2503.77 791.482C2504.31 792.254 2505.01 792.888 2505.84 793.334C2509.44 795.603 2509.35 798.066 2505.69 800.576Z" fill="#EB3B98"/>
<path id="vector-7" d="M2400.26 739.937C2398.52 745.035 2396.16 749.899 2393.24 754.421C2385.56 766.731 2376.9 778.39 2367.32 789.279C2361.65 796.453 2353.86 801.641 2345.06 804.101C2338.43 805.839 2331.46 805.839 2324.82 804.101C2321.03 803.145 2317.51 801.311 2314.54 798.746C2311.58 796.181 2309.26 792.955 2307.76 789.327C2304.93 783.261 2303.3 776.703 2302.95 770.015C2301.85 750.573 2303.47 731.072 2307.76 712.08C2309.73 703.011 2313.58 694.459 2319.05 686.974C2333.48 667.324 2359.2 669.304 2373.38 678.863C2379 682.531 2382.94 688.274 2384.36 694.845C2385.79 701.417 2384.57 708.286 2380.98 713.962C2373.76 725.763 2362.83 734.816 2349.92 739.696C2344.47 741.864 2338.74 743.261 2332.9 743.848C2330.45 744.137 2329.49 745.151 2329.29 747.71C2328.33 757.877 2328.77 768.128 2330.59 778.175C2331.29 783.014 2333.19 787.598 2336.12 791.5C2338.99 789.419 2341.57 786.949 2343.77 784.161C2352.08 774.521 2359.7 764.291 2366.56 753.552C2370.13 748.454 2372.83 742.792 2374.54 736.799C2374.78 735.866 2375.25 735.008 2375.91 734.301C2376.56 733.594 2377.38 733.059 2378.29 732.743C2384.2 730.214 2390.86 730.11 2396.84 732.454C2400.64 733.999 2401.36 735.833 2400.26 739.937ZM2330.93 730.812C2331.43 730.85 2331.92 730.85 2332.42 730.812C2333.03 730.637 2333.63 730.411 2334.2 730.136C2342.68 726.063 2349.91 719.756 2355.11 711.886C2357.67 707.918 2358.82 703.2 2358.37 698.496C2357.93 693.791 2355.91 689.374 2352.66 685.96C2352.41 685.602 2352.07 685.309 2351.68 685.107C2351.29 684.905 2350.86 684.8 2350.42 684.8C2349.99 684.8 2349.56 684.905 2349.17 685.107C2348.78 685.309 2348.44 685.602 2348.19 685.96C2344.51 689.482 2341.48 693.634 2339.25 698.223C2334.57 708.516 2331.69 719.54 2330.74 730.812H2330.93Z" fill="#EB3B98"/>
<path id="vector-6" d="M2304.1 677.511C2303.03 681.848 2301.66 686.107 2300.01 690.257C2291.18 712.122 2283.51 734.443 2277.03 757.124C2274.44 765.622 2271.55 774.071 2268.57 782.52C2264.68 793.479 2259.82 796.762 2248.23 796.714C2246.19 796.675 2244.14 796.465 2242.13 796.086C2239.28 795.656 2236.6 794.447 2234.38 792.591C2232.17 790.734 2230.51 788.303 2229.58 785.561C2225.16 773.781 2220.64 762.049 2216.31 750.22C2209.68 731.779 2204.29 712.907 2200.2 693.733C2199.28 689.193 2197.95 684.749 2196.21 680.456C2195.06 677.704 2195.4 676.256 2197.99 674.952C2201.25 673.263 2204.86 672.382 2208.52 672.382C2212.19 672.382 2215.8 673.263 2219.05 674.952C2220 675.536 2220.82 676.308 2221.47 677.221C2222.11 678.134 2222.57 679.169 2222.8 680.263C2225.2 687.353 2227.13 694.594 2228.57 701.941C2233.25 721.97 2239.31 741.651 2246.7 760.842C2246.81 761.365 2247.03 761.861 2247.33 762.3C2247.64 762.739 2248.02 763.114 2248.47 763.401C2250.45 757.269 2252.51 751.283 2254.24 745.199C2259.22 727.553 2265.24 710.221 2272.27 693.299C2274.75 687.606 2276.72 681.71 2278.19 675.676C2278.4 674.498 2278.91 673.395 2279.68 672.48C2280.45 671.564 2281.44 670.868 2282.56 670.462C2285.42 669.243 2288.5 668.615 2291.6 668.615C2294.71 668.615 2297.78 669.243 2300.64 670.462C2301.4 670.586 2302.11 670.889 2302.73 671.347C2303.34 671.804 2303.84 672.402 2304.18 673.092C2304.52 673.781 2304.69 674.542 2304.67 675.311C2304.66 676.079 2304.46 676.834 2304.1 677.511Z" fill="#EB3B98"/>
<path id="vector-5" d="M2195.83 792.804L2194.67 793.624C2192.29 794.976 2189.66 795.828 2186.95 796.129C2184.23 796.43 2181.48 796.172 2178.86 795.373C2176.24 794.574 2173.82 793.25 2171.72 791.48C2169.63 789.71 2167.92 787.533 2166.69 785.079C2162.54 774.893 2159.97 764.132 2159.05 753.166C2159.05 752.345 2159.05 751.573 2158.76 750.317C2157.32 751.422 2156.25 752.936 2155.68 754.662C2151.4 763.017 2146.59 771.08 2141.26 778.802C2137.48 784.624 2131.58 788.718 2124.82 790.196C2118.88 791.495 2112.71 791.262 2106.88 789.521C2103.38 788.412 2100.21 786.453 2097.64 783.816C2095.07 781.18 2093.2 777.949 2092.17 774.409C2090.45 768.913 2089.62 763.175 2089.72 757.414C2089.53 746.054 2090.67 734.71 2093.13 723.619C2096.63 708.199 2105.89 694.718 2119 685.96C2128.21 679.801 2139.21 676.896 2150.25 677.705C2152.27 677.705 2154.58 678.574 2156.36 677.705C2158.13 676.835 2158.04 674.035 2158.62 672.152C2159.22 669.724 2160.6 667.563 2162.54 666.001C2164.49 664.439 2166.89 663.564 2169.38 663.51C2173.81 662.816 2178.33 663.147 2182.61 664.476C2186.5 665.924 2187.41 667.373 2187.41 671.621C2187.38 676.473 2186.98 681.315 2186.21 686.105C2184.03 705.61 2183.44 725.26 2184.43 744.862C2184.81 756.039 2186.75 767.108 2190.2 777.74C2191.03 781.661 2193 785.243 2195.88 788.024C2197.94 789.376 2197.61 791.21 2195.83 792.804ZM2152.22 691.416C2151.4 690.539 2150.34 689.932 2149.18 689.673C2148.01 689.414 2146.79 689.517 2145.68 689.968C2142.64 691.314 2139.82 693.122 2137.32 695.327C2128.79 702.387 2122.7 711.966 2119.91 722.701C2116.72 735.409 2115.46 748.528 2116.16 761.615C2116.21 765.05 2116.86 768.451 2118.09 771.657C2119.77 770.981 2120.15 769.678 2120.78 768.615C2134.56 746.019 2145.25 721.66 2152.56 696.196C2152.99 694.506 2154.14 692.864 2152.22 691.319V691.416Z" fill="#EB3B98"/>
<path id="vector-4" d="M2089.96 687.119C2087.02 688.354 2083.87 688.99 2080.68 688.99C2077.49 688.99 2074.34 688.354 2071.4 687.119C2070.17 686.759 2069.1 685.989 2068.37 684.935C2067.63 683.882 2067.28 682.608 2067.36 681.325C2067.36 679.233 2066.89 677.168 2065.97 675.29C2064.77 672.876 2063.71 672.635 2061.55 674.276C2057.75 677.222 2054.81 681.141 2053.04 685.622C2047.04 698.1 2045.76 712.339 2049.43 725.694C2050.58 729.702 2051.59 733.709 2052.99 737.62C2060.23 758.054 2065.18 779.235 2067.75 800.77C2068.93 808.679 2069.17 816.701 2068.47 824.668C2068.17 828.517 2066.84 832.212 2064.61 835.359C2062.38 838.506 2059.35 840.985 2055.82 842.532C2045.11 847.642 2032.94 848.82 2021.45 845.863C2015.69 844.384 2010.6 840.979 2007.02 836.207C2002.21 830.055 1998.04 823.422 1994.57 816.412C1992.79 812.743 1993.37 810.715 1997.02 809.17C2000.07 807.831 2003.37 807.181 2006.69 807.264C2010.02 807.347 2013.28 808.163 2016.26 809.653C2018.08 810.771 2019.49 812.47 2020.25 814.481C2023.4 820.751 2027.15 826.701 2031.45 832.248C2034.57 836.255 2036.5 836.159 2039.48 831.91C2041.4 828.949 2042.43 825.497 2042.46 821.964C2042.46 819.743 2042.46 817.523 2042.46 815.302C2041.71 799.359 2039.32 783.536 2035.34 768.084C2033.22 758.758 2030.54 749.568 2027.31 740.565C2025.16 734.571 2023.45 728.422 2022.22 722.17C2019.21 707.125 2021.99 691.494 2030.01 678.428C2032.96 673.374 2037.1 669.126 2042.07 666.061C2047.05 662.996 2052.69 661.208 2058.52 660.855C2066.62 659.955 2074.81 661.29 2082.22 664.717C2085.4 666.008 2088.16 668.165 2090.19 670.945C2092.22 673.726 2093.44 677.019 2093.71 680.456C2093.9 681.141 2093.95 681.857 2093.87 682.562C2093.78 683.268 2093.56 683.949 2093.21 684.568C2092.86 685.187 2092.4 685.731 2091.84 686.168C2091.28 686.606 2090.64 686.929 2089.96 687.119Z" fill="#EB3B98"/>
<path id="vector-3" d="M1974.28 687.119C1971.34 688.354 1968.19 688.99 1965 688.99C1961.82 688.99 1958.66 688.354 1955.72 687.119C1954.5 686.759 1953.43 685.989 1952.69 684.935C1951.96 683.882 1951.6 682.608 1951.69 681.325C1951.71 679.23 1951.23 677.16 1950.29 675.29C1949.09 672.876 1948.08 672.635 1945.87 674.276C1942.07 677.222 1939.13 681.141 1937.36 685.622C1931.36 698.1 1930.08 712.339 1933.75 725.694C1934.91 729.702 1935.92 733.709 1937.31 737.62C1944.55 758.054 1949.5 779.235 1952.07 800.77C1953.25 808.679 1953.49 816.701 1952.79 824.668C1952.5 828.517 1951.16 832.212 1948.93 835.359C1946.71 838.506 1943.67 840.985 1940.15 842.532C1929.43 847.642 1917.27 848.82 1905.77 845.863C1900.01 844.384 1894.92 840.979 1891.35 836.207C1886.55 830.054 1882.39 823.421 1878.94 816.412C1877.12 812.743 1877.69 810.715 1881.35 809.17C1884.39 807.831 1887.69 807.181 1891.02 807.264C1894.34 807.347 1897.6 808.163 1900.58 809.653C1902.41 810.771 1903.81 812.47 1904.57 814.481C1907.73 820.751 1911.48 826.701 1915.77 832.248C1918.9 836.255 1920.58 836.159 1923.8 831.91C1925.72 828.949 1926.75 825.497 1926.78 821.964C1926.78 819.743 1926.78 817.523 1926.78 815.302C1926.03 799.359 1923.65 783.536 1919.67 768.084C1917.54 758.758 1914.86 749.568 1911.64 740.565C1909.5 734.564 1907.8 728.416 1906.54 722.17C1903.53 707.125 1906.32 691.494 1914.33 678.428C1917.28 673.374 1921.42 669.126 1926.4 666.061C1931.37 662.996 1937.02 661.208 1942.84 660.855C1950.94 659.955 1959.14 661.29 1966.54 664.717C1969.73 666.008 1972.49 668.165 1974.52 670.945C1976.55 673.726 1977.76 677.019 1978.03 680.456C1978.22 681.141 1978.28 681.857 1978.19 682.562C1978.11 683.268 1977.88 683.949 1977.53 684.568C1977.19 685.187 1976.72 685.731 1976.16 686.168C1975.6 686.606 1974.97 686.929 1974.28 687.119Z" fill="#EB3B98"/>
<path id="vector-2" d="M1895.68 739.937C1893.93 745.035 1891.58 749.899 1888.66 754.421C1881.01 766.741 1872.36 778.401 1862.79 789.279C1857.11 796.453 1849.32 801.641 1840.53 804.101C1833.89 805.839 1826.92 805.839 1820.29 804.101C1816.49 803.137 1812.97 801.301 1810 798.738C1807.03 796.174 1804.69 792.952 1803.17 789.327C1800.39 783.245 1798.76 776.696 1798.36 770.015C1797.27 750.573 1798.89 731.072 1803.17 712.08C1805.13 703.004 1808.98 694.448 1814.47 686.974C1828.89 667.324 1854.62 669.304 1868.8 678.863C1874.41 682.531 1878.36 688.274 1879.78 694.845C1881.2 701.417 1879.99 708.286 1876.4 713.962C1869.15 725.746 1858.23 734.793 1845.34 739.696C1839.87 741.87 1834.12 743.267 1828.27 743.848C1825.82 744.137 1824.9 745.151 1824.71 747.71C1823.72 757.876 1824.16 768.131 1826.01 778.175C1826.69 783.009 1828.57 787.593 1831.49 791.5C1834.38 789.422 1836.97 786.953 1839.18 784.161C1847.49 774.508 1855.1 764.28 1861.97 753.552C1865.53 748.443 1868.22 742.784 1869.95 736.799C1870.2 735.866 1870.67 735.008 1871.32 734.301C1871.98 733.594 1872.8 733.059 1873.7 732.743C1879.61 730.214 1886.28 730.11 1892.26 732.454C1896.3 733.999 1896.97 735.833 1895.68 739.937ZM1826.39 730.812C1826.89 730.85 1827.39 730.85 1827.88 730.812C1828.48 730.637 1829.06 730.411 1829.62 730.136C1838.12 726.079 1845.37 719.77 1850.58 711.886C1853.13 707.918 1854.28 703.2 1853.84 698.496C1853.39 693.791 1851.38 689.374 1848.13 685.96C1847.87 685.602 1847.54 685.309 1847.15 685.107C1846.76 684.905 1846.33 684.8 1845.89 684.8C1845.45 684.8 1845.02 684.905 1844.63 685.107C1844.24 685.309 1843.91 685.602 1843.65 685.96C1839.97 689.493 1836.93 693.643 1834.66 698.223C1830.05 708.523 1827.25 719.55 1826.39 730.812Z" fill="#EB3B98"/>
<path id="vector-1" d="M1695.52 788.072L1713.36 786.672C1726.54 785.827 1739.75 785.827 1752.93 786.672C1759.71 787.01 1766.54 787.637 1773.32 788.12C1779.72 788.64 1785.72 791.449 1790.24 796.038C1790.72 796.462 1791.14 796.949 1791.49 797.486C1792.64 799.176 1794.28 800.914 1793.03 803.087C1792.44 803.967 1791.58 804.627 1790.58 804.968C1789.58 805.308 1788.5 805.309 1787.5 804.97C1775.98 803.603 1764.39 802.862 1752.79 802.749C1739.28 802.54 1725.77 803.201 1712.35 804.728C1706.49 805.163 1700.67 805.839 1694.8 806.128C1690 806.37 1685.19 806.901 1680.04 807.239C1676.28 807.457 1672.52 806.681 1669.15 804.986C1665.77 803.292 1662.9 800.74 1660.81 797.583C1658.17 794.155 1659.27 791.789 1663.55 790.824C1664.01 790.677 1664.47 790.579 1664.95 790.534C1667.74 790.534 1668.6 789.038 1669.08 786.479C1671.63 771.56 1673.89 756.593 1675.24 741.482C1676.53 725.405 1678.12 709.376 1679.42 693.202C1680.67 678.139 1681.58 662.979 1682.88 647.867C1685.28 619.382 1685.76 590.849 1685.76 562.267C1685.76 558.019 1686.73 556.619 1690.81 555.315C1696.13 553.53 1701.89 553.53 1707.21 555.315C1711.29 556.619 1712.02 558.019 1712.02 562.316C1712.02 592.008 1711.29 621.651 1708.65 651.295C1706.97 670.173 1706.05 689.147 1704.32 708.072C1702.69 734.176 1699.66 760.172 1695.24 785.948C1695.28 786.662 1695.38 787.372 1695.52 788.072Z" fill="#EB3B98"/>
</g>
<g id="name">
<path id="vector-10_2" d="M3923.6 266.866C3896.58 266.866 3867.27 281.846 3844.27 318.217C3809.19 371.873 3823 455.562 3862.21 491.933C3882.34 510.371 3901.32 515.016 3919.15 515.016C3929.39 514.737 3939.58 513.532 3949.61 511.415C3969.73 506.77 3959.4 492.941 3950.18 492.941H3947.88C3944.19 494.189 3940.3 494.774 3936.4 494.67C3925.64 494.67 3911.29 490.061 3897.87 464.637C3908.64 461.756 3920.3 465.249 3939.85 455.994C3972.6 440.402 3991.58 419.623 3997.9 384.441C4009.84 313.031 3969.02 266.866 3923.6 266.866ZM3900.03 428.914C3896.16 428.814 3892.31 428.428 3888.51 427.762C3874.73 386.205 3870.14 343.497 3909.21 310.619C3910.2 310.551 3911.18 310.357 3912.12 310.042C3928.76 310.042 3945.44 336.582 3945.44 368.884C3945.44 415.158 3922.45 429.022 3900.03 429.022V428.914Z" fill="url(#paint0_linear)"/>
<path id="vector-9_2" d="M3806.89 104.637C3804.38 103.458 3801.63 102.867 3798.86 102.908C3794.07 103.028 3789.45 104.639 3785.62 107.518C3736.75 146.77 3722.37 277.201 3717.78 336.078C3705.68 483.219 3750.57 514.98 3779.88 514.98C3796.56 514.98 3808.04 504.573 3801.73 499.387C3727.53 443.391 3873.01 136.398 3806.89 104.637Z" fill="url(#paint1_linear)"/>
<path id="vector-8_2" d="M3669.67 362.618C3668.52 358.009 3663.89 355.704 3656.43 355.704C3646.67 355.704 3632.86 362.618 3625.39 379.363C3615.03 400.718 3609.86 429.563 3593.11 447.46C3587.94 452.646 3583.92 455.526 3579.87 455.526C3553.43 455.526 3550.56 347.494 3594.83 310.115C3603.47 303.164 3611.51 299.707 3619.55 299.707C3644.27 299.707 3657.5 332.621 3674.76 332.621C3677.06 332.533 3679.31 331.973 3681.39 330.976C3683.46 329.978 3685.31 328.565 3686.81 326.824C3727.64 285.879 3652.91 258.727 3616.1 258.727C3613.79 258.512 3611.46 258.707 3609.21 259.303C3573.43 264.567 3540.96 283.236 3518.34 311.555C3508.87 271.259 3470.98 246.736 3428.65 246.736C3354.49 246.736 3292.96 315.408 3292.96 388.114C3292.96 458.839 3360.77 509.255 3412.5 509.255C3422.05 509.651 3431.54 507.672 3440.13 503.493C3443.12 501.386 3445.34 498.349 3446.44 494.85C3448.17 490.781 3446.44 486.748 3432.09 486.748C3387.82 486.748 3364.25 438.853 3364.25 388.078C3364.25 347.674 3386.67 278.425 3436.68 276.697C3465.39 276.697 3487.31 304.389 3489.03 333.234C3489.03 364.419 3462.59 393.264 3440.74 393.264C3429.98 393.264 3421.76 385.773 3419.46 367.3C3418.2 366.532 3416.84 365.95 3415.41 365.571C3413.59 365.781 3411.83 366.37 3410.24 367.3C3406.23 394.416 3424.59 407.704 3447.05 407.704C3459.12 407.484 3470.94 404.268 3481.46 398.341C3475.5 451.781 3499.4 500.036 3557.44 500.036C3590.2 500.036 3611.47 488.512 3627.58 459.055C3640.21 504.069 3663.21 516.673 3681.61 516.673C3699.55 516.673 3712.65 505.113 3708.05 500.504C3662.02 452.646 3677.56 382.82 3669.67 362.618Z" fill="url(#paint2_linear)"/>
<path id="vector-7_2" d="M3298.09 265.137C3290.06 248.392 3271.65 243.207 3256.12 243.207C3249.42 242.785 3242.72 244.022 3236.6 246.808C3204.31 265.281 3214.75 305.109 3244.06 313.176C3245.62 314.099 3247.43 314.503 3249.23 314.328H3252.82C3280.3 314.184 3309.04 287.644 3298.09 265.137Z" fill="url(#paint3_linear)"/>
<path id="vector-6_2" d="M3264.77 364.383C3263.04 337.843 3251.53 326.319 3237.18 326.319C3213.61 326.319 3187.7 359.197 3194.63 426.717C3200.37 480.95 3234.09 497.119 3257.88 497.119C3275.81 497.119 3288.34 489.052 3280.87 479.797C3254.97 448.036 3267.06 401.906 3264.77 364.383Z" fill="url(#paint4_linear)"/>
<path id="vector-5_2" d="M3109.53 278.785C3047.46 278.785 3026.19 380.372 3004.91 454.23C3006.63 424.809 3020.41 326.68 3035.94 266.109C3038.24 257.431 3031.93 254.55 3023.32 254.55C2953.75 254.55 2938.22 395.352 2938.22 444.435C2938.22 513.684 2955.47 573.678 2987.66 573.678C2994.07 573.553 3000.3 571.55 3005.59 567.916C3019.37 557.545 3029.74 512.532 3040.64 461.72C3056.18 390.743 3072.29 309.358 3097.01 309.358C3116.56 309.358 3114.94 347.458 3113.11 360.17C3106.76 442.094 3045.27 460.568 3068.27 466.942C3073.85 468.631 3079.66 469.409 3085.49 469.247C3137.83 469.247 3178.77 406.336 3178.77 353.22C3178.55 313.572 3152.08 278.785 3109.53 278.785Z" fill="url(#paint5_linear)"/>
<path id="vector-4_2" d="M2860.62 267.406C2863.27 265.245 2863.92 262.616 2860.33 260.888C2865.64 256.206 2869.05 248.248 2869.95 235.068C2872.82 187.174 2833.14 157.753 2788.87 157.753C2750.34 157.753 2707.79 179.107 2683.07 228.73C2646.29 304.893 2639.37 444.435 2637.07 444.435V443.859C2636.5 443.859 2636.5 443.283 2636.5 442.706C2627.32 361.934 2626.74 311.123 2635.35 278.821C2631.33 273.636 2624.59 271.331 2614.65 271.331C2606.93 271.351 2599.44 273.976 2593.38 278.785C2539.92 323.222 2579.03 462.872 2594.52 496.363C2598.58 505.005 2608.34 509.038 2623.87 509.038C2628.46 509.038 2633.06 508.462 2639.37 507.886C2668.07 503.277 2669.29 417.283 2680.2 375.15C2706.06 278.209 2746.32 262.04 2786 262.04C2789.08 262.04 2792.13 262.04 2795.15 262.364C2747.04 280.118 2710.55 331.289 2710.55 390.743C2710.55 466.366 2755.39 517.717 2811.18 517.717C2887.63 517.717 2918.09 433.452 2919.82 381.524C2919.85 336.078 2902.59 289.912 2860.62 267.406ZM2830.16 461.288C2808.31 461.288 2780.72 431.867 2780.72 390.887C2780.72 356.28 2808.89 311.267 2836.51 291.065C2860.08 307.198 2881.36 347.026 2881.36 377.023C2881.32 413.97 2850.83 461.288 2830.16 461.288Z" fill="url(#paint6_linear)"/>
<path id="vector-3_2" d="M2700.22 96.5704C2723.79 96.5704 2739.32 103.484 2737.02 125.991C2737.02 142.736 2750.84 145.617 2764.61 145.617C2815.2 145.617 2819.83 76.9445 2755.43 56.7424C2744.67 52.7092 2733.58 52.133 2720.34 52.133C2628.36 52.133 2476.56 126.567 2400.68 133.517C2379.41 130.601 2363.3 95.9942 2366.17 74.6398C2373.67 16.3383 2402.98 14.0336 2381.71 3.0863C2376.12 1.28727 2370.31 0.316714 2364.45 0.205427C2333.42 0.205427 2292.02 21.5598 2273.61 72.2271C2266.15 98.767 2278.2 138.595 2315.59 157.069C2337.75 167.294 2361.91 172.413 2386.3 172.049C2423.11 172.049 2451.84 162.254 2466.23 162.254H2469.1C2445.53 215.334 2445.53 281.09 2447.25 419.623C2447.25 448.432 2458.73 502.736 2487.51 510.227C2498.76 513.217 2510.34 514.777 2521.98 514.872C2537.52 514.872 2551.33 511.271 2551.33 499.279C2554.2 422.504 2519.69 327.292 2553.63 135.57C2562.81 132.941 2649.06 96.5704 2700.22 96.5704Z" fill="url(#paint7_linear)"/>
<path id="vector-2_2" d="M2202.97 262.4C2209.43 258.043 2213.73 249.832 2214.52 235.068C2217.43 187.174 2177.75 157.753 2133.48 157.753C2096.27 157.753 2055.37 177.739 2030.33 223.797C2026.75 182.6 1990.15 157.753 1949.5 157.753C1910.97 157.753 1868.42 179.107 1843.71 228.73C1806.93 304.893 1800.01 444.435 1797.71 444.435V443.859C1797.14 443.859 1797.14 443.283 1797.14 442.707C1787.95 361.934 1787.38 311.123 1795.99 278.821C1791.97 273.636 1785.23 271.331 1775.29 271.331C1767.52 271.313 1759.97 273.941 1753.87 278.785C1744.9 286.606 1738.18 296.688 1734.39 307.99C1723.16 271.187 1694.14 249.4 1662.96 249.4C1635.95 249.4 1606.6 264.417 1583.6 300.752C1548.55 354.444 1562.33 438.097 1601.54 474.468C1621.67 492.942 1640.65 497.551 1658.48 497.551C1668.72 497.272 1678.91 496.067 1688.94 493.95C1709.06 489.341 1698.69 475.476 1689.51 475.476H1687.21C1683.5 476.726 1679.61 477.311 1675.7 477.205C1664.93 477.205 1650.4 472.596 1637.2 447.208C1647.96 444.327 1659.62 447.784 1679.18 438.529C1702.78 427.33 1719.18 413.322 1728.9 393.264C1734.1 437.305 1747.49 479.69 1755.13 496.219C1759.14 504.861 1768.94 508.894 1784.44 508.894C1789.07 508.894 1793.66 508.318 1799.97 507.742C1828.67 503.133 1829.86 417.139 1840.8 375.006C1866.67 278.065 1906.92 261.896 1946.6 261.896C1966.72 261.896 1985.13 266.542 2000.63 266.542C2005 266.649 2009.36 266.04 2013.54 264.741C1988.97 341.984 1983.62 444.255 1981.65 444.255V443.679C1981.08 443.679 1981.08 443.103 1981.08 442.526C1971.93 362.042 1971.35 311.195 1979.89 278.785C1975.87 273.6 1969.13 271.295 1959.19 271.295C1951.46 271.32 1943.97 273.958 1937.92 278.785C1884.46 323.223 1923.57 462.873 1939.06 496.363C1943.08 505.005 1952.88 509.038 1968.38 509.038C1973 509.038 1977.6 508.462 1983.91 507.886C2012.61 503.277 2013.79 417.283 2024.74 375.15C2048.41 286.383 2084.18 265.353 2120.49 262.436C2105.63 272.391 2093.14 285.525 2083.93 300.896C2048.85 354.588 2062.66 438.241 2101.87 474.612C2121.96 493.086 2140.94 497.695 2158.77 497.695C2169.01 497.418 2179.2 496.213 2189.23 494.094C2209.36 489.485 2199.02 475.62 2189.84 475.62H2187.51C2183.81 476.868 2179.92 477.453 2176.03 477.349C2165.26 477.349 2150.91 472.74 2137.5 447.352C2148.44 444.471 2159.92 447.928 2179.47 438.673C2212.26 423.117 2231.2 402.338 2237.55 367.12C2245.73 318.037 2229.02 280.838 2202.97 262.4ZM1639.71 411.701C1635.85 411.603 1632 411.218 1628.2 410.549C1614.42 368.992 1609.79 326.283 1648.9 293.406C1649.87 293.335 1650.84 293.141 1651.77 292.829C1668.45 292.829 1685.13 319.369 1685.13 351.671C1684.95 397.873 1661.96 411.701 1639.53 411.701H1639.71ZM2139.86 411.701C2136.01 411.603 2132.18 411.218 2128.38 410.549C2114.57 368.992 2109.98 326.283 2149.08 293.406C2150.06 293.335 2151.03 293.141 2151.95 292.829C2168.64 292.829 2185.28 319.369 2185.28 351.671C2185.1 397.873 2162.11 411.701 2139.68 411.701H2139.86Z" fill="url(#paint8_linear)"/>
<path id="vector-1_2" d="M1700.49 96.5702C1724.06 96.5702 1739.56 103.484 1737.26 125.991C1737.26 142.736 1751.07 145.617 1764.88 145.617C1815.47 145.617 1820.06 76.9442 1755.66 56.7422C1744.9 52.7089 1733.82 52.1328 1720.61 52.1328C1628.59 52.1328 1476.66 126.567 1400.92 133.517C1379.65 130.6 1363.57 95.994 1366.44 74.6396C1373.91 16.338 1403.22 14.0333 1381.94 3.08604C1376.37 1.28996 1370.57 0.319434 1364.72 0.205163C1333.65 0.205163 1292.25 21.5596 1273.88 72.2268C1266.38 98.7668 1278.47 138.595 1315.82 157.068C1338 167.291 1362.17 172.409 1386.57 172.049C1423.34 172.049 1452.12 162.254 1466.47 162.254H1469.34C1445.77 215.334 1445.77 281.09 1447.49 419.623C1447.49 448.432 1459 502.736 1487.74 510.227C1499.01 513.217 1510.6 514.777 1522.25 514.872C1537.75 514.872 1551.56 511.271 1551.56 499.279C1554.43 422.504 1519.96 327.292 1553.86 135.57C1563.08 132.941 1649.29 96.5702 1700.49 96.5702Z" fill="url(#paint9_linear)"/>
</g>
</g>
<g id="symbol">
<path id="peel" d="M1017.28 75.4974L975.154 95.2011C967.978 98.5859 962.371 104.603 959.491 112.011C956.611 119.419 956.677 127.652 959.677 135.012C1004.4 247.744 1005.83 373.093 963.701 486.824C921.572 600.554 838.873 694.588 731.593 750.744C624.313 806.901 500.072 821.191 382.892 790.852C265.711 760.513 163.913 687.699 97.181 586.49C92.8519 579.85 86.1503 575.124 78.4532 573.283C70.756 571.442 62.6478 572.626 55.7943 576.591L15.4911 599.895C11.8581 601.995 8.68876 604.813 6.17534 608.178C3.66192 611.543 1.85687 615.385 0.869736 619.471C-0.117397 623.557 -0.266023 627.801 0.432879 631.946C1.13178 636.091 2.66364 640.05 4.93547 643.584C164.941 888.996 484.736 985.559 757.387 857.966C1046.41 722.802 1176.83 385.264 1059.17 92.1912C1057.61 88.2566 1055.27 84.682 1052.29 81.6874C1049.31 78.6928 1045.74 76.3414 1041.82 74.7778C1037.9 73.2142 1033.7 72.4714 1029.48 72.5952C1025.26 72.7189 1021.11 73.7066 1017.28 75.4974Z" fill="#78C45B"/>
<g id="slices">
<path id="slice-pink" d="M824.68 164.738L585.368 276.599C579.612 279.284 574.818 283.679 571.638 289.187C568.457 294.694 567.043 301.05 567.587 307.39C568.131 313.731 570.607 319.751 574.679 324.634C578.751 329.516 584.223 333.026 590.352 334.686L834.895 400.344C844.067 402.805 853.68 403.117 862.991 401.258C872.303 399.399 881.063 395.418 888.595 389.623C896.126 383.828 902.227 376.375 906.426 367.839C910.625 359.303 912.808 349.913 912.808 340.396V220.994C912.815 210.551 910.192 200.275 905.183 191.119C900.174 181.962 892.941 174.22 884.153 168.611C875.366 163.001 865.308 159.706 854.912 159.029C844.516 158.352 834.118 160.315 824.68 164.738ZM668.853 329.411C652.664 330.839 605.643 321.716 604.25 305.519C602.857 289.321 647.587 272.1 663.715 270.704C671.359 270.245 678.88 272.794 684.679 277.808C690.477 282.822 694.096 289.905 694.766 297.552C695.435 305.199 693.102 312.807 688.263 318.756C683.424 324.706 676.46 328.528 668.853 329.411Z" fill="#EB3B98"/>
<path id="slice-yellow" d="M832.791 435.625L584.656 345.081C578.686 342.901 572.191 342.616 566.053 344.265C559.915 345.913 554.432 349.415 550.349 354.295C546.265 359.175 543.778 365.196 543.226 371.541C542.674 377.887 544.083 384.249 547.263 389.763L673.93 609.421C678.679 617.662 685.256 624.699 693.151 629.986C701.046 635.273 710.049 638.668 719.463 639.91C728.877 641.152 738.449 640.207 747.44 637.147C756.431 634.088 764.6 628.996 771.314 622.267L855.388 537.836C862.751 530.458 868.14 521.337 871.055 511.318C873.97 501.299 874.317 490.705 872.065 480.516C869.812 470.326 865.032 460.871 858.167 453.024C851.303 445.178 842.575 439.193 832.791 435.625ZM647.061 431.219C642.057 437.153 634.918 440.867 627.197 441.553C619.475 442.239 611.796 439.84 605.829 434.88C593.448 424.423 566.579 384.643 577.01 372.17C587.442 359.696 631.182 379.244 643.625 389.701C646.574 392.198 649.003 395.253 650.773 398.691C652.543 402.13 653.62 405.884 653.942 409.74C654.264 413.595 653.825 417.477 652.649 421.162C651.474 424.848 649.586 428.265 647.092 431.219H647.061Z" fill="#FDE047"/>
<path id="slice-orange" d="M648.732 632.91L537.14 393.021C534.446 387.254 530.047 382.458 524.54 379.283C519.032 376.108 512.684 374.708 506.356 375.274C500.029 375.84 494.028 378.344 489.168 382.446C484.309 386.548 480.826 392.049 479.193 398.203L413.692 643.18C411.238 652.374 410.926 662.011 412.78 671.344C414.635 680.678 418.606 689.46 424.387 697.009C430.168 704.559 437.604 710.675 446.12 714.883C454.635 719.092 464.003 721.281 473.497 721.281H592.611C603.033 721.29 613.289 718.661 622.428 713.638C631.566 708.616 639.292 701.362 644.889 692.549C650.485 683.736 653.772 673.649 654.444 663.224C655.116 652.798 653.151 642.371 648.732 632.91ZM516.308 500.383C512.461 500.724 508.586 500.301 504.903 499.14C501.22 497.978 497.802 496.1 494.843 493.613C491.885 491.126 489.445 488.079 487.662 484.645C485.88 481.212 484.79 477.46 484.455 473.605C483.031 457.376 492.132 410.243 508.29 408.846C524.449 407.45 541.629 452.288 543.022 468.454C543.7 476.238 541.267 483.974 536.258 489.961C531.249 495.949 524.073 499.697 516.308 500.383Z" fill="#F9A140"/>
<path id="slice-red" d="M424.248 351.659L205.118 478.538C196.896 483.299 189.877 489.891 184.603 497.805C179.328 505.72 175.941 514.744 174.702 524.181C173.463 533.617 174.406 543.213 177.458 552.225C180.51 561.238 185.59 569.426 192.303 576.157L276.531 660.588C283.892 667.97 292.99 673.371 302.985 676.293C312.98 679.215 323.549 679.563 333.714 677.305C343.879 675.047 353.311 670.256 361.139 663.374C368.967 656.493 374.937 647.744 378.497 637.937L468.823 389.205C471.017 383.216 471.316 376.696 469.68 370.531C468.044 364.366 464.552 358.856 459.679 354.752C454.807 350.648 448.791 348.149 442.451 347.596C436.111 347.042 429.755 348.461 424.248 351.659ZM418.057 448.099C413.045 454.09 405.864 457.839 398.094 458.523C390.324 459.207 382.601 456.769 376.624 451.744C370.647 446.72 366.906 439.522 366.224 431.733C365.542 423.944 367.975 416.203 372.987 410.212C383.418 397.8 423.103 370.866 435.547 381.323C447.99 391.78 428.551 435.687 418.119 448.161L418.057 448.099Z" fill="#F04A4E"/>
</g>
<g id="leaves">
<path id="leaf-right" d="M650.621 7.63625C648.819 5.0653 646.375 3.01315 643.535 1.68463C640.694 0.356107 637.555 -0.202322 634.432 0.0650774C607.78 2.36125 534.633 16.5417 494.392 102.834C458.453 180.129 483.743 240.636 500.583 268.159C503.757 273.441 508.429 277.655 514.003 280.264C519.577 282.873 525.8 283.757 531.878 282.805C563.669 277.933 626.167 258.478 662.136 181.184C702.192 94.953 666.006 29.574 650.621 7.63625Z" fill="#78C45B"/>
<path id="leaf-left" d="M125.719 123.655C121.836 126.46 118.731 130.212 116.7 134.556C114.669 138.9 113.777 143.693 114.111 148.479C116.618 185.187 133.706 278.802 239.695 328.822C345.685 378.841 428.52 331.925 458.391 310.607C462.276 307.802 465.383 304.051 467.42 299.708C469.456 295.364 470.355 290.572 470.03 285.784C467.492 249.076 450.405 155.46 344.416 105.41C238.426 55.3595 155.529 102.152 125.719 123.655Z" fill="#78C45B"/>
</g>
</g>
</g>
<defs>
<linearGradient id="paint0_linear" x1="3912.07" y1="266.866" x2="3912.07" y2="515.016" gradientUnits="userSpaceOnUse">
<stop stop-color="#FDE047"/>
<stop offset="0.404514" stop-color="#F9A140"/>
<stop offset="1" stop-color="#78C45B"/>
</linearGradient>
<linearGradient id="paint1_linear" x1="3770.19" y1="102.906" x2="3770.19" y2="514.98" gradientUnits="userSpaceOnUse">
<stop stop-color="#FDE047"/>
<stop offset="0.404514" stop-color="#F9A140"/>
<stop offset="1" stop-color="#78C45B"/>
</linearGradient>
<linearGradient id="paint2_linear" x1="3500.97" y1="246.736" x2="3500.97" y2="516.673" gradientUnits="userSpaceOnUse">
<stop stop-color="#FDE047"/>
<stop offset="0.404514" stop-color="#F9A140"/>
<stop offset="1" stop-color="#78C45B"/>
</linearGradient>
<linearGradient id="paint3_linear" x1="3258.62" y1="243.126" x2="3258.62" y2="314.368" gradientUnits="userSpaceOnUse">
<stop stop-color="#FDE047"/>
<stop offset="1" stop-color="#F9A140"/>
</linearGradient>
<linearGradient id="paint4_linear" x1="3238.28" y1="326.319" x2="3238.28" y2="497.119" gradientUnits="userSpaceOnUse">
<stop stop-color="#FDE047"/>
<stop offset="0.404514" stop-color="#F9A140"/>
<stop offset="1" stop-color="#78C45B"/>
</linearGradient>
<linearGradient id="paint5_linear" x1="3058.49" y1="254.55" x2="3058.49" y2="573.678" gradientUnits="userSpaceOnUse">
<stop stop-color="#FDE047"/>
<stop offset="0.404514" stop-color="#F9A140"/>
<stop offset="1" stop-color="#78C45B"/>
</linearGradient>
<linearGradient id="paint6_linear" x1="2742.99" y1="157.753" x2="2742.99" y2="517.717" gradientUnits="userSpaceOnUse">
<stop stop-color="#FDE047"/>
<stop offset="0.404514" stop-color="#F9A140"/>
<stop offset="1" stop-color="#78C45B"/>
</linearGradient>
<linearGradient id="paint7_linear" x1="2537.33" y1="0.205427" x2="2537.33" y2="514.872" gradientUnits="userSpaceOnUse">
<stop stop-color="#FDE047"/>
<stop offset="0.404514" stop-color="#F9A140"/>
<stop offset="1" stop-color="#78C45B"/>
</linearGradient>
<linearGradient id="paint8_linear" x1="1901.56" y1="157.753" x2="1901.56" y2="509.038" gradientUnits="userSpaceOnUse">
<stop stop-color="#FDE047"/>
<stop offset="0.404514" stop-color="#F9A140"/>
<stop offset="1" stop-color="#78C45B"/>
</linearGradient>
<linearGradient id="paint9_linear" x1="1537.59" y1="0.205163" x2="1537.59" y2="514.872" gradientUnits="userSpaceOnUse">
<stop stop-color="#FDE047"/>
<stop offset="0.404514" stop-color="#F9A140"/>
<stop offset="1" stop-color="#78C45B"/>
</linearGradient>
</defs>
</svg>
