<svg width="100%" height="100%" viewBox="0 0 4000 937" fill="none" xmlns="http://www.w3.org/2000/svg">
<g id="logo">
<g id="text">
<g id="slogan">
<path id="vector-19" d="M3704.26 704.01C3701.25 705.276 3698.02 705.928 3694.76 705.928C3691.5 705.928 3688.27 705.276 3685.26 704.01C3684 703.65 3682.9 702.862 3682.15 701.781C3681.39 700.699 3681.03 699.39 3681.13 698.073C3681.14 695.922 3680.63 693.801 3679.65 691.888C3678.42 689.414 3677.39 689.167 3675.12 690.849C3671.25 693.871 3668.26 697.888 3666.46 702.477C3660.29 715.253 3658.96 729.854 3662.72 743.545C3663.9 747.652 3664.94 751.758 3666.36 755.766C3673.82 776.695 3678.89 798.407 3681.47 820.486C3682.72 828.588 3682.98 836.812 3682.26 844.978C3681.94 848.917 3680.56 852.695 3678.28 855.916C3676.01 859.137 3672.91 861.683 3669.32 863.286C3658.34 868.523 3645.89 869.731 3634.12 866.7C3628.22 865.195 3623.01 861.703 3619.36 856.804C3614.43 850.499 3610.16 843.701 3606.61 836.517C3604.74 832.757 3605.33 830.678 3609.07 829.095C3612.19 827.73 3615.57 827.066 3618.97 827.152C3622.37 827.237 3625.71 828.069 3628.76 829.59C3630.63 830.736 3632.07 832.477 3632.85 834.538C3636.04 840.973 3639.87 847.072 3644.26 852.746C3647.51 856.853 3649.19 856.754 3652.48 852.4C3654.47 849.375 3655.53 845.831 3655.54 842.207C3655.54 839.931 3655.54 837.655 3655.54 835.379C3654.74 819.043 3652.3 802.829 3648.25 786.988C3646.03 777.435 3643.27 768.018 3639.98 758.785C3637.8 752.634 3636.05 746.334 3634.76 739.933C3631.73 724.513 3634.58 708.512 3642.74 695.104C3645.77 689.932 3650.01 685.586 3655.1 682.446C3660.19 679.306 3665.97 677.468 3671.92 677.094C3680.22 676.169 3688.61 677.538 3696.19 681.052C3699.46 682.365 3702.29 684.573 3704.37 687.425C3706.45 690.276 3707.69 693.657 3707.95 697.182C3708.35 698.58 3708.19 700.079 3707.5 701.356C3706.81 702.633 3705.65 703.587 3704.26 704.01V704.01Z" fill="#EB3B98"/>
<path id="vector-18" d="M3590.86 682.388C3591.99 676.272 3592.39 670.043 3592.04 663.833C3591.81 662.544 3592 661.215 3592.59 660.046C3593.18 658.877 3594.12 657.931 3595.29 657.351C3600.65 654.161 3607.02 653.135 3613.11 654.481C3617.64 655.52 3618.47 656.609 3618.67 661.111C3618.67 662.893 3618.67 664.674 3618.67 667.197C3618.6 671.374 3618.24 675.54 3617.59 679.666C3617.45 681.15 3616.92 682.569 3616.06 683.778C3615.19 684.987 3614.02 685.942 3612.67 686.544C3607.34 689.451 3601.15 690.313 3595.24 688.969C3591.4 688.078 3590.27 686.297 3590.86 682.388ZM3620.39 735.727C3617.86 756.86 3617.86 778.224 3620.39 799.358C3620.74 802.425 3620.84 805.543 3621.28 808.61C3621.5 809.751 3621.35 810.933 3620.84 811.977C3620.34 813.022 3619.5 813.872 3618.47 814.399C3615.51 816.271 3612.18 817.494 3608.71 817.989C3605.24 818.483 3601.71 818.238 3598.34 817.269C3597.26 816.971 3596.3 816.328 3595.61 815.436C3594.91 814.544 3594.53 813.452 3594.5 812.321C3590.83 784.239 3590.83 755.793 3594.5 727.711C3594.92 724.645 3595.12 721.553 3595.09 718.458C3594.98 716.983 3595.34 715.509 3596.12 714.254C3596.9 712.999 3598.06 712.027 3599.43 711.482C3604.7 708.82 3610.7 707.968 3616.5 709.057C3620.64 709.7 3622.07 711.531 3621.82 715.885C3621.53 722.466 3620.98 729.146 3620.2 735.776L3620.39 735.727Z" fill="#EB3B98"/>
<path id="vector-17" d="M3542.77 774.469C3541.74 776.102 3540.76 777.735 3539.77 779.417C3534.31 788.908 3528.12 797.957 3521.27 806.483C3517.93 810.717 3514.21 814.627 3510.14 818.16C3506.07 821.716 3501.17 824.19 3495.9 825.356C3490.63 826.523 3485.16 826.345 3479.97 824.84C3476.74 824.145 3473.71 822.688 3471.14 820.589C3468.58 818.491 3466.54 815.81 3465.21 812.767C3462.4 806.815 3460.73 800.387 3460.28 793.816C3458.07 769.519 3463.58 745.143 3476.03 724.198C3481.85 714.517 3489.33 705.956 3498.13 698.914C3504.75 693.304 3512.57 689.308 3520.98 687.24C3529.39 685.171 3538.17 685.085 3546.61 686.989C3550.7 687.83 3550.6 687.732 3551.88 683.922C3553.9 676.16 3555.18 668.225 3555.72 660.221C3558.28 640.429 3560.64 620.637 3563.54 600.845C3563.67 598.795 3564.49 596.848 3565.85 595.32C3567.22 593.793 3569.06 592.776 3571.08 592.434C3576.29 591.035 3581.8 591.207 3586.92 592.928C3587.75 593.055 3588.54 593.353 3589.24 593.804C3589.95 594.255 3590.55 594.849 3591.01 595.547C3591.48 596.246 3591.79 597.034 3591.93 597.861C3592.08 598.688 3592.05 599.536 3591.85 600.35C3590.83 625.84 3587.3 651.166 3581.31 675.955C3579.41 684.747 3578.09 693.657 3577.38 702.625C3575.31 718.162 3573.49 733.797 3572.06 749.383C3569.07 775.413 3568.89 801.69 3571.52 827.759C3572.84 839.793 3575.55 851.631 3579.59 863.038C3580.55 866.701 3582.83 869.875 3585.99 871.944C3588.94 873.627 3588.6 876.15 3585.59 878.08C3582.91 879.637 3579.88 880.487 3576.78 880.554C3572 881.552 3567.02 880.727 3562.81 878.24C3558.6 875.753 3555.46 871.781 3554 867.095C3549.55 855.838 3546.59 844.044 3545.19 832.014C3542.97 814.808 3542.28 797.439 3543.12 780.11C3543.12 778.329 3543.12 776.498 3543.12 774.717L3542.77 774.469ZM3491.29 808.462C3492.33 807.027 3492.77 806.334 3493.31 805.691C3495.43 803.019 3497.64 800.397 3499.71 797.626C3517.29 772.822 3531.27 745.634 3541.25 716.875C3541.64 715.836 3542.33 714.648 3541.69 713.609C3540.67 711.355 3540.5 708.808 3541.2 706.435C3541.57 705.085 3541.52 703.654 3541.05 702.336C3540.58 701.017 3539.72 699.874 3538.59 699.062C3537.38 698.231 3535.95 697.786 3534.48 697.786C3533.01 697.786 3531.58 698.231 3530.37 699.062C3525.21 701.869 3520.5 705.438 3516.39 709.651C3494.15 732.313 3486.12 760.12 3487.55 791.193C3487.63 797.138 3488.89 803.008 3491.24 808.462H3491.29Z" fill="#EB3B98"/>
<path id="vector-16" d="M3451.33 812.321C3450.93 812.629 3450.52 812.91 3450.09 813.162C3447.66 814.546 3444.97 815.419 3442.19 815.727C3439.41 816.034 3436.6 815.77 3433.93 814.951C3431.25 814.132 3428.77 812.775 3426.63 810.961C3424.5 809.148 3422.75 806.917 3421.5 804.404C3417.21 793.98 3414.56 782.944 3413.67 771.698C3413.67 770.857 3413.67 770.065 3413.38 768.779C3411.9 769.91 3410.81 771.463 3410.23 773.232C3405.83 781.783 3400.9 790.046 3395.46 797.972C3391.6 803.938 3385.55 808.134 3378.63 809.649C3372.55 810.981 3366.23 810.743 3360.27 808.956C3356.69 807.82 3353.44 805.812 3350.81 803.11C3348.18 800.409 3346.26 797.097 3345.21 793.469C3343.45 787.837 3342.6 781.956 3342.7 776.052C3342.51 764.412 3343.67 752.789 3346.14 741.416C3349.76 725.618 3359.25 711.81 3372.67 702.822C3382.11 696.506 3393.36 693.529 3404.67 694.361C3406.73 694.361 3409.05 695.252 3410.87 694.361C3412.69 693.471 3412.64 690.601 3413.23 688.671C3413.85 686.183 3415.26 683.967 3417.25 682.366C3419.24 680.766 3421.7 679.869 3424.25 679.814C3428.77 679.1 3433.38 679.439 3437.74 680.804C3439.34 681.161 3440.74 682.119 3441.65 683.481C3442.57 684.843 3442.93 686.505 3442.66 688.127C3442.63 693.099 3442.22 698.062 3441.43 702.971C3439.18 722.958 3438.57 743.099 3439.61 763.187C3439.99 774.643 3441.98 785.987 3445.52 796.883C3446.36 800.901 3448.38 804.572 3451.33 807.422C3453.49 808.808 3453.15 810.688 3451.33 812.321ZM3406.68 708.413C3405.85 707.515 3404.76 706.892 3403.57 706.627C3402.37 706.362 3401.12 706.467 3399.99 706.929C3396.87 708.309 3393.98 710.161 3391.43 712.421C3382.7 719.657 3376.47 729.474 3373.61 740.476C3370.34 753.5 3369.05 766.945 3369.77 780.357C3369.81 783.878 3370.48 787.363 3371.74 790.649C3373.46 789.956 3373.85 788.62 3374.49 787.532C3388.61 764.374 3399.55 739.409 3407.03 713.312C3407.47 711.58 3408.6 709.898 3406.68 708.315V708.413Z" fill="#EB3B98"/>
<path id="vector-15" d="M3336.05 727.365C3333.83 728.716 3331.35 729.592 3328.77 729.938C3324.93 730.637 3320.97 730.382 3317.25 729.195C3315.31 728.861 3313.52 727.905 3312.15 726.471C3310.79 725.036 3309.92 723.199 3309.67 721.229C3308.93 716.281 3307.85 711.581 3307.06 706.781C3306.38 703.106 3305.15 699.555 3303.42 696.242C3296.67 702.379 3290.98 709.603 3286.59 717.617C3281.44 728.197 3277.46 739.314 3274.73 750.769C3269.02 771.577 3265.72 792.978 3264.88 814.548C3264.54 821.178 3263.36 822.663 3256.86 824.444C3252.25 825.534 3247.44 825.432 3242.88 824.147C3241.11 823.816 3239.5 822.893 3238.31 821.529C3237.12 820.164 3236.43 818.437 3236.34 816.626C3235.55 809.501 3234.71 802.376 3234.56 795.152C3234.22 771.451 3235.55 747.75 3235.4 724.05C3235.4 712.62 3235.01 701.19 3233.97 689.76C3233.87 687.799 3233.87 685.833 3233.97 683.872C3233.7 682.142 3234.12 680.374 3235.13 678.949C3236.14 677.523 3237.67 676.555 3239.39 676.252C3244.96 674.271 3251.04 674.271 3256.61 676.252C3261.54 677.984 3262.42 680.161 3261.24 685.208C3261.17 685.849 3261.17 686.497 3261.24 687.138C3261.24 694.758 3262.57 702.328 3262.23 710.146C3264.29 709.849 3264.64 708.364 3265.33 707.424C3268.6 702.932 3272.15 698.651 3275.96 694.609C3280.77 689.57 3286.71 685.774 3293.3 683.542C3299.88 681.311 3306.9 680.711 3313.76 681.794C3317.16 682.231 3320.4 683.508 3323.19 685.511C3325.98 687.514 3328.24 690.181 3329.75 693.273C3332.16 697.579 3333.82 702.263 3334.68 707.127C3335.18 712.653 3336.39 718.091 3338.27 723.307C3338.51 725.089 3337.43 726.375 3336.05 727.365Z" fill="#EB3B98"/>
<path id="vector-14" d="M3225.95 812.321L3224.77 813.162C3222.33 814.548 3219.64 815.421 3216.86 815.729C3214.08 816.037 3211.26 815.774 3208.58 814.955C3205.9 814.136 3203.42 812.778 3201.28 810.965C3199.13 809.151 3197.38 806.919 3196.12 804.404C3191.85 793.973 3189.21 782.941 3188.3 771.698C3188.3 770.857 3188.3 770.065 3188 768.779C3186.53 769.911 3185.43 771.463 3184.85 773.232C3180.46 781.783 3175.52 790.047 3170.09 797.972C3166.22 803.939 3160.17 808.134 3153.25 809.649C3147.17 810.982 3140.86 810.743 3134.9 808.956C3131.31 807.82 3128.06 805.812 3125.43 803.111C3122.81 800.409 3120.88 797.097 3119.83 793.469C3118.07 787.837 3117.23 781.956 3117.32 776.052C3117.14 764.412 3118.29 752.789 3120.77 741.417C3124.39 725.618 3133.88 711.81 3147.3 702.822C3156.73 696.51 3167.99 693.533 3179.29 694.361C3181.36 694.361 3183.67 695.252 3185.54 694.361C3187.41 693.471 3187.27 690.601 3187.86 688.671C3188.47 686.183 3189.88 683.967 3191.88 682.366C3193.87 680.766 3196.33 679.869 3198.88 679.814C3203.39 679.1 3208.01 679.439 3212.37 680.804C3213.96 681.161 3215.36 682.119 3216.28 683.481C3217.19 684.843 3217.55 686.505 3217.29 688.127C3217.26 693.099 3216.84 698.062 3216.06 702.971C3213.8 722.959 3213.2 743.099 3214.24 763.188C3214.62 774.643 3216.61 785.987 3220.14 796.883C3220.99 800.901 3223.01 804.572 3225.95 807.423C3228.12 808.808 3227.77 810.688 3225.95 812.321ZM3181.31 708.414C3180.47 707.515 3179.39 706.892 3178.19 706.627C3177 706.362 3175.75 706.468 3174.62 706.929C3171.5 708.309 3168.61 710.161 3166.05 712.421C3157.33 719.658 3151.09 729.474 3148.23 740.476C3144.97 753.5 3143.67 766.945 3144.4 780.357C3144.44 783.878 3145.11 787.363 3146.36 790.649C3148.09 789.956 3148.48 788.62 3149.12 787.532C3163.23 764.374 3174.18 739.409 3181.65 713.312C3182.1 711.58 3183.48 709.898 3181.31 708.315V708.414Z" fill="#EB3B98"/>
<path id="vector-13" d="M3036.61 711.234C3038.22 710.31 3039.6 709.023 3040.64 707.474C3046.23 701.119 3053.39 696.359 3061.39 693.675C3069.39 690.99 3077.96 690.476 3086.22 692.185C3100.2 694.56 3106.6 702.081 3107.28 716.331C3108.75 733.629 3105.85 751.019 3098.87 766.896C3091.88 782.773 3081.03 796.625 3067.32 807.175C3058.46 814.7 3047.92 819.962 3036.61 822.514C3034.59 822.91 3031.68 822.069 3030.65 823.751C3029.62 825.433 3030.16 828.204 3030.11 830.431C3030.11 859.278 3031.44 887.976 3033.9 916.674C3034.24 920.434 3034.59 924.195 3034.88 927.906C3035.18 931.617 3034.54 932.854 3031.39 934.091C3028.18 935.511 3024.71 936.244 3021.2 936.244C3017.69 936.244 3014.22 935.511 3011.01 934.091C3009.85 933.489 3008.86 932.602 3008.13 931.512C3007.39 930.423 3006.95 929.165 3006.83 927.856C3004.88 918.744 3003.61 909.499 3003.04 900.197C3001.21 879.98 3000.88 859.653 3002.05 839.387C3003.68 816.032 3003.73 792.628 3005.5 769.324C3007.03 748.74 3008.3 728.206 3009.88 707.672C3010.67 697.776 3011.85 687.88 3012.78 677.984C3012.86 676.669 3013.35 675.412 3014.17 674.385C3014.99 673.357 3016.1 672.609 3017.36 672.244C3023.06 670.118 3029.33 670.118 3035.03 672.244C3039.61 673.828 3040.69 676.104 3039.95 680.953C3038.13 690.453 3037.49 700.547 3036.61 711.234ZM3032.27 808.412C3034.26 808.103 3036.11 807.247 3037.64 805.938C3067.61 785.305 3080.8 756.063 3080.8 720.19C3080.9 715.759 3080.06 711.358 3078.34 707.276C3076.82 703.763 3076.08 703.515 3072.93 705.544C3068.6 708.471 3064.84 712.178 3061.86 716.479C3056.52 723.887 3052.18 731.973 3048.96 740.526C3042.38 758.291 3037.44 776.626 3034.19 795.3C3033.05 799.581 3032.41 803.982 3032.27 808.412V808.412Z" fill="#EB3B98"/>
<path id="vector-12" d="M2942.3 820.288C2938.56 822.252 2934.39 823.277 2930.17 823.277C2925.95 823.277 2921.78 822.252 2918.04 820.288C2915.62 818.52 2913.88 815.969 2913.12 813.064C2912.06 809.465 2911.37 805.768 2911.05 802.03C2911.05 800.595 2911.05 799.11 2910.21 797.824C2908.44 798.22 2908.05 799.803 2907.16 800.842C2903.91 804.938 2900.1 808.553 2895.84 811.579C2891.72 814.397 2887.03 816.248 2882.1 816.993C2877.18 817.738 2872.15 817.359 2867.39 815.884C2864.42 814.985 2861.66 813.497 2859.26 811.509C2856.87 809.521 2854.9 807.072 2853.46 804.306C2848.51 795.634 2845.18 786.126 2843.62 776.251C2842.28 768.841 2841.71 761.314 2841.9 753.787C2841.77 740.872 2842.66 727.967 2844.55 715.193C2845.78 708.414 2847.95 706.237 2854.69 705.297C2859.21 704.54 2863.84 704.914 2868.18 706.385C2872.17 707.969 2873.45 709.799 2872.31 713.956C2868.13 729.492 2868.92 745.375 2868.97 761.209C2869.12 772.358 2871.39 783.375 2875.66 793.667C2876.25 795.003 2876.89 796.339 2877.53 797.675C2877.88 798.327 2878.28 798.955 2878.71 799.556C2880.24 798.662 2881.51 797.383 2882.4 795.845C2890.86 784.442 2897.5 771.79 2902.09 758.339C2907.65 743.14 2911.93 727.499 2914.89 711.581C2915.92 706.138 2917.55 704.604 2923.01 703.367C2927.63 702.258 2932.47 702.446 2936.99 703.911C2941.91 705.495 2942.7 706.88 2942.2 711.828C2941.47 719.646 2940.43 727.414 2939.69 735.232C2937.71 755.091 2936.85 775.047 2937.13 795.003C2937.36 799.408 2937.9 803.791 2938.76 808.116C2938.87 809.07 2939.21 809.983 2939.75 810.776C2940.29 811.569 2941.01 812.218 2941.86 812.668C2946.29 815.191 2946.19 817.715 2942.3 820.288Z" fill="#EB3B98"/>
<path id="vector-11" d="M2793.36 774.469C2792.38 776.102 2791.35 777.735 2790.41 779.417C2784.95 788.908 2778.76 797.957 2771.9 806.483C2768.56 810.706 2764.83 814.615 2760.78 818.16C2756.7 821.716 2751.79 824.189 2746.51 825.356C2741.24 826.523 2735.75 826.345 2730.56 824.84C2727.38 824.102 2724.41 822.627 2721.9 820.53C2719.39 818.434 2717.4 815.775 2716.09 812.767C2713.29 806.814 2711.62 800.386 2711.17 793.816C2708.98 769.521 2714.5 745.153 2726.92 724.198C2732.77 714.526 2740.26 705.967 2749.07 698.914C2755.69 693.304 2763.51 689.308 2771.92 687.24C2780.33 685.171 2789.1 685.085 2797.55 686.989C2801.58 687.83 2801.53 687.732 2802.76 683.922C2804.8 676.165 2806.09 668.227 2806.6 660.221C2809.16 640.429 2811.53 620.637 2814.48 600.845C2814.6 598.802 2815.41 596.86 2816.77 595.334C2818.12 593.808 2819.95 592.786 2821.96 592.434C2827.18 591.035 2832.69 591.207 2837.81 592.928C2838.64 593.048 2839.43 593.342 2840.14 593.791C2840.85 594.24 2841.45 594.834 2841.92 595.534C2842.38 596.234 2842.7 597.025 2842.84 597.855C2842.98 598.685 2842.94 599.535 2842.73 600.35C2841.76 625.844 2838.23 651.175 2832.2 675.955C2830.31 684.748 2829.01 693.658 2828.31 702.625C2826.19 718.162 2824.42 733.797 2822.99 749.383C2819.99 775.411 2819.8 801.691 2822.45 827.759C2823.75 839.797 2826.46 851.638 2830.52 863.038C2831.43 866.712 2833.7 869.898 2836.87 871.944C2839.83 873.627 2839.48 876.15 2836.53 878.08C2833.83 879.639 2830.78 880.489 2827.67 880.554C2822.89 881.552 2817.91 880.727 2813.69 878.24C2809.48 875.753 2806.34 871.781 2804.88 867.095C2800.48 855.823 2797.52 844.035 2796.07 832.014C2793.88 814.806 2793.19 797.439 2794 780.11C2794 778.329 2794 776.498 2794 774.717L2793.36 774.469ZM2741.93 808.462L2743.9 805.691C2746.02 803.019 2748.28 800.397 2750.3 797.626C2767.9 772.825 2781.9 745.636 2791.89 716.875C2792.28 715.836 2792.92 714.648 2792.28 713.609C2791.29 711.349 2791.12 708.811 2791.79 706.435C2792.16 705.09 2792.11 703.665 2791.65 702.348C2791.19 701.031 2790.35 699.885 2789.23 699.062C2788.02 698.231 2786.59 697.786 2785.12 697.786C2783.65 697.786 2782.22 698.231 2781.01 699.062C2775.84 701.856 2771.13 705.427 2767.03 709.651C2744.74 732.313 2736.76 760.12 2738.14 791.193C2738.23 797.148 2739.52 803.021 2741.93 808.462V808.462Z" fill="#EB3B98"/>
<path id="vector-10" d="M2664.61 704.01C2661.6 705.276 2658.37 705.928 2655.11 705.928C2651.85 705.928 2648.62 705.276 2645.61 704.01C2644.35 703.641 2643.25 702.852 2642.5 701.772C2641.75 700.693 2641.39 699.388 2641.47 698.073C2641.48 695.922 2640.97 693.8 2640 691.888C2638.77 689.414 2637.73 689.166 2635.47 690.849C2631.61 693.884 2628.62 697.897 2626.81 702.476C2620.65 715.259 2619.34 729.859 2623.11 743.545C2624.3 747.651 2625.28 751.758 2626.71 755.766C2634.25 776.685 2639.4 798.398 2642.06 820.486C2643.31 828.588 2643.57 836.812 2642.85 844.978C2642.53 848.917 2641.15 852.695 2638.88 855.916C2636.6 859.137 2633.5 861.683 2629.91 863.286C2618.93 868.523 2606.48 869.731 2594.71 866.7C2588.81 865.195 2583.6 861.703 2579.95 856.804C2575.02 850.499 2570.75 843.701 2567.2 836.517C2565.33 832.757 2565.92 830.678 2569.66 829.095C2572.78 827.73 2576.16 827.066 2579.56 827.152C2582.96 827.237 2586.3 828.069 2589.35 829.59C2591.22 830.736 2592.66 832.477 2593.43 834.538C2596.63 840.984 2600.47 847.086 2604.9 852.746C2608.1 856.853 2609.82 856.754 2613.07 852.4C2615.06 849.375 2616.12 845.831 2616.12 842.207C2616.12 839.931 2616.12 837.655 2616.12 835.379C2615.33 819.043 2612.89 802.829 2608.84 786.988C2606.65 777.429 2603.89 768.011 2600.57 758.784C2598.46 752.634 2596.82 746.332 2595.65 739.933C2592.57 724.52 2595.41 708.508 2603.57 695.104C2606.61 689.928 2610.87 685.58 2615.96 682.44C2621.06 679.3 2626.84 677.464 2632.81 677.093C2641.09 676.173 2649.46 677.542 2657.03 681.052C2660.29 682.372 2663.13 684.581 2665.21 687.43C2667.3 690.279 2668.55 693.656 2668.84 697.182C2669.02 697.91 2669.05 698.668 2668.94 699.41C2668.82 700.152 2668.56 700.862 2668.16 701.5C2667.77 702.137 2667.25 702.687 2666.64 703.119C2666.03 703.55 2665.34 703.853 2664.61 704.01V704.01Z" fill="#EB3B98"/>
<path id="vector-9" d="M2584.48 727.365C2582.27 728.722 2579.81 729.599 2577.24 729.938C2573.38 730.639 2569.41 730.384 2565.68 729.195C2563.73 728.861 2561.94 727.905 2560.58 726.471C2559.21 725.036 2558.34 723.199 2558.1 721.229C2557.36 716.281 2556.32 711.581 2555.49 706.781C2554.79 703.114 2553.59 699.565 2551.89 696.242C2545.11 702.352 2539.42 709.581 2535.06 717.617C2529.87 728.186 2525.88 739.306 2523.15 750.769C2517.44 771.577 2514.14 792.978 2513.31 814.548C2512.96 821.178 2511.78 822.663 2505.28 824.444C2500.68 825.534 2495.87 825.432 2491.31 824.147C2489.54 823.807 2487.93 822.883 2486.74 821.52C2485.56 820.157 2484.86 818.434 2484.76 816.626C2483.97 809.501 2483.14 802.376 2482.99 795.152C2482.64 771.451 2483.97 747.75 2483.82 724.05C2483.82 712.62 2483.43 701.19 2482.4 689.76C2482.3 687.799 2482.3 685.833 2482.4 683.872C2482.13 682.142 2482.54 680.374 2483.55 678.949C2484.57 677.523 2486.1 676.555 2487.81 676.252C2493.38 674.271 2499.47 674.271 2505.04 676.252C2509.96 677.984 2510.85 680.161 2509.66 685.208C2509.51 685.839 2509.42 686.487 2509.42 687.138C2509.42 694.758 2510.75 702.328 2510.45 710.146C2512.47 709.849 2512.82 708.364 2513.55 707.424C2516.81 702.932 2520.34 698.652 2524.14 694.609C2528.94 689.57 2534.89 685.774 2541.47 683.542C2548.05 681.311 2555.07 680.711 2561.94 681.794C2565.34 682.222 2568.59 683.496 2571.38 685.5C2574.17 687.504 2576.42 690.176 2577.93 693.273C2580.36 697.569 2582.02 702.257 2582.85 707.127C2583.41 712.645 2584.61 718.077 2586.45 723.307C2586.99 725.089 2585.86 726.375 2584.48 727.365Z" fill="#EB3B98"/>
<path id="vector-8" d="M2469.45 820.287C2465.7 822.252 2461.53 823.277 2457.3 823.277C2453.06 823.277 2448.89 822.252 2445.14 820.287C2442.74 818.506 2441 815.96 2440.22 813.063C2439.16 809.465 2438.47 805.768 2438.15 802.029C2438.29 800.581 2438.01 799.123 2437.36 797.823C2435.59 798.219 2435.15 799.803 2434.26 800.842C2431.01 804.938 2427.2 808.552 2422.94 811.579C2418.83 814.397 2414.13 816.248 2409.21 816.993C2404.28 817.738 2399.25 817.359 2394.49 815.884C2391.52 814.985 2388.76 813.497 2386.37 811.509C2383.97 809.52 2382 807.071 2380.56 804.305C2375.63 795.624 2372.3 786.12 2370.72 776.25C2369.4 768.839 2368.84 761.312 2369.05 753.787C2368.91 740.873 2369.78 727.968 2371.66 715.192C2372.94 708.414 2375.05 706.237 2381.84 705.297C2386.34 704.54 2390.96 704.914 2395.28 706.385C2399.32 707.968 2400.55 709.799 2399.42 713.955C2395.23 729.492 2396.02 745.375 2396.12 761.209C2396.25 772.36 2398.52 783.382 2402.81 793.667C2403.35 795.003 2403.99 796.339 2404.63 797.675C2404.99 798.326 2405.38 798.954 2405.81 799.555C2407.37 798.682 2408.66 797.399 2409.55 795.844C2417.97 784.419 2424.61 771.772 2429.24 758.339C2434.76 743.125 2439.03 727.488 2442.04 711.58C2443.02 706.138 2444.7 704.604 2450.16 703.367C2454.76 702.257 2459.58 702.445 2464.09 703.911C2469.01 705.494 2469.8 706.88 2469.35 711.828C2468.57 719.646 2467.53 727.414 2466.8 735.232C2464.99 755.167 2464.35 775.191 2464.88 795.201C2465.06 799.607 2465.59 803.991 2466.45 808.313C2466.58 809.267 2466.94 810.177 2467.49 810.967C2468.03 811.758 2468.76 812.408 2469.6 812.865C2473.29 815.191 2473.19 817.714 2469.45 820.287Z" fill="#EB3B98"/>
<path id="vector-7" d="M2361.52 758.141C2359.73 763.366 2357.32 768.351 2354.33 772.985C2346.47 785.601 2337.6 797.549 2327.8 808.709C2321.99 816.062 2314.01 821.379 2305.01 823.899C2298.22 825.681 2291.08 825.681 2284.29 823.899C2280.41 822.92 2276.8 821.04 2273.77 818.411C2270.74 815.782 2268.35 812.477 2266.82 808.759C2263.92 802.542 2262.25 795.821 2261.9 788.967C2260.77 769.041 2262.43 749.056 2266.82 729.591C2268.84 720.297 2272.78 711.532 2278.38 703.862C2293.15 683.724 2319.48 685.752 2334 695.549C2339.75 699.309 2343.79 705.194 2345.24 711.929C2346.7 718.663 2345.45 725.703 2341.78 731.521C2334.38 743.615 2323.2 752.892 2309.98 757.894C2304.4 760.116 2298.54 761.548 2292.56 762.149C2290.05 762.446 2289.07 763.485 2288.87 766.107C2287.88 776.526 2288.33 787.033 2290.2 797.329C2290.91 802.288 2292.85 806.986 2295.86 810.985C2298.8 808.852 2301.43 806.322 2303.68 803.464C2312.2 793.585 2320 783.101 2327.01 772.094C2330.67 766.87 2333.43 761.067 2335.18 754.925C2335.44 753.969 2335.92 753.09 2336.59 752.365C2337.26 751.64 2338.09 751.092 2339.02 750.769C2345.07 748.176 2351.89 748.07 2358.02 750.472C2361.91 752.055 2362.65 753.935 2361.52 758.141ZM2290.54 748.789C2291.05 748.828 2291.56 748.828 2292.07 748.789C2292.69 748.61 2293.3 748.379 2293.89 748.097C2302.58 743.923 2309.98 737.459 2315.3 729.393C2317.92 725.327 2319.09 720.491 2318.64 715.67C2318.18 710.848 2316.12 706.322 2312.79 702.823C2312.53 702.455 2312.19 702.155 2311.79 701.949C2311.39 701.742 2310.95 701.634 2310.5 701.634C2310.05 701.634 2309.61 701.742 2309.21 701.949C2308.81 702.155 2308.47 702.455 2308.21 702.823C2304.44 706.432 2301.34 710.688 2299.06 715.391C2294.27 725.939 2291.32 737.237 2290.34 748.789H2290.54Z" fill="#EB3B98"/>
<path id="vector-6" d="M2263.08 694.164C2261.98 698.609 2260.58 702.973 2258.89 707.226C2249.85 729.635 2242 752.51 2235.37 775.756C2232.71 784.464 2229.76 793.123 2226.7 801.782C2222.72 813.014 2217.75 816.379 2205.89 816.329C2203.79 816.289 2201.7 816.074 2199.63 815.686C2196.72 815.245 2193.97 814.006 2191.71 812.103C2189.44 810.201 2187.74 807.709 2186.79 804.899C2182.26 792.826 2177.63 780.803 2173.2 768.68C2166.41 749.78 2160.9 730.439 2156.72 710.789C2155.77 706.136 2154.41 701.581 2152.63 697.182C2151.45 694.362 2151.79 692.877 2154.45 691.541C2157.78 689.81 2161.48 688.907 2165.23 688.907C2168.98 688.907 2172.68 689.81 2176.01 691.541C2176.98 692.14 2177.83 692.931 2178.49 693.866C2179.15 694.802 2179.61 695.863 2179.85 696.984C2182.3 704.25 2184.28 711.672 2185.75 719.2C2190.55 739.728 2196.75 759.898 2204.31 779.566C2204.43 780.102 2204.65 780.61 2204.96 781.06C2205.27 781.51 2205.67 781.894 2206.13 782.188C2208.15 775.904 2210.27 769.769 2212.04 763.534C2217.13 745.449 2223.29 727.687 2230.49 710.344C2233.03 704.51 2235.05 698.467 2236.55 692.283C2236.76 691.076 2237.29 689.945 2238.07 689.007C2238.86 688.069 2239.88 687.356 2241.03 686.94C2243.95 685.69 2247.1 685.047 2250.28 685.047C2253.46 685.047 2256.61 685.69 2259.53 686.94C2260.31 687.067 2261.04 687.377 2261.67 687.846C2262.3 688.315 2262.81 688.928 2263.16 689.635C2263.5 690.341 2263.68 691.121 2263.66 691.909C2263.65 692.696 2263.45 693.47 2263.08 694.164Z" fill="#EB3B98"/>
<path id="vector-5" d="M2152.24 812.322L2151.05 813.163C2148.62 814.548 2145.93 815.421 2143.14 815.73C2140.36 816.038 2137.54 815.774 2134.86 814.955C2132.19 814.136 2129.7 812.779 2127.56 810.965C2125.42 809.152 2123.67 806.92 2122.41 804.405C2118.16 793.966 2115.52 782.937 2114.58 771.699C2114.58 770.858 2114.58 770.066 2114.29 768.779C2112.82 769.911 2111.72 771.463 2111.14 773.233C2106.76 781.794 2101.83 790.059 2096.37 797.972C2092.51 803.939 2086.46 808.135 2079.54 809.65C2073.46 810.98 2067.14 810.742 2061.18 808.957C2057.6 807.821 2054.35 805.813 2051.72 803.111C2049.09 800.409 2047.17 797.098 2046.12 793.47C2044.36 787.837 2043.51 781.956 2043.61 776.053C2043.41 764.41 2044.59 752.784 2047.1 741.417C2050.68 725.615 2060.16 711.798 2073.58 702.823C2083.02 696.51 2094.27 693.534 2105.58 694.362C2107.64 694.362 2110.01 695.253 2111.83 694.362C2113.65 693.471 2113.55 690.602 2114.14 688.672C2114.76 686.183 2116.17 683.968 2118.16 682.367C2120.15 680.766 2122.62 679.87 2125.17 679.815C2129.69 679.104 2134.32 679.442 2138.7 680.805C2142.69 682.289 2143.62 683.773 2143.62 688.128C2143.59 693.1 2143.18 698.062 2142.39 702.971C2140.16 722.961 2139.55 743.099 2140.57 763.188C2140.95 774.644 2142.94 785.988 2146.48 796.884C2147.32 800.902 2149.34 804.573 2152.28 807.423C2154.4 808.808 2154.06 810.689 2152.24 812.322ZM2107.59 708.414C2106.76 707.516 2105.67 706.893 2104.48 706.628C2103.28 706.363 2102.03 706.468 2100.9 706.93C2097.78 708.31 2094.89 710.162 2092.34 712.422C2083.61 719.658 2077.38 729.475 2074.52 740.477C2071.25 753.501 2069.96 766.946 2070.68 780.358C2070.72 783.878 2071.39 787.363 2072.65 790.649C2074.37 789.957 2074.76 788.621 2075.4 787.532C2089.52 764.375 2100.46 739.41 2107.94 713.313C2108.38 711.581 2109.56 709.899 2107.59 708.315V708.414Z" fill="#EB3B98"/>
<path id="vector-4" d="M2043.86 704.01C2040.85 705.276 2037.62 705.928 2034.36 705.928C2031.09 705.928 2027.87 705.276 2024.86 704.01C2023.6 703.641 2022.5 702.852 2021.75 701.772C2021 700.693 2020.64 699.388 2020.72 698.073C2020.72 695.928 2020.24 693.812 2019.29 691.888C2018.06 689.414 2016.98 689.166 2014.77 690.849C2010.88 693.868 2007.87 697.884 2006.06 702.476C1999.92 715.265 1998.61 729.857 2002.36 743.544C2003.55 747.651 2004.58 751.758 2006.01 755.766C2013.42 776.709 2018.48 798.416 2021.12 820.485C2022.32 828.592 2022.57 836.813 2021.85 844.978C2021.55 848.922 2020.19 852.71 2017.91 855.935C2015.63 859.159 2012.52 861.7 2008.91 863.285C1997.94 868.523 1985.49 869.731 1973.72 866.7C1967.82 865.184 1962.61 861.694 1958.95 856.804C1954.02 850.499 1949.75 843.701 1946.2 836.517C1944.38 832.756 1944.97 830.678 1948.72 829.095C1951.83 827.723 1955.21 827.056 1958.61 827.141C1962.02 827.227 1965.36 828.063 1968.4 829.59C1970.27 830.736 1971.71 832.477 1972.49 834.538C1975.72 840.964 1979.56 847.061 1983.96 852.746C1987.15 856.853 1989.12 856.754 1992.18 852.4C1994.14 849.365 1995.2 845.828 1995.23 842.207C1995.23 839.931 1995.23 837.655 1995.23 835.379C1994.46 819.04 1992.02 802.824 1987.94 786.988C1985.77 777.43 1983.02 768.012 1979.72 758.784C1977.51 752.641 1975.77 746.339 1974.51 739.932C1971.43 724.514 1974.27 708.494 1982.48 695.104C1985.5 689.923 1989.74 685.57 1994.83 682.429C1999.92 679.288 2005.7 677.455 2011.67 677.093C2019.96 676.171 2028.35 677.54 2035.93 681.052C2039.19 682.375 2042.02 684.585 2044.09 687.435C2046.17 690.284 2047.42 693.66 2047.69 697.182C2047.89 697.884 2047.94 698.617 2047.86 699.34C2047.77 700.063 2047.54 700.762 2047.18 701.396C2046.83 702.03 2046.35 702.588 2045.78 703.036C2045.21 703.485 2044.55 703.816 2043.86 704.01V704.01Z" fill="#EB3B98"/>
<path id="vector-3" d="M1925.43 704.01C1922.43 705.276 1919.2 705.928 1915.94 705.928C1912.67 705.928 1909.44 705.276 1906.44 704.01C1905.18 703.641 1904.08 702.852 1903.33 701.772C1902.58 700.693 1902.22 699.388 1902.3 698.073C1902.33 695.926 1901.84 693.804 1900.87 691.888C1899.64 689.414 1898.61 689.166 1896.35 690.849C1892.46 693.868 1889.45 697.884 1887.63 702.476C1881.5 715.265 1880.19 729.857 1883.94 743.544C1885.12 747.651 1886.16 751.758 1887.59 755.766C1894.99 776.709 1900.06 798.416 1902.7 820.485C1903.9 828.592 1904.15 836.813 1903.43 844.978C1903.13 848.922 1901.76 852.71 1899.48 855.935C1897.2 859.159 1894.09 861.7 1890.49 863.285C1879.52 868.523 1867.06 869.731 1855.3 866.7C1849.4 865.184 1844.19 861.694 1840.53 856.804C1835.62 850.498 1831.36 843.7 1827.83 836.517C1825.96 832.756 1826.55 830.678 1830.29 829.095C1833.41 827.723 1836.79 827.056 1840.19 827.141C1843.59 827.227 1846.94 828.063 1849.98 829.59C1851.85 830.736 1853.29 832.477 1854.07 834.538C1857.3 840.964 1861.14 847.061 1865.53 852.746C1868.73 856.853 1870.46 856.754 1873.75 852.4C1875.72 849.365 1876.78 845.828 1876.81 842.207C1876.81 839.931 1876.81 837.655 1876.81 835.379C1876.04 819.04 1873.6 802.824 1869.52 786.988C1867.35 777.43 1864.6 768.012 1861.3 758.784C1859.12 752.634 1857.37 746.334 1856.08 739.932C1853 724.514 1855.85 708.494 1864.06 695.104C1867.08 689.923 1871.32 685.57 1876.41 682.429C1881.5 679.288 1887.28 677.455 1893.25 677.093C1901.54 676.171 1909.93 677.54 1917.51 681.052C1920.77 682.375 1923.6 684.585 1925.67 687.435C1927.75 690.284 1929 693.66 1929.27 697.182C1929.47 697.884 1929.52 698.617 1929.44 699.34C1929.35 700.063 1929.12 700.762 1928.76 701.396C1928.41 702.03 1927.93 702.588 1927.36 703.036C1926.79 703.485 1926.13 703.816 1925.43 704.01V704.01Z" fill="#EB3B98"/>
<path id="vector-2" d="M1844.96 758.141C1843.18 763.366 1840.77 768.351 1837.78 772.985C1829.95 785.612 1821.09 797.561 1811.3 808.709C1805.48 816.062 1797.51 821.379 1788.51 823.899C1781.71 825.681 1774.58 825.681 1767.79 823.899C1763.9 822.912 1760.29 821.031 1757.25 818.403C1754.21 815.776 1751.82 812.474 1750.26 808.759C1747.42 802.526 1745.75 795.814 1745.34 788.967C1744.22 769.041 1745.88 749.056 1750.26 729.591C1752.27 720.29 1756.21 711.521 1761.83 703.862C1776.6 683.724 1802.93 685.752 1817.45 695.549C1823.19 699.309 1827.23 705.194 1828.69 711.929C1830.14 718.663 1828.9 725.703 1825.22 731.521C1817.81 743.597 1806.63 752.869 1793.43 757.894C1787.83 760.122 1781.95 761.554 1775.96 762.149C1773.45 762.446 1772.51 763.485 1772.31 766.107C1771.3 776.526 1771.75 787.036 1773.64 797.329C1774.34 802.284 1776.27 806.981 1779.25 810.985C1782.21 808.856 1784.86 806.325 1787.13 803.464C1795.63 793.572 1803.42 783.089 1810.46 772.094C1814.1 766.859 1816.86 761.058 1818.63 754.925C1818.88 753.969 1819.36 753.09 1820.03 752.365C1820.7 751.64 1821.54 751.092 1822.47 750.769C1828.52 748.176 1835.34 748.07 1841.47 750.472C1845.6 752.055 1846.29 753.935 1844.96 758.141ZM1774.04 748.789C1774.54 748.828 1775.05 748.828 1775.56 748.789C1776.17 748.61 1776.76 748.378 1777.33 748.097C1786.05 743.939 1793.46 737.472 1798.79 729.393C1801.41 725.327 1802.59 720.491 1802.13 715.67C1801.67 710.848 1799.61 706.322 1796.28 702.823C1796.02 702.455 1795.68 702.155 1795.28 701.949C1794.88 701.742 1794.44 701.634 1793.99 701.634C1793.55 701.634 1793.1 701.742 1792.71 701.949C1792.31 702.155 1791.97 702.455 1791.71 702.823C1787.94 706.444 1784.82 710.696 1782.5 715.391C1777.78 725.946 1774.91 737.247 1774.04 748.789V748.789Z" fill="#EB3B98"/>
<path id="vector-1" d="M1640.06 807.472L1658.32 806.037C1671.81 805.171 1685.34 805.171 1698.83 806.037C1705.77 806.384 1712.76 807.027 1719.7 807.522C1726.25 808.054 1732.4 810.933 1737.02 815.636C1737.51 816.071 1737.95 816.57 1738.3 817.121C1739.49 818.852 1741.16 820.634 1739.88 822.86C1739.28 823.762 1738.4 824.439 1737.37 824.788C1736.35 825.136 1735.24 825.137 1734.22 824.79C1722.42 823.39 1710.56 822.63 1698.68 822.514C1684.86 822.3 1671.03 822.977 1657.29 824.543C1651.28 824.988 1645.33 825.681 1639.32 825.977C1634.4 826.225 1629.48 826.769 1624.21 827.116C1620.36 827.339 1616.51 826.543 1613.06 824.807C1609.6 823.071 1606.66 820.455 1604.53 817.22C1601.82 813.707 1602.95 811.282 1607.33 810.292C1607.8 810.142 1608.27 810.042 1608.76 809.996C1611.61 809.996 1612.5 808.462 1612.99 805.839C1615.6 790.55 1617.91 775.211 1619.29 759.724C1620.62 743.248 1622.24 726.82 1623.57 710.245C1624.85 694.807 1625.79 679.27 1627.12 663.783C1629.58 634.59 1630.07 605.348 1630.07 576.056C1630.07 571.701 1631.06 570.267 1635.24 568.931C1640.69 567.101 1646.58 567.101 1652.02 568.931C1656.21 570.267 1656.94 571.702 1656.94 576.105C1656.94 606.535 1656.21 636.916 1653.5 667.296C1651.78 686.643 1650.84 706.088 1649.07 725.484C1647.4 752.237 1644.29 778.879 1639.77 805.295C1639.81 806.027 1639.91 806.755 1640.06 807.472V807.472Z" fill="#EB3B98"/>
</g>
<g id="name">
<path id="vector-10_2" d="M3921 273.312C3893.34 273.312 3863.33 288.665 3839.79 325.94C3803.87 380.93 3818.01 466.699 3858.16 503.974C3878.76 522.869 3898.19 527.63 3916.44 527.63C3926.92 527.344 3937.36 526.109 3947.62 523.94C3968.23 519.179 3957.65 505.007 3948.21 505.007H3945.86C3942.08 506.285 3938.1 506.885 3934.11 506.778C3923.09 506.778 3908.4 502.055 3894.66 475.999C3905.68 473.047 3917.62 476.626 3937.63 467.142C3971.17 451.161 3990.59 429.867 3997.06 393.81C4009.29 320.626 3967.49 273.312 3921 273.312ZM3896.87 439.388C3892.91 439.285 3888.97 438.891 3885.08 438.207C3870.97 395.618 3866.27 351.848 3906.27 318.153C3907.28 318.084 3908.28 317.885 3909.24 317.562C3926.28 317.562 3943.36 344.762 3943.36 377.867C3943.36 425.29 3919.82 439.499 3896.87 439.499V439.388Z" fill="url(#paint0_linear)"/>
<path id="vector-9_2" d="M3801.52 107.052C3798.95 105.843 3796.14 105.238 3793.3 105.281C3788.4 105.403 3783.66 107.054 3779.74 110.004C3729.72 150.232 3714.99 283.904 3710.29 344.245C3697.92 495.042 3743.86 527.593 3773.87 527.593C3790.95 527.593 3802.7 516.927 3796.23 511.613C3720.28 454.225 3869.21 139.603 3801.52 107.052Z" fill="url(#paint1_linear)"/>
<path id="vector-8_2" d="M3661.04 371.445C3659.87 366.721 3655.13 364.359 3647.49 364.359C3637.5 364.359 3623.36 371.445 3615.72 388.606C3605.11 410.491 3599.82 440.053 3582.67 458.395C3577.38 463.709 3573.26 466.662 3569.11 466.662C3542.04 466.662 3539.11 355.945 3584.43 317.636C3593.28 310.514 3601.51 306.971 3609.73 306.971C3635.04 306.971 3648.59 340.702 3666.26 340.702C3668.61 340.612 3670.92 340.038 3673.04 339.016C3675.16 337.994 3677.05 336.546 3678.6 334.761C3720.39 292.799 3643.89 264.972 3606.21 264.972C3603.84 264.752 3601.45 264.952 3599.16 265.562C3562.52 270.956 3529.29 290.089 3506.12 319.113C3496.43 277.815 3457.64 252.682 3414.31 252.682C3338.39 252.682 3275.4 323.061 3275.4 397.574C3275.4 470.057 3344.82 521.725 3397.78 521.725C3407.55 522.132 3417.26 520.103 3426.06 515.82C3429.12 513.661 3431.39 510.549 3432.52 506.963C3434.29 502.793 3432.52 498.659 3417.83 498.659C3372.51 498.659 3348.38 449.575 3348.38 397.537C3348.38 356.129 3371.33 285.159 3422.53 283.388C3451.91 283.388 3474.36 311.768 3476.12 341.33C3476.12 373.29 3449.05 402.852 3426.68 402.852C3415.66 402.852 3407.25 395.175 3404.9 376.243C3403.61 375.456 3402.21 374.859 3400.75 374.471C3398.89 374.686 3397.09 375.289 3395.46 376.243C3391.35 404.033 3410.16 417.651 3433.15 417.651C3445.5 417.426 3457.6 414.129 3468.37 408.056C3462.27 462.824 3486.73 512.278 3546.16 512.278C3579.69 512.278 3601.47 500.468 3617.96 470.279C3630.89 516.411 3654.43 529.328 3673.27 529.328C3691.64 529.328 3705.04 517.481 3700.34 512.757C3653.22 463.71 3669.12 392.149 3661.04 371.445Z" fill="url(#paint2_linear)"/>
<path id="vector-7_2" d="M3280.65 271.541C3272.43 254.38 3253.59 249.065 3237.68 249.065C3230.82 248.633 3223.96 249.901 3217.7 252.756C3184.65 271.689 3195.34 312.507 3225.34 320.773C3226.94 321.72 3228.79 322.133 3230.63 321.954H3234.3C3262.44 321.807 3291.86 294.607 3280.65 271.541Z" fill="url(#paint3_linear)"/>
<path id="vector-6_2" d="M3246.53 373.253C3244.77 346.054 3232.98 334.244 3218.29 334.244C3194.16 334.244 3167.64 367.939 3174.73 437.137C3180.61 492.717 3215.13 509.288 3239.48 509.288C3257.85 509.288 3270.66 501.021 3263.02 491.536C3236.51 458.985 3248.88 411.709 3246.53 373.253Z" fill="url(#paint4_linear)"/>
<path id="vector-5_2" d="M3087.61 285.528C3024.07 285.528 3002.29 389.64 2980.52 465.333C2982.28 435.181 2996.38 334.613 3012.28 272.538C3014.64 263.643 3008.17 260.691 2999.36 260.691C2928.14 260.691 2912.24 404.992 2912.24 455.295C2912.24 526.265 2929.91 587.75 2962.85 587.75C2969.41 587.622 2975.8 585.57 2981.21 581.845C2995.32 571.216 3005.93 525.084 3017.1 473.01C3033 400.269 3049.49 316.861 3074.79 316.861C3094.81 316.861 3093.16 355.908 3091.29 368.936C3084.78 452.896 3021.83 471.829 3045.38 478.361C3051.09 480.093 3057.04 480.89 3063.01 480.723C3116.59 480.723 3158.5 416.249 3158.5 361.813C3158.28 321.179 3131.17 285.528 3087.61 285.528Z" fill="url(#paint5_linear)"/>
<path id="vector-4_2" d="M2832.8 273.866C2835.52 271.652 2836.18 268.958 2832.51 267.186C2837.94 262.388 2841.43 254.232 2842.35 240.725C2845.29 191.64 2804.67 161.488 2759.34 161.488C2719.9 161.488 2676.34 183.373 2651.03 234.229C2613.39 312.285 2606.3 455.295 2603.95 455.295V454.704C2603.36 454.704 2603.36 454.114 2603.36 453.523C2593.96 370.744 2593.37 318.67 2602.19 285.565C2598.07 280.251 2591.17 277.889 2581 277.889C2573.09 277.909 2565.42 280.6 2559.22 285.528C2504.49 331.07 2544.52 474.191 2560.39 508.513C2564.54 517.37 2574.53 521.504 2590.43 521.504C2595.14 521.504 2599.84 520.913 2606.3 520.323C2635.68 515.599 2636.93 427.468 2648.1 384.288C2674.58 284.938 2715.79 268.367 2756.41 268.367C2759.56 268.367 2762.69 268.367 2765.77 268.699C2716.52 286.894 2679.17 339.337 2679.17 400.268C2679.17 477.771 2725.08 530.398 2782.19 530.398C2860.45 530.398 2891.64 444.039 2893.4 390.82C2893.44 344.245 2875.77 296.932 2832.8 273.866ZM2801.62 472.567C2779.25 472.567 2751.01 442.415 2751.01 400.416C2751.01 364.95 2779.84 318.817 2808.12 298.113C2832.25 314.647 2854.03 355.465 2854.03 386.207C2853.99 424.073 2822.77 472.567 2801.62 472.567Z" fill="url(#paint6_linear)"/>
<path id="vector-3_2" d="M2668.59 98.785C2692.72 98.785 2708.62 105.871 2706.27 128.937C2706.27 146.098 2720.41 149.051 2734.52 149.051C2786.3 149.051 2791.04 78.6713 2725.11 57.9672C2714.1 53.8337 2702.75 53.2432 2689.19 53.2432C2595.02 53.2432 2439.63 129.527 2361.95 136.65C2340.17 133.661 2323.68 98.1945 2326.62 76.3093C2334.3 16.5589 2364.3 14.197 2342.52 2.9776C2336.81 1.13385 2330.86 0.139176 2324.86 0.0251235C2293.09 0.0251235 2250.71 21.9102 2231.86 73.8367C2224.22 101.036 2236.57 141.854 2274.84 160.787C2297.52 171.266 2322.26 176.512 2347.22 176.139C2384.91 176.139 2414.33 166.101 2429.05 166.101H2431.99C2407.86 220.5 2407.86 287.89 2409.62 429.867C2409.62 459.391 2421.38 515.045 2450.83 522.722C2462.35 525.786 2474.21 527.385 2486.13 527.482C2502.03 527.482 2516.17 523.792 2516.17 511.502C2519.11 432.819 2483.78 335.24 2518.52 138.754C2527.92 136.06 2616.22 98.785 2668.59 98.785Z" fill="url(#paint7_linear)"/>
<path id="vector-2_2" d="M2159.55 268.736C2166.16 264.271 2170.57 255.856 2171.37 240.725C2174.35 191.64 2133.73 161.488 2088.41 161.488C2050.32 161.488 2008.45 181.971 1982.81 229.173C1979.14 186.953 1941.68 161.488 1900.07 161.488C1860.62 161.488 1817.06 183.373 1791.76 234.229C1754.11 312.285 1747.02 455.295 1744.67 455.295V454.705C1744.09 454.705 1744.09 454.114 1744.09 453.524C1734.68 370.744 1734.1 318.67 1742.91 285.565C1738.8 280.251 1731.89 277.889 1721.72 277.889C1713.76 277.87 1706.03 280.563 1699.79 285.528C1690.61 293.543 1683.73 303.876 1679.85 315.459C1668.35 277.741 1638.64 255.413 1606.73 255.413C1579.07 255.413 1549.03 270.803 1525.48 308.041C1489.6 363.067 1503.71 448.8 1543.85 486.074C1564.45 505.007 1583.88 509.731 1602.13 509.731C1612.62 509.445 1623.05 508.21 1633.32 506.04C1653.92 501.317 1643.31 487.108 1633.9 487.108H1631.55C1627.76 488.388 1623.77 488.988 1619.76 488.879C1608.75 488.879 1593.87 484.155 1580.36 458.137C1591.37 455.184 1603.31 458.727 1623.33 449.242C1647.49 437.765 1664.28 423.408 1674.23 402.852C1679.56 447.988 1693.26 491.426 1701.08 508.366C1705.19 517.223 1715.22 521.356 1731.08 521.356C1735.82 521.356 1740.52 520.766 1746.99 520.175C1776.37 515.451 1777.58 427.32 1788.78 384.141C1815.26 284.79 1856.47 268.219 1897.09 268.219C1917.7 268.219 1936.54 272.98 1952.4 272.98C1956.88 273.09 1961.35 272.467 1965.63 271.135C1940.47 350.298 1935 455.11 1932.98 455.11V454.52C1932.39 454.52 1932.39 453.929 1932.39 453.339C1923.02 370.855 1922.43 318.744 1931.18 285.528C1927.06 280.214 1920.16 277.852 1909.98 277.852C1902.07 277.877 1894.4 280.582 1888.2 285.528C1833.48 331.07 1873.51 474.191 1889.38 508.513C1893.49 517.371 1903.52 521.504 1919.39 521.504C1924.12 521.504 1928.83 520.914 1935.29 520.323C1964.67 515.599 1965.88 427.468 1977.09 384.288C2001.33 293.315 2037.94 271.762 2075.11 268.773C2059.89 278.976 2047.11 292.436 2037.69 308.188C2001.77 363.215 2015.91 448.947 2056.05 486.222C2076.62 505.155 2096.05 509.879 2114.3 509.879C2124.78 509.595 2135.22 508.359 2145.48 506.188C2166.08 501.464 2155.51 487.255 2146.1 487.255H2143.72C2139.93 488.534 2135.96 489.133 2131.96 489.027C2120.95 489.027 2106.26 484.303 2092.52 458.284C2103.72 455.332 2115.47 458.875 2135.49 449.39C2169.06 433.447 2188.45 412.152 2194.95 376.058C2203.33 325.756 2186.21 287.632 2159.55 268.736ZM1582.93 421.748C1578.97 421.647 1575.03 421.252 1571.14 420.567C1557.03 377.977 1552.3 334.207 1592.33 300.512C1593.33 300.44 1594.32 300.241 1595.27 299.922C1612.34 299.922 1629.42 327.121 1629.42 360.226C1629.24 407.576 1605.7 421.748 1582.74 421.748H1582.93ZM2094.94 421.748C2091 421.647 2087.07 421.252 2083.19 420.567C2069.05 377.977 2064.35 334.207 2104.38 300.512C2105.38 300.44 2106.37 300.241 2107.32 299.922C2124.4 299.922 2141.44 327.121 2141.44 360.226C2141.26 407.576 2117.71 421.748 2094.76 421.748H2094.94Z" fill="url(#paint8_linear)"/>
<path id="vector-1_2" d="M1645.14 98.7848C1669.27 98.7848 1685.14 105.871 1682.79 128.937C1682.79 146.098 1696.93 149.05 1711.07 149.05C1762.85 149.05 1767.56 78.6711 1701.63 57.9669C1690.61 53.8335 1679.26 53.243 1665.75 53.243C1571.54 53.243 1416 129.527 1338.47 136.65C1316.69 133.661 1300.23 98.1943 1303.17 76.3091C1310.81 16.5586 1340.82 14.1967 1319.04 2.97733C1313.34 1.13661 1307.4 0.141964 1301.41 0.0248526C1269.6 0.0248526 1227.22 21.91 1208.42 73.8364C1200.74 101.036 1213.12 141.854 1251.35 160.786C1274.05 171.263 1298.8 176.509 1323.78 176.139C1361.42 176.139 1390.88 166.101 1405.57 166.101H1408.51C1384.38 220.5 1384.38 287.89 1386.14 429.867C1386.14 459.391 1397.93 515.045 1427.35 522.722C1438.88 525.786 1450.75 527.386 1462.68 527.482C1478.55 527.482 1492.69 523.792 1492.69 511.502C1495.62 432.819 1460.33 335.24 1495.04 138.754C1504.48 136.06 1592.73 98.7848 1645.14 98.7848Z" fill="url(#paint9_linear)"/>
</g>
</g>
<g id="symbol">
<path id="peel" d="M922.877 120.628L884.657 138.539C878.146 141.616 873.06 147.086 870.447 153.82C867.834 160.553 867.895 168.037 870.616 174.728C911.185 277.203 912.486 391.147 874.267 494.53C836.048 597.913 761.023 683.391 663.699 734.438C566.375 785.485 453.664 798.475 347.358 770.896C241.052 743.317 148.702 677.129 88.1623 585.128C84.2349 579.092 78.1553 574.796 71.1725 573.123C64.1896 571.449 56.8339 572.526 50.6165 576.13L14.0535 597.313C10.7577 599.222 7.88243 601.784 5.60226 604.843C3.3221 607.902 1.68456 611.394 0.789031 615.108C-0.106493 618.822 -0.241326 622.68 0.392716 626.448C1.02676 630.216 2.41645 633.815 4.47745 637.028C149.634 860.11 439.751 947.888 687.099 831.904C949.302 709.038 1067.61 402.211 960.872 135.803C959.462 132.227 957.339 128.977 954.633 126.255C951.927 123.533 948.696 121.396 945.137 119.974C941.578 118.553 937.768 117.878 933.94 117.99C930.111 118.103 926.347 119 922.877 120.628Z" fill="#78C45B"/>
<g id="slices">
<path id="slice-pink" d="M748.147 201.749L531.044 303.433C525.822 305.874 521.474 309.868 518.588 314.875C515.703 319.882 514.42 325.659 514.913 331.423C515.407 337.186 517.653 342.658 521.347 347.097C525.041 351.535 530.005 354.725 535.565 356.235L757.414 415.919C765.735 418.155 774.456 418.44 782.903 416.75C791.351 415.06 799.298 411.441 806.13 406.174C812.963 400.906 818.498 394.13 822.307 386.371C826.116 378.611 828.097 370.076 828.097 361.425V252.887C828.103 243.394 825.723 234.053 821.179 225.73C816.635 217.406 810.073 210.369 802.101 205.27C794.129 200.171 785.005 197.175 775.574 196.559C766.142 195.944 756.709 197.729 748.147 201.749ZM606.782 351.44C592.095 352.737 549.438 344.445 548.174 329.721C546.91 314.997 587.489 299.343 602.12 298.074C609.055 297.657 615.878 299.974 621.139 304.531C626.399 309.089 629.682 315.528 630.289 322.48C630.896 329.431 628.78 336.346 624.39 341.754C620 347.162 613.683 350.637 606.782 351.44Z" fill="#EB3B98"/>
<path id="slice-yellow" d="M755.505 447.99L530.398 365.684C524.982 363.703 519.09 363.444 513.522 364.942C507.953 366.44 502.979 369.624 499.275 374.059C495.57 378.495 493.314 383.969 492.813 389.737C492.312 395.505 493.591 401.288 496.475 406.301L611.387 605.973C615.696 613.464 621.662 619.861 628.824 624.667C635.987 629.472 644.154 632.559 652.694 633.688C661.234 634.817 669.919 633.957 678.075 631.176C686.232 628.395 693.643 623.767 699.734 617.65L776.005 540.901C782.685 534.194 787.574 525.904 790.218 516.796C792.863 507.688 793.178 498.058 791.134 488.796C789.091 479.534 784.754 470.939 778.527 463.806C772.299 456.673 764.381 451.233 755.505 447.99ZM587.012 443.984C582.473 449.379 575.996 452.755 568.991 453.378C561.986 454.002 555.02 451.822 549.607 447.313C538.374 437.807 513.998 401.647 523.462 390.308C532.926 378.969 572.606 396.739 583.895 406.244C586.57 408.514 588.773 411.291 590.379 414.416C591.985 417.542 592.962 420.955 593.254 424.46C593.546 427.965 593.148 431.493 592.082 434.843C591.015 438.193 589.302 441.299 587.04 443.984H587.012Z" fill="#FACC15"/>
<path id="slice-red" d="M588.528 627.324L487.292 409.262C484.847 404.02 480.856 399.66 475.86 396.774C470.864 393.888 465.105 392.616 459.365 393.13C453.624 393.644 448.18 395.92 443.772 399.649C439.363 403.378 436.204 408.379 434.722 413.973L375.3 636.661C373.073 645.018 372.79 653.778 374.473 662.262C376.155 670.747 379.758 678.729 385.003 685.592C390.247 692.455 396.993 698.014 404.718 701.84C412.444 705.665 420.941 707.655 429.555 707.655H537.615C547.07 707.663 556.374 705.274 564.664 700.708C572.955 696.142 579.963 689.548 585.041 681.537C590.118 673.526 593.1 664.357 593.709 654.88C594.319 645.403 592.537 635.925 588.528 627.324ZM468.392 506.856C464.903 507.166 461.388 506.782 458.046 505.726C454.705 504.67 451.604 502.962 448.92 500.702C446.236 498.441 444.023 495.671 442.405 492.55C440.788 489.429 439.8 486.019 439.496 482.514C438.204 467.762 446.46 424.917 461.119 423.648C475.778 422.378 491.364 463.136 492.627 477.832C493.243 484.908 491.036 491.94 486.491 497.382C481.947 502.825 475.437 506.232 468.392 506.856Z" fill="#F04A4E"/>
<path id="slice-orange" d="M384.876 371.663L186.083 486.999C178.624 491.326 172.256 497.318 167.471 504.513C162.686 511.707 159.613 519.91 158.489 528.488C157.365 537.066 158.221 545.789 160.99 553.981C163.758 562.174 168.366 569.617 174.457 575.735L250.868 652.484C257.546 659.194 265.8 664.105 274.867 666.761C283.935 669.417 293.523 669.733 302.744 667.681C311.966 665.628 320.523 661.273 327.624 655.017C334.725 648.762 340.141 640.809 343.371 631.894L425.315 405.793C427.305 400.349 427.577 394.422 426.092 388.818C424.608 383.214 421.44 378.205 417.02 374.475C412.6 370.744 407.142 368.473 401.39 367.97C395.638 367.467 389.872 368.756 384.876 371.663ZM379.26 459.328C374.713 464.774 368.199 468.183 361.149 468.805C354.1 469.426 347.094 467.21 341.672 462.643C336.25 458.076 332.856 451.532 332.237 444.452C331.619 437.372 333.825 430.335 338.372 424.889C347.836 413.606 383.837 389.123 395.127 398.629C406.416 408.134 388.78 448.046 379.316 459.385L379.26 459.328Z" fill="#F9A140"/>
</g>
<g id="leaves">
<path id="leaf-right" d="M590.241 58.9416C588.606 56.6045 586.39 54.7391 583.813 53.5314C581.235 52.3238 578.388 51.8162 575.554 52.0592C551.376 54.1465 485.018 67.0367 448.511 145.478C415.907 215.74 438.85 270.742 454.127 295.761C457.007 300.562 461.246 304.393 466.302 306.764C471.359 309.135 477.004 309.94 482.518 309.074C511.359 304.646 568.057 286.96 600.688 216.699C637.026 138.314 604.198 78.8833 590.241 58.9416Z" fill="#78C45B"/>
<path id="leaf-left" d="M114.052 164.405C110.529 166.954 107.713 170.365 105.87 174.314C104.027 178.263 103.219 182.619 103.521 186.97C105.796 220.337 121.297 305.436 217.451 350.904C313.604 396.372 388.752 353.725 415.851 334.347C419.375 331.797 422.194 328.387 424.042 324.439C425.889 320.49 426.704 316.134 426.41 311.782C424.107 278.414 408.606 193.316 312.453 147.819C216.299 102.323 141.095 144.858 114.052 164.405Z" fill="#78C45B"/>
</g>
</g>
</g>
<defs>
<linearGradient id="paint0_linear" x1="3909.19" y1="273.312" x2="3909.19" y2="527.63" gradientUnits="userSpaceOnUse">
<stop stop-color="#FACC15"/>
<stop offset="0.347222" stop-color="#F9A140"/>
<stop offset="1" stop-color="#78C45B"/>
</linearGradient>
<linearGradient id="paint1_linear" x1="3763.95" y1="105.278" x2="3763.95" y2="527.593" gradientUnits="userSpaceOnUse">
<stop stop-color="#FACC15"/>
<stop offset="0.347222" stop-color="#F9A140"/>
<stop offset="1" stop-color="#78C45B"/>
</linearGradient>
<linearGradient id="paint2_linear" x1="3488.34" y1="252.682" x2="3488.34" y2="529.328" gradientUnits="userSpaceOnUse">
<stop stop-color="#FACC15"/>
<stop offset="0.347222" stop-color="#F9A140"/>
<stop offset="1" stop-color="#78C45B"/>
</linearGradient>
<linearGradient id="paint3_linear" x1="3240.24" y1="248.983" x2="3240.24" y2="321.995" gradientUnits="userSpaceOnUse">
<stop stop-color="#FACC15"/>
<stop offset="1" stop-color="#F9A140"/>
</linearGradient>
<linearGradient id="paint4_linear" x1="3219.42" y1="334.244" x2="3219.42" y2="509.288" gradientUnits="userSpaceOnUse">
<stop stop-color="#FACC15"/>
<stop offset="0.347222" stop-color="#F9A140"/>
<stop offset="1" stop-color="#78C45B"/>
</linearGradient>
<linearGradient id="paint5_linear" x1="3035.37" y1="260.691" x2="3035.37" y2="587.75" gradientUnits="userSpaceOnUse">
<stop stop-color="#FACC15"/>
<stop offset="0.347222" stop-color="#F9A140"/>
<stop offset="1" stop-color="#78C45B"/>
</linearGradient>
<linearGradient id="paint6_linear" x1="2712.38" y1="161.488" x2="2712.38" y2="530.398" gradientUnits="userSpaceOnUse">
<stop stop-color="#FACC15"/>
<stop offset="0.347222" stop-color="#F9A140"/>
<stop offset="1" stop-color="#78C45B"/>
</linearGradient>
<linearGradient id="paint7_linear" x1="2501.84" y1="0.0251235" x2="2501.84" y2="527.482" gradientUnits="userSpaceOnUse">
<stop stop-color="#FACC15"/>
<stop offset="0.347222" stop-color="#F9A140"/>
<stop offset="1" stop-color="#78C45B"/>
</linearGradient>
<linearGradient id="paint8_linear" x1="1850.99" y1="161.488" x2="1850.99" y2="521.504" gradientUnits="userSpaceOnUse">
<stop stop-color="#FACC15"/>
<stop offset="0.347222" stop-color="#F9A140"/>
<stop offset="1" stop-color="#78C45B"/>
</linearGradient>
<linearGradient id="paint9_linear" x1="1478.38" y1="0.0248526" x2="1478.38" y2="527.482" gradientUnits="userSpaceOnUse">
<stop stop-color="#FACC15"/>
<stop offset="0.347222" stop-color="#F9A140"/>
<stop offset="1" stop-color="#78C45B"/>
</linearGradient>
</defs>
</svg>
