<svg xmlns="http://www.w3.org/2000/svg" viewBox="0 0 4000 937">
  <g fill="#EB3B98">
    <path
      d="M3704.26 704.01a24.505 24.505 0 0 1-9.5 1.918c-3.26 0-6.49-.652-9.5-1.918a5.692 5.692 0 0 1-3.11-2.229 5.697 5.697 0 0 1-1.02-3.708c.01-2.151-.5-4.272-1.48-6.185-1.23-2.474-2.26-2.721-4.53-1.039a27.476 27.476 0 0 0-8.66 11.628 58.714 58.714 0 0 0-3.74 41.068c1.18 4.107 2.22 8.213 3.64 12.221a294.604 294.604 0 0 1 15.11 64.72 101.92 101.92 0 0 1 .79 24.492 22.026 22.026 0 0 1-3.98 10.938 21.878 21.878 0 0 1-8.96 7.37 51.752 51.752 0 0 1-35.2 3.414 26.614 26.614 0 0 1-14.76-9.896 117.274 117.274 0 0 1-12.75-20.287c-1.87-3.76-1.28-5.839 2.46-7.422a23.236 23.236 0 0 1 19.69.495 9.92 9.92 0 0 1 4.09 4.948 108.58 108.58 0 0 0 11.41 18.208c3.25 4.107 4.93 4.008 8.22-.346a18.639 18.639 0 0 0 3.06-10.193v-6.828a243.44 243.44 0 0 0-7.29-48.391 258.028 258.028 0 0 0-8.27-28.203 138.148 138.148 0 0 1-5.22-18.852 62.918 62.918 0 0 1 7.98-44.829 36.6 36.6 0 0 1 12.36-12.658 36.397 36.397 0 0 1 16.82-5.352c8.3-.925 16.69.444 24.27 3.958a18.789 18.789 0 0 1 8.18 6.373 18.916 18.916 0 0 1 3.58 9.757c.4 1.398.24 2.897-.45 4.174a5.502 5.502 0 0 1-3.24 2.654z"
    />
    <path
      d="M3590.86 682.388a77.977 77.977 0 0 0 1.18-18.555 6.045 6.045 0 0 1 .55-3.787 6.024 6.024 0 0 1 2.7-2.695 24.498 24.498 0 0 1 17.82-2.87c4.53 1.039 5.36 2.128 5.56 6.63v6.086a89.788 89.788 0 0 1-1.08 12.469 8.47 8.47 0 0 1-1.53 4.112 8.392 8.392 0 0 1-3.39 2.766 24.865 24.865 0 0 1-17.43 2.425c-3.84-.891-4.97-2.672-4.38-6.581zm29.53 53.339a267.675 267.675 0 0 0 0 63.631c.35 3.067.45 6.185.89 9.252a5.357 5.357 0 0 1-.44 3.367 5.304 5.304 0 0 1-2.37 2.422 24.825 24.825 0 0 1-20.13 2.87 5.206 5.206 0 0 1-2.73-1.833 5.258 5.258 0 0 1-1.11-3.115 326.483 326.483 0 0 1 0-84.61c.42-3.066.62-6.158.59-9.253a6.984 6.984 0 0 1 1.03-4.204 6.904 6.904 0 0 1 3.31-2.772 26.867 26.867 0 0 1 17.07-2.425c4.14.643 5.57 2.474 5.32 6.828-.29 6.581-.84 13.261-1.62 19.891l.19-.049z"
    />
    <path
      d="M3542.77 774.469a187.247 187.247 0 0 0-3 4.948 212.051 212.051 0 0 1-18.5 27.066 85.898 85.898 0 0 1-11.13 11.677 32.23 32.23 0 0 1-14.24 7.196 32.178 32.178 0 0 1-15.93-.516 20.927 20.927 0 0 1-8.83-4.251 20.997 20.997 0 0 1-5.93-7.822 52.844 52.844 0 0 1-4.93-18.951 115.748 115.748 0 0 1 15.75-69.618 95.182 95.182 0 0 1 22.1-25.284 56.046 56.046 0 0 1 22.85-11.674 55.862 55.862 0 0 1 25.63-.251c4.09.841 3.99.743 5.27-3.067 2.02-7.762 3.3-15.697 3.84-23.701 2.56-19.792 4.92-39.584 7.82-59.376.13-2.05.95-3.997 2.31-5.525a9.054 9.054 0 0 1 5.23-2.886 27.406 27.406 0 0 1 15.84.494c.83.127 1.62.425 2.32.876a5.92 5.92 0 0 1 1.77 1.743c.47.699.78 1.487.92 2.314.15.827.12 1.675-.08 2.489a387.937 387.937 0 0 1-10.54 75.605 201.602 201.602 0 0 0-3.93 26.67c-2.07 15.537-3.89 31.172-5.32 46.758a365.404 365.404 0 0 0-.54 78.376 156.928 156.928 0 0 0 8.07 35.279 15.267 15.267 0 0 0 6.4 8.906c2.95 1.683 2.61 4.206-.4 6.136a18.32 18.32 0 0 1-8.81 2.474 19.59 19.59 0 0 1-13.97-2.314 19.767 19.767 0 0 1-8.81-11.145 139.191 139.191 0 0 1-8.81-35.081 294.27 294.27 0 0 1-2.07-51.904v-5.393l-.35-.248zm-51.48 33.993c1.04-1.435 1.48-2.128 2.02-2.771 2.12-2.672 4.33-5.294 6.4-8.065a322.446 322.446 0 0 0 41.54-80.751c.39-1.039 1.08-2.227.44-3.266a10.32 10.32 0 0 1-.49-7.174 6.83 6.83 0 0 0-.15-4.099 6.873 6.873 0 0 0-2.46-3.274 7.253 7.253 0 0 0-8.22 0 58.754 58.754 0 0 0-13.98 10.589c-22.24 22.662-30.27 50.469-28.84 81.542a45.191 45.191 0 0 0 3.69 17.269h.05zM3451.33 812.321c-.4.308-.81.589-1.24.841a20.492 20.492 0 0 1-16.16 1.789 20.59 20.59 0 0 1-12.43-10.547 108.433 108.433 0 0 1-7.83-32.706c0-.841 0-1.633-.29-2.919a9.196 9.196 0 0 0-3.15 4.453 228.307 228.307 0 0 1-14.77 24.74 26.908 26.908 0 0 1-16.83 11.677 36.635 36.635 0 0 1-18.36-.693 22.85 22.85 0 0 1-9.46-5.846 22.963 22.963 0 0 1-5.6-9.641 55.262 55.262 0 0 1-2.51-17.417c-.19-11.64.97-23.263 3.44-34.636 3.62-15.798 13.11-29.606 26.53-38.594a50.813 50.813 0 0 1 32-8.461c2.06 0 4.38.891 6.2 0 1.82-.89 1.77-3.76 2.36-5.69a11.726 11.726 0 0 1 4.02-6.305c1.99-1.6 4.45-2.497 7-2.552a29.64 29.64 0 0 1 13.49.99c1.6.357 3 1.315 3.91 2.677a6.415 6.415 0 0 1 1.01 4.646 97.116 97.116 0 0 1-1.23 14.844 368.152 368.152 0 0 0-1.82 60.216c.38 11.456 2.37 22.8 5.91 33.696a20.47 20.47 0 0 0 5.81 10.539c2.16 1.386 1.82 3.266 0 4.899zm-44.65-103.908a6.024 6.024 0 0 0-6.69-1.484 33.081 33.081 0 0 0-8.56 5.492 54.104 54.104 0 0 0-17.82 28.055 134.227 134.227 0 0 0-3.84 39.881c.04 3.521.71 7.006 1.97 10.292 1.72-.693 2.11-2.029 2.75-3.117a302.843 302.843 0 0 0 32.54-74.22c.44-1.732 1.57-3.414-.35-4.997v.098zM3336.05 727.365a18.816 18.816 0 0 1-7.28 2.573c-3.84.699-7.8.444-11.52-.743a9.227 9.227 0 0 1-5.1-2.724 9.329 9.329 0 0 1-2.48-5.242c-.74-4.948-1.82-9.648-2.61-14.448a37.52 37.52 0 0 0-3.64-10.539 82.384 82.384 0 0 0-16.83 21.375 161.068 161.068 0 0 0-11.86 33.152 282.562 282.562 0 0 0-9.85 63.779c-.34 6.63-1.52 8.115-8.02 9.896-4.61 1.09-9.42.988-13.98-.297a8.027 8.027 0 0 1-4.57-2.618 8.063 8.063 0 0 1-1.97-4.903c-.79-7.125-1.63-14.25-1.78-21.474-.34-23.701.99-47.402.84-71.102 0-11.43-.39-22.86-1.43-34.29-.1-1.961-.1-3.927 0-5.888a6.727 6.727 0 0 1 1.16-4.923 6.627 6.627 0 0 1 4.26-2.697 25.69 25.69 0 0 1 17.22 0c4.93 1.732 5.81 3.909 4.63 8.956a8.895 8.895 0 0 0 0 1.93c0 7.62 1.33 15.19.99 23.008 2.06-.297 2.41-1.782 3.1-2.722 3.27-4.492 6.82-8.773 10.63-12.815a43.06 43.06 0 0 1 17.34-11.067 42.886 42.886 0 0 1 20.46-1.748c3.4.437 6.64 1.714 9.43 3.717a20.8 20.8 0 0 1 6.56 7.762 44.063 44.063 0 0 1 4.93 13.854 65 65 0 0 0 3.59 16.18c.24 1.782-.84 3.068-2.22 4.058zM3225.95 812.321l-1.18.841a20.587 20.587 0 0 1-23.49-2.197 20.712 20.712 0 0 1-5.16-6.561 109.695 109.695 0 0 1-7.82-32.706c0-.841 0-1.633-.3-2.919a9.267 9.267 0 0 0-3.15 4.453 228.13 228.13 0 0 1-14.76 24.74 26.95 26.95 0 0 1-16.84 11.677 36.585 36.585 0 0 1-18.35-.693 22.83 22.83 0 0 1-9.47-5.845 23.079 23.079 0 0 1-5.6-9.642 55.55 55.55 0 0 1-2.51-17.417c-.18-11.64.97-23.263 3.45-34.635 3.62-15.799 13.11-29.607 26.53-38.595a50.834 50.834 0 0 1 31.99-8.461c2.07 0 4.38.891 6.25 0 1.87-.89 1.73-3.76 2.32-5.69a11.612 11.612 0 0 1 4.02-6.305c1.99-1.6 4.45-2.497 7-2.552a29.65 29.65 0 0 1 13.49.99 6.424 6.424 0 0 1 3.91 2.677 6.512 6.512 0 0 1 1.01 4.646 98.398 98.398 0 0 1-1.23 14.844 367.053 367.053 0 0 0-1.82 60.217 122.522 122.522 0 0 0 5.9 33.695 20.62 20.62 0 0 0 5.81 10.54c2.17 1.385 1.82 3.265 0 4.898zm-44.64-103.907a6.047 6.047 0 0 0-3.12-1.787 6.01 6.01 0 0 0-3.57.302 33.305 33.305 0 0 0-8.57 5.492 54.17 54.17 0 0 0-17.82 28.055 134.221 134.221 0 0 0-3.83 39.881c.04 3.521.71 7.006 1.96 10.292 1.73-.693 2.12-2.029 2.76-3.117a302.813 302.813 0 0 0 32.53-74.22c.45-1.732 1.83-3.414-.34-4.997v.099zM3036.61 711.234a12.13 12.13 0 0 0 4.03-3.76 47.96 47.96 0 0 1 20.75-13.799c8-2.685 16.57-3.199 24.83-1.49 13.98 2.375 20.38 9.896 21.06 24.146a103.822 103.822 0 0 1-8.41 50.565 103.367 103.367 0 0 1-31.55 40.279 71.894 71.894 0 0 1-30.71 15.339c-2.02.396-4.93-.445-5.96 1.237-1.03 1.682-.49 4.453-.54 6.68 0 28.847 1.33 57.545 3.79 86.243.34 3.76.69 7.521.98 11.232.3 3.711-.34 4.948-3.49 6.185a25.185 25.185 0 0 1-20.38 0 7.782 7.782 0 0 1-2.88-2.579 7.752 7.752 0 0 1-1.3-3.656 186.759 186.759 0 0 1-3.79-27.659 411.49 411.49 0 0 1-.99-60.81c1.63-23.355 1.68-46.759 3.45-70.063 1.53-20.584 2.8-41.118 4.38-61.652.79-9.896 1.97-19.792 2.9-29.688a6.397 6.397 0 0 1 1.39-3.599 6.332 6.332 0 0 1 3.19-2.141 25.274 25.274 0 0 1 17.67 0c4.58 1.584 5.66 3.86 4.92 8.709-1.82 9.5-2.46 19.594-3.34 30.281zm-4.34 97.178a10.793 10.793 0 0 0 5.37-2.474c29.97-20.633 43.16-49.875 43.16-85.748.1-4.431-.74-8.832-2.46-12.914-1.52-3.513-2.26-3.761-5.41-1.732a42.26 42.26 0 0 0-11.07 10.935 103.473 103.473 0 0 0-12.9 24.047 311.434 311.434 0 0 0-14.77 54.774 58.088 58.088 0 0 0-1.92 13.112zM2942.3 820.288a26.11 26.11 0 0 1-24.26 0 13.033 13.033 0 0 1-4.92-7.224 55.937 55.937 0 0 1-2.07-11.034c0-1.435 0-2.92-.84-4.206-1.77.396-2.16 1.979-3.05 3.018a55.422 55.422 0 0 1-11.32 10.737 33.082 33.082 0 0 1-13.74 5.414c-4.92.745-9.95.366-14.71-1.109a23.347 23.347 0 0 1-8.13-4.375 23.447 23.447 0 0 1-5.8-7.203 82.584 82.584 0 0 1-9.84-28.055 110.552 110.552 0 0 1-1.72-22.464 246.73 246.73 0 0 1 2.65-38.594c1.23-6.779 3.4-8.956 10.14-9.896 4.52-.757 9.15-.383 13.49 1.088 3.99 1.584 5.27 3.414 4.13 7.571-4.18 15.536-3.39 31.419-3.34 47.253a87.784 87.784 0 0 0 6.69 32.458c.59 1.336 1.23 2.672 1.87 4.008.35.652.75 1.28 1.18 1.881 1.53-.894 2.8-2.173 3.69-3.711a137.429 137.429 0 0 0 19.69-37.506 290.909 290.909 0 0 0 12.8-46.758c1.03-5.443 2.66-6.977 8.12-8.214a25.812 25.812 0 0 1 13.98.544c4.92 1.584 5.71 2.969 5.21 7.917-.73 7.818-1.77 15.586-2.51 23.404a527.833 527.833 0 0 0-2.56 59.771c.23 4.405.77 8.788 1.63 13.113.11.954.45 1.867.99 2.66a5.878 5.878 0 0 0 2.11 1.892c4.43 2.523 4.33 5.047.44 7.62zM2793.36 774.469c-.98 1.633-2.01 3.266-2.95 4.948a211.097 211.097 0 0 1-18.51 27.066 88.466 88.466 0 0 1-11.12 11.677 32.347 32.347 0 0 1-14.27 7.196 32.257 32.257 0 0 1-15.95-.516 20.87 20.87 0 0 1-8.66-4.31 21.076 21.076 0 0 1-5.81-7.763 53.049 53.049 0 0 1-4.92-18.951 116.125 116.125 0 0 1 15.75-69.618 96.037 96.037 0 0 1 22.15-25.284 56.046 56.046 0 0 1 22.85-11.674 55.86 55.86 0 0 1 25.63-.251c4.03.841 3.98.743 5.21-3.067a124.255 124.255 0 0 0 3.84-23.701c2.56-19.792 4.93-39.584 7.88-59.376a9.089 9.089 0 0 1 2.29-5.511 9 9 0 0 1 5.19-2.9 27.438 27.438 0 0 1 15.85.494c.83.12 1.62.414 2.33.863a6.023 6.023 0 0 1 1.78 1.743c.46.7.78 1.491.92 2.321a6 6 0 0 1-.11 2.495 381.053 381.053 0 0 1-10.53 75.605 201.564 201.564 0 0 0-3.89 26.67 1068.263 1068.263 0 0 0-5.32 46.758c-3 26.028-3.19 52.308-.54 78.376a154.648 154.648 0 0 0 8.07 35.279 14.84 14.84 0 0 0 6.35 8.906c2.96 1.683 2.61 4.206-.34 6.136a18.498 18.498 0 0 1-8.86 2.474c-4.78.998-9.76.173-13.98-2.314a19.767 19.767 0 0 1-8.81-11.145 143.855 143.855 0 0 1-8.81-35.081 300.132 300.132 0 0 1-2.07-51.904v-5.393l-.64-.248zm-51.43 33.993 1.97-2.771c2.12-2.672 4.38-5.294 6.4-8.065a322.191 322.191 0 0 0 41.59-80.751c.39-1.039 1.03-2.227.39-3.266a10.67 10.67 0 0 1-.49-7.174c.37-1.345.32-2.77-.14-4.087a6.889 6.889 0 0 0-2.42-3.286 7.253 7.253 0 0 0-8.22 0 57.74 57.74 0 0 0-13.98 10.589c-22.29 22.662-30.27 50.469-28.89 81.542a44.294 44.294 0 0 0 3.79 17.269zM2664.61 704.01a24.505 24.505 0 0 1-9.5 1.918c-3.26 0-6.49-.652-9.5-1.918a5.757 5.757 0 0 1-3.11-2.238 5.857 5.857 0 0 1-1.03-3.699c.01-2.151-.5-4.273-1.47-6.185-1.23-2.474-2.27-2.722-4.53-1.039a27.78 27.78 0 0 0-8.66 11.627 58.713 58.713 0 0 0-3.7 41.069c1.19 4.106 2.17 8.213 3.6 12.221a294.833 294.833 0 0 1 15.35 64.72 101.92 101.92 0 0 1 .79 24.492 22.11 22.11 0 0 1-3.97 10.938 21.97 21.97 0 0 1-8.97 7.37 51.752 51.752 0 0 1-35.2 3.414 26.614 26.614 0 0 1-14.76-9.896 117.274 117.274 0 0 1-12.75-20.287c-1.87-3.76-1.28-5.839 2.46-7.422a23.236 23.236 0 0 1 19.69.495 9.85 9.85 0 0 1 4.08 4.948c3.2 6.446 7.04 12.548 11.47 18.208 3.2 4.107 4.92 4.008 8.17-.346a18.546 18.546 0 0 0 3.05-10.193v-6.828a242.7 242.7 0 0 0-7.28-48.391 244.712 244.712 0 0 0-8.27-28.204 130.294 130.294 0 0 1-4.92-18.851 62.64 62.64 0 0 1 7.92-44.829 36.756 36.756 0 0 1 12.39-12.664 36.435 36.435 0 0 1 16.85-5.347c8.28-.92 16.65.449 24.22 3.959 3.26 1.32 6.1 3.529 8.18 6.378a19.129 19.129 0 0 1 3.63 9.752c.18.728.21 1.486.1 2.228a5.61 5.61 0 0 1-.78 2.09 5.533 5.533 0 0 1-3.55 2.51zM2584.48 727.365a18.428 18.428 0 0 1-7.24 2.573c-3.86.701-7.83.446-11.56-.743a9.161 9.161 0 0 1-5.1-2.724 9.2 9.2 0 0 1-2.48-5.242c-.74-4.948-1.78-9.648-2.61-14.448-.7-3.667-1.9-7.216-3.6-10.539a80.35 80.35 0 0 0-16.83 21.375 158.524 158.524 0 0 0-11.91 33.152 281.987 281.987 0 0 0-9.84 63.779c-.35 6.63-1.53 8.115-8.03 9.896-4.6 1.09-9.41.988-13.97-.297a8.097 8.097 0 0 1-4.57-2.627 8.173 8.173 0 0 1-1.98-4.894c-.79-7.125-1.62-14.25-1.77-21.474-.35-23.701.98-47.402.83-71.102 0-11.43-.39-22.86-1.42-34.29-.1-1.961-.1-3.927 0-5.888a6.721 6.721 0 0 1 1.15-4.923 6.677 6.677 0 0 1 4.26-2.697 25.72 25.72 0 0 1 17.23 0c4.92 1.732 5.81 3.909 4.62 8.956a8.36 8.36 0 0 0-.24 1.93c0 7.62 1.33 15.19 1.03 23.008 2.02-.297 2.37-1.782 3.1-2.722a131.31 131.31 0 0 1 10.59-12.815 43.025 43.025 0 0 1 17.33-11.067 42.916 42.916 0 0 1 20.47-1.748c3.4.428 6.65 1.702 9.44 3.706a20.778 20.778 0 0 1 6.55 7.773 42.703 42.703 0 0 1 4.92 13.854 70.051 70.051 0 0 0 3.6 16.18c.54 1.782-.59 3.068-1.97 4.058zM2469.45 820.287a26.18 26.18 0 0 1-12.15 2.99 26.19 26.19 0 0 1-12.16-2.99 13.313 13.313 0 0 1-4.92-7.224 55.91 55.91 0 0 1-2.07-11.034 7.746 7.746 0 0 0-.79-4.206c-1.77.396-2.21 1.98-3.1 3.019a55.45 55.45 0 0 1-11.32 10.737 33.041 33.041 0 0 1-13.73 5.414 33.04 33.04 0 0 1-14.72-1.109 23.216 23.216 0 0 1-8.12-4.375 23.35 23.35 0 0 1-5.81-7.204 83.552 83.552 0 0 1-9.84-28.055 110.521 110.521 0 0 1-1.67-22.463c-.14-12.914.73-25.819 2.61-38.595 1.28-6.778 3.39-8.955 10.18-9.895 4.5-.757 9.12-.383 13.44 1.088 4.04 1.583 5.27 3.414 4.14 7.57-4.19 15.537-3.4 31.42-3.3 47.254a86.953 86.953 0 0 0 6.69 32.458c.54 1.336 1.18 2.672 1.82 4.008.36.651.75 1.279 1.18 1.88a9.858 9.858 0 0 0 3.74-3.711 140.254 140.254 0 0 0 19.69-37.505 301.32 301.32 0 0 0 12.8-46.759c.98-5.442 2.66-6.976 8.12-8.213 4.6-1.11 9.42-.922 13.93.544 4.92 1.583 5.71 2.969 5.26 7.917-.78 7.818-1.82 15.586-2.55 23.404a512.992 512.992 0 0 0-1.92 59.969c.18 4.406.71 8.79 1.57 13.112.13.954.49 1.864 1.04 2.654a6.064 6.064 0 0 0 2.11 1.898c3.69 2.326 3.59 4.849-.15 7.422zM2361.52 758.141a68.043 68.043 0 0 1-7.19 14.844 272.562 272.562 0 0 1-26.53 35.724 44.265 44.265 0 0 1-22.79 15.19 40.821 40.821 0 0 1-20.72 0 25.633 25.633 0 0 1-10.52-5.488 25.787 25.787 0 0 1-6.95-9.652 53.242 53.242 0 0 1-4.92-19.792 214.65 214.65 0 0 1 4.92-59.376 68.2 68.2 0 0 1 11.56-25.729c14.77-20.138 41.1-18.11 55.62-8.313a26.139 26.139 0 0 1 11.24 16.38 26.296 26.296 0 0 1-3.46 19.592c-7.4 12.094-18.58 21.371-31.8 26.373a64.512 64.512 0 0 1-17.42 4.255c-2.51.297-3.49 1.336-3.69 3.958a114.252 114.252 0 0 0 1.33 31.222 29.694 29.694 0 0 0 5.66 13.656 39.394 39.394 0 0 0 7.82-7.521 270.65 270.65 0 0 0 23.33-31.37 57.264 57.264 0 0 0 8.17-17.169c.26-.956.74-1.835 1.41-2.56a5.975 5.975 0 0 1 2.43-1.596 25.03 25.03 0 0 1 19-.297c3.89 1.583 4.63 3.463 3.5 7.669zm-70.98-9.352c.51.039 1.02.039 1.53 0 .62-.179 1.23-.41 1.82-.692a53.296 53.296 0 0 0 21.41-18.704 21.625 21.625 0 0 0 3.34-13.723 21.61 21.61 0 0 0-5.85-12.847 2.8 2.8 0 0 0-4.58 0 43.928 43.928 0 0 0-9.15 12.568 101.538 101.538 0 0 0-8.72 33.398h.2zM2263.08 694.164a101.21 101.21 0 0 1-4.19 13.062 686.374 686.374 0 0 0-23.52 68.53c-2.66 8.708-5.61 17.367-8.67 26.026-3.98 11.232-8.95 14.597-20.81 14.547-2.1-.04-4.19-.255-6.26-.643a16.043 16.043 0 0 1-7.92-3.583 16.134 16.134 0 0 1-4.92-7.204c-4.53-12.073-9.16-24.096-13.59-36.219a445.216 445.216 0 0 1-16.48-57.891 77.69 77.69 0 0 0-4.09-13.607c-1.18-2.82-.84-4.305 1.82-5.641a23.38 23.38 0 0 1 21.56 0c.97.599 1.82 1.39 2.48 2.325a8.49 8.49 0 0 1 1.36 3.118 173.807 173.807 0 0 1 5.9 22.216c4.8 20.528 11 40.698 18.56 60.366.12.536.34 1.044.65 1.494.31.45.71.834 1.17 1.128 2.02-6.284 4.14-12.419 5.91-18.654a472.79 472.79 0 0 1 18.45-53.19 110.452 110.452 0 0 0 6.06-18.061 7.016 7.016 0 0 1 1.52-3.276 6.97 6.97 0 0 1 2.96-2.067 23.514 23.514 0 0 1 9.25-1.893c3.18 0 6.33.643 9.25 1.893a4.89 4.89 0 0 1 2.14.906 4.986 4.986 0 0 1 1.49 1.789c.34.706.52 1.486.5 2.274a4.93 4.93 0 0 1-.58 2.255zM2152.24 812.322l-1.19.841a20.53 20.53 0 0 1-7.91 2.567 20.588 20.588 0 0 1-15.58-4.765 20.808 20.808 0 0 1-5.15-6.56 111.355 111.355 0 0 1-7.83-32.706c0-.841 0-1.633-.29-2.92a9.265 9.265 0 0 0-3.15 4.454 219.948 219.948 0 0 1-14.77 24.739 26.905 26.905 0 0 1-16.83 11.678 36.68 36.68 0 0 1-18.36-.693 22.85 22.85 0 0 1-9.46-5.846 22.97 22.97 0 0 1-5.6-9.641 55.27 55.27 0 0 1-2.51-17.417 148.8 148.8 0 0 1 3.49-34.636c3.58-15.802 13.06-29.619 26.48-38.594a50.857 50.857 0 0 1 32-8.461c2.06 0 4.43.891 6.25 0 1.82-.891 1.72-3.76 2.31-5.69a11.722 11.722 0 0 1 4.02-6.305 11.59 11.59 0 0 1 7.01-2.552c4.52-.711 9.15-.373 13.53.99 3.99 1.484 4.92 2.968 4.92 7.323a97.103 97.103 0 0 1-1.23 14.843 372.683 372.683 0 0 0-1.82 60.217c.38 11.456 2.37 22.8 5.91 33.696a20.525 20.525 0 0 0 5.8 10.539c2.12 1.385 1.78 3.266-.04 4.899zm-44.65-103.908a6.024 6.024 0 0 0-6.69-1.484 33.081 33.081 0 0 0-8.56 5.492 54.104 54.104 0 0 0-17.82 28.055 134.227 134.227 0 0 0-3.84 39.881c.04 3.52.71 7.005 1.97 10.291 1.72-.692 2.11-2.028 2.75-3.117a302.82 302.82 0 0 0 32.54-74.219c.44-1.732 1.62-3.414-.35-4.998v.099zM2043.86 704.01a24.505 24.505 0 0 1-9.5 1.918c-3.27 0-6.49-.652-9.5-1.918a5.757 5.757 0 0 1-3.11-2.238 5.857 5.857 0 0 1-1.03-3.699c0-2.145-.48-4.261-1.43-6.185-1.23-2.474-2.31-2.722-4.52-1.039a27.466 27.466 0 0 0-8.71 11.627 58.933 58.933 0 0 0-3.7 41.068c1.19 4.107 2.22 8.214 3.65 12.222a301.32 301.32 0 0 1 15.11 64.719c1.2 8.107 1.45 16.328.73 24.493a21.85 21.85 0 0 1-3.94 10.957 21.719 21.719 0 0 1-9 7.35 51.712 51.712 0 0 1-35.19 3.415 26.775 26.775 0 0 1-14.77-9.896 117.274 117.274 0 0 1-12.75-20.287c-1.82-3.761-1.23-5.839 2.52-7.422a23.097 23.097 0 0 1 19.68.495 9.92 9.92 0 0 1 4.09 4.948 111.721 111.721 0 0 0 11.47 18.208c3.19 4.107 5.16 4.008 8.22-.346a19.086 19.086 0 0 0 3.05-10.193v-6.828a239.062 239.062 0 0 0-7.29-48.391 244.596 244.596 0 0 0-8.22-28.204 129.51 129.51 0 0 1-5.21-18.852c-3.08-15.418-.24-31.438 7.97-44.828a36.465 36.465 0 0 1 12.35-12.675 36.23 36.23 0 0 1 16.84-5.336c8.29-.922 16.68.447 24.26 3.959a18.843 18.843 0 0 1 8.16 6.383 18.998 18.998 0 0 1 3.6 9.747c.2.702.25 1.435.17 2.158a5.552 5.552 0 0 1-.68 2.056 5.434 5.434 0 0 1-1.4 1.64c-.57.449-1.23.78-1.92.974zM1925.43 704.01c-3 1.266-6.23 1.918-9.49 1.918-3.27 0-6.5-.652-9.5-1.918a5.757 5.757 0 0 1-3.11-2.238 5.857 5.857 0 0 1-1.03-3.699 13.28 13.28 0 0 0-1.43-6.185c-1.23-2.474-2.26-2.722-4.52-1.039a27.57 27.57 0 0 0-8.72 11.627 58.986 58.986 0 0 0-3.69 41.068c1.18 4.107 2.22 8.214 3.65 12.222a301.915 301.915 0 0 1 15.11 64.719c1.2 8.107 1.45 16.328.73 24.493a21.862 21.862 0 0 1-3.95 10.957 21.753 21.753 0 0 1-8.99 7.35 51.718 51.718 0 0 1-35.19 3.415 26.775 26.775 0 0 1-14.77-9.896 117.092 117.092 0 0 1-12.7-20.287c-1.87-3.761-1.28-5.839 2.46-7.422a23.134 23.134 0 0 1 19.69.495 9.92 9.92 0 0 1 4.09 4.948 112.35 112.35 0 0 0 11.46 18.208c3.2 4.107 4.93 4.008 8.22-.346a19.01 19.01 0 0 0 3.06-10.193v-6.828a239.062 239.062 0 0 0-7.29-48.391 244.596 244.596 0 0 0-8.22-28.204c-2.18-6.15-3.93-12.45-5.22-18.852a62.398 62.398 0 0 1 7.98-44.828 36.465 36.465 0 0 1 12.35-12.675 36.23 36.23 0 0 1 16.84-5.336c8.29-.922 16.68.447 24.26 3.959a18.843 18.843 0 0 1 8.16 6.383 18.998 18.998 0 0 1 3.6 9.747c.2.702.25 1.435.17 2.158a5.552 5.552 0 0 1-.68 2.056 5.434 5.434 0 0 1-1.4 1.64c-.57.449-1.23.78-1.93.974z"
    />
    <path
      d="M1844.96 758.141a67.557 67.557 0 0 1-7.18 14.844 268.91 268.91 0 0 1-26.48 35.724 44.305 44.305 0 0 1-22.79 15.19 40.821 40.821 0 0 1-20.72 0 25.832 25.832 0 0 1-10.54-5.496 26.09 26.09 0 0 1-6.99-9.644 55.787 55.787 0 0 1-4.92-19.792 215.417 215.417 0 0 1 4.92-59.376 67.635 67.635 0 0 1 11.57-25.729c14.77-20.138 41.1-18.11 55.62-8.313a26.215 26.215 0 0 1 11.24 16.38 26.3 26.3 0 0 1-3.47 19.592 64.045 64.045 0 0 1-31.79 26.373 64.505 64.505 0 0 1-17.47 4.255c-2.51.297-3.45 1.336-3.65 3.958a112.69 112.69 0 0 0 1.33 31.222c.7 4.955 2.63 9.652 5.61 13.656a39.509 39.509 0 0 0 7.88-7.521 278.77 278.77 0 0 0 23.33-31.37 58.481 58.481 0 0 0 8.17-17.169 6.009 6.009 0 0 1 3.84-4.156 25.03 25.03 0 0 1 19-.297c4.13 1.583 4.82 3.463 3.49 7.669zm-70.92-9.352c.5.039 1.01.039 1.52 0 .61-.179 1.2-.411 1.77-.692a53.087 53.087 0 0 0 21.46-18.704 21.562 21.562 0 0 0 3.34-13.723 21.61 21.61 0 0 0-5.85-12.847 2.8 2.8 0 0 0-2.29-1.189c-.44 0-.89.108-1.28.315-.4.206-.74.506-1 .874a45.187 45.187 0 0 0-9.21 12.568 100.297 100.297 0 0 0-8.46 33.398zM1640.06 807.472l18.26-1.435c13.49-.866 27.02-.866 40.51 0 6.94.347 13.93.99 20.87 1.485 6.55.532 12.7 3.411 17.32 8.114.49.435.93.934 1.28 1.485 1.19 1.731 2.86 3.513 1.58 5.739a4.898 4.898 0 0 1-2.51 1.928 4.89 4.89 0 0 1-3.15.002c-11.8-1.4-23.66-2.16-35.54-2.276-13.82-.214-27.65.463-41.39 2.029-6.01.445-11.96 1.138-17.97 1.434-4.92.248-9.84.792-15.11 1.139a21.99 21.99 0 0 1-11.15-2.309 22.053 22.053 0 0 1-8.53-7.587c-2.71-3.513-1.58-5.938 2.8-6.928.47-.15.94-.25 1.43-.296 2.85 0 3.74-1.534 4.23-4.157 2.61-15.289 4.92-30.628 6.3-46.115 1.33-16.476 2.95-32.904 4.28-49.479 1.28-15.438 2.22-30.975 3.55-46.462 2.46-29.193 2.95-58.435 2.95-87.727 0-4.355.99-5.789 5.17-7.125a26.33 26.33 0 0 1 16.78 0c4.19 1.336 4.92 2.771 4.92 7.174 0 30.43-.73 60.811-3.44 91.191-1.72 19.347-2.66 38.792-4.43 58.188a750.436 750.436 0 0 1-9.3 79.811c.04.732.14 1.46.29 2.177z"
    />
  </g>
  <path
    d="M3921 273.312c-27.66 0-57.67 15.353-81.21 52.628-35.92 54.99-21.78 140.759 18.37 178.034 20.6 18.895 40.03 23.656 58.28 23.656a173.687 173.687 0 0 0 31.18-3.69c20.61-4.761 10.03-18.933.59-18.933h-2.35a33.862 33.862 0 0 1-11.75 1.771c-11.02 0-25.71-4.723-39.45-30.779 11.02-2.952 22.96.627 42.97-8.857 33.54-15.981 52.96-37.275 59.43-73.332 12.23-73.184-29.57-120.498-76.06-120.498zm-24.13 166.076c-3.96-.103-7.9-.497-11.79-1.181-14.11-42.589-18.81-86.359 21.19-120.054 1.01-.069 2.01-.268 2.97-.591 17.04 0 34.12 27.2 34.12 60.305 0 47.423-23.54 61.632-46.49 61.632v-.111z"
    fill="url(#a)"
  />
  <path
    d="M3801.52 107.052a18.642 18.642 0 0 0-8.22-1.771c-4.9.122-9.64 1.773-13.56 4.723-50.02 40.228-64.75 173.9-69.45 234.241-12.37 150.797 33.57 183.348 63.58 183.348 17.08 0 28.83-10.666 22.36-15.98-75.95-57.388 72.98-372.01 5.29-404.561z"
    fill="url(#b)"
  />
  <path
    d="M3661.04 371.445c-1.17-4.724-5.91-7.086-13.55-7.086-9.99 0-24.13 7.086-31.77 24.247-10.61 21.885-15.9 51.447-33.05 69.789-5.29 5.314-9.41 8.267-13.56 8.267-27.07 0-30-110.717 15.32-149.026 8.85-7.122 17.08-10.665 25.3-10.665 25.31 0 38.86 33.731 56.53 33.731 2.35-.09 4.66-.664 6.78-1.686a17.336 17.336 0 0 0 5.56-4.255c41.79-41.962-34.71-69.789-72.39-69.789-2.37-.22-4.76-.02-7.05.59-36.64 5.394-69.87 24.527-93.04 53.551-9.69-41.298-48.48-66.431-91.81-66.431-75.92 0-138.91 70.379-138.91 144.892 0 72.483 69.42 124.151 122.38 124.151a58.988 58.988 0 0 0 28.28-5.905 17.14 17.14 0 0 0 6.46-8.857c1.77-4.17 0-8.304-14.69-8.304-45.32 0-69.45-49.084-69.45-101.122 0-41.408 22.95-112.378 74.15-114.149 29.38 0 51.83 28.38 53.59 57.942 0 31.96-27.07 61.522-49.44 61.522-11.02 0-19.43-7.677-21.78-26.609a15.731 15.731 0 0 0-4.15-1.772c-1.86.215-3.66.818-5.29 1.772-4.11 27.79 14.7 41.408 37.69 41.408a74.46 74.46 0 0 0 35.22-9.595c-6.1 54.768 18.36 104.222 77.79 104.222 33.53 0 55.31-11.81 71.8-41.999 12.93 46.132 36.47 59.049 55.31 59.049 18.37 0 31.77-11.847 27.07-16.571-47.12-49.047-31.22-120.608-39.3-141.312z"
    fill="url(#c)"
  />
  <path
    d="M3280.65 271.541c-8.22-17.161-27.06-22.476-42.97-22.476a41.81 41.81 0 0 0-19.98 3.691c-33.05 18.933-22.36 59.751 7.64 68.017 1.6.947 3.45 1.36 5.29 1.181h3.67c28.14-.147 57.56-27.347 46.35-50.413z"
    fill="url(#d)"
  />
  <path
    d="M3246.53 373.253c-1.76-27.199-13.55-39.009-28.24-39.009-24.13 0-50.65 33.695-43.56 102.893 5.88 55.58 40.4 72.151 64.75 72.151 18.37 0 31.18-8.267 23.54-17.752-26.51-32.551-14.14-79.827-16.49-118.283z"
    fill="url(#e)"
  />
  <path
    d="M3087.61 285.528c-63.54 0-85.32 104.112-107.09 179.805 1.76-30.152 15.86-130.72 31.76-192.795 2.36-8.895-4.11-11.847-12.92-11.847-71.22 0-87.12 144.301-87.12 194.604 0 70.97 17.67 132.455 50.61 132.455a33.54 33.54 0 0 0 18.36-5.905c14.11-10.629 24.72-56.761 35.89-108.835 15.9-72.741 32.39-156.149 57.69-156.149 20.02 0 18.37 39.047 16.5 52.075-6.51 83.96-69.46 102.893-45.91 109.425a55.384 55.384 0 0 0 17.63 2.362c53.58 0 95.49-64.474 95.49-118.91-.22-40.634-27.33-76.285-70.89-76.285z"
    fill="url(#f)"
  />
  <path
    d="M2832.8 273.866c2.72-2.214 3.38-4.908-.29-6.68 5.43-4.798 8.92-12.954 9.84-26.461 2.94-49.085-37.68-79.237-83.01-79.237-39.44 0-83 21.885-108.31 72.741-37.64 78.056-44.73 221.066-47.08 221.066v-.591c-.59 0-.59-.59-.59-1.181-9.4-82.779-9.99-134.853-1.17-167.958-4.12-5.314-11.02-7.676-21.19-7.676a35.14 35.14 0 0 0-21.78 7.639c-54.73 45.542-14.7 188.663 1.17 222.985 4.15 8.857 14.14 12.991 30.04 12.991 4.71 0 9.41-.591 15.87-1.181 29.38-4.724 30.63-92.855 41.8-136.035 26.48-99.35 67.69-115.921 108.31-115.921 3.15 0 6.28 0 9.36.332-49.25 18.195-86.6 70.638-86.6 131.569 0 77.503 45.91 130.13 103.02 130.13 78.26 0 109.45-86.359 111.21-139.578.04-46.575-17.63-93.888-60.6-116.954zm-31.18 198.701c-22.37 0-50.61-30.152-50.61-72.151 0-35.466 28.83-81.599 57.11-102.303 24.13 16.534 45.91 57.352 45.91 88.094-.04 37.866-31.26 86.36-52.41 86.36z"
    fill="url(#g)"
  />
  <path
    d="M2668.59 98.785c24.13 0 40.03 7.086 37.68 30.152 0 17.161 14.14 20.114 28.25 20.114 51.78 0 56.52-70.38-9.41-91.084-11.01-4.133-22.36-4.724-35.92-4.724-94.17 0-249.56 76.284-327.24 83.407-21.78-2.989-38.27-38.456-35.33-60.34 7.68-59.751 37.68-62.113 15.9-73.332a61.26 61.26 0 0 0-17.66-2.953c-31.77 0-74.15 21.885-93 73.812-7.64 27.199 4.71 68.017 42.98 86.95a166.644 166.644 0 0 0 72.38 15.352c37.69 0 67.11-10.038 81.83-10.038h2.94c-24.13 54.399-24.13 121.789-22.37 263.766 0 29.524 11.76 85.178 41.21 92.855a141.823 141.823 0 0 0 35.3 4.76c15.9 0 30.04-3.69 30.04-15.98 2.94-78.683-32.39-176.262 2.35-372.748 9.4-2.694 97.7-39.969 150.07-39.969z"
    fill="url(#h)"
  />
  <path
    d="M2159.55 268.736c6.61-4.465 11.02-12.88 11.82-28.011 2.98-49.085-37.64-79.237-82.96-79.237-38.09 0-79.96 20.483-105.6 67.685-3.67-42.22-41.13-67.685-82.74-67.685-39.45 0-83.01 21.885-108.31 72.741-37.65 78.056-44.74 221.066-47.09 221.066v-.59c-.58 0-.58-.591-.58-1.181-9.41-82.78-9.99-134.854-1.18-167.959-4.11-5.314-11.02-7.676-21.19-7.676a35.083 35.083 0 0 0-21.93 7.639 68.682 68.682 0 0 0-19.94 29.931c-11.5-37.718-41.21-60.046-73.12-60.046-27.66 0-57.7 15.39-81.25 52.628-35.88 55.026-21.77 140.759 18.37 178.033 20.6 18.933 40.03 23.657 58.28 23.657a173.707 173.707 0 0 0 31.19-3.691c20.6-4.723 9.99-18.932.58-18.932h-2.35a33.956 33.956 0 0 1-11.79 1.771c-11.01 0-25.89-4.724-39.4-30.742 11.01-2.953 22.95.59 42.97-8.895 24.16-11.477 40.95-25.834 50.9-46.39 5.33 45.136 19.03 88.574 26.85 105.514 4.11 8.857 14.14 12.99 30 12.99 4.74 0 9.44-.59 15.91-1.181 29.38-4.724 30.59-92.855 41.79-136.034 26.48-99.351 67.69-115.922 108.31-115.922 20.61 0 39.45 4.761 55.31 4.761 4.48.11 8.95-.513 13.23-1.845-25.16 79.163-30.63 183.975-32.65 183.975v-.59c-.59 0-.59-.591-.59-1.181-9.37-82.484-9.96-134.595-1.21-167.811-4.12-5.314-11.02-7.676-21.2-7.676a35.1 35.1 0 0 0-21.78 7.676c-54.72 45.542-14.69 188.663 1.18 222.985 4.11 8.858 14.14 12.991 30.01 12.991 4.73 0 9.44-.59 15.9-1.181 29.38-4.724 30.59-92.855 41.8-136.035 24.24-90.973 60.85-112.526 98.02-115.515a124.168 124.168 0 0 0-37.42 39.415c-35.92 55.027-21.78 140.759 18.36 178.034 20.57 18.933 40 23.657 58.25 23.657 10.48-.284 20.92-1.52 31.18-3.691 20.6-4.724 10.03-18.933.62-18.933h-2.38a33.918 33.918 0 0 1-11.76 1.772c-11.01 0-25.7-4.724-39.44-30.743 11.2-2.952 22.95.591 42.97-8.894 33.57-15.943 52.96-37.238 59.46-73.332 8.38-50.302-8.74-88.426-35.4-107.322zm-576.62 153.012c-3.96-.101-7.9-.496-11.79-1.181-14.11-42.59-18.84-86.36 21.19-120.055 1-.072 1.99-.271 2.94-.59 17.07 0 34.15 27.199 34.15 60.304-.18 47.35-23.72 61.522-46.68 61.522h.19zm512.01 0a79.292 79.292 0 0 1-11.75-1.181c-14.14-42.59-18.84-86.36 21.19-120.055 1-.072 1.99-.271 2.94-.59 17.08 0 34.12 27.199 34.12 60.304-.18 47.35-23.73 61.522-46.68 61.522h.18z"
    fill="url(#i)"
  />
  <path
    d="M1645.14 98.785c24.13 0 40 7.086 37.65 30.152 0 17.161 14.14 20.113 28.28 20.113 51.78 0 56.49-70.379-9.44-91.083-11.02-4.133-22.37-4.724-35.88-4.724-94.21 0-249.75 76.284-327.28 83.407-21.78-2.989-38.24-38.456-35.3-60.34 7.64-59.751 37.65-62.113 15.87-73.333a61.267 61.267 0 0 0-17.63-2.952c-31.81 0-74.19 21.885-92.99 73.811-7.68 27.2 4.7 68.018 42.93 86.95a166.935 166.935 0 0 0 72.43 15.353c37.64 0 67.1-10.038 81.79-10.038h2.94c-24.13 54.399-24.13 121.789-22.37 263.766 0 29.524 11.79 85.178 41.21 92.855a142.013 142.013 0 0 0 35.33 4.76c15.87 0 30.01-3.69 30.01-15.98 2.93-78.683-32.36-176.262 2.35-372.748 9.44-2.694 97.69-39.97 150.1-39.97z"
    fill="url(#j)"
  />
  <g>
    <path
      d="m922.877 120.628-38.22 17.911a28.158 28.158 0 0 0-14.21 15.281 28.32 28.32 0 0 0 .169 20.908c40.569 102.475 41.87 216.419 3.651 319.802-38.219 103.383-113.244 188.861-210.568 239.908-97.324 51.047-210.035 64.037-316.341 36.458-106.306-27.579-198.656-93.767-259.196-185.768a28.082 28.082 0 0 0-16.99-12.005 27.975 27.975 0 0 0-20.555 3.007l-36.563 21.183a28.124 28.124 0 0 0-8.452 7.53A28.26 28.26 0 0 0 .79 615.108a28.328 28.328 0 0 0 3.688 21.92C149.634 860.11 439.751 947.888 687.1 831.904c262.203-122.866 380.511-429.693 273.773-696.101a28.23 28.23 0 0 0-6.239-9.548 28.08 28.08 0 0 0-9.496-6.281 27.986 27.986 0 0 0-11.197-1.984 27.985 27.985 0 0 0-11.063 2.638z"
      fill="#78C45B"
    />
    <path
      d="M748.147 201.749 531.044 303.433a28.13 28.13 0 0 0-12.456 11.442 28.317 28.317 0 0 0-3.675 16.548 28.28 28.28 0 0 0 6.434 15.674 28.075 28.075 0 0 0 14.218 9.138l221.849 59.684a55.928 55.928 0 0 0 25.489.831 56.05 56.05 0 0 0 23.227-10.576 56.365 56.365 0 0 0 16.177-19.803 56.618 56.618 0 0 0 5.79-24.946V252.887a56.604 56.604 0 0 0-6.918-27.157 56.308 56.308 0 0 0-19.078-20.46 56.003 56.003 0 0 0-26.527-8.711 55.958 55.958 0 0 0-27.427 5.19zM606.782 351.44c-14.687 1.297-57.344-6.995-58.608-21.719-1.264-14.724 39.315-30.378 53.946-31.647a26.607 26.607 0 0 1 19.019 6.457 26.837 26.837 0 0 1 9.15 17.949 26.876 26.876 0 0 1-5.899 19.274 26.65 26.65 0 0 1-17.608 9.686z"
      fill="#EB3B98"
    />
    <path
      d="m755.505 447.99-225.107-82.306a27.967 27.967 0 0 0-16.876-.742 28.063 28.063 0 0 0-14.247 9.117 28.31 28.31 0 0 0-2.8 32.242l114.912 199.672a56.338 56.338 0 0 0 17.437 18.694 56.03 56.03 0 0 0 23.87 9.021 55.928 55.928 0 0 0 25.381-2.512 56.128 56.128 0 0 0 21.659-13.526l76.271-76.749a56.462 56.462 0 0 0 14.213-24.105 56.643 56.643 0 0 0 .916-28 56.508 56.508 0 0 0-12.607-24.99 56.146 56.146 0 0 0-23.022-15.816zm-168.493-4.006a26.637 26.637 0 0 1-18.021 9.394 26.594 26.594 0 0 1-19.384-6.065c-11.233-9.506-35.609-45.666-26.145-57.005 9.464-11.339 49.144 6.431 60.433 15.936a26.757 26.757 0 0 1 6.484 8.172 26.883 26.883 0 0 1 1.703 20.427 26.82 26.82 0 0 1-5.042 9.141h-.028z"
      fill="#FACC15"
    />
    <path
      d="M588.528 627.324 487.292 409.262a28.167 28.167 0 0 0-11.432-12.488 27.983 27.983 0 0 0-32.088 2.875 28.223 28.223 0 0 0-9.05 14.324L375.3 636.661a56.637 56.637 0 0 0-.827 25.601 56.52 56.52 0 0 0 10.53 23.33 56.213 56.213 0 0 0 19.715 16.248 55.972 55.972 0 0 0 24.837 5.815h108.06a55.963 55.963 0 0 0 27.049-6.947 56.27 56.27 0 0 0 20.377-19.171 56.58 56.58 0 0 0 8.668-26.657 56.623 56.623 0 0 0-5.181-27.556zM468.392 506.856a26.537 26.537 0 0 1-10.346-1.13 26.632 26.632 0 0 1-9.126-5.024 26.76 26.76 0 0 1-6.515-8.152 26.86 26.86 0 0 1-2.909-10.036c-1.292-14.752 6.964-57.597 21.623-58.866 14.659-1.27 30.245 39.488 31.508 54.184a26.867 26.867 0 0 1-6.136 19.55 26.64 26.64 0 0 1-18.099 9.474z"
      fill="#F04A4E"
    />
    <path
      d="M384.876 371.663 186.083 486.999a56.259 56.259 0 0 0-18.612 17.514 56.56 56.56 0 0 0-8.982 23.975 56.641 56.641 0 0 0 2.501 25.493 56.431 56.431 0 0 0 13.467 21.754l76.411 76.749a56.121 56.121 0 0 0 23.999 14.277 55.936 55.936 0 0 0 27.877.92 56.067 56.067 0 0 0 24.88-12.664 56.425 56.425 0 0 0 15.747-23.123l81.944-226.101a28.321 28.321 0 0 0 .777-16.975 28.217 28.217 0 0 0-9.072-14.343 27.983 27.983 0 0 0-32.144-2.812zm-5.616 87.665a26.646 26.646 0 0 1-18.111 9.477 26.604 26.604 0 0 1-19.477-6.162 26.84 26.84 0 0 1-9.435-18.191 26.88 26.88 0 0 1 6.135-19.563c9.464-11.283 45.465-35.766 56.755-26.26 11.289 9.505-6.347 49.417-15.811 60.756l-.056-.057z"
      fill="#F9A140"
    />
    <g fill="#78C45B">
      <path
        d="M590.241 58.942a16.275 16.275 0 0 0-6.428-5.41 16.202 16.202 0 0 0-8.259-1.473c-24.178 2.088-90.536 14.978-127.043 93.419-32.604 70.262-9.661 125.264 5.616 150.283a28.131 28.131 0 0 0 12.175 11.003 27.97 27.97 0 0 0 16.216 2.31c28.841-4.428 85.539-22.114 118.17-92.375 36.338-78.385 3.51-137.816-10.447-157.757zM114.052 164.405a25.58 25.58 0 0 0-8.182 9.909 25.717 25.717 0 0 0-2.349 12.656c2.275 33.367 17.776 118.466 113.93 163.934 96.153 45.468 171.301 2.821 198.4-16.557a25.65 25.65 0 0 0 8.191-9.908 25.778 25.778 0 0 0 2.368-12.657c-2.303-33.368-17.804-118.466-113.957-163.963-96.154-45.496-171.358-2.961-198.401 16.586z"
      />
    </g>
  </g>
  <defs>
    <linearGradient id="a" x1="3909.19" y1="273.312" x2="3909.19" y2="527.63" gradientUnits="userSpaceOnUse">
      <stop stop-color="#FACC15" />
      <stop offset=".347" stop-color="#F9A140" />
      <stop offset="1" stop-color="#78C45B" />
    </linearGradient>
    <linearGradient id="b" x1="3763.95" y1="105.278" x2="3763.95" y2="527.593" gradientUnits="userSpaceOnUse">
      <stop stop-color="#FACC15" />
      <stop offset=".347" stop-color="#F9A140" />
      <stop offset="1" stop-color="#78C45B" />
    </linearGradient>
    <linearGradient id="c" x1="3488.34" y1="252.682" x2="3488.34" y2="529.328" gradientUnits="userSpaceOnUse">
      <stop stop-color="#FACC15" />
      <stop offset=".347" stop-color="#F9A140" />
      <stop offset="1" stop-color="#78C45B" />
    </linearGradient>
    <linearGradient id="d" x1="3240.24" y1="248.983" x2="3240.24" y2="321.995" gradientUnits="userSpaceOnUse">
      <stop stop-color="#FACC15" />
      <stop offset="1" stop-color="#F9A140" />
    </linearGradient>
    <linearGradient id="e" x1="3219.42" y1="334.244" x2="3219.42" y2="509.288" gradientUnits="userSpaceOnUse">
      <stop stop-color="#FACC15" />
      <stop offset=".347" stop-color="#F9A140" />
      <stop offset="1" stop-color="#78C45B" />
    </linearGradient>
    <linearGradient id="f" x1="3035.37" y1="260.691" x2="3035.37" y2="587.75" gradientUnits="userSpaceOnUse">
      <stop stop-color="#FACC15" />
      <stop offset=".347" stop-color="#F9A140" />
      <stop offset="1" stop-color="#78C45B" />
    </linearGradient>
    <linearGradient id="g" x1="2712.38" y1="161.488" x2="2712.38" y2="530.398" gradientUnits="userSpaceOnUse">
      <stop stop-color="#FACC15" />
      <stop offset=".347" stop-color="#F9A140" />
      <stop offset="1" stop-color="#78C45B" />
    </linearGradient>
    <linearGradient id="h" x1="2501.84" y1=".025" x2="2501.84" y2="527.482" gradientUnits="userSpaceOnUse">
      <stop stop-color="#FACC15" />
      <stop offset=".347" stop-color="#F9A140" />
      <stop offset="1" stop-color="#78C45B" />
    </linearGradient>
    <linearGradient id="i" x1="1850.99" y1="161.488" x2="1850.99" y2="521.504" gradientUnits="userSpaceOnUse">
      <stop stop-color="#FACC15" />
      <stop offset=".347" stop-color="#F9A140" />
      <stop offset="1" stop-color="#78C45B" />
    </linearGradient>
    <linearGradient id="j" x1="1478.38" y1=".025" x2="1478.38" y2="527.482" gradientUnits="userSpaceOnUse">
      <stop stop-color="#FACC15" />
      <stop offset=".347" stop-color="#F9A140" />
      <stop offset="1" stop-color="#78C45B" />
    </linearGradient>
  </defs>
</svg>
