<svg width="100%" height="100%" viewBox="0 0 1000 1000" fill="none" xmlns="http://www.w3.org/2000/svg">
<g id="symbol">
<path id="peel" d="M922.877 152.491L884.657 170.366C878.146 173.437 873.06 178.895 870.447 185.616C867.834 192.336 867.895 199.805 870.616 206.482C911.185 308.753 912.486 422.469 874.267 525.645C836.048 628.821 761.023 714.128 663.699 765.073C566.375 816.018 453.664 828.982 347.358 801.458C241.052 773.935 148.702 707.879 88.1623 616.062C84.2349 610.038 78.1553 605.751 71.1725 604.081C64.1896 602.41 56.8339 603.485 50.6165 607.082L14.0535 628.222C10.7577 630.128 7.88243 632.684 5.60226 635.737C3.3221 638.79 1.68456 642.276 0.789031 645.982C-0.106493 649.689 -0.241326 653.539 0.392716 657.299C1.02676 661.06 2.41645 664.652 4.47745 667.857C149.634 890.494 439.751 978.096 687.099 862.344C949.302 739.724 1067.61 433.51 960.872 167.636C959.462 164.066 957.339 160.823 954.633 158.107C951.927 155.39 948.696 153.257 945.137 151.838C941.578 150.42 937.768 149.746 933.94 149.858C930.111 149.97 926.347 150.866 922.877 152.491Z" fill="#78C45B"/>
<g id="slices">
<path id="slice-pink" d="M748.147 233.45L531.044 334.93C525.822 337.366 521.474 341.352 518.588 346.349C515.703 351.346 514.42 357.111 514.913 362.864C515.407 368.616 517.653 374.077 521.347 378.507C525.041 382.936 530.005 386.12 535.565 387.626L757.414 447.191C765.735 449.423 774.456 449.707 782.903 448.02C791.351 446.334 799.298 442.722 806.13 437.465C812.963 432.208 818.498 425.446 822.307 417.702C826.116 409.958 828.097 401.44 828.097 392.806V284.485C828.103 275.011 825.723 265.689 821.179 257.382C816.635 249.075 810.073 242.052 802.101 236.963C794.129 231.874 785.005 228.884 775.574 228.27C766.142 227.656 756.709 229.438 748.147 233.45ZM606.782 382.841C592.095 384.136 549.438 375.86 548.174 361.165C546.91 346.471 587.489 330.848 602.12 329.581C609.055 329.165 615.878 331.478 621.138 336.026C626.399 340.575 629.682 347.001 630.289 353.939C630.896 360.876 628.78 367.777 624.39 373.175C620 378.572 613.683 382.04 606.782 382.841Z" fill="#EB3B98"/>
<path id="slice-yellow" d="M755.505 479.197L530.398 397.056C524.982 395.079 519.09 394.821 513.522 396.316C507.953 397.811 502.979 400.988 499.275 405.415C495.57 409.842 493.314 415.305 492.813 421.061C492.312 426.818 493.591 432.589 496.475 437.592L611.387 636.864C615.696 644.341 621.662 650.725 628.824 655.521C635.987 660.317 644.154 663.398 652.694 664.524C661.235 665.651 669.919 664.793 678.075 662.018C686.232 659.242 693.643 654.624 699.734 648.518L776.005 571.923C782.685 565.23 787.574 556.956 790.218 547.866C792.863 538.777 793.178 529.166 791.134 519.922C789.091 510.678 784.754 502.101 778.527 494.982C772.299 487.864 764.381 482.435 755.505 479.197ZM587.012 475.2C582.473 480.584 575.996 483.953 568.991 484.575C561.986 485.197 555.02 483.022 549.607 478.522C538.374 469.035 513.998 432.947 523.462 421.631C532.926 410.315 572.606 428.049 583.895 437.536C586.57 439.801 588.773 442.572 590.379 445.692C591.985 448.811 592.962 452.217 593.254 455.715C593.546 459.212 593.148 462.734 592.082 466.077C591.015 469.421 589.302 472.521 587.04 475.2H587.012Z" fill="#FDE047"/>
<path id="slice-orange" d="M588.528 658.174L487.292 440.548C484.848 435.316 480.857 430.964 475.861 428.084C470.865 425.204 465.105 423.934 459.365 424.448C453.624 424.961 448.18 427.232 443.772 430.954C439.363 434.675 436.204 439.666 434.722 445.249L375.3 667.491C373.074 675.832 372.791 684.574 374.473 693.042C376.156 701.509 379.758 709.476 385.003 716.325C390.247 723.174 396.993 728.722 404.718 732.54C412.444 736.358 420.942 738.344 429.555 738.344H537.615C547.07 738.352 556.374 735.967 564.664 731.411C572.955 726.854 579.964 720.273 585.041 712.278C590.118 704.283 593.1 695.132 593.71 685.674C594.319 676.216 592.537 666.757 588.528 658.174ZM468.393 537.946C464.903 538.255 461.388 537.872 458.047 536.818C454.705 535.764 451.604 534.06 448.92 531.804C446.237 529.548 444.023 526.783 442.406 523.669C440.789 520.554 439.8 517.151 439.496 513.653C438.204 498.93 446.46 456.171 461.119 454.904C475.778 453.637 491.364 494.314 492.627 508.98C493.243 516.042 491.036 523.06 486.491 528.491C481.947 533.923 475.437 537.324 468.393 537.946Z" fill="#F9A140"/>
<path id="slice-red" d="M384.876 403.024L186.083 518.129C178.624 522.447 172.256 528.428 167.471 535.607C162.686 542.787 159.613 550.974 158.489 559.535C157.365 568.096 158.221 576.801 160.99 584.977C163.758 593.154 168.366 600.582 174.457 606.688L250.868 683.283C257.546 689.98 265.8 694.88 274.867 697.531C283.935 700.182 293.523 700.498 302.744 698.449C311.966 696.401 320.523 692.054 327.624 685.811C334.725 679.568 340.141 671.631 343.371 662.734L425.315 437.085C427.305 431.653 427.576 425.737 426.092 420.144C424.608 414.551 421.44 409.553 417.02 405.83C412.599 402.107 407.142 399.84 401.39 399.338C395.638 398.836 389.872 400.123 384.876 403.024ZM379.26 490.514C374.713 495.949 368.199 499.351 361.149 499.971C354.1 500.591 347.094 498.379 341.672 493.821C336.25 489.263 332.856 482.733 332.237 475.667C331.619 468.601 333.825 461.578 338.372 456.143C347.836 444.883 383.837 420.449 395.126 429.935C406.415 439.422 388.78 479.254 379.316 490.57L379.26 490.514Z" fill="#F04A4E"/>
</g>
<g id="leaves">
<path id="leaf-right" d="M590.241 90.9276C588.606 88.5952 586.39 86.7335 583.812 85.5283C581.235 84.3231 578.388 83.8165 575.554 84.059C551.376 86.1421 485.018 99.0066 448.511 177.291C415.907 247.412 438.85 302.304 454.127 327.273C457.007 332.065 461.245 335.888 466.302 338.255C471.359 340.621 477.004 341.424 482.518 340.56C511.359 336.14 568.056 318.49 600.688 248.369C637.026 170.141 604.198 110.829 590.241 90.9276Z" fill="#78C45B"/>
<path id="leaf-left" d="M114.052 196.18C110.529 198.724 107.713 202.128 105.87 206.069C104.027 210.01 103.219 214.358 103.521 218.699C105.796 252.001 121.297 336.929 217.451 382.306C313.604 427.684 388.752 385.121 415.851 365.782C419.375 363.237 422.194 359.834 424.042 355.894C425.889 351.953 426.704 347.606 426.41 343.262C424.107 309.961 408.606 225.033 312.453 179.628C216.299 134.222 141.095 176.672 114.052 196.18Z" fill="#78C45B"/>
</g>
</g>
</svg>
