<svg xmlns="http://www.w3.org/2000/svg" viewBox="0 0 1000 1000">
  <path
    d="m922.877 150.628-38.22 17.911a28.158 28.158 0 0 0-14.21 15.281 28.32 28.32 0 0 0 .169 20.908c40.569 102.475 41.87 216.419 3.651 319.802-38.219 103.383-113.244 188.861-210.568 239.908-97.324 51.047-210.035 64.037-316.341 36.458-106.306-27.579-198.656-93.767-259.196-185.768a28.082 28.082 0 0 0-16.99-12.005 27.975 27.975 0 0 0-20.555 3.007l-36.563 21.183a28.124 28.124 0 0 0-8.452 7.53A28.26 28.26 0 0 0 .79 645.108a28.328 28.328 0 0 0 3.688 21.92C149.634 890.11 439.751 977.888 687.1 861.904c262.203-122.866 380.511-429.693 273.773-696.101a28.23 28.23 0 0 0-6.239-9.548 28.08 28.08 0 0 0-9.496-6.281 27.986 27.986 0 0 0-11.197-1.984 28.002 28.002 0 0 0-11.063 2.638z"
    fill="#78C45B"
  />
  <path
    d="M748.147 231.749 531.044 333.433a28.13 28.13 0 0 0-12.456 11.442 28.317 28.317 0 0 0-3.675 16.548 28.28 28.28 0 0 0 6.434 15.674 28.075 28.075 0 0 0 14.218 9.138l221.849 59.684a55.914 55.914 0 0 0 25.489.831 56.05 56.05 0 0 0 23.227-10.576 56.365 56.365 0 0 0 16.177-19.803 56.615 56.615 0 0 0 5.79-24.946V282.887a56.607 56.607 0 0 0-6.918-27.157 56.308 56.308 0 0 0-19.078-20.46 55.946 55.946 0 0 0-53.954-3.521zM606.782 381.44c-14.687 1.297-57.344-6.995-58.608-21.719-1.264-14.724 39.315-30.378 53.946-31.647a26.603 26.603 0 0 1 19.019 6.458 26.833 26.833 0 0 1 9.15 17.948 26.876 26.876 0 0 1-5.899 19.274 26.65 26.65 0 0 1-17.608 9.686z"
    fill="#EB3B98"
  />
  <path
    d="m755.505 477.99-225.107-82.306a27.967 27.967 0 0 0-16.876-.742 28.063 28.063 0 0 0-14.247 9.117 28.31 28.31 0 0 0-2.8 32.242l114.912 199.672a56.328 56.328 0 0 0 17.437 18.694 56.017 56.017 0 0 0 23.87 9.021 55.927 55.927 0 0 0 25.381-2.511 56.13 56.13 0 0 0 21.659-13.527l76.271-76.749a56.462 56.462 0 0 0 14.213-24.105 56.642 56.642 0 0 0 .916-28 56.508 56.508 0 0 0-12.607-24.99 56.155 56.155 0 0 0-23.022-15.816zm-168.493-4.006a26.637 26.637 0 0 1-18.021 9.394 26.594 26.594 0 0 1-19.384-6.065c-11.233-9.506-35.609-45.666-26.145-57.005 9.464-11.339 49.144 6.431 60.433 15.936a26.749 26.749 0 0 1 6.484 8.173 26.883 26.883 0 0 1 1.703 20.426 26.81 26.81 0 0 1-5.042 9.141h-.028z"
    fill="#FACC15"
  />
  <path
    d="M588.528 657.324 487.292 439.263a28.164 28.164 0 0 0-11.432-12.489 27.983 27.983 0 0 0-32.088 2.875 28.223 28.223 0 0 0-9.05 14.324L375.3 666.661a56.637 56.637 0 0 0-.827 25.601 56.52 56.52 0 0 0 10.53 23.33 56.213 56.213 0 0 0 19.715 16.248 55.973 55.973 0 0 0 24.837 5.816h108.06a55.975 55.975 0 0 0 27.049-6.948 56.27 56.27 0 0 0 20.377-19.171 56.58 56.58 0 0 0 8.668-26.657 56.623 56.623 0 0 0-5.181-27.556zM468.392 536.856a26.537 26.537 0 0 1-10.346-1.13 26.632 26.632 0 0 1-9.126-5.024 26.76 26.76 0 0 1-6.515-8.152 26.86 26.86 0 0 1-2.909-10.036c-1.292-14.752 6.964-57.597 21.623-58.866 14.659-1.27 30.245 39.488 31.508 54.184a26.867 26.867 0 0 1-6.136 19.55 26.64 26.64 0 0 1-18.099 9.474z"
    fill="#F04A4E"
  />
  <path
    d="M384.876 401.664 186.083 516.999a56.259 56.259 0 0 0-18.612 17.514 56.56 56.56 0 0 0-8.982 23.975 56.641 56.641 0 0 0 2.501 25.493 56.431 56.431 0 0 0 13.467 21.754l76.411 76.75a56.13 56.13 0 0 0 23.999 14.276 55.936 55.936 0 0 0 27.877.92 56.067 56.067 0 0 0 24.88-12.664 56.425 56.425 0 0 0 15.747-23.123l81.944-226.101a28.32 28.32 0 0 0 .777-16.975 28.221 28.221 0 0 0-9.072-14.343 27.983 27.983 0 0 0-32.144-2.811zm-5.616 87.664a26.646 26.646 0 0 1-18.111 9.477 26.604 26.604 0 0 1-19.477-6.162 26.84 26.84 0 0 1-9.435-18.191 26.88 26.88 0 0 1 6.135-19.563c9.464-11.283 45.465-35.766 56.755-26.26 11.289 9.505-6.347 49.417-15.811 60.756l-.056-.057z"
    fill="#F9A140"
  />
  <g fill="#78C45B">
    <path
      d="M590.241 88.942a16.276 16.276 0 0 0-6.428-5.41 16.202 16.202 0 0 0-8.259-1.473c-24.178 2.088-90.536 14.978-127.043 93.419-32.604 70.262-9.661 125.264 5.616 150.283a28.131 28.131 0 0 0 12.175 11.003 27.962 27.962 0 0 0 16.216 2.31c28.841-4.428 85.539-22.114 118.17-92.375 36.338-78.385 3.51-137.816-10.447-157.757zM114.052 194.405a25.58 25.58 0 0 0-8.182 9.909 25.717 25.717 0 0 0-2.349 12.656c2.275 33.368 17.776 118.466 113.93 163.934 96.153 45.468 171.301 2.821 198.4-16.557a25.65 25.65 0 0 0 8.191-9.908 25.773 25.773 0 0 0 2.368-12.657c-2.303-33.368-17.804-118.466-113.957-163.963-96.154-45.496-171.358-2.961-198.401 16.586z"
    />
  </g>
</svg>
